%TF.GenerationSoftware,KiCad,Pcbnew,7.0.1*%
%TF.CreationDate,2023-07-17T09:13:53+02:00*%
%TF.ProjectId,gemma20Pico,67656d6d-6132-4305-9069-636f2e6b6963,rev?*%
%TF.SameCoordinates,Original*%
%TF.FileFunction,Copper,L2,Bot*%
%TF.FilePolarity,Positive*%
%FSLAX46Y46*%
G04 Gerber Fmt 4.6, Leading zero omitted, Abs format (unit mm)*
G04 Created by KiCad (PCBNEW 7.0.1) date 2023-07-17 09:13:53*
%MOMM*%
%LPD*%
G01*
G04 APERTURE LIST*
%TA.AperFunction,ComponentPad*%
%ADD10R,1.700000X1.700000*%
%TD*%
%TA.AperFunction,ComponentPad*%
%ADD11O,1.700000X1.700000*%
%TD*%
%TA.AperFunction,ComponentPad*%
%ADD12O,2.000000X1.200000*%
%TD*%
%TA.AperFunction,ComponentPad*%
%ADD13R,1.600000X1.600000*%
%TD*%
%TA.AperFunction,ComponentPad*%
%ADD14C,1.600000*%
%TD*%
%TA.AperFunction,ComponentPad*%
%ADD15O,1.200000X2.000000*%
%TD*%
%TA.AperFunction,ViaPad*%
%ADD16C,0.800000*%
%TD*%
%TA.AperFunction,Conductor*%
%ADD17C,0.350000*%
%TD*%
%TA.AperFunction,Conductor*%
%ADD18C,1.000000*%
%TD*%
%TA.AperFunction,Conductor*%
%ADD19C,2.500000*%
%TD*%
%TA.AperFunction,Conductor*%
%ADD20C,0.250000*%
%TD*%
G04 APERTURE END LIST*
D10*
%TO.P,J6-ECS1,1,Pin_1*%
%TO.N,/ECS_SIGN*%
X121920000Y-112918000D03*
D11*
%TO.P,J6-ECS1,2,Pin_2*%
%TO.N,+BATT*%
X121920000Y-115458000D03*
%TO.P,J6-ECS1,3,Pin_3*%
%TO.N,GND*%
X121920000Y-117998000D03*
%TD*%
D12*
%TO.P,U2-Motor-Control1,1,IN4*%
%TO.N,/MC_2*%
X132380000Y-107880000D03*
%TO.P,U2-Motor-Control1,2,IN3*%
%TO.N,/MC_1*%
X132380000Y-110420000D03*
%TO.P,U2-Motor-Control1,3,GND*%
%TO.N,GND*%
X132380000Y-112960000D03*
%TO.P,U2-Motor-Control1,4,VCC*%
%TO.N,+BATT*%
X132380000Y-115500000D03*
%TO.P,U2-Motor-Control1,5,IN2*%
%TO.N,/MC_2*%
X132380000Y-118040000D03*
%TO.P,U2-Motor-Control1,6,IN1*%
%TO.N,/MC_1*%
X132380000Y-120580000D03*
%TO.P,U2-Motor-Control1,7,ULT*%
%TO.N,unconnected-(U2-Motor-Control1-ULT-Pad7)*%
X147620000Y-120580000D03*
%TO.P,U2-Motor-Control1,8,OUT4*%
%TO.N,/MO2*%
X147620000Y-118040000D03*
%TO.P,U2-Motor-Control1,9,OUT3*%
%TO.N,/MO1*%
X147620000Y-115500000D03*
%TO.P,U2-Motor-Control1,10,OUT2*%
%TO.N,/MO2*%
X147620000Y-112960000D03*
%TO.P,U2-Motor-Control1,11,OUT1*%
%TO.N,/MO1*%
X147620000Y-110420000D03*
%TO.P,U2-Motor-Control1,12,EEP*%
%TO.N,unconnected-(U2-Motor-Control1-EEP-Pad12)*%
X147620000Y-107880000D03*
%TD*%
D10*
%TO.P,EXT1,1,Pin_1*%
%TO.N,/GP16*%
X144960000Y-83260000D03*
D11*
%TO.P,EXT1,2,Pin_2*%
%TO.N,GND*%
X147500000Y-83260000D03*
%TO.P,EXT1,3,Pin_3*%
%TO.N,/GP17*%
X144960000Y-85800000D03*
%TO.P,EXT1,4,Pin_4*%
%TO.N,GND*%
X147500000Y-85800000D03*
%TO.P,EXT1,5,Pin_5*%
%TO.N,/GP18*%
X144960000Y-88340000D03*
%TO.P,EXT1,6,Pin_6*%
%TO.N,GND*%
X147500000Y-88340000D03*
%TO.P,EXT1,7,Pin_7*%
%TO.N,/GP19*%
X144960000Y-90880000D03*
%TO.P,EXT1,8,Pin_8*%
%TO.N,GND*%
X147500000Y-90880000D03*
%TO.P,EXT1,9,Pin_9*%
%TO.N,/GP20*%
X144960000Y-93420000D03*
%TO.P,EXT1,10,Pin_10*%
%TO.N,GND*%
X147500000Y-93420000D03*
%TO.P,EXT1,11,Pin_11*%
%TO.N,/GP21*%
X144960000Y-95960000D03*
%TO.P,EXT1,12,Pin_12*%
%TO.N,GND*%
X147500000Y-95960000D03*
%TO.P,EXT1,13,Pin_13*%
%TO.N,/GP22*%
X144960000Y-98500000D03*
%TO.P,EXT1,14,Pin_14*%
%TO.N,GND*%
X147500000Y-98500000D03*
%TD*%
D13*
%TO.P,C1,1*%
%TO.N,+BATT*%
X93500000Y-106000000D03*
D14*
%TO.P,C1,2*%
%TO.N,GND*%
X93500000Y-108500000D03*
%TD*%
D10*
%TO.P,J8-Pot1,1,Pin_1*%
%TO.N,/ADC0*%
X110236000Y-113030000D03*
D11*
%TO.P,J8-Pot1,2,Pin_2*%
%TO.N,+3.3V*%
X110236000Y-115570000D03*
%TO.P,J8-Pot1,3,Pin_3*%
%TO.N,GND*%
X110236000Y-118110000D03*
%TD*%
%TO.P,J5-Servo1,3,Pin_3*%
%TO.N,GND*%
X126250000Y-118000000D03*
%TO.P,J5-Servo1,2,Pin_2*%
%TO.N,+BATT*%
X126250000Y-115460000D03*
D10*
%TO.P,J5-Servo1,1,Pin_1*%
%TO.N,/Servo_SIGN*%
X126250000Y-112920000D03*
%TD*%
D11*
%TO.P,J4-BAT1,2,Pin_2*%
%TO.N,GND*%
X127000000Y-109220000D03*
D10*
%TO.P,J4-BAT1,1,Pin_1*%
%TO.N,+BATT*%
X127000000Y-106680000D03*
%TD*%
%TO.P,J7-Pot2,1,Pin_1*%
%TO.N,/ADC1*%
X105500000Y-113030000D03*
D11*
%TO.P,J7-Pot2,2,Pin_2*%
%TO.N,+3.3V*%
X105500000Y-115570000D03*
%TO.P,J7-Pot2,3,Pin_3*%
%TO.N,GND*%
X105500000Y-118110000D03*
%TD*%
D10*
%TO.P,J3-Motor1,1,Pin_1*%
%TO.N,/MO2*%
X144460000Y-103500000D03*
D11*
%TO.P,J3-Motor1,2,Pin_2*%
%TO.N,/MO1*%
X147000000Y-103500000D03*
%TD*%
%TO.P,U1-RPI-Pico1,1,GPIO0*%
%TO.N,unconnected-(U1-RPI-Pico1-GPIO0-Pad1)*%
X92370000Y-101390000D03*
%TO.P,U1-RPI-Pico1,2,GPIO1*%
%TO.N,unconnected-(U1-RPI-Pico1-GPIO1-Pad2)*%
X94910000Y-101390000D03*
D10*
%TO.P,U1-RPI-Pico1,3,GND*%
%TO.N,GND*%
X97450000Y-101390000D03*
D11*
%TO.P,U1-RPI-Pico1,4,GPIO2*%
%TO.N,unconnected-(U1-RPI-Pico1-GPIO2-Pad4)*%
X99990000Y-101390000D03*
%TO.P,U1-RPI-Pico1,5,GPIO3*%
%TO.N,unconnected-(U1-RPI-Pico1-GPIO3-Pad5)*%
X102530000Y-101390000D03*
%TO.P,U1-RPI-Pico1,6,GPIO4*%
%TO.N,unconnected-(U1-RPI-Pico1-GPIO4-Pad6)*%
X105070000Y-101390000D03*
%TO.P,U1-RPI-Pico1,7,GPIO5*%
%TO.N,/INT1*%
X107610000Y-101390000D03*
D10*
%TO.P,U1-RPI-Pico1,8,GND*%
%TO.N,GND*%
X110150000Y-101390000D03*
D11*
%TO.P,U1-RPI-Pico1,9,GPIO6*%
%TO.N,/SDA1*%
X112690000Y-101390000D03*
%TO.P,U1-RPI-Pico1,10,GPIO7*%
%TO.N,/SCL1*%
X115230000Y-101390000D03*
%TO.P,U1-RPI-Pico1,11,GPIO8*%
%TO.N,/SDA0*%
X117770000Y-101390000D03*
%TO.P,U1-RPI-Pico1,12,GPIO9*%
%TO.N,/SCL0*%
X120310000Y-101390000D03*
D10*
%TO.P,U1-RPI-Pico1,13,GND*%
%TO.N,GND*%
X122850000Y-101390000D03*
D11*
%TO.P,U1-RPI-Pico1,14,GPIO10*%
%TO.N,/INT0*%
X125390000Y-101390000D03*
%TO.P,U1-RPI-Pico1,15,GPIO11*%
%TO.N,/ECS_SIGN*%
X127930000Y-101390000D03*
%TO.P,U1-RPI-Pico1,16,GPIO12*%
%TO.N,unconnected-(U1-RPI-Pico1-GPIO12-Pad16)*%
X130470000Y-101390000D03*
%TO.P,U1-RPI-Pico1,17,GPIO13*%
%TO.N,/Servo_SIGN*%
X133010000Y-101390000D03*
D10*
%TO.P,U1-RPI-Pico1,18,GND*%
%TO.N,GND*%
X135550000Y-101390000D03*
D11*
%TO.P,U1-RPI-Pico1,19,GPIO14*%
%TO.N,/MC_2*%
X138090000Y-101390000D03*
%TO.P,U1-RPI-Pico1,20,GPIO15*%
%TO.N,/MC_1*%
X140630000Y-101390000D03*
%TO.P,U1-RPI-Pico1,21,GPIO16*%
%TO.N,/GP16*%
X140630000Y-83610000D03*
%TO.P,U1-RPI-Pico1,22,GPIO17*%
%TO.N,/GP17*%
X138090000Y-83610000D03*
D10*
%TO.P,U1-RPI-Pico1,23,GND*%
%TO.N,GND*%
X135550000Y-83610000D03*
D11*
%TO.P,U1-RPI-Pico1,24,GPIO18*%
%TO.N,/GP18*%
X133010000Y-83610000D03*
%TO.P,U1-RPI-Pico1,25,GPIO19*%
%TO.N,/GP19*%
X130470000Y-83610000D03*
%TO.P,U1-RPI-Pico1,26,GPIO20*%
%TO.N,/GP20*%
X127930000Y-83610000D03*
%TO.P,U1-RPI-Pico1,27,GPIO21*%
%TO.N,/GP21*%
X125390000Y-83610000D03*
D10*
%TO.P,U1-RPI-Pico1,28,GND*%
%TO.N,GND*%
X122850000Y-83610000D03*
D11*
%TO.P,U1-RPI-Pico1,29,GPIO22*%
%TO.N,/GP22*%
X120310000Y-83610000D03*
%TO.P,U1-RPI-Pico1,30,RUN*%
%TO.N,unconnected-(U1-RPI-Pico1-RUN-Pad30)*%
X117770000Y-83610000D03*
%TO.P,U1-RPI-Pico1,31,GPIO26_ADC0*%
%TO.N,/ADC0*%
X115230000Y-83610000D03*
%TO.P,U1-RPI-Pico1,32,GPIO27_ADC1*%
%TO.N,/ADC1*%
X112690000Y-83610000D03*
D10*
%TO.P,U1-RPI-Pico1,33,AGND*%
%TO.N,GND*%
X110150000Y-83610000D03*
D11*
%TO.P,U1-RPI-Pico1,34,GPIO28_ADC2*%
%TO.N,unconnected-(U1-RPI-Pico1-GPIO28_ADC2-Pad34)*%
X107610000Y-83610000D03*
%TO.P,U1-RPI-Pico1,35,ADC_VREF*%
%TO.N,unconnected-(U1-RPI-Pico1-ADC_VREF-Pad35)*%
X105070000Y-83610000D03*
%TO.P,U1-RPI-Pico1,36,3V3*%
%TO.N,+3.3V*%
X102530000Y-83610000D03*
%TO.P,U1-RPI-Pico1,37,3V3_EN*%
%TO.N,unconnected-(U1-RPI-Pico1-3V3_EN-Pad37)*%
X99990000Y-83610000D03*
D10*
%TO.P,U1-RPI-Pico1,38,GND*%
%TO.N,GND*%
X97450000Y-83610000D03*
D11*
%TO.P,U1-RPI-Pico1,39,VSYS*%
%TO.N,unconnected-(U1-RPI-Pico1-VSYS-Pad39)*%
X94910000Y-83610000D03*
%TO.P,U1-RPI-Pico1,40,VBUS*%
%TO.N,+BATT*%
X92370000Y-83610000D03*
%TO.P,U1-RPI-Pico1,41,SWCLK*%
%TO.N,unconnected-(U1-RPI-Pico1-SWCLK-Pad41)*%
X140400000Y-95040000D03*
D10*
%TO.P,U1-RPI-Pico1,42,GND*%
%TO.N,unconnected-(U1-RPI-Pico1-GND-Pad42)*%
X140400000Y-92500000D03*
D11*
%TO.P,U1-RPI-Pico1,43,SWDIO*%
%TO.N,unconnected-(U1-RPI-Pico1-SWDIO-Pad43)*%
X140400000Y-89960000D03*
%TD*%
D15*
%TO.P,J2-Prox0,1,Pin_1*%
%TO.N,/INT1*%
X102660000Y-89500000D03*
%TO.P,J2-Prox0,2,Pin_2*%
%TO.N,/SDA1*%
X105200000Y-89500000D03*
%TO.P,J2-Prox0,3,Pin_3*%
%TO.N,/SCL1*%
X107740000Y-89500000D03*
%TO.P,J2-Prox0,4,Pin_4*%
%TO.N,+3.3V*%
X110280000Y-89500000D03*
%TO.P,J2-Prox0,5,Pin_5*%
%TO.N,GND*%
X112820000Y-89500000D03*
%TO.P,J2-Prox0,6,Pin_6*%
%TO.N,+3.3V*%
X115360000Y-89500000D03*
%TD*%
%TO.P,J1-Prox1,1,Pin_1*%
%TO.N,/INT0*%
X124420000Y-89500000D03*
%TO.P,J1-Prox1,2,Pin_2*%
%TO.N,/SDA0*%
X126960000Y-89500000D03*
%TO.P,J1-Prox1,3,Pin_3*%
%TO.N,/SCL0*%
X129500000Y-89500000D03*
%TO.P,J1-Prox1,4,Pin_4*%
%TO.N,+3.3V*%
X132040000Y-89500000D03*
%TO.P,J1-Prox1,5,Pin_5*%
%TO.N,GND*%
X134580000Y-89500000D03*
%TO.P,J1-Prox1,6,Pin_6*%
%TO.N,+3.3V*%
X137120000Y-89500000D03*
%TD*%
D16*
%TO.N,GND*%
X113000000Y-92000000D03*
X139000000Y-108000000D03*
X103000000Y-97000000D03*
%TO.N,/SDA0*%
X117729000Y-92710000D03*
%TO.N,/SCL0*%
X120269000Y-95123000D03*
%TO.N,GND*%
X96139000Y-114173000D03*
X113500000Y-86000000D03*
X117856000Y-89535000D03*
X133096000Y-94996000D03*
X99949000Y-89662000D03*
X115062000Y-115570000D03*
X139573000Y-114173000D03*
%TO.N,/SDA1*%
X112649000Y-96012000D03*
%TO.N,/SCL1*%
X114500000Y-93500000D03*
%TO.N,/GP22*%
X119000000Y-98500000D03*
%TD*%
D17*
%TO.N,+3.3V*%
X101215000Y-114677000D02*
X102108000Y-115570000D01*
X102108000Y-115570000D02*
X105500000Y-115570000D01*
X101215000Y-84925000D02*
X101215000Y-114677000D01*
X102530000Y-83610000D02*
X101215000Y-84925000D01*
%TO.N,/Servo_SIGN*%
X133010000Y-105490000D02*
X133010000Y-101390000D01*
X130500000Y-106500000D02*
X132000000Y-106500000D01*
X129500000Y-107500000D02*
X130500000Y-106500000D01*
X132000000Y-106500000D02*
X133010000Y-105490000D01*
X129500000Y-112500000D02*
X129500000Y-107500000D01*
X129080000Y-112920000D02*
X129500000Y-112500000D01*
X126250000Y-112920000D02*
X129080000Y-112920000D01*
%TO.N,/ADC0*%
X110236000Y-110363000D02*
X110236000Y-113030000D01*
X110744000Y-109855000D02*
X110236000Y-110363000D01*
X111506000Y-109855000D02*
X110744000Y-109855000D01*
X116500000Y-108000000D02*
X116000000Y-108500000D01*
X116500000Y-87000000D02*
X116500000Y-108000000D01*
X116000000Y-108500000D02*
X112861000Y-108500000D01*
X112861000Y-108500000D02*
X111506000Y-109855000D01*
X115230000Y-85730000D02*
X116500000Y-87000000D01*
X115230000Y-83610000D02*
X115230000Y-85730000D01*
%TO.N,/ADC1*%
X105500000Y-109003000D02*
X105500000Y-113030000D01*
X111500000Y-108000000D02*
X111000000Y-108500000D01*
X111000000Y-108500000D02*
X106003000Y-108500000D01*
X111465000Y-107965000D02*
X111500000Y-108000000D01*
X111465000Y-84835000D02*
X111465000Y-107965000D01*
X112690000Y-83610000D02*
X111465000Y-84835000D01*
X106003000Y-108500000D02*
X105500000Y-109003000D01*
%TO.N,/ECS_SIGN*%
X127337000Y-101390000D02*
X127930000Y-101390000D01*
X126746000Y-101981000D02*
X127337000Y-101390000D01*
X126746000Y-102870000D02*
X126746000Y-101981000D01*
X125857000Y-103759000D02*
X126746000Y-102870000D01*
X124968000Y-103759000D02*
X125857000Y-103759000D01*
X124333000Y-104394000D02*
X124968000Y-103759000D01*
X124333000Y-112522000D02*
X124333000Y-104394000D01*
X123937000Y-112918000D02*
X124333000Y-112522000D01*
X121920000Y-112918000D02*
X123937000Y-112918000D01*
%TO.N,/INT0*%
X125390000Y-93640000D02*
X124420000Y-92670000D01*
X125390000Y-101390000D02*
X125390000Y-93640000D01*
X124420000Y-92670000D02*
X124420000Y-89500000D01*
%TO.N,/SDA0*%
X117729000Y-92710000D02*
X117770000Y-92751000D01*
X117770000Y-92751000D02*
X117770000Y-101390000D01*
%TO.N,/SCL0*%
X120310000Y-95164000D02*
X120310000Y-101390000D01*
X120269000Y-95123000D02*
X120310000Y-95164000D01*
%TO.N,GND*%
X112690000Y-89630000D02*
X112820000Y-89500000D01*
%TO.N,/INT1*%
X105500000Y-93500000D02*
X104000000Y-93500000D01*
X106000000Y-94000000D02*
X105500000Y-93500000D01*
X107610000Y-100110000D02*
X106000000Y-98500000D01*
X104000000Y-93500000D02*
X102660000Y-92160000D01*
X102660000Y-92160000D02*
X102660000Y-89500000D01*
X106000000Y-98500000D02*
X106000000Y-94000000D01*
X107610000Y-101390000D02*
X107610000Y-100110000D01*
%TO.N,/SDA1*%
X112690000Y-96053000D02*
X112690000Y-101390000D01*
X112649000Y-96012000D02*
X112690000Y-96053000D01*
%TO.N,/SCL1*%
X115230000Y-101390000D02*
X115230000Y-94230000D01*
X115230000Y-94230000D02*
X114500000Y-93500000D01*
%TO.N,/MC_1*%
X136500000Y-109500000D02*
X140000000Y-109500000D01*
X132380000Y-110420000D02*
X135580000Y-110420000D01*
X140000000Y-109500000D02*
X140630000Y-108870000D01*
X140630000Y-108870000D02*
X140630000Y-101390000D01*
X135580000Y-110420000D02*
X136500000Y-109500000D01*
D18*
%TO.N,+BATT*%
X92000000Y-98000000D02*
X97000000Y-98000000D01*
X97500000Y-97500000D02*
X97500000Y-88500000D01*
X96500000Y-87500000D02*
X93500000Y-87500000D01*
X93500000Y-106000000D02*
X91000000Y-106000000D01*
X91000000Y-106000000D02*
X90820000Y-105820000D01*
X93500000Y-87500000D02*
X92370000Y-86370000D01*
X92370000Y-86370000D02*
X92370000Y-83610000D01*
X97500000Y-88500000D02*
X96500000Y-87500000D01*
X90820000Y-99180000D02*
X92000000Y-98000000D01*
X90820000Y-105820000D02*
X90820000Y-99180000D01*
X97000000Y-98000000D02*
X97500000Y-97500000D01*
D19*
%TO.N,/MO1*%
X144920000Y-115500000D02*
X144500000Y-115080000D01*
X146760000Y-105800000D02*
X147000000Y-105560000D01*
X145420000Y-110420000D02*
X144500000Y-109500000D01*
X147620000Y-110420000D02*
X145420000Y-110420000D01*
X144500000Y-115080000D02*
X144500000Y-109500000D01*
X147000000Y-105560000D02*
X147000000Y-103500000D01*
X145700000Y-105800000D02*
X146760000Y-105800000D01*
X147620000Y-115500000D02*
X144920000Y-115500000D01*
X144500000Y-107000000D02*
X145700000Y-105800000D01*
X144500000Y-109500000D02*
X144500000Y-107000000D01*
D20*
%TO.N,/ADC1*%
X111515000Y-84785000D02*
X112690000Y-83610000D01*
%TO.N,/GP22*%
X119000000Y-84920000D02*
X120310000Y-83610000D01*
X119000000Y-98500000D02*
X119000000Y-84920000D01*
%TD*%
%TA.AperFunction,Conductor*%
%TO.N,GND*%
G36*
X114017257Y-84256975D02*
G01*
X114061573Y-84295839D01*
X114191505Y-84481401D01*
X114358599Y-84648495D01*
X114485013Y-84737011D01*
X114501624Y-84748642D01*
X114540489Y-84792960D01*
X114554500Y-84850217D01*
X114554500Y-85705849D01*
X114554274Y-85713336D01*
X114550780Y-85771087D01*
X114561207Y-85827987D01*
X114562334Y-85835386D01*
X114569312Y-85892847D01*
X114572636Y-85901612D01*
X114578660Y-85923223D01*
X114580348Y-85932436D01*
X114592643Y-85959754D01*
X114604101Y-85985215D01*
X114606960Y-85992117D01*
X114627482Y-86046227D01*
X114632804Y-86053938D01*
X114643824Y-86073476D01*
X114647673Y-86082026D01*
X114647674Y-86082028D01*
X114683360Y-86127577D01*
X114687800Y-86133611D01*
X114720668Y-86181229D01*
X114763989Y-86219608D01*
X114769426Y-86224727D01*
X115788181Y-87243483D01*
X115815061Y-87283711D01*
X115824500Y-87331164D01*
X115824500Y-87922081D01*
X115810716Y-87978901D01*
X115772427Y-88023088D01*
X115718147Y-88044819D01*
X115659944Y-88039261D01*
X115620635Y-88025656D01*
X115412603Y-87995746D01*
X115412602Y-87995746D01*
X115307635Y-88000746D01*
X115202669Y-88005746D01*
X114998419Y-88055297D01*
X114807247Y-88142602D01*
X114636050Y-88264512D01*
X114491013Y-88416623D01*
X114377387Y-88593425D01*
X114299274Y-88788545D01*
X114264554Y-88968691D01*
X114259500Y-88994915D01*
X114259500Y-89952425D01*
X114264529Y-90005086D01*
X114274472Y-90109220D01*
X114333683Y-90310873D01*
X114429990Y-90497684D01*
X114541280Y-90639199D01*
X114559908Y-90662886D01*
X114641703Y-90733762D01*
X114718745Y-90800520D01*
X114900754Y-90905603D01*
X114900756Y-90905604D01*
X114918017Y-90911578D01*
X115099366Y-90974344D01*
X115120114Y-90977327D01*
X115307398Y-91004254D01*
X115517330Y-90994254D01*
X115671266Y-90956908D01*
X115726858Y-90956248D01*
X115777152Y-90979943D01*
X115812037Y-91023233D01*
X115824500Y-91077414D01*
X115824500Y-93569837D01*
X115810985Y-93626132D01*
X115773385Y-93670155D01*
X115719898Y-93692310D01*
X115662182Y-93687768D01*
X115612819Y-93657518D01*
X115430656Y-93475355D01*
X115406416Y-93441057D01*
X115395016Y-93400635D01*
X115394726Y-93397872D01*
X115385674Y-93311744D01*
X115355332Y-93218363D01*
X115327179Y-93131715D01*
X115232533Y-92967783D01*
X115105870Y-92827110D01*
X114952730Y-92715848D01*
X114779802Y-92638855D01*
X114594648Y-92599500D01*
X114594646Y-92599500D01*
X114405354Y-92599500D01*
X114405352Y-92599500D01*
X114220197Y-92638855D01*
X114047269Y-92715848D01*
X113894129Y-92827110D01*
X113767466Y-92967783D01*
X113672820Y-93131715D01*
X113614326Y-93311742D01*
X113594540Y-93499999D01*
X113614326Y-93688257D01*
X113672820Y-93868284D01*
X113767466Y-94032216D01*
X113894129Y-94172889D01*
X114047269Y-94284151D01*
X114220197Y-94361144D01*
X114418102Y-94403210D01*
X114417670Y-94405240D01*
X114441290Y-94409939D01*
X114481518Y-94436819D01*
X114518181Y-94473482D01*
X114545061Y-94513710D01*
X114554500Y-94561163D01*
X114554500Y-100149784D01*
X114540489Y-100207041D01*
X114501623Y-100251359D01*
X114358598Y-100351505D01*
X114191508Y-100518595D01*
X114061574Y-100704160D01*
X114017255Y-100743026D01*
X113959999Y-100757036D01*
X113902742Y-100743025D01*
X113858426Y-100704161D01*
X113728495Y-100518599D01*
X113561401Y-100351505D01*
X113418375Y-100251357D01*
X113379511Y-100207040D01*
X113365500Y-100149783D01*
X113365500Y-96605211D01*
X113382113Y-96543211D01*
X113476179Y-96380284D01*
X113494949Y-96322515D01*
X113534674Y-96200256D01*
X113554460Y-96012000D01*
X113534674Y-95823744D01*
X113484075Y-95668017D01*
X113476179Y-95643715D01*
X113381533Y-95479783D01*
X113254870Y-95339110D01*
X113101730Y-95227848D01*
X112928802Y-95150855D01*
X112743648Y-95111500D01*
X112743646Y-95111500D01*
X112554354Y-95111500D01*
X112554352Y-95111500D01*
X112369199Y-95150854D01*
X112314935Y-95175015D01*
X112254771Y-95185353D01*
X112196965Y-95165730D01*
X112155527Y-95120903D01*
X112140500Y-95061735D01*
X112140500Y-85166163D01*
X112149939Y-85118711D01*
X112176818Y-85078483D01*
X112191146Y-85064154D01*
X112290120Y-84965179D01*
X112345706Y-84933086D01*
X112409894Y-84933086D01*
X112454592Y-84945063D01*
X112690000Y-84965659D01*
X112925408Y-84945063D01*
X113153663Y-84883903D01*
X113367830Y-84784035D01*
X113561401Y-84648495D01*
X113728495Y-84481401D01*
X113858426Y-84295839D01*
X113902743Y-84256975D01*
X113960000Y-84242964D01*
X114017257Y-84256975D01*
G37*
%TD.AperFunction*%
%TA.AperFunction,Conductor*%
G36*
X102064007Y-92518768D02*
G01*
X102112099Y-92555968D01*
X102113349Y-92557563D01*
X102117800Y-92563611D01*
X102150668Y-92611229D01*
X102193979Y-92649599D01*
X102199426Y-92654727D01*
X103505271Y-93960572D01*
X103510406Y-93966027D01*
X103548770Y-94009332D01*
X103596389Y-94042200D01*
X103602422Y-94046639D01*
X103647972Y-94082326D01*
X103656523Y-94086174D01*
X103676059Y-94097193D01*
X103683774Y-94102518D01*
X103735059Y-94121968D01*
X103737883Y-94123039D01*
X103744798Y-94125903D01*
X103797561Y-94149650D01*
X103806768Y-94151337D01*
X103828388Y-94157364D01*
X103837151Y-94160687D01*
X103837153Y-94160687D01*
X103837155Y-94160688D01*
X103894617Y-94167665D01*
X103901982Y-94168785D01*
X103958915Y-94179219D01*
X104016664Y-94175726D01*
X104024151Y-94175500D01*
X105168837Y-94175500D01*
X105216290Y-94184939D01*
X105256518Y-94211819D01*
X105288181Y-94243482D01*
X105315061Y-94283710D01*
X105324500Y-94331163D01*
X105324500Y-98475849D01*
X105324274Y-98483336D01*
X105320780Y-98541087D01*
X105331207Y-98597987D01*
X105332334Y-98605386D01*
X105339312Y-98662847D01*
X105342636Y-98671612D01*
X105348660Y-98693223D01*
X105350348Y-98702436D01*
X105362643Y-98729754D01*
X105374101Y-98755215D01*
X105376960Y-98762117D01*
X105397482Y-98816227D01*
X105402804Y-98823938D01*
X105413824Y-98843476D01*
X105417673Y-98852026D01*
X105417674Y-98852028D01*
X105438760Y-98878942D01*
X105453360Y-98897577D01*
X105457800Y-98903611D01*
X105490668Y-98951229D01*
X105533989Y-98989608D01*
X105539426Y-98994727D01*
X106729720Y-100185021D01*
X106761814Y-100240608D01*
X106761814Y-100304795D01*
X106729721Y-100360383D01*
X106571505Y-100518599D01*
X106441574Y-100704160D01*
X106397255Y-100743026D01*
X106339999Y-100757036D01*
X106282742Y-100743025D01*
X106238426Y-100704161D01*
X106108495Y-100518599D01*
X105941401Y-100351505D01*
X105747830Y-100215965D01*
X105533663Y-100116097D01*
X105463406Y-100097272D01*
X105305407Y-100054936D01*
X105070000Y-100034340D01*
X104834592Y-100054936D01*
X104606336Y-100116097D01*
X104392170Y-100215965D01*
X104198598Y-100351505D01*
X104031508Y-100518595D01*
X103901574Y-100704160D01*
X103857255Y-100743026D01*
X103799999Y-100757036D01*
X103742742Y-100743025D01*
X103698426Y-100704161D01*
X103568495Y-100518599D01*
X103401401Y-100351505D01*
X103207830Y-100215965D01*
X102993663Y-100116097D01*
X102923406Y-100097272D01*
X102765407Y-100054936D01*
X102530000Y-100034340D01*
X102294592Y-100054936D01*
X102055857Y-100118905D01*
X102055601Y-100117952D01*
X102006391Y-100127185D01*
X101947875Y-100108031D01*
X101905786Y-100063093D01*
X101890500Y-100003450D01*
X101890500Y-92632456D01*
X101905406Y-92573511D01*
X101946540Y-92528738D01*
X102004013Y-92508900D01*
X102064007Y-92518768D01*
G37*
%TD.AperFunction*%
%TA.AperFunction,Conductor*%
G36*
X116557257Y-84256975D02*
G01*
X116601573Y-84295839D01*
X116731505Y-84481401D01*
X116898599Y-84648495D01*
X117092170Y-84784035D01*
X117306337Y-84883903D01*
X117534592Y-84945063D01*
X117770000Y-84965659D01*
X118005408Y-84945063D01*
X118138543Y-84909390D01*
X118218407Y-84887991D01*
X118274691Y-84886149D01*
X118325987Y-84909390D01*
X118361712Y-84952922D01*
X118374500Y-85007766D01*
X118374500Y-91822540D01*
X118356228Y-91887329D01*
X118306796Y-91933024D01*
X118240773Y-91946158D01*
X118194546Y-91929105D01*
X118193636Y-91931149D01*
X118008802Y-91848855D01*
X117823648Y-91809500D01*
X117823646Y-91809500D01*
X117634354Y-91809500D01*
X117634352Y-91809500D01*
X117449197Y-91848855D01*
X117349936Y-91893050D01*
X117289772Y-91903389D01*
X117231965Y-91883766D01*
X117190527Y-91838939D01*
X117175500Y-91779771D01*
X117175500Y-87024151D01*
X117175726Y-87016665D01*
X117176400Y-87005519D01*
X117179219Y-86958915D01*
X117168785Y-86901982D01*
X117167663Y-86894603D01*
X117166481Y-86884867D01*
X117160688Y-86837155D01*
X117160687Y-86837153D01*
X117160687Y-86837151D01*
X117157364Y-86828388D01*
X117151337Y-86806768D01*
X117149650Y-86797561D01*
X117125903Y-86744798D01*
X117123039Y-86737883D01*
X117112578Y-86710300D01*
X117102518Y-86683774D01*
X117097193Y-86676059D01*
X117086174Y-86656523D01*
X117082326Y-86647972D01*
X117080949Y-86646215D01*
X117046633Y-86602413D01*
X117042194Y-86596380D01*
X117009331Y-86548769D01*
X116966035Y-86510413D01*
X116960581Y-86505279D01*
X116490709Y-86035407D01*
X115941818Y-85486517D01*
X115914939Y-85446290D01*
X115905500Y-85398837D01*
X115905500Y-84850217D01*
X115919511Y-84792960D01*
X115958376Y-84748642D01*
X115974987Y-84737011D01*
X116101401Y-84648495D01*
X116268495Y-84481401D01*
X116398426Y-84295839D01*
X116442743Y-84256975D01*
X116500000Y-84242964D01*
X116557257Y-84256975D01*
G37*
%TD.AperFunction*%
%TA.AperFunction,Conductor*%
G36*
X131797257Y-102036975D02*
G01*
X131841573Y-102075839D01*
X131971505Y-102261401D01*
X132138599Y-102428495D01*
X132281624Y-102528642D01*
X132320489Y-102572960D01*
X132334500Y-102630217D01*
X132334500Y-105158837D01*
X132325061Y-105206290D01*
X132298181Y-105246518D01*
X131756518Y-105788181D01*
X131716290Y-105815061D01*
X131668837Y-105824500D01*
X130524162Y-105824500D01*
X130516675Y-105824274D01*
X130515340Y-105824193D01*
X130458915Y-105820780D01*
X130458914Y-105820780D01*
X130401997Y-105831210D01*
X130394594Y-105832337D01*
X130337151Y-105839312D01*
X130328384Y-105842637D01*
X130306777Y-105848660D01*
X130297561Y-105850349D01*
X130244783Y-105874101D01*
X130237868Y-105876965D01*
X130183775Y-105897481D01*
X130176058Y-105902807D01*
X130156524Y-105913824D01*
X130147973Y-105917673D01*
X130102417Y-105953363D01*
X130096387Y-105957800D01*
X130048770Y-105990668D01*
X130010406Y-106033972D01*
X130005273Y-106039424D01*
X129039424Y-107005273D01*
X129033972Y-107010406D01*
X128990668Y-107048770D01*
X128957800Y-107096387D01*
X128953363Y-107102417D01*
X128917673Y-107147973D01*
X128913824Y-107156524D01*
X128902807Y-107176058D01*
X128897481Y-107183775D01*
X128876965Y-107237868D01*
X128874102Y-107244782D01*
X128850349Y-107297562D01*
X128848661Y-107306776D01*
X128842638Y-107328383D01*
X128839310Y-107337157D01*
X128832333Y-107394612D01*
X128831207Y-107402011D01*
X128820780Y-107458912D01*
X128824274Y-107516664D01*
X128824500Y-107524151D01*
X128824500Y-112120500D01*
X128807887Y-112182500D01*
X128762500Y-112227887D01*
X128700500Y-112244500D01*
X127724499Y-112244500D01*
X127662499Y-112227887D01*
X127617112Y-112182500D01*
X127600499Y-112120500D01*
X127600499Y-112022130D01*
X127600284Y-112020127D01*
X127594091Y-111962517D01*
X127543796Y-111827669D01*
X127457546Y-111712454D01*
X127342331Y-111626204D01*
X127207483Y-111575909D01*
X127147873Y-111569500D01*
X127147869Y-111569500D01*
X125352130Y-111569500D01*
X125292517Y-111575908D01*
X125292517Y-111575909D01*
X125175829Y-111619430D01*
X125117047Y-111626281D01*
X125061780Y-111605104D01*
X125022624Y-111560723D01*
X125008500Y-111503248D01*
X125008500Y-107577869D01*
X125649500Y-107577869D01*
X125655909Y-107637483D01*
X125706204Y-107772331D01*
X125792454Y-107887546D01*
X125907669Y-107973796D01*
X126042517Y-108024091D01*
X126102127Y-108030500D01*
X127897872Y-108030499D01*
X127957483Y-108024091D01*
X128092331Y-107973796D01*
X128207546Y-107887546D01*
X128293796Y-107772331D01*
X128344091Y-107637483D01*
X128350500Y-107577873D01*
X128350499Y-105782128D01*
X128344091Y-105722517D01*
X128293796Y-105587669D01*
X128207546Y-105472454D01*
X128092331Y-105386204D01*
X127957483Y-105335909D01*
X127897873Y-105329500D01*
X127897869Y-105329500D01*
X126102130Y-105329500D01*
X126042515Y-105335909D01*
X125907669Y-105386204D01*
X125792454Y-105472454D01*
X125706204Y-105587668D01*
X125655909Y-105722515D01*
X125655909Y-105722517D01*
X125653470Y-105745207D01*
X125649500Y-105782130D01*
X125649500Y-107577869D01*
X125008500Y-107577869D01*
X125008500Y-104725163D01*
X125017939Y-104677710D01*
X125044819Y-104637482D01*
X125211482Y-104470819D01*
X125251710Y-104443939D01*
X125299163Y-104434500D01*
X125832849Y-104434500D01*
X125840335Y-104434726D01*
X125898084Y-104438219D01*
X125898084Y-104438218D01*
X125898085Y-104438219D01*
X125954997Y-104427789D01*
X125962396Y-104426663D01*
X126019845Y-104419688D01*
X126028608Y-104416364D01*
X126050222Y-104410338D01*
X126059439Y-104408650D01*
X126059443Y-104408648D01*
X126059444Y-104408648D01*
X126112207Y-104384901D01*
X126119122Y-104382036D01*
X126173226Y-104361518D01*
X126180933Y-104356197D01*
X126200484Y-104345171D01*
X126209028Y-104341326D01*
X126254609Y-104305613D01*
X126260581Y-104301219D01*
X126308229Y-104268332D01*
X126346610Y-104225007D01*
X126351711Y-104219588D01*
X127206588Y-103364711D01*
X127212007Y-103359610D01*
X127255332Y-103321229D01*
X127288219Y-103273581D01*
X127292613Y-103267609D01*
X127328326Y-103222028D01*
X127332171Y-103213484D01*
X127343197Y-103193935D01*
X127344467Y-103192094D01*
X127348518Y-103186226D01*
X127369036Y-103132122D01*
X127371901Y-103125207D01*
X127395648Y-103072444D01*
X127395648Y-103072443D01*
X127395650Y-103072439D01*
X127397338Y-103063222D01*
X127403364Y-103041608D01*
X127406688Y-103032845D01*
X127413663Y-102975396D01*
X127414790Y-102967993D01*
X127425219Y-102911085D01*
X127421726Y-102853335D01*
X127421500Y-102845849D01*
X127421500Y-102813489D01*
X127434288Y-102758645D01*
X127470013Y-102715113D01*
X127521309Y-102691872D01*
X127577593Y-102693714D01*
X127694402Y-102725012D01*
X127694592Y-102725063D01*
X127930000Y-102745659D01*
X128165408Y-102725063D01*
X128393663Y-102663903D01*
X128607830Y-102564035D01*
X128801401Y-102428495D01*
X128968495Y-102261401D01*
X129098426Y-102075839D01*
X129142743Y-102036975D01*
X129200000Y-102022964D01*
X129257257Y-102036975D01*
X129301573Y-102075839D01*
X129431505Y-102261401D01*
X129598599Y-102428495D01*
X129792170Y-102564035D01*
X130006337Y-102663903D01*
X130234592Y-102725063D01*
X130470000Y-102745659D01*
X130705408Y-102725063D01*
X130933663Y-102663903D01*
X131147830Y-102564035D01*
X131341401Y-102428495D01*
X131508495Y-102261401D01*
X131638426Y-102075839D01*
X131682743Y-102036975D01*
X131740000Y-102022964D01*
X131797257Y-102036975D01*
G37*
%TD.AperFunction*%
%TA.AperFunction,Conductor*%
G36*
X149438000Y-81516613D02*
G01*
X149483387Y-81562000D01*
X149500000Y-81624000D01*
X149500000Y-101605035D01*
X149483798Y-101666318D01*
X149439426Y-101711586D01*
X149378479Y-101729010D01*
X147284966Y-101770880D01*
X147264006Y-101769520D01*
X147131183Y-101749500D01*
X147131182Y-101749500D01*
X146868818Y-101749500D01*
X146649557Y-101782547D01*
X146633556Y-101783907D01*
X143128999Y-101853999D01*
X143120655Y-102508974D01*
X143117284Y-102527005D01*
X143117573Y-102527037D01*
X143109500Y-102602123D01*
X143109500Y-103383920D01*
X143109490Y-103385500D01*
X143077012Y-105934964D01*
X143069802Y-105975078D01*
X143054215Y-106003072D01*
X143054259Y-106003098D01*
X143052656Y-106005873D01*
X143049976Y-106010688D01*
X143049616Y-106011139D01*
X143001540Y-106094406D01*
X142999149Y-106098375D01*
X142948016Y-106179754D01*
X142937655Y-106203501D01*
X142931392Y-106215906D01*
X142918435Y-106238350D01*
X142883311Y-106327841D01*
X142881538Y-106332122D01*
X142843099Y-106420227D01*
X142836393Y-106445254D01*
X142832049Y-106458456D01*
X142822578Y-106482588D01*
X142801184Y-106576315D01*
X142800069Y-106580812D01*
X142775194Y-106673648D01*
X142772293Y-106699394D01*
X142769966Y-106713092D01*
X142764197Y-106738371D01*
X142757013Y-106834231D01*
X142756580Y-106838846D01*
X142745818Y-106934362D01*
X142749413Y-107030405D01*
X142749500Y-107035043D01*
X142749500Y-109464957D01*
X142749413Y-109469595D01*
X142745818Y-109565634D01*
X142748720Y-109591382D01*
X142749500Y-109605267D01*
X142749500Y-115044957D01*
X142749413Y-115049595D01*
X142745818Y-115145637D01*
X142756580Y-115241152D01*
X142757013Y-115245768D01*
X142764197Y-115341627D01*
X142769964Y-115366893D01*
X142772293Y-115380601D01*
X142775194Y-115406348D01*
X142800069Y-115499185D01*
X142801185Y-115503683D01*
X142822581Y-115597420D01*
X142832047Y-115621540D01*
X142836391Y-115634742D01*
X142843098Y-115659773D01*
X142881537Y-115747876D01*
X142883311Y-115752158D01*
X142918432Y-115841644D01*
X142931387Y-115864082D01*
X142937647Y-115876480D01*
X142939326Y-115880327D01*
X142949668Y-115931507D01*
X142875000Y-121793000D01*
X149376000Y-121793000D01*
X149438000Y-121809613D01*
X149483387Y-121855000D01*
X149500000Y-121917000D01*
X149500000Y-124376000D01*
X149483387Y-124438000D01*
X149438000Y-124483387D01*
X149376000Y-124500000D01*
X129624000Y-124500000D01*
X129562000Y-124483387D01*
X129516613Y-124438000D01*
X129500000Y-124376000D01*
X129500000Y-120527396D01*
X130875746Y-120527396D01*
X130885746Y-120737330D01*
X130935297Y-120941580D01*
X131022602Y-121132752D01*
X131094004Y-121233021D01*
X131144514Y-121303952D01*
X131296622Y-121448986D01*
X131368964Y-121495478D01*
X131473425Y-121562612D01*
X131512580Y-121578287D01*
X131668543Y-121640725D01*
X131797228Y-121665527D01*
X131874914Y-121680500D01*
X131874915Y-121680500D01*
X132832420Y-121680500D01*
X132832425Y-121680500D01*
X132989218Y-121665528D01*
X133190875Y-121606316D01*
X133377682Y-121510011D01*
X133542886Y-121380092D01*
X133680519Y-121221256D01*
X133785604Y-121039244D01*
X133854344Y-120840633D01*
X133884254Y-120632602D01*
X133874254Y-120422670D01*
X133824704Y-120218424D01*
X133824702Y-120218419D01*
X133737397Y-120027247D01*
X133615487Y-119856050D01*
X133615486Y-119856048D01*
X133463378Y-119711014D01*
X133431257Y-119690371D01*
X133286574Y-119597387D01*
X133212578Y-119567764D01*
X137645787Y-119567764D01*
X137675413Y-119837016D01*
X137702009Y-119938745D01*
X137743928Y-120099088D01*
X137829349Y-120300099D01*
X137849871Y-120348392D01*
X137990982Y-120579611D01*
X138080253Y-120686881D01*
X138164255Y-120787820D01*
X138365998Y-120968582D01*
X138591910Y-121118044D01*
X138698211Y-121167875D01*
X138837177Y-121233021D01*
X139072933Y-121303949D01*
X139096569Y-121311060D01*
X139364561Y-121350500D01*
X139567631Y-121350500D01*
X139567634Y-121350500D01*
X139770156Y-121335677D01*
X139770156Y-121335676D01*
X140034553Y-121276780D01*
X140287558Y-121180014D01*
X140523777Y-121047441D01*
X140738177Y-120881888D01*
X140926186Y-120686881D01*
X141083799Y-120466579D01*
X141207656Y-120225675D01*
X141295118Y-119969305D01*
X141344319Y-119702933D01*
X141354212Y-119432235D01*
X141324586Y-119162982D01*
X141256072Y-118900912D01*
X141150130Y-118651610D01*
X141009018Y-118420390D01*
X141009017Y-118420388D01*
X140835746Y-118212181D01*
X140730758Y-118118112D01*
X140634002Y-118031418D01*
X140408090Y-117881956D01*
X140408086Y-117881954D01*
X140162822Y-117766978D01*
X139903437Y-117688941D01*
X139903431Y-117688940D01*
X139635439Y-117649500D01*
X139432369Y-117649500D01*
X139432366Y-117649500D01*
X139229843Y-117664322D01*
X138965449Y-117723219D01*
X138712441Y-117819986D01*
X138476223Y-117952559D01*
X138261825Y-118118109D01*
X138073813Y-118313120D01*
X137916201Y-118533420D01*
X137792342Y-118774329D01*
X137704881Y-119030695D01*
X137655680Y-119297066D01*
X137645787Y-119567764D01*
X133212578Y-119567764D01*
X133130609Y-119534949D01*
X133091457Y-119519275D01*
X133091456Y-119519274D01*
X133091454Y-119519274D01*
X132885086Y-119479500D01*
X132885085Y-119479500D01*
X131927575Y-119479500D01*
X131829579Y-119488857D01*
X131770779Y-119494472D01*
X131569126Y-119553683D01*
X131382315Y-119649990D01*
X131217115Y-119779906D01*
X131079479Y-119938745D01*
X130974396Y-120120754D01*
X130905655Y-120319366D01*
X130875746Y-120527396D01*
X129500000Y-120527396D01*
X129500000Y-120000000D01*
X99000000Y-120000000D01*
X99000000Y-124876000D01*
X98983387Y-124938000D01*
X98938000Y-124983387D01*
X98876000Y-125000000D01*
X90624000Y-125000000D01*
X90562000Y-124983387D01*
X90516613Y-124938000D01*
X90500000Y-124876000D01*
X90500000Y-119567764D01*
X93145787Y-119567764D01*
X93175413Y-119837016D01*
X93202009Y-119938745D01*
X93243928Y-120099088D01*
X93329349Y-120300099D01*
X93349871Y-120348392D01*
X93490982Y-120579611D01*
X93580253Y-120686881D01*
X93664255Y-120787820D01*
X93865998Y-120968582D01*
X94091910Y-121118044D01*
X94198211Y-121167875D01*
X94337177Y-121233021D01*
X94572933Y-121303949D01*
X94596569Y-121311060D01*
X94864561Y-121350500D01*
X95067631Y-121350500D01*
X95067634Y-121350500D01*
X95270156Y-121335677D01*
X95270156Y-121335676D01*
X95534553Y-121276780D01*
X95787558Y-121180014D01*
X96023777Y-121047441D01*
X96238177Y-120881888D01*
X96426186Y-120686881D01*
X96583799Y-120466579D01*
X96707656Y-120225675D01*
X96795118Y-119969305D01*
X96844319Y-119702933D01*
X96854212Y-119432235D01*
X96824586Y-119162982D01*
X96756072Y-118900912D01*
X96650130Y-118651610D01*
X96509018Y-118420390D01*
X96509017Y-118420388D01*
X96335746Y-118212181D01*
X96230758Y-118118112D01*
X96134002Y-118031418D01*
X96067466Y-117987398D01*
X130875746Y-117987398D01*
X130885746Y-118197330D01*
X130935297Y-118401580D01*
X131022602Y-118592752D01*
X131132845Y-118747566D01*
X131144514Y-118763952D01*
X131296622Y-118908986D01*
X131368964Y-118955478D01*
X131473425Y-119022612D01*
X131493616Y-119030695D01*
X131668543Y-119100725D01*
X131797228Y-119125527D01*
X131874914Y-119140500D01*
X131874915Y-119140500D01*
X132832420Y-119140500D01*
X132832425Y-119140500D01*
X132989218Y-119125528D01*
X133190875Y-119066316D01*
X133377682Y-118970011D01*
X133542886Y-118840092D01*
X133680519Y-118681256D01*
X133785604Y-118499244D01*
X133854344Y-118300633D01*
X133884254Y-118092602D01*
X133874254Y-117882670D01*
X133824704Y-117678424D01*
X133765451Y-117548679D01*
X133754394Y-117491122D01*
X133771007Y-117434914D01*
X133799607Y-117405096D01*
X133799999Y-117399999D01*
X133800000Y-117400000D01*
X133850000Y-116750000D01*
X133700000Y-116650000D01*
X133549998Y-116750001D01*
X133313015Y-116986984D01*
X133273241Y-117013675D01*
X133226318Y-117023299D01*
X133179249Y-117014421D01*
X133091457Y-116979275D01*
X132885086Y-116939500D01*
X132885085Y-116939500D01*
X131927575Y-116939500D01*
X131829579Y-116948857D01*
X131770779Y-116954472D01*
X131569126Y-117013683D01*
X131382315Y-117109990D01*
X131217115Y-117239906D01*
X131079479Y-117398745D01*
X130974396Y-117580754D01*
X130905655Y-117779366D01*
X130890803Y-117882670D01*
X130875746Y-117987398D01*
X96067466Y-117987398D01*
X95908090Y-117881956D01*
X95908086Y-117881954D01*
X95662822Y-117766978D01*
X95403437Y-117688941D01*
X95403431Y-117688940D01*
X95135439Y-117649500D01*
X94932369Y-117649500D01*
X94932366Y-117649500D01*
X94729843Y-117664322D01*
X94465449Y-117723219D01*
X94212441Y-117819986D01*
X93976223Y-117952559D01*
X93761825Y-118118109D01*
X93573813Y-118313120D01*
X93416201Y-118533420D01*
X93292342Y-118774329D01*
X93204881Y-119030695D01*
X93155680Y-119297066D01*
X93145787Y-119567764D01*
X90500000Y-119567764D01*
X90500000Y-107062315D01*
X90514828Y-107003515D01*
X90555765Y-106958778D01*
X90613021Y-106938802D01*
X90672903Y-106948365D01*
X90698942Y-106959540D01*
X90698943Y-106959540D01*
X90698945Y-106959541D01*
X90756726Y-106971414D01*
X90765869Y-106973657D01*
X90822582Y-106989886D01*
X90852920Y-106992196D01*
X90868448Y-106994373D01*
X90898259Y-107000500D01*
X90957244Y-107000500D01*
X90966659Y-107000858D01*
X90970806Y-107001173D01*
X91025476Y-107005337D01*
X91052278Y-107001923D01*
X91055652Y-107001494D01*
X91071317Y-107000500D01*
X92162820Y-107000500D01*
X92218324Y-107013616D01*
X92262085Y-107050187D01*
X92315482Y-107121517D01*
X92341332Y-107156048D01*
X92342454Y-107157546D01*
X92457669Y-107243796D01*
X92592517Y-107294091D01*
X92652127Y-107300500D01*
X94347872Y-107300499D01*
X94407483Y-107294091D01*
X94542331Y-107243796D01*
X94657546Y-107157546D01*
X94743796Y-107042331D01*
X94794091Y-106907483D01*
X94800500Y-106847873D01*
X94800499Y-105152128D01*
X94794091Y-105092517D01*
X94743796Y-104957669D01*
X94657546Y-104842454D01*
X94542331Y-104756204D01*
X94407483Y-104705909D01*
X94347873Y-104699500D01*
X94347869Y-104699500D01*
X92652130Y-104699500D01*
X92592515Y-104705909D01*
X92457669Y-104756204D01*
X92342453Y-104842454D01*
X92262087Y-104949811D01*
X92218324Y-104986384D01*
X92162820Y-104999500D01*
X91944500Y-104999500D01*
X91882500Y-104982887D01*
X91837113Y-104937500D01*
X91820500Y-104875500D01*
X91820500Y-102802503D01*
X91833288Y-102747659D01*
X91869014Y-102704127D01*
X91920309Y-102680886D01*
X91976593Y-102682728D01*
X92104157Y-102716908D01*
X92134592Y-102725063D01*
X92370000Y-102745659D01*
X92605408Y-102725063D01*
X92833663Y-102663903D01*
X93047830Y-102564035D01*
X93241401Y-102428495D01*
X93408495Y-102261401D01*
X93538426Y-102075839D01*
X93582743Y-102036975D01*
X93640000Y-102022964D01*
X93697257Y-102036975D01*
X93741573Y-102075839D01*
X93871505Y-102261401D01*
X94038599Y-102428495D01*
X94232170Y-102564035D01*
X94446337Y-102663903D01*
X94674592Y-102725063D01*
X94910000Y-102745659D01*
X95145408Y-102725063D01*
X95373663Y-102663903D01*
X95587830Y-102564035D01*
X95781401Y-102428495D01*
X95948495Y-102261401D01*
X96084035Y-102067830D01*
X96183903Y-101853663D01*
X96245063Y-101625408D01*
X96265659Y-101390000D01*
X96265659Y-101389999D01*
X98634340Y-101389999D01*
X98654936Y-101625407D01*
X98688187Y-101749500D01*
X98716097Y-101853663D01*
X98815965Y-102067830D01*
X98951505Y-102261401D01*
X99118599Y-102428495D01*
X99312170Y-102564035D01*
X99526337Y-102663903D01*
X99754592Y-102725063D01*
X99990000Y-102745659D01*
X100225408Y-102725063D01*
X100317812Y-102700303D01*
X100383407Y-102682728D01*
X100439691Y-102680886D01*
X100490986Y-102704127D01*
X100526712Y-102747659D01*
X100539500Y-102802503D01*
X100539500Y-114652849D01*
X100539274Y-114660336D01*
X100535780Y-114718087D01*
X100546207Y-114774987D01*
X100547334Y-114782386D01*
X100554312Y-114839847D01*
X100557636Y-114848612D01*
X100563660Y-114870223D01*
X100565348Y-114879436D01*
X100571080Y-114892171D01*
X100589101Y-114932215D01*
X100591960Y-114939117D01*
X100612482Y-114993227D01*
X100617804Y-115000938D01*
X100628824Y-115020476D01*
X100632673Y-115029026D01*
X100632674Y-115029028D01*
X100648788Y-115049595D01*
X100668360Y-115074577D01*
X100672800Y-115080611D01*
X100705668Y-115128229D01*
X100748989Y-115166608D01*
X100754426Y-115171727D01*
X101613271Y-116030572D01*
X101618406Y-116036027D01*
X101656770Y-116079332D01*
X101704389Y-116112200D01*
X101710426Y-116116642D01*
X101741842Y-116141256D01*
X101755972Y-116152326D01*
X101764523Y-116156174D01*
X101784059Y-116167193D01*
X101791774Y-116172518D01*
X101845883Y-116193039D01*
X101852798Y-116195903D01*
X101905561Y-116219650D01*
X101914768Y-116221337D01*
X101936388Y-116227364D01*
X101945151Y-116230687D01*
X101945153Y-116230687D01*
X101945155Y-116230688D01*
X102002617Y-116237665D01*
X102009982Y-116238785D01*
X102066915Y-116249219D01*
X102124664Y-116245726D01*
X102132151Y-116245500D01*
X104259783Y-116245500D01*
X104317040Y-116259511D01*
X104361357Y-116298375D01*
X104461505Y-116441401D01*
X104628599Y-116608495D01*
X104822170Y-116744035D01*
X105036337Y-116843903D01*
X105264592Y-116905063D01*
X105500000Y-116925659D01*
X105735408Y-116905063D01*
X105963663Y-116843903D01*
X106122597Y-116769790D01*
X106183110Y-116758438D01*
X106241625Y-116777592D01*
X106269238Y-116807074D01*
X106270895Y-116805717D01*
X106299000Y-116840000D01*
X106933999Y-116967000D01*
X106933999Y-116966999D01*
X106934000Y-116967000D01*
X107061000Y-116332000D01*
X107060106Y-116331404D01*
X106823606Y-116173737D01*
X106787855Y-116137261D01*
X106769839Y-116089469D01*
X106772614Y-116038469D01*
X106773900Y-116033669D01*
X106773903Y-116033663D01*
X106835063Y-115805408D01*
X106855659Y-115570000D01*
X106835063Y-115334592D01*
X106773903Y-115106337D01*
X106674035Y-114892171D01*
X106538495Y-114698599D01*
X106416569Y-114576673D01*
X106385273Y-114523927D01*
X106383084Y-114462634D01*
X106410537Y-114407789D01*
X106460916Y-114372810D01*
X106592331Y-114323796D01*
X106707546Y-114237546D01*
X106793796Y-114122331D01*
X106844091Y-113987483D01*
X106850500Y-113927873D01*
X106850499Y-112132128D01*
X106844091Y-112072517D01*
X106793796Y-111937669D01*
X106707546Y-111822454D01*
X106592331Y-111736204D01*
X106457483Y-111685909D01*
X106397873Y-111679500D01*
X106397869Y-111679500D01*
X106299500Y-111679500D01*
X106237500Y-111662887D01*
X106192113Y-111617500D01*
X106175500Y-111555500D01*
X106175500Y-109334164D01*
X106184939Y-109286710D01*
X106211820Y-109246481D01*
X106246485Y-109211817D01*
X106286713Y-109184939D01*
X106334165Y-109175500D01*
X110168010Y-109175500D01*
X110222968Y-109188344D01*
X110266541Y-109224216D01*
X110289701Y-109275684D01*
X110287652Y-109332086D01*
X110260818Y-109381733D01*
X110254406Y-109388972D01*
X110249280Y-109394416D01*
X109775423Y-109868274D01*
X109769970Y-109873407D01*
X109726669Y-109911768D01*
X109693800Y-109959387D01*
X109689363Y-109965417D01*
X109653673Y-110010973D01*
X109649824Y-110019524D01*
X109638807Y-110039058D01*
X109633481Y-110046775D01*
X109612965Y-110100868D01*
X109610102Y-110107782D01*
X109586349Y-110160562D01*
X109584661Y-110169776D01*
X109578638Y-110191383D01*
X109575310Y-110200157D01*
X109568333Y-110257612D01*
X109567207Y-110265011D01*
X109556780Y-110321912D01*
X109560274Y-110379664D01*
X109560500Y-110387151D01*
X109560500Y-111555501D01*
X109543887Y-111617501D01*
X109498500Y-111662888D01*
X109436500Y-111679501D01*
X109338128Y-111679501D01*
X109308322Y-111682705D01*
X109278515Y-111685909D01*
X109143669Y-111736204D01*
X109028454Y-111822454D01*
X108942204Y-111937668D01*
X108891909Y-112072516D01*
X108885500Y-112132130D01*
X108885500Y-113927869D01*
X108891909Y-113987484D01*
X108917056Y-114054906D01*
X108942204Y-114122331D01*
X109028454Y-114237546D01*
X109143669Y-114323796D01*
X109255907Y-114365658D01*
X109275082Y-114372810D01*
X109325462Y-114407789D01*
X109352915Y-114462634D01*
X109350726Y-114523926D01*
X109319431Y-114576673D01*
X109197503Y-114698601D01*
X109061965Y-114892170D01*
X108962097Y-115106336D01*
X108900936Y-115334592D01*
X108880340Y-115570000D01*
X108900936Y-115805407D01*
X108932623Y-115923663D01*
X108962097Y-116033663D01*
X109061965Y-116247830D01*
X109197505Y-116441401D01*
X109364599Y-116608495D01*
X109558170Y-116744035D01*
X109772337Y-116843903D01*
X110000592Y-116905063D01*
X110236000Y-116925659D01*
X110471408Y-116905063D01*
X110699663Y-116843903D01*
X110913830Y-116744035D01*
X111107401Y-116608495D01*
X111274495Y-116441401D01*
X111410035Y-116247830D01*
X111509903Y-116033663D01*
X111571063Y-115805408D01*
X111591659Y-115570000D01*
X111581860Y-115458000D01*
X120564340Y-115458000D01*
X120584936Y-115693407D01*
X120614947Y-115805408D01*
X120646097Y-115921663D01*
X120745965Y-116135830D01*
X120881505Y-116329401D01*
X121048599Y-116496495D01*
X121242170Y-116632035D01*
X121456337Y-116731903D01*
X121684592Y-116793063D01*
X121920000Y-116813659D01*
X122155408Y-116793063D01*
X122383663Y-116731903D01*
X122597830Y-116632035D01*
X122791401Y-116496495D01*
X122958495Y-116329401D01*
X123094035Y-116135830D01*
X123193903Y-115921663D01*
X123255063Y-115693408D01*
X123275659Y-115458000D01*
X123255063Y-115222592D01*
X123193903Y-114994337D01*
X123094035Y-114780171D01*
X122958495Y-114586599D01*
X122836568Y-114464672D01*
X122805273Y-114411927D01*
X122803084Y-114350634D01*
X122830537Y-114295789D01*
X122880916Y-114260810D01*
X123012331Y-114211796D01*
X123127546Y-114125546D01*
X123213796Y-114010331D01*
X123264091Y-113875483D01*
X123270500Y-113815873D01*
X123270500Y-113717500D01*
X123287113Y-113655500D01*
X123332500Y-113610113D01*
X123394500Y-113593500D01*
X123912849Y-113593500D01*
X123920335Y-113593726D01*
X123978084Y-113597219D01*
X123978084Y-113597218D01*
X123978085Y-113597219D01*
X124034997Y-113586789D01*
X124042396Y-113585663D01*
X124099845Y-113578688D01*
X124108608Y-113575364D01*
X124130222Y-113569338D01*
X124139439Y-113567650D01*
X124139443Y-113567648D01*
X124139444Y-113567648D01*
X124192207Y-113543901D01*
X124199122Y-113541036D01*
X124253226Y-113520518D01*
X124260933Y-113515197D01*
X124280484Y-113504171D01*
X124289028Y-113500326D01*
X124334609Y-113464613D01*
X124340581Y-113460219D01*
X124388229Y-113427332D01*
X124426610Y-113384007D01*
X124431711Y-113378588D01*
X124687821Y-113122478D01*
X124737182Y-113092230D01*
X124794898Y-113087688D01*
X124848385Y-113109843D01*
X124885985Y-113153866D01*
X124899500Y-113210161D01*
X124899500Y-113817869D01*
X124905694Y-113875483D01*
X124905909Y-113877483D01*
X124956204Y-114012331D01*
X125042454Y-114127546D01*
X125157669Y-114213796D01*
X125269907Y-114255658D01*
X125289082Y-114262810D01*
X125339462Y-114297789D01*
X125366915Y-114352634D01*
X125364726Y-114413926D01*
X125333431Y-114466673D01*
X125211503Y-114588601D01*
X125075965Y-114782170D01*
X124976097Y-114996336D01*
X124914936Y-115224592D01*
X124894340Y-115459999D01*
X124914936Y-115695407D01*
X124944410Y-115805405D01*
X124976097Y-115923663D01*
X125075965Y-116137830D01*
X125211505Y-116331401D01*
X125378599Y-116498495D01*
X125572170Y-116634035D01*
X125786337Y-116733903D01*
X126014592Y-116795063D01*
X126250000Y-116815659D01*
X126485408Y-116795063D01*
X126713663Y-116733903D01*
X126927830Y-116634035D01*
X127121401Y-116498495D01*
X127288495Y-116331401D01*
X127424035Y-116137830D01*
X127523903Y-115923663D01*
X127585063Y-115695408D01*
X127605659Y-115460000D01*
X127604556Y-115447398D01*
X127604556Y-115447396D01*
X130875746Y-115447396D01*
X130885746Y-115657330D01*
X130935297Y-115861580D01*
X131022602Y-116052752D01*
X131099541Y-116160796D01*
X131144514Y-116223952D01*
X131296622Y-116368986D01*
X131368964Y-116415478D01*
X131473425Y-116482612D01*
X131508094Y-116496491D01*
X131668543Y-116560725D01*
X131797228Y-116585527D01*
X131874914Y-116600500D01*
X131874915Y-116600500D01*
X132832420Y-116600500D01*
X132832425Y-116600500D01*
X132989218Y-116585528D01*
X133190875Y-116526316D01*
X133377682Y-116430011D01*
X133542886Y-116300092D01*
X133680519Y-116141256D01*
X133785604Y-115959244D01*
X133854344Y-115760633D01*
X133884254Y-115552602D01*
X133874254Y-115342670D01*
X133824704Y-115138424D01*
X133820047Y-115128227D01*
X133737397Y-114947247D01*
X133615487Y-114776050D01*
X133615486Y-114776048D01*
X133463378Y-114631014D01*
X133431257Y-114610371D01*
X133286574Y-114517387D01*
X133130609Y-114454949D01*
X133091457Y-114439275D01*
X133091456Y-114439274D01*
X133091454Y-114439274D01*
X132885086Y-114399500D01*
X132885085Y-114399500D01*
X131927575Y-114399500D01*
X131829579Y-114408857D01*
X131770779Y-114414472D01*
X131569126Y-114473683D01*
X131382315Y-114569990D01*
X131217115Y-114699906D01*
X131079479Y-114858745D01*
X130974396Y-115040754D01*
X130905655Y-115239366D01*
X130875746Y-115447396D01*
X127604556Y-115447396D01*
X127585063Y-115224592D01*
X127563907Y-115145636D01*
X127523903Y-114996337D01*
X127424035Y-114782171D01*
X127288495Y-114588599D01*
X127166569Y-114466673D01*
X127135273Y-114413927D01*
X127133084Y-114352634D01*
X127160537Y-114297789D01*
X127210916Y-114262810D01*
X127342331Y-114213796D01*
X127457546Y-114127546D01*
X127543796Y-114012331D01*
X127594091Y-113877483D01*
X127600500Y-113817873D01*
X127600500Y-113719500D01*
X127617113Y-113657500D01*
X127662500Y-113612113D01*
X127724500Y-113595500D01*
X129055849Y-113595500D01*
X129063335Y-113595726D01*
X129121084Y-113599219D01*
X129121084Y-113599218D01*
X129121085Y-113599219D01*
X129177997Y-113588789D01*
X129185396Y-113587663D01*
X129242845Y-113580688D01*
X129251608Y-113577364D01*
X129273222Y-113571338D01*
X129282439Y-113569650D01*
X129282443Y-113569648D01*
X129282444Y-113569648D01*
X129335207Y-113545901D01*
X129342122Y-113543036D01*
X129396226Y-113522518D01*
X129403933Y-113517197D01*
X129423484Y-113506171D01*
X129432028Y-113502326D01*
X129477609Y-113466613D01*
X129483581Y-113462219D01*
X129531229Y-113429332D01*
X129569610Y-113386007D01*
X129574711Y-113380588D01*
X129960588Y-112994711D01*
X129966007Y-112989610D01*
X130009332Y-112951229D01*
X130042219Y-112903581D01*
X130046613Y-112897609D01*
X130082326Y-112852028D01*
X130086171Y-112843484D01*
X130097197Y-112823935D01*
X130098467Y-112822094D01*
X130102518Y-112816226D01*
X130123036Y-112762122D01*
X130125901Y-112755207D01*
X130149648Y-112702444D01*
X130149648Y-112702443D01*
X130149650Y-112702439D01*
X130151338Y-112693222D01*
X130157364Y-112671608D01*
X130160688Y-112662845D01*
X130167663Y-112605396D01*
X130168790Y-112597993D01*
X130179219Y-112541084D01*
X130175726Y-112483335D01*
X130175500Y-112475849D01*
X130175500Y-110367398D01*
X130875746Y-110367398D01*
X130883196Y-110523790D01*
X130885746Y-110577330D01*
X130935297Y-110781580D01*
X131022602Y-110972752D01*
X131110172Y-111095726D01*
X131144514Y-111143952D01*
X131296622Y-111288986D01*
X131368964Y-111335478D01*
X131473425Y-111402612D01*
X131512580Y-111418287D01*
X131668543Y-111480725D01*
X131797228Y-111505527D01*
X131874914Y-111520500D01*
X131874915Y-111520500D01*
X132832420Y-111520500D01*
X132832425Y-111520500D01*
X132989218Y-111505528D01*
X133190875Y-111446316D01*
X133377682Y-111350011D01*
X133542886Y-111220092D01*
X133613762Y-111138296D01*
X133655964Y-111106706D01*
X133707475Y-111095500D01*
X135555849Y-111095500D01*
X135563335Y-111095726D01*
X135621084Y-111099219D01*
X135621084Y-111099218D01*
X135621085Y-111099219D01*
X135677997Y-111088789D01*
X135685396Y-111087663D01*
X135742845Y-111080688D01*
X135751608Y-111077364D01*
X135773222Y-111071338D01*
X135782439Y-111069650D01*
X135782443Y-111069648D01*
X135782444Y-111069648D01*
X135835207Y-111045901D01*
X135842122Y-111043036D01*
X135896226Y-111022518D01*
X135903933Y-111017197D01*
X135923484Y-111006171D01*
X135932028Y-111002326D01*
X135977609Y-110966613D01*
X135983581Y-110962219D01*
X136031229Y-110929332D01*
X136069610Y-110886007D01*
X136074711Y-110880588D01*
X136743482Y-110211819D01*
X136783711Y-110184939D01*
X136831164Y-110175500D01*
X139975849Y-110175500D01*
X139983335Y-110175726D01*
X140041084Y-110179219D01*
X140041084Y-110179218D01*
X140041085Y-110179219D01*
X140097997Y-110168789D01*
X140105396Y-110167663D01*
X140162845Y-110160688D01*
X140171608Y-110157364D01*
X140193222Y-110151338D01*
X140202439Y-110149650D01*
X140202443Y-110149648D01*
X140202444Y-110149648D01*
X140255207Y-110125901D01*
X140262122Y-110123036D01*
X140316226Y-110102518D01*
X140323933Y-110097197D01*
X140343484Y-110086171D01*
X140352028Y-110082326D01*
X140397609Y-110046613D01*
X140403581Y-110042219D01*
X140451229Y-110009332D01*
X140489610Y-109966007D01*
X140494711Y-109960588D01*
X141090588Y-109364711D01*
X141096007Y-109359610D01*
X141139332Y-109321229D01*
X141172219Y-109273581D01*
X141176613Y-109267609D01*
X141212326Y-109222028D01*
X141216171Y-109213484D01*
X141227197Y-109193935D01*
X141231056Y-109188344D01*
X141232518Y-109186226D01*
X141253036Y-109132122D01*
X141255901Y-109125207D01*
X141256879Y-109123034D01*
X141279650Y-109072439D01*
X141281337Y-109063227D01*
X141287365Y-109041603D01*
X141290688Y-109032845D01*
X141297663Y-108975386D01*
X141298783Y-108968031D01*
X141309220Y-108911085D01*
X141305726Y-108853325D01*
X141305500Y-108845838D01*
X141305500Y-102630217D01*
X141319511Y-102572960D01*
X141358376Y-102528642D01*
X141501401Y-102428495D01*
X141668495Y-102261401D01*
X141804035Y-102067830D01*
X141903903Y-101853663D01*
X141965063Y-101625408D01*
X141985659Y-101390000D01*
X141965063Y-101154592D01*
X141903903Y-100926337D01*
X141804035Y-100712171D01*
X141668495Y-100518599D01*
X141501401Y-100351505D01*
X141307830Y-100215965D01*
X141093663Y-100116097D01*
X141023406Y-100097272D01*
X140865407Y-100054936D01*
X140630000Y-100034340D01*
X140394592Y-100054936D01*
X140166336Y-100116097D01*
X139952170Y-100215965D01*
X139758598Y-100351505D01*
X139591505Y-100518598D01*
X139461575Y-100704159D01*
X139417257Y-100743025D01*
X139360000Y-100757036D01*
X139302743Y-100743025D01*
X139258425Y-100704159D01*
X139128494Y-100518598D01*
X138961404Y-100351508D01*
X138961401Y-100351505D01*
X138767830Y-100215965D01*
X138553663Y-100116097D01*
X138483406Y-100097272D01*
X138325407Y-100054936D01*
X138090000Y-100034340D01*
X137854592Y-100054936D01*
X137626336Y-100116097D01*
X137412170Y-100215965D01*
X137218598Y-100351505D01*
X137051505Y-100518598D01*
X136915965Y-100712170D01*
X136816097Y-100926336D01*
X136754936Y-101154592D01*
X136734340Y-101390000D01*
X136754936Y-101625407D01*
X136788187Y-101749500D01*
X136816097Y-101853663D01*
X136915965Y-102067830D01*
X137051505Y-102261401D01*
X137218599Y-102428495D01*
X137412170Y-102564035D01*
X137626337Y-102663903D01*
X137854592Y-102725063D01*
X138090000Y-102745659D01*
X138325408Y-102725063D01*
X138553663Y-102663903D01*
X138767830Y-102564035D01*
X138961401Y-102428495D01*
X139128495Y-102261401D01*
X139258426Y-102075839D01*
X139302743Y-102036975D01*
X139360000Y-102022964D01*
X139417257Y-102036975D01*
X139461573Y-102075839D01*
X139591505Y-102261401D01*
X139758599Y-102428495D01*
X139901624Y-102528642D01*
X139940489Y-102572960D01*
X139954500Y-102630217D01*
X139954500Y-108538837D01*
X139945061Y-108586290D01*
X139918181Y-108626518D01*
X139756518Y-108788181D01*
X139716290Y-108815061D01*
X139668837Y-108824500D01*
X136524145Y-108824500D01*
X136516658Y-108824274D01*
X136458911Y-108820780D01*
X136402011Y-108831207D01*
X136394612Y-108832333D01*
X136337157Y-108839310D01*
X136328383Y-108842638D01*
X136306776Y-108848661D01*
X136297560Y-108850350D01*
X136244796Y-108874096D01*
X136237882Y-108876960D01*
X136183771Y-108897482D01*
X136176053Y-108902810D01*
X136156514Y-108913830D01*
X136147971Y-108917675D01*
X136102419Y-108953361D01*
X136096391Y-108957797D01*
X136048771Y-108990667D01*
X136010413Y-109033965D01*
X136005279Y-109039418D01*
X135336518Y-109708181D01*
X135296290Y-109735061D01*
X135248837Y-109744500D01*
X133713915Y-109744500D01*
X133657097Y-109730717D01*
X133625167Y-109703051D01*
X133624055Y-109704219D01*
X133615487Y-109696049D01*
X133615486Y-109696048D01*
X133463378Y-109551014D01*
X133431257Y-109530371D01*
X133286574Y-109437387D01*
X133105078Y-109364728D01*
X133091457Y-109359275D01*
X133091456Y-109359274D01*
X133091454Y-109359274D01*
X132885086Y-109319500D01*
X132885085Y-109319500D01*
X131927575Y-109319500D01*
X131829579Y-109328857D01*
X131770779Y-109334472D01*
X131569126Y-109393683D01*
X131382315Y-109489990D01*
X131217115Y-109619906D01*
X131079479Y-109778745D01*
X130974396Y-109960754D01*
X130905655Y-110159366D01*
X130882285Y-110321915D01*
X130875746Y-110367398D01*
X130175500Y-110367398D01*
X130175500Y-107831163D01*
X130184939Y-107783710D01*
X130211819Y-107743482D01*
X130743482Y-107211819D01*
X130783710Y-107184939D01*
X130831163Y-107175500D01*
X130901220Y-107175500D01*
X130963220Y-107192113D01*
X131008607Y-107237500D01*
X131025220Y-107299499D01*
X131008608Y-107361499D01*
X130974396Y-107420756D01*
X130905655Y-107619366D01*
X130875746Y-107827396D01*
X130875746Y-107827398D01*
X130881958Y-107957807D01*
X130885746Y-108037330D01*
X130935297Y-108241580D01*
X131022602Y-108432752D01*
X131098146Y-108538837D01*
X131144514Y-108603952D01*
X131296622Y-108748986D01*
X131357610Y-108788181D01*
X131473425Y-108862612D01*
X131502111Y-108874096D01*
X131668543Y-108940725D01*
X131797228Y-108965527D01*
X131874914Y-108980500D01*
X131874915Y-108980500D01*
X132832420Y-108980500D01*
X132832425Y-108980500D01*
X132989218Y-108965528D01*
X133190875Y-108906316D01*
X133377682Y-108810011D01*
X133542886Y-108680092D01*
X133680519Y-108521256D01*
X133785604Y-108339244D01*
X133854344Y-108140633D01*
X133884254Y-107932602D01*
X133874254Y-107722670D01*
X133824704Y-107518424D01*
X133824702Y-107518419D01*
X133737397Y-107327247D01*
X133635230Y-107183775D01*
X133615486Y-107156048D01*
X133463378Y-107011014D01*
X133405256Y-106973661D01*
X133286574Y-106897387D01*
X133091455Y-106819274D01*
X132939052Y-106789901D01*
X132879657Y-106760390D01*
X132843967Y-106704490D01*
X132842191Y-106638191D01*
X132874838Y-106580462D01*
X133470588Y-105984711D01*
X133476007Y-105979610D01*
X133519332Y-105941229D01*
X133552219Y-105893581D01*
X133556613Y-105887609D01*
X133592326Y-105842028D01*
X133596171Y-105833484D01*
X133607197Y-105813935D01*
X133608467Y-105812094D01*
X133612518Y-105806226D01*
X133633036Y-105752122D01*
X133635901Y-105745207D01*
X133659648Y-105692444D01*
X133659648Y-105692443D01*
X133659650Y-105692439D01*
X133661338Y-105683222D01*
X133667364Y-105661608D01*
X133670688Y-105652845D01*
X133677663Y-105595396D01*
X133678790Y-105587993D01*
X133689219Y-105531085D01*
X133685726Y-105473335D01*
X133685500Y-105465849D01*
X133685500Y-102630217D01*
X133699511Y-102572960D01*
X133738376Y-102528642D01*
X133881401Y-102428495D01*
X134048495Y-102261401D01*
X134184035Y-102067830D01*
X134283903Y-101853663D01*
X134345063Y-101625408D01*
X134365659Y-101390000D01*
X134345063Y-101154592D01*
X134283903Y-100926337D01*
X134184035Y-100712171D01*
X134048495Y-100518599D01*
X133881401Y-100351505D01*
X133687830Y-100215965D01*
X133473663Y-100116097D01*
X133403406Y-100097272D01*
X133245407Y-100054936D01*
X133010000Y-100034340D01*
X132774592Y-100054936D01*
X132546336Y-100116097D01*
X132332170Y-100215965D01*
X132138598Y-100351505D01*
X131971508Y-100518595D01*
X131841574Y-100704160D01*
X131797255Y-100743026D01*
X131739999Y-100757036D01*
X131682742Y-100743025D01*
X131638426Y-100704161D01*
X131508495Y-100518599D01*
X131341401Y-100351505D01*
X131147830Y-100215965D01*
X130933663Y-100116097D01*
X130863406Y-100097272D01*
X130705407Y-100054936D01*
X130470000Y-100034340D01*
X130234592Y-100054936D01*
X130006336Y-100116097D01*
X129792170Y-100215965D01*
X129598598Y-100351505D01*
X129431508Y-100518595D01*
X129301574Y-100704160D01*
X129257255Y-100743026D01*
X129199999Y-100757036D01*
X129142742Y-100743025D01*
X129098426Y-100704161D01*
X128968495Y-100518599D01*
X128801401Y-100351505D01*
X128607830Y-100215965D01*
X128393663Y-100116097D01*
X128323406Y-100097272D01*
X128165407Y-100054936D01*
X127930000Y-100034340D01*
X127694592Y-100054936D01*
X127466336Y-100116097D01*
X127252170Y-100215965D01*
X127058598Y-100351505D01*
X126891508Y-100518595D01*
X126761574Y-100704160D01*
X126717255Y-100743026D01*
X126659999Y-100757036D01*
X126602742Y-100743025D01*
X126558426Y-100704161D01*
X126428495Y-100518599D01*
X126261401Y-100351505D01*
X126118375Y-100251357D01*
X126079511Y-100207040D01*
X126065500Y-100149783D01*
X126065500Y-98500000D01*
X143604340Y-98500000D01*
X143624936Y-98735407D01*
X143651142Y-98833208D01*
X143686097Y-98963663D01*
X143785965Y-99177830D01*
X143921505Y-99371401D01*
X144088599Y-99538495D01*
X144282170Y-99674035D01*
X144496337Y-99773903D01*
X144724592Y-99835063D01*
X144960000Y-99855659D01*
X145195408Y-99835063D01*
X145423663Y-99773903D01*
X145637830Y-99674035D01*
X145831401Y-99538495D01*
X145998495Y-99371401D01*
X146134035Y-99177830D01*
X146233903Y-98963663D01*
X146295063Y-98735408D01*
X146315659Y-98500000D01*
X146295063Y-98264592D01*
X146233903Y-98036337D01*
X146134035Y-97822171D01*
X145998495Y-97628599D01*
X145831401Y-97461505D01*
X145645839Y-97331573D01*
X145606974Y-97287255D01*
X145592964Y-97229999D01*
X145606975Y-97172742D01*
X145645837Y-97128428D01*
X145831401Y-96998495D01*
X145998495Y-96831401D01*
X146134035Y-96637830D01*
X146233903Y-96423663D01*
X146295063Y-96195408D01*
X146315659Y-95960000D01*
X146295063Y-95724592D01*
X146233903Y-95496337D01*
X146134035Y-95282171D01*
X145998495Y-95088599D01*
X145831401Y-94921505D01*
X145645839Y-94791573D01*
X145606975Y-94747257D01*
X145592964Y-94690000D01*
X145606975Y-94632743D01*
X145645839Y-94588426D01*
X145831401Y-94458495D01*
X145998495Y-94291401D01*
X146134035Y-94097830D01*
X146233903Y-93883663D01*
X146295063Y-93655408D01*
X146315659Y-93420000D01*
X146295063Y-93184592D01*
X146233903Y-92956337D01*
X146134035Y-92742171D01*
X145998495Y-92548599D01*
X145831401Y-92381505D01*
X145645839Y-92251573D01*
X145606975Y-92207257D01*
X145592964Y-92150000D01*
X145606975Y-92092743D01*
X145645839Y-92048426D01*
X145831401Y-91918495D01*
X145998495Y-91751401D01*
X146134035Y-91557830D01*
X146233903Y-91343663D01*
X146295063Y-91115408D01*
X146315659Y-90880000D01*
X146295063Y-90644592D01*
X146233903Y-90416337D01*
X146134035Y-90202171D01*
X145998495Y-90008599D01*
X145831401Y-89841505D01*
X145645839Y-89711573D01*
X145606975Y-89667257D01*
X145592964Y-89610000D01*
X145606975Y-89552743D01*
X145645839Y-89508426D01*
X145831401Y-89378495D01*
X145998495Y-89211401D01*
X146134035Y-89017830D01*
X146233903Y-88803663D01*
X146295063Y-88575408D01*
X146315659Y-88340000D01*
X146295063Y-88104592D01*
X146233903Y-87876337D01*
X146134035Y-87662171D01*
X145998495Y-87468599D01*
X145831401Y-87301505D01*
X145645839Y-87171573D01*
X145606975Y-87127257D01*
X145592964Y-87070000D01*
X145606975Y-87012743D01*
X145645839Y-86968426D01*
X145831401Y-86838495D01*
X145998495Y-86671401D01*
X146134035Y-86477830D01*
X146233903Y-86263663D01*
X146295063Y-86035408D01*
X146315659Y-85800000D01*
X146295063Y-85564592D01*
X146233903Y-85336337D01*
X146134035Y-85122171D01*
X145998495Y-84928599D01*
X145876569Y-84806673D01*
X145845273Y-84753927D01*
X145843084Y-84692634D01*
X145870537Y-84637789D01*
X145920916Y-84602810D01*
X146052331Y-84553796D01*
X146167546Y-84467546D01*
X146253796Y-84352331D01*
X146304091Y-84217483D01*
X146310500Y-84157873D01*
X146310499Y-82362128D01*
X146304091Y-82302517D01*
X146253796Y-82167669D01*
X146167546Y-82052454D01*
X146052331Y-81966204D01*
X145917483Y-81915909D01*
X145857873Y-81909500D01*
X145857869Y-81909500D01*
X144062130Y-81909500D01*
X144002515Y-81915909D01*
X143867669Y-81966204D01*
X143752454Y-82052454D01*
X143666204Y-82167668D01*
X143615909Y-82302516D01*
X143609500Y-82362130D01*
X143609500Y-84157869D01*
X143615909Y-84217484D01*
X143641056Y-84284906D01*
X143666204Y-84352331D01*
X143752454Y-84467546D01*
X143867669Y-84553796D01*
X143979907Y-84595658D01*
X143999082Y-84602810D01*
X144049462Y-84637789D01*
X144076915Y-84692634D01*
X144074726Y-84753926D01*
X144043431Y-84806673D01*
X143921503Y-84928601D01*
X143785965Y-85122170D01*
X143686097Y-85336336D01*
X143624936Y-85564592D01*
X143604340Y-85800000D01*
X143624936Y-86035407D01*
X143649633Y-86127577D01*
X143686097Y-86263663D01*
X143785965Y-86477830D01*
X143921505Y-86671401D01*
X144088599Y-86838495D01*
X144274160Y-86968426D01*
X144313024Y-87012743D01*
X144327035Y-87070000D01*
X144313024Y-87127257D01*
X144274159Y-87171575D01*
X144088595Y-87301508D01*
X143921505Y-87468598D01*
X143785965Y-87662170D01*
X143686097Y-87876336D01*
X143624936Y-88104592D01*
X143604340Y-88339999D01*
X143624936Y-88575407D01*
X143655407Y-88689125D01*
X143686097Y-88803663D01*
X143785965Y-89017830D01*
X143921505Y-89211401D01*
X144088599Y-89378495D01*
X144274160Y-89508426D01*
X144313024Y-89552743D01*
X144327035Y-89610000D01*
X144313024Y-89667257D01*
X144274158Y-89711575D01*
X144098384Y-89834654D01*
X144088595Y-89841508D01*
X143921505Y-90008598D01*
X143785965Y-90202170D01*
X143686097Y-90416336D01*
X143624936Y-90644592D01*
X143604340Y-90880000D01*
X143624936Y-91115407D01*
X143654860Y-91227083D01*
X143686097Y-91343663D01*
X143785965Y-91557830D01*
X143921505Y-91751401D01*
X144088599Y-91918495D01*
X144274160Y-92048426D01*
X144313024Y-92092743D01*
X144327035Y-92150000D01*
X144313024Y-92207257D01*
X144274158Y-92251575D01*
X144144816Y-92342142D01*
X144088595Y-92381508D01*
X143921505Y-92548598D01*
X143785965Y-92742170D01*
X143686097Y-92956336D01*
X143624936Y-93184592D01*
X143604340Y-93419999D01*
X143624936Y-93655407D01*
X143663026Y-93797561D01*
X143686097Y-93883663D01*
X143785965Y-94097830D01*
X143921505Y-94291401D01*
X144088599Y-94458495D01*
X144274160Y-94588426D01*
X144313024Y-94632743D01*
X144327035Y-94690000D01*
X144313024Y-94747257D01*
X144274158Y-94791575D01*
X144114565Y-94903324D01*
X144088595Y-94921508D01*
X143921505Y-95088598D01*
X143785965Y-95282170D01*
X143686097Y-95496336D01*
X143624936Y-95724592D01*
X143604340Y-95960000D01*
X143624936Y-96195407D01*
X143649196Y-96285946D01*
X143686097Y-96423663D01*
X143785965Y-96637830D01*
X143921505Y-96831401D01*
X144088599Y-96998495D01*
X144274160Y-97128426D01*
X144313024Y-97172743D01*
X144327035Y-97230000D01*
X144313024Y-97287257D01*
X144274159Y-97331575D01*
X144088595Y-97461508D01*
X143921505Y-97628598D01*
X143785965Y-97822170D01*
X143686097Y-98036336D01*
X143624936Y-98264592D01*
X143604340Y-98500000D01*
X126065500Y-98500000D01*
X126065500Y-95039999D01*
X139044340Y-95039999D01*
X139064936Y-95275407D01*
X139090040Y-95369095D01*
X139126097Y-95503663D01*
X139225965Y-95717830D01*
X139361505Y-95911401D01*
X139528599Y-96078495D01*
X139722170Y-96214035D01*
X139936337Y-96313903D01*
X140164592Y-96375063D01*
X140400000Y-96395659D01*
X140635408Y-96375063D01*
X140863663Y-96313903D01*
X141077830Y-96214035D01*
X141271401Y-96078495D01*
X141438495Y-95911401D01*
X141574035Y-95717830D01*
X141673903Y-95503663D01*
X141735063Y-95275408D01*
X141755659Y-95040000D01*
X141735063Y-94804592D01*
X141673903Y-94576337D01*
X141574035Y-94362171D01*
X141438495Y-94168599D01*
X141316569Y-94046673D01*
X141285273Y-93993927D01*
X141283084Y-93932634D01*
X141310537Y-93877789D01*
X141360916Y-93842810D01*
X141492331Y-93793796D01*
X141607546Y-93707546D01*
X141693796Y-93592331D01*
X141744091Y-93457483D01*
X141750500Y-93397873D01*
X141750499Y-91602128D01*
X141744091Y-91542517D01*
X141693796Y-91407669D01*
X141607546Y-91292454D01*
X141492331Y-91206204D01*
X141418396Y-91178628D01*
X141360916Y-91157189D01*
X141310537Y-91122209D01*
X141283084Y-91067365D01*
X141285273Y-91006072D01*
X141316566Y-90953329D01*
X141438495Y-90831401D01*
X141574035Y-90637830D01*
X141673903Y-90423663D01*
X141735063Y-90195408D01*
X141755659Y-89960000D01*
X141752562Y-89924607D01*
X141735063Y-89724592D01*
X141730072Y-89705965D01*
X141673903Y-89496337D01*
X141574035Y-89282171D01*
X141438495Y-89088599D01*
X141271401Y-88921505D01*
X141077830Y-88785965D01*
X140863663Y-88686097D01*
X140802502Y-88669709D01*
X140635407Y-88624936D01*
X140400000Y-88604340D01*
X140164592Y-88624936D01*
X139936336Y-88686097D01*
X139722170Y-88785965D01*
X139528598Y-88921505D01*
X139361505Y-89088598D01*
X139225965Y-89282170D01*
X139126097Y-89496336D01*
X139064936Y-89724592D01*
X139044340Y-89960000D01*
X139064936Y-90195407D01*
X139098792Y-90321759D01*
X139126097Y-90423663D01*
X139225965Y-90637830D01*
X139361505Y-90831401D01*
X139361508Y-90831404D01*
X139483430Y-90953326D01*
X139514726Y-91006072D01*
X139516915Y-91067365D01*
X139489462Y-91122209D01*
X139439083Y-91157189D01*
X139307669Y-91206204D01*
X139192454Y-91292454D01*
X139106204Y-91407668D01*
X139055909Y-91542516D01*
X139049500Y-91602130D01*
X139049500Y-93397869D01*
X139055909Y-93457484D01*
X139063246Y-93477155D01*
X139106204Y-93592331D01*
X139192454Y-93707546D01*
X139307669Y-93793796D01*
X139403319Y-93829471D01*
X139439082Y-93842810D01*
X139489462Y-93877789D01*
X139516915Y-93932634D01*
X139514726Y-93993926D01*
X139483431Y-94046673D01*
X139361503Y-94168601D01*
X139225965Y-94362170D01*
X139126097Y-94576336D01*
X139064936Y-94804592D01*
X139044340Y-95039999D01*
X126065500Y-95039999D01*
X126065500Y-93664151D01*
X126065726Y-93656665D01*
X126066252Y-93647968D01*
X126069219Y-93598915D01*
X126058785Y-93541982D01*
X126057663Y-93534603D01*
X126054725Y-93510406D01*
X126050688Y-93477155D01*
X126050687Y-93477153D01*
X126050687Y-93477151D01*
X126047364Y-93468388D01*
X126041337Y-93446768D01*
X126039650Y-93437561D01*
X126015903Y-93384798D01*
X126013039Y-93377883D01*
X125992518Y-93323774D01*
X125987193Y-93316059D01*
X125976174Y-93296523D01*
X125972326Y-93287972D01*
X125936639Y-93242422D01*
X125932200Y-93236389D01*
X125899332Y-93188770D01*
X125856027Y-93150406D01*
X125850572Y-93145271D01*
X125131819Y-92426518D01*
X125104939Y-92386290D01*
X125095500Y-92338837D01*
X125095500Y-90833915D01*
X125109283Y-90777097D01*
X125136948Y-90745167D01*
X125135781Y-90744055D01*
X125143950Y-90735487D01*
X125143952Y-90735486D01*
X125288986Y-90583378D01*
X125394479Y-90419229D01*
X125402612Y-90406574D01*
X125416462Y-90371978D01*
X125480725Y-90211457D01*
X125514387Y-90036801D01*
X125520500Y-90005086D01*
X125520500Y-89952425D01*
X125859500Y-89952425D01*
X125864529Y-90005086D01*
X125874472Y-90109220D01*
X125933683Y-90310873D01*
X126029990Y-90497684D01*
X126141280Y-90639199D01*
X126159908Y-90662886D01*
X126241703Y-90733762D01*
X126318745Y-90800520D01*
X126500754Y-90905603D01*
X126500756Y-90905604D01*
X126518017Y-90911578D01*
X126699366Y-90974344D01*
X126720114Y-90977327D01*
X126907398Y-91004254D01*
X127117330Y-90994254D01*
X127321576Y-90944704D01*
X127386555Y-90915029D01*
X127512752Y-90857397D01*
X127580839Y-90808912D01*
X127683952Y-90735486D01*
X127828986Y-90583378D01*
X127934479Y-90419229D01*
X127942612Y-90406574D01*
X127956462Y-90371978D01*
X128020725Y-90211457D01*
X128054387Y-90036801D01*
X128060500Y-90005086D01*
X128060500Y-89952425D01*
X128399500Y-89952425D01*
X128404529Y-90005086D01*
X128414472Y-90109220D01*
X128473683Y-90310873D01*
X128569990Y-90497684D01*
X128681280Y-90639199D01*
X128699908Y-90662886D01*
X128781703Y-90733762D01*
X128858745Y-90800520D01*
X129040754Y-90905603D01*
X129040756Y-90905604D01*
X129058017Y-90911578D01*
X129239366Y-90974344D01*
X129260114Y-90977327D01*
X129447398Y-91004254D01*
X129657330Y-90994254D01*
X129861576Y-90944704D01*
X129926555Y-90915029D01*
X130052752Y-90857397D01*
X130120839Y-90808912D01*
X130223952Y-90735486D01*
X130368986Y-90583378D01*
X130474479Y-90419229D01*
X130482612Y-90406574D01*
X130496462Y-90371978D01*
X130560725Y-90211457D01*
X130594387Y-90036801D01*
X130600500Y-90005086D01*
X130600500Y-89952425D01*
X130939500Y-89952425D01*
X130944529Y-90005086D01*
X130954472Y-90109220D01*
X131013683Y-90310873D01*
X131109990Y-90497684D01*
X131221280Y-90639199D01*
X131239908Y-90662886D01*
X131321703Y-90733762D01*
X131398745Y-90800520D01*
X131580754Y-90905603D01*
X131580756Y-90905604D01*
X131598017Y-90911578D01*
X131779366Y-90974344D01*
X131800114Y-90977327D01*
X131987398Y-91004254D01*
X132197330Y-90994254D01*
X132401576Y-90944704D01*
X132466555Y-90915029D01*
X132592752Y-90857397D01*
X132660839Y-90808912D01*
X132763952Y-90735486D01*
X132908986Y-90583378D01*
X133014479Y-90419229D01*
X133022612Y-90406574D01*
X133036462Y-90371978D01*
X133100725Y-90211457D01*
X133134387Y-90036801D01*
X133140500Y-90005086D01*
X133140500Y-89952425D01*
X136019500Y-89952425D01*
X136024529Y-90005086D01*
X136034472Y-90109220D01*
X136093683Y-90310873D01*
X136189990Y-90497684D01*
X136301280Y-90639199D01*
X136319908Y-90662886D01*
X136401703Y-90733762D01*
X136478745Y-90800520D01*
X136660754Y-90905603D01*
X136660756Y-90905604D01*
X136678017Y-90911578D01*
X136859366Y-90974344D01*
X136880114Y-90977327D01*
X137067398Y-91004254D01*
X137277330Y-90994254D01*
X137481576Y-90944704D01*
X137546555Y-90915029D01*
X137672752Y-90857397D01*
X137740839Y-90808912D01*
X137843952Y-90735486D01*
X137988986Y-90583378D01*
X138094479Y-90419229D01*
X138102612Y-90406574D01*
X138116462Y-90371978D01*
X138180725Y-90211457D01*
X138214387Y-90036801D01*
X138220500Y-90005086D01*
X138220500Y-89047580D01*
X138220500Y-89047575D01*
X138205528Y-88890782D01*
X138146316Y-88689125D01*
X138050011Y-88502318D01*
X138048581Y-88500500D01*
X137920093Y-88337115D01*
X137761254Y-88199479D01*
X137579245Y-88094396D01*
X137380633Y-88025655D01*
X137172603Y-87995746D01*
X137172602Y-87995746D01*
X137067635Y-88000746D01*
X136962669Y-88005746D01*
X136758419Y-88055297D01*
X136567247Y-88142602D01*
X136396050Y-88264512D01*
X136251013Y-88416623D01*
X136137387Y-88593425D01*
X136059274Y-88788545D01*
X136024554Y-88968691D01*
X136019500Y-88994915D01*
X136019500Y-89952425D01*
X133140500Y-89952425D01*
X133140500Y-89047580D01*
X133140500Y-89047575D01*
X133125528Y-88890782D01*
X133066316Y-88689125D01*
X132970011Y-88502318D01*
X132968581Y-88500500D01*
X132840093Y-88337115D01*
X132681254Y-88199479D01*
X132499245Y-88094396D01*
X132300633Y-88025655D01*
X132092603Y-87995746D01*
X132092602Y-87995746D01*
X131987635Y-88000746D01*
X131882669Y-88005746D01*
X131678419Y-88055297D01*
X131487247Y-88142602D01*
X131316050Y-88264512D01*
X131171013Y-88416623D01*
X131057387Y-88593425D01*
X130979274Y-88788545D01*
X130944554Y-88968691D01*
X130939500Y-88994915D01*
X130939500Y-89952425D01*
X130600500Y-89952425D01*
X130600500Y-89047580D01*
X130600500Y-89047575D01*
X130585528Y-88890782D01*
X130526316Y-88689125D01*
X130430011Y-88502318D01*
X130428581Y-88500500D01*
X130300093Y-88337115D01*
X130141254Y-88199479D01*
X129959245Y-88094396D01*
X129760633Y-88025655D01*
X129552603Y-87995746D01*
X129552602Y-87995746D01*
X129447635Y-88000746D01*
X129342669Y-88005746D01*
X129138419Y-88055297D01*
X128947247Y-88142602D01*
X128776050Y-88264512D01*
X128631013Y-88416623D01*
X128517387Y-88593425D01*
X128439274Y-88788545D01*
X128404554Y-88968691D01*
X128399500Y-88994915D01*
X128399500Y-89952425D01*
X128060500Y-89952425D01*
X128060500Y-89047580D01*
X128060500Y-89047575D01*
X128045528Y-88890782D01*
X127986316Y-88689125D01*
X127890011Y-88502318D01*
X127888581Y-88500500D01*
X127760093Y-88337115D01*
X127601254Y-88199479D01*
X127419245Y-88094396D01*
X127220633Y-88025655D01*
X127012603Y-87995746D01*
X127012602Y-87995746D01*
X126907635Y-88000746D01*
X126802669Y-88005746D01*
X126598419Y-88055297D01*
X126407247Y-88142602D01*
X126236050Y-88264512D01*
X126091013Y-88416623D01*
X125977387Y-88593425D01*
X125899274Y-88788545D01*
X125864554Y-88968691D01*
X125859500Y-88994915D01*
X125859500Y-89952425D01*
X125520500Y-89952425D01*
X125520500Y-89047580D01*
X125520500Y-89047575D01*
X125505528Y-88890782D01*
X125446316Y-88689125D01*
X125350011Y-88502318D01*
X125348581Y-88500500D01*
X125220093Y-88337115D01*
X125061254Y-88199479D01*
X124879245Y-88094396D01*
X124680633Y-88025655D01*
X124472603Y-87995746D01*
X124472602Y-87995746D01*
X124367635Y-88000746D01*
X124262669Y-88005746D01*
X124058419Y-88055297D01*
X123867247Y-88142602D01*
X123696050Y-88264512D01*
X123551013Y-88416623D01*
X123437387Y-88593425D01*
X123359274Y-88788545D01*
X123324554Y-88968691D01*
X123319500Y-88994915D01*
X123319500Y-89952425D01*
X123324529Y-90005086D01*
X123334472Y-90109220D01*
X123393683Y-90310873D01*
X123489990Y-90497684D01*
X123601280Y-90639199D01*
X123619908Y-90662886D01*
X123650500Y-90689394D01*
X123701703Y-90733762D01*
X123733294Y-90775964D01*
X123744500Y-90827475D01*
X123744500Y-92645849D01*
X123744274Y-92653336D01*
X123740780Y-92711087D01*
X123751207Y-92767987D01*
X123752334Y-92775386D01*
X123759312Y-92832847D01*
X123762636Y-92841612D01*
X123768660Y-92863223D01*
X123770348Y-92872436D01*
X123781620Y-92897482D01*
X123794101Y-92925215D01*
X123796960Y-92932117D01*
X123817482Y-92986227D01*
X123822804Y-92993938D01*
X123833824Y-93013476D01*
X123837673Y-93022026D01*
X123837674Y-93022028D01*
X123851305Y-93039426D01*
X123873360Y-93067577D01*
X123877800Y-93073611D01*
X123910668Y-93121229D01*
X123953989Y-93159608D01*
X123959426Y-93164727D01*
X124678181Y-93883482D01*
X124705061Y-93923710D01*
X124714500Y-93971163D01*
X124714500Y-100149784D01*
X124700489Y-100207041D01*
X124661623Y-100251359D01*
X124518598Y-100351505D01*
X124351505Y-100518598D01*
X124215965Y-100712170D01*
X124116097Y-100926336D01*
X124054936Y-101154592D01*
X124034340Y-101389999D01*
X124054936Y-101625407D01*
X124088187Y-101749500D01*
X124116097Y-101853663D01*
X124215965Y-102067830D01*
X124351505Y-102261401D01*
X124518599Y-102428495D01*
X124712170Y-102564035D01*
X124926337Y-102663903D01*
X125117458Y-102715113D01*
X125154592Y-102725063D01*
X125389999Y-102745659D01*
X125389999Y-102745658D01*
X125390000Y-102745659D01*
X125625408Y-102725063D01*
X125625409Y-102725062D01*
X125625988Y-102725012D01*
X125685246Y-102734397D01*
X125733162Y-102770504D01*
X125758518Y-102824879D01*
X125755378Y-102884794D01*
X125724477Y-102936221D01*
X125613515Y-103047183D01*
X125573290Y-103074061D01*
X125525837Y-103083500D01*
X124992151Y-103083500D01*
X124984665Y-103083274D01*
X124982385Y-103083136D01*
X124926912Y-103079780D01*
X124870011Y-103090207D01*
X124862612Y-103091333D01*
X124805157Y-103098310D01*
X124796383Y-103101638D01*
X124774776Y-103107661D01*
X124765562Y-103109349D01*
X124712782Y-103133102D01*
X124705868Y-103135965D01*
X124651775Y-103156481D01*
X124644058Y-103161807D01*
X124624524Y-103172824D01*
X124615973Y-103176673D01*
X124570417Y-103212363D01*
X124564387Y-103216800D01*
X124516770Y-103249668D01*
X124478406Y-103292972D01*
X124473273Y-103298424D01*
X123872424Y-103899273D01*
X123866972Y-103904406D01*
X123823668Y-103942770D01*
X123790800Y-103990387D01*
X123786363Y-103996417D01*
X123750673Y-104041973D01*
X123746824Y-104050524D01*
X123735807Y-104070058D01*
X123730481Y-104077775D01*
X123709965Y-104131868D01*
X123707102Y-104138782D01*
X123683349Y-104191562D01*
X123681661Y-104200776D01*
X123675638Y-104222383D01*
X123672310Y-104231157D01*
X123665333Y-104288612D01*
X123664207Y-104296011D01*
X123653780Y-104352912D01*
X123657274Y-104410664D01*
X123657500Y-104418151D01*
X123657500Y-112118500D01*
X123640887Y-112180500D01*
X123595500Y-112225887D01*
X123533500Y-112242500D01*
X123394499Y-112242500D01*
X123332499Y-112225887D01*
X123287112Y-112180500D01*
X123270499Y-112118500D01*
X123270499Y-112020130D01*
X123270499Y-112020127D01*
X123264091Y-111960517D01*
X123213796Y-111825669D01*
X123127546Y-111710454D01*
X123012331Y-111624204D01*
X122877483Y-111573909D01*
X122817873Y-111567500D01*
X122817869Y-111567500D01*
X121022130Y-111567500D01*
X120962515Y-111573909D01*
X120827669Y-111624204D01*
X120712454Y-111710454D01*
X120626204Y-111825668D01*
X120575909Y-111960516D01*
X120569500Y-112020130D01*
X120569500Y-113815869D01*
X120575909Y-113875483D01*
X120626204Y-114010331D01*
X120712454Y-114125546D01*
X120827669Y-114211796D01*
X120939907Y-114253658D01*
X120959082Y-114260810D01*
X121009462Y-114295789D01*
X121036915Y-114350634D01*
X121034726Y-114411926D01*
X121003431Y-114464673D01*
X120881503Y-114586601D01*
X120745965Y-114780170D01*
X120646097Y-114994336D01*
X120584936Y-115222592D01*
X120564340Y-115458000D01*
X111581860Y-115458000D01*
X111571063Y-115334592D01*
X111509903Y-115106337D01*
X111410035Y-114892171D01*
X111274495Y-114698599D01*
X111152569Y-114576673D01*
X111121273Y-114523927D01*
X111119084Y-114462634D01*
X111146537Y-114407789D01*
X111196916Y-114372810D01*
X111328331Y-114323796D01*
X111443546Y-114237546D01*
X111529796Y-114122331D01*
X111580091Y-113987483D01*
X111586500Y-113927873D01*
X111586499Y-112132128D01*
X111580091Y-112072517D01*
X111529796Y-111937669D01*
X111443546Y-111822454D01*
X111328331Y-111736204D01*
X111193483Y-111685909D01*
X111133873Y-111679500D01*
X111133869Y-111679500D01*
X111035500Y-111679500D01*
X110973500Y-111662887D01*
X110928113Y-111617500D01*
X110911500Y-111555500D01*
X110911500Y-110694164D01*
X110920939Y-110646711D01*
X110947820Y-110606482D01*
X110987485Y-110566818D01*
X111027713Y-110539939D01*
X111075165Y-110530500D01*
X111481849Y-110530500D01*
X111489335Y-110530726D01*
X111547084Y-110534219D01*
X111547084Y-110534218D01*
X111547085Y-110534219D01*
X111603997Y-110523789D01*
X111611396Y-110522663D01*
X111668845Y-110515688D01*
X111677608Y-110512364D01*
X111699222Y-110506338D01*
X111708439Y-110504650D01*
X111708443Y-110504648D01*
X111708444Y-110504648D01*
X111761207Y-110480901D01*
X111768122Y-110478036D01*
X111822226Y-110457518D01*
X111829933Y-110452197D01*
X111849484Y-110441171D01*
X111858028Y-110437326D01*
X111903609Y-110401613D01*
X111909581Y-110397219D01*
X111957229Y-110364332D01*
X111995610Y-110321007D01*
X112000711Y-110315588D01*
X113104482Y-109211819D01*
X113144711Y-109184939D01*
X113192164Y-109175500D01*
X115975849Y-109175500D01*
X115983335Y-109175726D01*
X116041084Y-109179219D01*
X116041084Y-109179218D01*
X116041085Y-109179219D01*
X116097997Y-109168789D01*
X116105396Y-109167663D01*
X116162845Y-109160688D01*
X116171608Y-109157364D01*
X116193222Y-109151338D01*
X116202439Y-109149650D01*
X116202443Y-109149648D01*
X116202444Y-109149648D01*
X116255207Y-109125901D01*
X116262122Y-109123036D01*
X116316226Y-109102518D01*
X116323933Y-109097197D01*
X116343484Y-109086171D01*
X116352028Y-109082326D01*
X116397609Y-109046613D01*
X116403581Y-109042219D01*
X116451229Y-109009332D01*
X116489610Y-108966007D01*
X116494711Y-108960588D01*
X116960588Y-108494711D01*
X116966007Y-108489610D01*
X117009332Y-108451229D01*
X117042219Y-108403581D01*
X117046613Y-108397609D01*
X117082326Y-108352028D01*
X117086171Y-108343484D01*
X117097197Y-108323935D01*
X117098467Y-108322094D01*
X117102518Y-108316226D01*
X117123036Y-108262122D01*
X117125901Y-108255207D01*
X117149648Y-108202444D01*
X117149648Y-108202443D01*
X117149650Y-108202439D01*
X117151338Y-108193222D01*
X117157364Y-108171608D01*
X117160688Y-108162845D01*
X117167663Y-108105396D01*
X117168790Y-108097993D01*
X117178052Y-108047453D01*
X117179219Y-108041085D01*
X117175726Y-107983335D01*
X117175500Y-107975849D01*
X117175500Y-102790445D01*
X117188288Y-102735601D01*
X117224014Y-102692069D01*
X117275309Y-102668828D01*
X117331591Y-102670669D01*
X117534592Y-102725063D01*
X117770000Y-102745659D01*
X118005408Y-102725063D01*
X118233663Y-102663903D01*
X118447830Y-102564035D01*
X118641401Y-102428495D01*
X118808495Y-102261401D01*
X118938426Y-102075839D01*
X118982743Y-102036975D01*
X119040000Y-102022964D01*
X119097257Y-102036975D01*
X119141573Y-102075839D01*
X119271505Y-102261401D01*
X119438599Y-102428495D01*
X119632170Y-102564035D01*
X119846337Y-102663903D01*
X120074592Y-102725063D01*
X120310000Y-102745659D01*
X120545408Y-102725063D01*
X120773663Y-102663903D01*
X120987830Y-102564035D01*
X121181401Y-102428495D01*
X121348495Y-102261401D01*
X121484035Y-102067830D01*
X121583903Y-101853663D01*
X121645063Y-101625408D01*
X121665659Y-101390000D01*
X121645063Y-101154592D01*
X121583903Y-100926337D01*
X121484035Y-100712171D01*
X121348495Y-100518599D01*
X121181401Y-100351505D01*
X121038375Y-100251357D01*
X120999511Y-100207040D01*
X120985500Y-100149783D01*
X120985500Y-95716211D01*
X121002113Y-95654211D01*
X121008173Y-95643716D01*
X121096179Y-95491284D01*
X121154674Y-95311256D01*
X121174460Y-95123000D01*
X121154674Y-94934744D01*
X121107660Y-94790050D01*
X121096179Y-94754715D01*
X121001533Y-94590783D01*
X120874870Y-94450110D01*
X120721730Y-94338848D01*
X120548802Y-94261855D01*
X120363648Y-94222500D01*
X120363646Y-94222500D01*
X120174354Y-94222500D01*
X120174352Y-94222500D01*
X119989197Y-94261855D01*
X119804364Y-94344149D01*
X119803180Y-94341490D01*
X119759227Y-94357705D01*
X119693204Y-94344571D01*
X119643772Y-94298876D01*
X119625500Y-94234087D01*
X119625500Y-85230452D01*
X119634939Y-85183000D01*
X119661816Y-85142773D01*
X119854355Y-84950234D01*
X119909938Y-84918143D01*
X119974126Y-84918143D01*
X120074592Y-84945063D01*
X120310000Y-84965659D01*
X120545408Y-84945063D01*
X120773663Y-84883903D01*
X120987830Y-84784035D01*
X121181401Y-84648495D01*
X121348495Y-84481401D01*
X121484035Y-84287830D01*
X121583903Y-84073663D01*
X121645063Y-83845408D01*
X121665659Y-83610000D01*
X121665659Y-83609999D01*
X124034340Y-83609999D01*
X124054936Y-83845407D01*
X124066913Y-83890104D01*
X124116097Y-84073663D01*
X124215965Y-84287830D01*
X124351505Y-84481401D01*
X124518599Y-84648495D01*
X124712170Y-84784035D01*
X124926337Y-84883903D01*
X125154592Y-84945063D01*
X125390000Y-84965659D01*
X125625408Y-84945063D01*
X125853663Y-84883903D01*
X126067830Y-84784035D01*
X126261401Y-84648495D01*
X126428495Y-84481401D01*
X126558426Y-84295839D01*
X126602743Y-84256975D01*
X126660000Y-84242964D01*
X126717257Y-84256975D01*
X126761573Y-84295839D01*
X126891505Y-84481401D01*
X127058599Y-84648495D01*
X127252170Y-84784035D01*
X127466337Y-84883903D01*
X127694592Y-84945063D01*
X127930000Y-84965659D01*
X128165408Y-84945063D01*
X128393663Y-84883903D01*
X128607830Y-84784035D01*
X128801401Y-84648495D01*
X128968495Y-84481401D01*
X129098426Y-84295839D01*
X129142743Y-84256975D01*
X129200000Y-84242964D01*
X129257257Y-84256975D01*
X129301573Y-84295839D01*
X129431505Y-84481401D01*
X129598599Y-84648495D01*
X129792170Y-84784035D01*
X130006337Y-84883903D01*
X130234592Y-84945063D01*
X130470000Y-84965659D01*
X130705408Y-84945063D01*
X130933663Y-84883903D01*
X131147830Y-84784035D01*
X131341401Y-84648495D01*
X131508495Y-84481401D01*
X131638426Y-84295839D01*
X131682743Y-84256975D01*
X131740000Y-84242964D01*
X131797257Y-84256975D01*
X131841573Y-84295839D01*
X131971505Y-84481401D01*
X132138599Y-84648495D01*
X132332170Y-84784035D01*
X132546337Y-84883903D01*
X132774592Y-84945063D01*
X133010000Y-84965659D01*
X133245408Y-84945063D01*
X133473663Y-84883903D01*
X133687830Y-84784035D01*
X133881401Y-84648495D01*
X134048495Y-84481401D01*
X134184035Y-84287830D01*
X134283903Y-84073663D01*
X134345063Y-83845408D01*
X134365659Y-83610000D01*
X136734340Y-83610000D01*
X136754936Y-83845407D01*
X136766913Y-83890104D01*
X136816097Y-84073663D01*
X136915965Y-84287830D01*
X137051505Y-84481401D01*
X137218599Y-84648495D01*
X137412170Y-84784035D01*
X137626337Y-84883903D01*
X137854592Y-84945063D01*
X138090000Y-84965659D01*
X138325408Y-84945063D01*
X138553663Y-84883903D01*
X138767830Y-84784035D01*
X138961401Y-84648495D01*
X139128495Y-84481401D01*
X139258426Y-84295839D01*
X139302743Y-84256975D01*
X139360000Y-84242964D01*
X139417257Y-84256975D01*
X139461573Y-84295839D01*
X139591505Y-84481401D01*
X139758599Y-84648495D01*
X139952170Y-84784035D01*
X140166337Y-84883903D01*
X140394592Y-84945063D01*
X140630000Y-84965659D01*
X140865408Y-84945063D01*
X141093663Y-84883903D01*
X141307830Y-84784035D01*
X141501401Y-84648495D01*
X141668495Y-84481401D01*
X141804035Y-84287830D01*
X141903903Y-84073663D01*
X141965063Y-83845408D01*
X141985659Y-83610000D01*
X141965063Y-83374592D01*
X141903903Y-83146337D01*
X141804035Y-82932171D01*
X141668495Y-82738599D01*
X141501401Y-82571505D01*
X141307830Y-82435965D01*
X141093663Y-82336097D01*
X141032501Y-82319709D01*
X140865407Y-82274936D01*
X140630000Y-82254340D01*
X140394592Y-82274936D01*
X140166336Y-82336097D01*
X139952170Y-82435965D01*
X139758598Y-82571505D01*
X139591505Y-82738598D01*
X139461575Y-82924159D01*
X139417257Y-82963025D01*
X139360000Y-82977036D01*
X139302743Y-82963025D01*
X139258425Y-82924159D01*
X139128494Y-82738598D01*
X138961404Y-82571508D01*
X138961401Y-82571505D01*
X138767830Y-82435965D01*
X138553663Y-82336097D01*
X138492501Y-82319709D01*
X138325407Y-82274936D01*
X138090000Y-82254340D01*
X137854592Y-82274936D01*
X137626336Y-82336097D01*
X137412170Y-82435965D01*
X137218598Y-82571505D01*
X137051505Y-82738598D01*
X136915965Y-82932170D01*
X136816097Y-83146336D01*
X136754936Y-83374592D01*
X136734340Y-83610000D01*
X134365659Y-83610000D01*
X134345063Y-83374592D01*
X134283903Y-83146337D01*
X134184035Y-82932171D01*
X134048495Y-82738599D01*
X133881401Y-82571505D01*
X133687830Y-82435965D01*
X133473663Y-82336097D01*
X133412501Y-82319709D01*
X133245407Y-82274936D01*
X133010000Y-82254340D01*
X132774592Y-82274936D01*
X132546336Y-82336097D01*
X132332170Y-82435965D01*
X132138598Y-82571505D01*
X131971505Y-82738598D01*
X131841575Y-82924159D01*
X131797257Y-82963025D01*
X131740000Y-82977036D01*
X131682743Y-82963025D01*
X131638425Y-82924159D01*
X131508494Y-82738598D01*
X131341404Y-82571508D01*
X131341401Y-82571505D01*
X131147830Y-82435965D01*
X130933663Y-82336097D01*
X130872501Y-82319709D01*
X130705407Y-82274936D01*
X130470000Y-82254340D01*
X130234592Y-82274936D01*
X130006336Y-82336097D01*
X129792170Y-82435965D01*
X129598598Y-82571505D01*
X129431505Y-82738598D01*
X129301575Y-82924159D01*
X129257257Y-82963025D01*
X129200000Y-82977036D01*
X129142743Y-82963025D01*
X129098425Y-82924159D01*
X128968494Y-82738598D01*
X128801404Y-82571508D01*
X128801401Y-82571505D01*
X128607830Y-82435965D01*
X128393663Y-82336097D01*
X128332501Y-82319709D01*
X128165407Y-82274936D01*
X127930000Y-82254340D01*
X127694592Y-82274936D01*
X127466336Y-82336097D01*
X127252170Y-82435965D01*
X127058598Y-82571505D01*
X126891505Y-82738598D01*
X126761575Y-82924159D01*
X126717257Y-82963025D01*
X126660000Y-82977036D01*
X126602743Y-82963025D01*
X126558425Y-82924159D01*
X126428494Y-82738598D01*
X126261404Y-82571508D01*
X126261401Y-82571505D01*
X126067830Y-82435965D01*
X125853663Y-82336097D01*
X125792501Y-82319709D01*
X125625407Y-82274936D01*
X125390000Y-82254340D01*
X125154592Y-82274936D01*
X124926336Y-82336097D01*
X124712170Y-82435965D01*
X124518598Y-82571505D01*
X124351505Y-82738598D01*
X124215965Y-82932170D01*
X124116097Y-83146336D01*
X124054936Y-83374592D01*
X124034340Y-83609999D01*
X121665659Y-83609999D01*
X121645063Y-83374592D01*
X121583903Y-83146337D01*
X121484035Y-82932171D01*
X121348495Y-82738599D01*
X121181401Y-82571505D01*
X120987830Y-82435965D01*
X120773663Y-82336097D01*
X120712501Y-82319709D01*
X120545407Y-82274936D01*
X120310000Y-82254340D01*
X120074592Y-82274936D01*
X119846336Y-82336097D01*
X119632170Y-82435965D01*
X119438598Y-82571505D01*
X119271505Y-82738598D01*
X119141575Y-82924159D01*
X119097257Y-82963025D01*
X119040000Y-82977036D01*
X118982743Y-82963025D01*
X118938425Y-82924159D01*
X118808494Y-82738598D01*
X118641404Y-82571508D01*
X118641401Y-82571505D01*
X118447830Y-82435965D01*
X118233663Y-82336097D01*
X118172501Y-82319709D01*
X118005407Y-82274936D01*
X117770000Y-82254340D01*
X117534592Y-82274936D01*
X117306336Y-82336097D01*
X117092170Y-82435965D01*
X116898598Y-82571505D01*
X116731505Y-82738598D01*
X116601575Y-82924159D01*
X116557257Y-82963025D01*
X116500000Y-82977036D01*
X116442743Y-82963025D01*
X116398425Y-82924159D01*
X116268494Y-82738598D01*
X116101404Y-82571508D01*
X116101401Y-82571505D01*
X115907830Y-82435965D01*
X115693663Y-82336097D01*
X115632501Y-82319709D01*
X115465407Y-82274936D01*
X115230000Y-82254340D01*
X114994592Y-82274936D01*
X114766336Y-82336097D01*
X114552170Y-82435965D01*
X114358598Y-82571505D01*
X114191505Y-82738598D01*
X114061575Y-82924159D01*
X114017257Y-82963025D01*
X113960000Y-82977036D01*
X113902743Y-82963025D01*
X113858425Y-82924159D01*
X113728494Y-82738598D01*
X113561404Y-82571508D01*
X113561401Y-82571505D01*
X113367830Y-82435965D01*
X113153663Y-82336097D01*
X113092501Y-82319709D01*
X112925407Y-82274936D01*
X112690000Y-82254340D01*
X112454592Y-82274936D01*
X112226336Y-82336097D01*
X112012170Y-82435965D01*
X111818598Y-82571505D01*
X111651505Y-82738598D01*
X111515965Y-82932170D01*
X111416097Y-83146336D01*
X111354936Y-83374592D01*
X111334340Y-83609999D01*
X111354936Y-83845406D01*
X111366913Y-83890104D01*
X111366913Y-83954291D01*
X111334819Y-84009878D01*
X111004424Y-84340273D01*
X110998972Y-84345406D01*
X110955668Y-84383770D01*
X110922800Y-84431387D01*
X110918363Y-84437417D01*
X110882673Y-84482973D01*
X110878824Y-84491524D01*
X110867807Y-84511058D01*
X110862481Y-84518775D01*
X110841965Y-84572868D01*
X110839102Y-84579782D01*
X110815349Y-84632562D01*
X110813661Y-84641776D01*
X110807638Y-84663383D01*
X110804310Y-84672157D01*
X110797333Y-84729612D01*
X110796207Y-84737011D01*
X110785780Y-84793912D01*
X110789274Y-84851664D01*
X110789500Y-84859151D01*
X110789500Y-87937656D01*
X110775716Y-87994476D01*
X110737427Y-88038663D01*
X110683147Y-88060394D01*
X110624943Y-88054836D01*
X110540633Y-88025655D01*
X110332603Y-87995746D01*
X110332602Y-87995746D01*
X110227635Y-88000746D01*
X110122669Y-88005746D01*
X109918419Y-88055297D01*
X109727247Y-88142602D01*
X109556050Y-88264512D01*
X109411013Y-88416623D01*
X109297387Y-88593425D01*
X109219274Y-88788545D01*
X109184554Y-88968691D01*
X109179500Y-88994915D01*
X109179500Y-89952425D01*
X109184529Y-90005086D01*
X109194472Y-90109220D01*
X109253683Y-90310873D01*
X109349990Y-90497684D01*
X109461280Y-90639199D01*
X109479908Y-90662886D01*
X109561703Y-90733762D01*
X109638745Y-90800520D01*
X109820754Y-90905603D01*
X109820756Y-90905604D01*
X109838017Y-90911578D01*
X110019366Y-90974344D01*
X110040114Y-90977327D01*
X110227398Y-91004254D01*
X110437330Y-90994254D01*
X110636266Y-90945991D01*
X110691858Y-90945331D01*
X110742152Y-90969026D01*
X110777037Y-91012316D01*
X110789500Y-91066497D01*
X110789500Y-107700500D01*
X110772887Y-107762500D01*
X110727500Y-107807887D01*
X110665500Y-107824500D01*
X106027145Y-107824500D01*
X106019658Y-107824274D01*
X105961911Y-107820780D01*
X105905011Y-107831207D01*
X105897612Y-107832333D01*
X105840157Y-107839310D01*
X105831383Y-107842638D01*
X105809776Y-107848661D01*
X105800560Y-107850350D01*
X105747796Y-107874096D01*
X105740882Y-107876960D01*
X105686771Y-107897482D01*
X105679053Y-107902810D01*
X105659514Y-107913830D01*
X105650971Y-107917675D01*
X105605419Y-107953361D01*
X105599391Y-107957797D01*
X105551771Y-107990668D01*
X105513413Y-108033964D01*
X105508280Y-108039416D01*
X105039423Y-108508274D01*
X105033970Y-108513407D01*
X104990669Y-108551768D01*
X104957800Y-108599387D01*
X104953363Y-108605417D01*
X104917673Y-108650972D01*
X104913822Y-108659528D01*
X104902808Y-108679055D01*
X104897483Y-108686770D01*
X104876967Y-108740868D01*
X104874101Y-108747787D01*
X104850349Y-108800560D01*
X104848661Y-108809775D01*
X104842638Y-108831383D01*
X104839310Y-108840157D01*
X104832333Y-108897612D01*
X104831207Y-108905011D01*
X104820780Y-108961912D01*
X104824274Y-109019664D01*
X104824500Y-109027151D01*
X104824500Y-111555501D01*
X104807887Y-111617501D01*
X104762500Y-111662888D01*
X104700500Y-111679501D01*
X104602128Y-111679501D01*
X104572322Y-111682705D01*
X104542515Y-111685909D01*
X104407669Y-111736204D01*
X104292454Y-111822454D01*
X104206204Y-111937668D01*
X104155909Y-112072516D01*
X104149500Y-112132130D01*
X104149500Y-113927869D01*
X104155909Y-113987484D01*
X104181056Y-114054906D01*
X104206204Y-114122331D01*
X104292454Y-114237546D01*
X104407669Y-114323796D01*
X104519907Y-114365658D01*
X104539082Y-114372810D01*
X104589462Y-114407789D01*
X104616915Y-114462634D01*
X104614726Y-114523926D01*
X104583431Y-114576673D01*
X104461503Y-114698601D01*
X104361359Y-114841623D01*
X104317041Y-114880489D01*
X104259784Y-114894500D01*
X102439163Y-114894500D01*
X102391710Y-114885061D01*
X102351482Y-114858181D01*
X101926819Y-114433518D01*
X101899939Y-114393290D01*
X101890500Y-114345837D01*
X101890500Y-102776550D01*
X101905785Y-102716908D01*
X101947873Y-102671970D01*
X102006387Y-102652816D01*
X102055602Y-102662046D01*
X102055858Y-102661095D01*
X102066336Y-102663902D01*
X102066337Y-102663903D01*
X102294592Y-102725063D01*
X102530000Y-102745659D01*
X102765408Y-102725063D01*
X102993663Y-102663903D01*
X103207830Y-102564035D01*
X103401401Y-102428495D01*
X103568495Y-102261401D01*
X103698426Y-102075839D01*
X103742743Y-102036975D01*
X103800000Y-102022964D01*
X103857257Y-102036975D01*
X103901573Y-102075839D01*
X104031505Y-102261401D01*
X104198599Y-102428495D01*
X104392170Y-102564035D01*
X104606337Y-102663903D01*
X104834592Y-102725063D01*
X105070000Y-102745659D01*
X105305408Y-102725063D01*
X105533663Y-102663903D01*
X105747830Y-102564035D01*
X105941401Y-102428495D01*
X106108495Y-102261401D01*
X106238426Y-102075839D01*
X106282743Y-102036975D01*
X106340000Y-102022964D01*
X106397257Y-102036975D01*
X106441573Y-102075839D01*
X106571505Y-102261401D01*
X106738599Y-102428495D01*
X106932170Y-102564035D01*
X107146337Y-102663903D01*
X107374592Y-102725063D01*
X107610000Y-102745659D01*
X107845408Y-102725063D01*
X108073663Y-102663903D01*
X108287830Y-102564035D01*
X108481401Y-102428495D01*
X108648495Y-102261401D01*
X108784035Y-102067830D01*
X108883903Y-101853663D01*
X108945063Y-101625408D01*
X108965659Y-101390000D01*
X108945063Y-101154592D01*
X108883903Y-100926337D01*
X108784035Y-100712171D01*
X108648495Y-100518599D01*
X108481401Y-100351505D01*
X108338375Y-100251357D01*
X108299511Y-100207040D01*
X108285500Y-100149783D01*
X108285500Y-100134151D01*
X108285726Y-100126665D01*
X108287392Y-100099114D01*
X108289219Y-100068915D01*
X108278785Y-100011982D01*
X108277663Y-100004603D01*
X108274372Y-99977497D01*
X108270688Y-99947155D01*
X108270687Y-99947153D01*
X108270687Y-99947151D01*
X108267364Y-99938388D01*
X108261337Y-99916768D01*
X108259650Y-99907561D01*
X108235903Y-99854798D01*
X108233039Y-99847883D01*
X108228177Y-99835063D01*
X108212518Y-99793774D01*
X108207193Y-99786059D01*
X108196174Y-99766523D01*
X108192326Y-99757972D01*
X108156639Y-99712422D01*
X108152200Y-99706389D01*
X108119332Y-99658770D01*
X108076027Y-99620406D01*
X108070572Y-99615271D01*
X106711819Y-98256518D01*
X106684939Y-98216290D01*
X106675500Y-98168837D01*
X106675500Y-94024151D01*
X106675726Y-94016665D01*
X106675823Y-94015059D01*
X106679219Y-93958915D01*
X106668785Y-93901982D01*
X106667663Y-93894603D01*
X106666313Y-93883482D01*
X106660688Y-93837155D01*
X106660687Y-93837153D01*
X106660687Y-93837151D01*
X106657364Y-93828388D01*
X106651337Y-93806768D01*
X106649650Y-93797561D01*
X106625903Y-93744798D01*
X106623039Y-93737883D01*
X106621131Y-93732853D01*
X106602518Y-93683774D01*
X106597193Y-93676059D01*
X106586174Y-93656523D01*
X106582326Y-93647972D01*
X106546639Y-93602422D01*
X106542200Y-93596389D01*
X106509332Y-93548770D01*
X106466027Y-93510406D01*
X106460572Y-93505271D01*
X105994727Y-93039426D01*
X105989608Y-93033989D01*
X105951229Y-92990668D01*
X105903611Y-92957800D01*
X105897577Y-92953360D01*
X105852028Y-92917674D01*
X105852026Y-92917673D01*
X105843476Y-92913824D01*
X105823938Y-92902804D01*
X105816227Y-92897482D01*
X105762117Y-92876960D01*
X105755215Y-92874101D01*
X105729754Y-92862643D01*
X105702436Y-92850348D01*
X105693223Y-92848660D01*
X105671612Y-92842636D01*
X105662847Y-92839312D01*
X105605386Y-92832334D01*
X105597987Y-92831207D01*
X105541087Y-92820780D01*
X105485463Y-92824145D01*
X105483334Y-92824274D01*
X105475849Y-92824500D01*
X104331163Y-92824500D01*
X104283710Y-92815061D01*
X104243482Y-92788181D01*
X103371819Y-91916518D01*
X103344939Y-91876290D01*
X103335500Y-91828837D01*
X103335500Y-90833915D01*
X103349283Y-90777097D01*
X103376948Y-90745167D01*
X103375781Y-90744055D01*
X103383950Y-90735487D01*
X103383952Y-90735486D01*
X103528986Y-90583378D01*
X103634479Y-90419229D01*
X103642612Y-90406574D01*
X103656462Y-90371978D01*
X103720725Y-90211457D01*
X103754387Y-90036801D01*
X103760500Y-90005086D01*
X103760500Y-89952425D01*
X104099500Y-89952425D01*
X104104529Y-90005086D01*
X104114472Y-90109220D01*
X104173683Y-90310873D01*
X104269990Y-90497684D01*
X104381280Y-90639199D01*
X104399908Y-90662886D01*
X104481703Y-90733762D01*
X104558745Y-90800520D01*
X104740754Y-90905603D01*
X104740756Y-90905604D01*
X104758017Y-90911578D01*
X104939366Y-90974344D01*
X104960114Y-90977327D01*
X105147398Y-91004254D01*
X105357330Y-90994254D01*
X105561576Y-90944704D01*
X105626555Y-90915029D01*
X105752752Y-90857397D01*
X105820839Y-90808912D01*
X105923952Y-90735486D01*
X106068986Y-90583378D01*
X106174479Y-90419229D01*
X106182612Y-90406574D01*
X106196462Y-90371978D01*
X106260725Y-90211457D01*
X106294387Y-90036801D01*
X106300500Y-90005086D01*
X106300500Y-89952425D01*
X106639500Y-89952425D01*
X106644529Y-90005086D01*
X106654472Y-90109220D01*
X106713683Y-90310873D01*
X106809990Y-90497684D01*
X106921280Y-90639199D01*
X106939908Y-90662886D01*
X107021703Y-90733762D01*
X107098745Y-90800520D01*
X107280754Y-90905603D01*
X107280756Y-90905604D01*
X107298017Y-90911578D01*
X107479366Y-90974344D01*
X107500114Y-90977327D01*
X107687398Y-91004254D01*
X107897330Y-90994254D01*
X108101576Y-90944704D01*
X108166555Y-90915029D01*
X108292752Y-90857397D01*
X108360839Y-90808912D01*
X108463952Y-90735486D01*
X108608986Y-90583378D01*
X108714479Y-90419229D01*
X108722612Y-90406574D01*
X108736462Y-90371978D01*
X108800725Y-90211457D01*
X108834387Y-90036801D01*
X108840500Y-90005086D01*
X108840500Y-89047580D01*
X108840500Y-89047575D01*
X108825528Y-88890782D01*
X108766316Y-88689125D01*
X108670011Y-88502318D01*
X108668581Y-88500500D01*
X108540093Y-88337115D01*
X108381254Y-88199479D01*
X108199245Y-88094396D01*
X108000633Y-88025655D01*
X107792603Y-87995746D01*
X107792602Y-87995746D01*
X107687635Y-88000746D01*
X107582669Y-88005746D01*
X107378419Y-88055297D01*
X107187247Y-88142602D01*
X107016050Y-88264512D01*
X106871013Y-88416623D01*
X106757387Y-88593425D01*
X106679274Y-88788545D01*
X106644554Y-88968691D01*
X106639500Y-88994915D01*
X106639500Y-89952425D01*
X106300500Y-89952425D01*
X106300500Y-89047580D01*
X106300500Y-89047575D01*
X106285528Y-88890782D01*
X106226316Y-88689125D01*
X106130011Y-88502318D01*
X106128581Y-88500500D01*
X106000093Y-88337115D01*
X105841254Y-88199479D01*
X105659245Y-88094396D01*
X105460633Y-88025655D01*
X105252603Y-87995746D01*
X105252602Y-87995746D01*
X105147635Y-88000746D01*
X105042669Y-88005746D01*
X104838419Y-88055297D01*
X104647247Y-88142602D01*
X104476050Y-88264512D01*
X104331013Y-88416623D01*
X104217387Y-88593425D01*
X104139274Y-88788545D01*
X104104554Y-88968691D01*
X104099500Y-88994915D01*
X104099500Y-89952425D01*
X103760500Y-89952425D01*
X103760500Y-89047580D01*
X103760500Y-89047575D01*
X103745528Y-88890782D01*
X103686316Y-88689125D01*
X103590011Y-88502318D01*
X103588581Y-88500500D01*
X103460093Y-88337115D01*
X103301254Y-88199479D01*
X103119245Y-88094396D01*
X102920633Y-88025655D01*
X102712603Y-87995746D01*
X102712602Y-87995746D01*
X102607635Y-88000746D01*
X102502669Y-88005746D01*
X102298419Y-88055297D01*
X102107247Y-88142602D01*
X102086427Y-88157429D01*
X102023346Y-88180106D01*
X101957680Y-88166638D01*
X101908619Y-88120960D01*
X101890500Y-88056422D01*
X101890500Y-85256163D01*
X101899939Y-85208711D01*
X101926816Y-85168484D01*
X102130123Y-84965177D01*
X102185707Y-84933086D01*
X102249894Y-84933086D01*
X102294592Y-84945063D01*
X102530000Y-84965659D01*
X102765408Y-84945063D01*
X102993663Y-84883903D01*
X103207830Y-84784035D01*
X103401401Y-84648495D01*
X103568495Y-84481401D01*
X103698426Y-84295839D01*
X103742743Y-84256975D01*
X103800000Y-84242964D01*
X103857257Y-84256975D01*
X103901573Y-84295839D01*
X104031505Y-84481401D01*
X104198599Y-84648495D01*
X104392170Y-84784035D01*
X104606337Y-84883903D01*
X104834592Y-84945063D01*
X105070000Y-84965659D01*
X105305408Y-84945063D01*
X105533663Y-84883903D01*
X105747830Y-84784035D01*
X105941401Y-84648495D01*
X106108495Y-84481401D01*
X106238426Y-84295839D01*
X106282743Y-84256975D01*
X106340000Y-84242964D01*
X106397257Y-84256975D01*
X106441573Y-84295839D01*
X106571505Y-84481401D01*
X106738599Y-84648495D01*
X106932170Y-84784035D01*
X107146337Y-84883903D01*
X107374592Y-84945063D01*
X107610000Y-84965659D01*
X107845408Y-84945063D01*
X108073663Y-84883903D01*
X108287830Y-84784035D01*
X108481401Y-84648495D01*
X108648495Y-84481401D01*
X108784035Y-84287830D01*
X108883903Y-84073663D01*
X108945063Y-83845408D01*
X108965659Y-83610000D01*
X108945063Y-83374592D01*
X108883903Y-83146337D01*
X108784035Y-82932171D01*
X108648495Y-82738599D01*
X108481401Y-82571505D01*
X108287830Y-82435965D01*
X108073663Y-82336097D01*
X108012501Y-82319709D01*
X107845407Y-82274936D01*
X107610000Y-82254340D01*
X107374592Y-82274936D01*
X107146336Y-82336097D01*
X106932170Y-82435965D01*
X106738598Y-82571505D01*
X106571505Y-82738598D01*
X106441575Y-82924159D01*
X106397257Y-82963025D01*
X106340000Y-82977036D01*
X106282743Y-82963025D01*
X106238425Y-82924159D01*
X106108494Y-82738598D01*
X105941404Y-82571508D01*
X105941401Y-82571505D01*
X105747830Y-82435965D01*
X105533663Y-82336097D01*
X105472501Y-82319709D01*
X105305407Y-82274936D01*
X105070000Y-82254340D01*
X104834592Y-82274936D01*
X104606336Y-82336097D01*
X104392170Y-82435965D01*
X104198598Y-82571505D01*
X104031505Y-82738598D01*
X103901575Y-82924159D01*
X103857257Y-82963025D01*
X103800000Y-82977036D01*
X103742743Y-82963025D01*
X103698425Y-82924159D01*
X103568494Y-82738598D01*
X103401404Y-82571508D01*
X103401401Y-82571505D01*
X103207830Y-82435965D01*
X102993663Y-82336097D01*
X102932501Y-82319709D01*
X102765407Y-82274936D01*
X102530000Y-82254340D01*
X102294592Y-82274936D01*
X102066336Y-82336097D01*
X101852170Y-82435965D01*
X101658598Y-82571505D01*
X101491505Y-82738598D01*
X101361575Y-82924159D01*
X101317257Y-82963025D01*
X101260000Y-82977036D01*
X101202743Y-82963025D01*
X101158425Y-82924159D01*
X101028494Y-82738598D01*
X100861404Y-82571508D01*
X100861401Y-82571505D01*
X100667830Y-82435965D01*
X100453663Y-82336097D01*
X100392501Y-82319709D01*
X100225407Y-82274936D01*
X99990000Y-82254340D01*
X99754592Y-82274936D01*
X99526336Y-82336097D01*
X99312170Y-82435965D01*
X99118598Y-82571505D01*
X98951505Y-82738598D01*
X98815965Y-82932170D01*
X98716097Y-83146336D01*
X98654936Y-83374592D01*
X98634340Y-83609999D01*
X98654936Y-83845407D01*
X98666913Y-83890104D01*
X98716097Y-84073663D01*
X98815965Y-84287830D01*
X98951505Y-84481401D01*
X99118599Y-84648495D01*
X99312170Y-84784035D01*
X99526337Y-84883903D01*
X99754592Y-84945063D01*
X99990000Y-84965659D01*
X100225408Y-84945063D01*
X100325876Y-84918143D01*
X100383407Y-84902728D01*
X100439691Y-84900886D01*
X100490986Y-84924127D01*
X100526712Y-84967659D01*
X100539500Y-85022503D01*
X100539500Y-99977497D01*
X100526712Y-100032341D01*
X100490986Y-100075873D01*
X100439691Y-100099114D01*
X100383407Y-100097272D01*
X100225407Y-100054936D01*
X99990000Y-100034340D01*
X99754592Y-100054936D01*
X99526336Y-100116097D01*
X99312170Y-100215965D01*
X99118598Y-100351505D01*
X98951505Y-100518598D01*
X98815965Y-100712170D01*
X98716097Y-100926336D01*
X98654936Y-101154592D01*
X98634340Y-101389999D01*
X96265659Y-101389999D01*
X96245063Y-101154592D01*
X96183903Y-100926337D01*
X96084035Y-100712171D01*
X95948495Y-100518599D01*
X95781401Y-100351505D01*
X95587830Y-100215965D01*
X95373663Y-100116097D01*
X95303406Y-100097272D01*
X95145407Y-100054936D01*
X94910000Y-100034340D01*
X94674592Y-100054936D01*
X94446336Y-100116097D01*
X94232170Y-100215965D01*
X94038598Y-100351505D01*
X93871508Y-100518595D01*
X93741574Y-100704160D01*
X93697255Y-100743026D01*
X93639999Y-100757036D01*
X93582742Y-100743025D01*
X93538426Y-100704161D01*
X93408495Y-100518599D01*
X93241401Y-100351505D01*
X93047830Y-100215965D01*
X92833663Y-100116097D01*
X92763406Y-100097272D01*
X92605407Y-100054936D01*
X92370000Y-100034340D01*
X92134592Y-100054936D01*
X91976593Y-100097272D01*
X91920309Y-100099114D01*
X91869014Y-100075873D01*
X91833288Y-100032341D01*
X91820500Y-99977497D01*
X91820500Y-99645783D01*
X91829939Y-99598330D01*
X91856819Y-99558102D01*
X92378101Y-99036819D01*
X92418329Y-99009939D01*
X92465782Y-99000500D01*
X96985721Y-99000500D01*
X96988862Y-99000539D01*
X97076363Y-99002757D01*
X97134432Y-98992348D01*
X97143736Y-98991043D01*
X97202438Y-98985074D01*
X97231467Y-98975965D01*
X97246700Y-98972226D01*
X97276653Y-98966858D01*
X97331426Y-98944978D01*
X97340301Y-98941819D01*
X97357675Y-98936367D01*
X97396588Y-98924159D01*
X97423194Y-98909390D01*
X97437362Y-98902662D01*
X97465617Y-98891377D01*
X97514879Y-98858909D01*
X97522910Y-98854043D01*
X97574502Y-98825409D01*
X97597587Y-98805589D01*
X97610114Y-98796144D01*
X97635519Y-98779402D01*
X97677251Y-98737668D01*
X97684123Y-98731300D01*
X97728895Y-98692866D01*
X97747519Y-98668803D01*
X97757880Y-98657039D01*
X98197409Y-98217510D01*
X98199579Y-98215394D01*
X98263053Y-98155059D01*
X98296765Y-98106622D01*
X98302408Y-98099138D01*
X98339698Y-98053407D01*
X98353786Y-98026435D01*
X98361911Y-98013024D01*
X98379295Y-97988049D01*
X98402568Y-97933815D01*
X98406598Y-97925331D01*
X98427126Y-97886035D01*
X98433909Y-97873049D01*
X98442278Y-97843797D01*
X98447534Y-97829032D01*
X98459540Y-97801058D01*
X98471418Y-97743256D01*
X98473651Y-97734156D01*
X98489887Y-97677418D01*
X98492197Y-97647077D01*
X98494376Y-97631535D01*
X98500500Y-97601741D01*
X98500500Y-97542757D01*
X98500858Y-97533343D01*
X98500964Y-97531945D01*
X98505337Y-97474523D01*
X98501493Y-97444347D01*
X98500500Y-97428682D01*
X98500500Y-88514279D01*
X98500540Y-88511137D01*
X98502757Y-88423639D01*
X98501499Y-88416623D01*
X98492346Y-88365558D01*
X98491039Y-88356232D01*
X98485074Y-88297562D01*
X98475963Y-88268527D01*
X98472226Y-88253297D01*
X98466859Y-88223348D01*
X98444972Y-88168555D01*
X98441816Y-88159690D01*
X98424159Y-88103412D01*
X98409395Y-88076813D01*
X98402665Y-88062640D01*
X98399732Y-88055297D01*
X98391378Y-88034383D01*
X98358909Y-87985118D01*
X98354040Y-87977082D01*
X98325409Y-87925498D01*
X98325408Y-87925496D01*
X98305593Y-87902415D01*
X98296144Y-87889883D01*
X98279402Y-87864481D01*
X98237699Y-87822779D01*
X98231292Y-87815866D01*
X98192865Y-87771103D01*
X98168802Y-87752477D01*
X98157022Y-87742102D01*
X97217567Y-86802647D01*
X97215412Y-86800438D01*
X97155059Y-86736947D01*
X97106640Y-86703246D01*
X97099118Y-86697575D01*
X97053405Y-86660300D01*
X97026440Y-86646215D01*
X97013019Y-86638084D01*
X96988049Y-86620705D01*
X96988048Y-86620704D01*
X96988046Y-86620703D01*
X96933845Y-86597443D01*
X96925336Y-86593402D01*
X96873053Y-86566092D01*
X96867126Y-86564396D01*
X96843798Y-86557721D01*
X96829020Y-86552459D01*
X96801058Y-86540460D01*
X96743272Y-86528583D01*
X96734128Y-86526338D01*
X96677421Y-86510113D01*
X96647075Y-86507802D01*
X96631534Y-86505622D01*
X96601742Y-86499500D01*
X96601741Y-86499500D01*
X96542758Y-86499500D01*
X96533344Y-86499142D01*
X96524198Y-86498445D01*
X96474524Y-86494663D01*
X96474523Y-86494663D01*
X96444349Y-86498506D01*
X96428683Y-86499500D01*
X93965783Y-86499500D01*
X93918330Y-86490061D01*
X93878102Y-86463181D01*
X93406819Y-85991899D01*
X93379939Y-85951671D01*
X93370500Y-85904218D01*
X93370500Y-84570758D01*
X93379939Y-84523305D01*
X93406819Y-84483077D01*
X93406924Y-84482972D01*
X93408495Y-84481401D01*
X93538426Y-84295839D01*
X93582743Y-84256975D01*
X93640000Y-84242964D01*
X93697257Y-84256975D01*
X93741573Y-84295839D01*
X93871505Y-84481401D01*
X94038599Y-84648495D01*
X94232170Y-84784035D01*
X94446337Y-84883903D01*
X94674592Y-84945063D01*
X94910000Y-84965659D01*
X95145408Y-84945063D01*
X95373663Y-84883903D01*
X95587830Y-84784035D01*
X95781401Y-84648495D01*
X95948495Y-84481401D01*
X96084035Y-84287830D01*
X96183903Y-84073663D01*
X96245063Y-83845408D01*
X96265659Y-83610000D01*
X96245063Y-83374592D01*
X96183903Y-83146337D01*
X96084035Y-82932171D01*
X95948495Y-82738599D01*
X95781401Y-82571505D01*
X95587830Y-82435965D01*
X95373663Y-82336097D01*
X95312501Y-82319709D01*
X95145407Y-82274936D01*
X94910000Y-82254340D01*
X94674592Y-82274936D01*
X94446336Y-82336097D01*
X94232170Y-82435965D01*
X94038598Y-82571505D01*
X93871505Y-82738598D01*
X93741575Y-82924159D01*
X93697257Y-82963025D01*
X93640000Y-82977036D01*
X93582743Y-82963025D01*
X93538425Y-82924159D01*
X93408494Y-82738598D01*
X93241404Y-82571508D01*
X93241401Y-82571505D01*
X93047830Y-82435965D01*
X92833663Y-82336097D01*
X92772501Y-82319709D01*
X92605407Y-82274936D01*
X92370000Y-82254340D01*
X92134592Y-82274936D01*
X91906336Y-82336097D01*
X91692170Y-82435965D01*
X91498598Y-82571505D01*
X91331505Y-82738598D01*
X91195965Y-82932170D01*
X91096097Y-83146336D01*
X91034936Y-83374592D01*
X91014340Y-83609999D01*
X91034936Y-83845407D01*
X91046913Y-83890104D01*
X91096097Y-84073663D01*
X91195965Y-84287830D01*
X91331505Y-84481401D01*
X91331508Y-84481404D01*
X91333181Y-84483077D01*
X91360061Y-84523305D01*
X91369500Y-84570758D01*
X91369500Y-86355721D01*
X91369460Y-86358863D01*
X91367242Y-86446362D01*
X91377648Y-86504420D01*
X91378957Y-86513749D01*
X91384926Y-86572438D01*
X91394033Y-86601467D01*
X91397772Y-86616702D01*
X91403141Y-86646652D01*
X91425020Y-86701425D01*
X91428180Y-86710300D01*
X91436834Y-86737883D01*
X91445841Y-86766588D01*
X91460607Y-86793191D01*
X91467337Y-86807364D01*
X91478622Y-86835617D01*
X91511080Y-86884867D01*
X91515961Y-86892923D01*
X91544590Y-86944501D01*
X91564404Y-86967581D01*
X91573856Y-86980116D01*
X91590599Y-87005520D01*
X91632300Y-87047221D01*
X91638705Y-87054132D01*
X91677130Y-87098891D01*
X91677131Y-87098892D01*
X91677134Y-87098895D01*
X91701198Y-87117522D01*
X91712968Y-87127889D01*
X92754202Y-88169123D01*
X92785685Y-88222512D01*
X92787395Y-88284469D01*
X92758906Y-88339515D01*
X92707334Y-88373895D01*
X92645567Y-88379020D01*
X92619200Y-88374500D01*
X92616049Y-88374500D01*
X92383951Y-88374500D01*
X92383949Y-88374500D01*
X92329991Y-88383503D01*
X92320102Y-88384747D01*
X92262460Y-88389653D01*
X92213077Y-88402511D01*
X92202249Y-88404819D01*
X92155023Y-88412701D01*
X92155021Y-88412701D01*
X92155019Y-88412702D01*
X92100056Y-88431570D01*
X92091052Y-88434284D01*
X92031748Y-88449725D01*
X91988361Y-88469337D01*
X91977554Y-88473624D01*
X91935496Y-88488063D01*
X91881395Y-88517341D01*
X91873460Y-88521276D01*
X91814509Y-88547925D01*
X91777882Y-88572679D01*
X91767470Y-88578994D01*
X91731373Y-88598529D01*
X91680124Y-88638417D01*
X91673402Y-88643296D01*
X91616999Y-88681418D01*
X91587549Y-88709643D01*
X91577919Y-88717967D01*
X91548216Y-88741087D01*
X91548214Y-88741088D01*
X91548214Y-88741089D01*
X91501926Y-88791369D01*
X91496500Y-88796905D01*
X91444883Y-88846376D01*
X91422659Y-88876426D01*
X91414196Y-88886670D01*
X91391023Y-88911843D01*
X91351782Y-88971905D01*
X91347671Y-88977815D01*
X91303119Y-89038054D01*
X91287826Y-89068384D01*
X91280917Y-89080371D01*
X91264077Y-89106147D01*
X91233887Y-89174974D01*
X91231054Y-89180987D01*
X91195792Y-89250925D01*
X91186847Y-89280131D01*
X91181842Y-89293620D01*
X91170844Y-89318695D01*
X91151552Y-89394871D01*
X91149912Y-89400736D01*
X91125983Y-89478875D01*
X91122538Y-89505775D01*
X91119750Y-89520455D01*
X91113865Y-89543697D01*
X91107097Y-89625377D01*
X91106517Y-89630886D01*
X91095701Y-89715348D01*
X91096707Y-89739025D01*
X91096396Y-89754520D01*
X91094699Y-89774998D01*
X91101750Y-89860097D01*
X91102061Y-89865071D01*
X91105820Y-89953532D01*
X91110092Y-89973356D01*
X91112451Y-89989237D01*
X91113865Y-90006301D01*
X91135661Y-90092371D01*
X91136669Y-90096676D01*
X91148630Y-90152171D01*
X91156046Y-90186581D01*
X91162333Y-90202226D01*
X91167479Y-90218017D01*
X91170843Y-90231301D01*
X91207875Y-90315727D01*
X91209377Y-90319301D01*
X91244936Y-90407790D01*
X91251979Y-90419229D01*
X91259945Y-90434431D01*
X91264076Y-90443849D01*
X91316366Y-90523886D01*
X91318142Y-90526686D01*
X91322753Y-90534173D01*
X91369931Y-90610796D01*
X91376539Y-90618303D01*
X91387268Y-90632409D01*
X91391021Y-90638153D01*
X91458117Y-90711040D01*
X91459930Y-90713054D01*
X91516295Y-90777097D01*
X91527437Y-90789756D01*
X91532561Y-90793894D01*
X91545886Y-90806382D01*
X91548216Y-90808913D01*
X91588620Y-90840360D01*
X91629062Y-90871837D01*
X91630800Y-90873215D01*
X91675846Y-90909588D01*
X91712920Y-90939523D01*
X91715685Y-90941067D01*
X91731359Y-90951458D01*
X91731374Y-90951470D01*
X91824507Y-91001870D01*
X91825785Y-91002573D01*
X91921046Y-91055790D01*
X91921051Y-91055791D01*
X91921252Y-91055904D01*
X91932584Y-91060935D01*
X91935492Y-91061933D01*
X91935497Y-91061936D01*
X92038790Y-91097396D01*
X92039696Y-91097712D01*
X92088931Y-91115107D01*
X92145829Y-91135211D01*
X92145832Y-91135211D01*
X92148800Y-91136260D01*
X92155017Y-91137297D01*
X92155019Y-91137298D01*
X92266197Y-91155849D01*
X92266528Y-91155906D01*
X92321028Y-91165251D01*
X92380799Y-91175500D01*
X92380800Y-91175500D01*
X92383951Y-91175500D01*
X92559497Y-91175500D01*
X92616047Y-91175500D01*
X92616049Y-91175500D01*
X92670010Y-91166494D01*
X92679905Y-91165251D01*
X92737541Y-91160346D01*
X92786941Y-91147482D01*
X92797760Y-91145177D01*
X92827221Y-91140261D01*
X92844982Y-91137298D01*
X92899946Y-91118428D01*
X92908949Y-91115714D01*
X92968249Y-91100275D01*
X93011642Y-91080659D01*
X93022443Y-91076374D01*
X93064503Y-91061936D01*
X93118622Y-91032647D01*
X93126530Y-91028726D01*
X93185486Y-91002077D01*
X93222108Y-90977324D01*
X93232515Y-90971011D01*
X93268626Y-90951470D01*
X93319877Y-90911578D01*
X93326589Y-90906706D01*
X93376144Y-90873215D01*
X93383002Y-90868580D01*
X93383776Y-90867837D01*
X93412460Y-90840345D01*
X93422064Y-90832044D01*
X93451784Y-90808913D01*
X93498081Y-90758619D01*
X93503490Y-90753100D01*
X93555118Y-90703621D01*
X93577350Y-90673559D01*
X93585797Y-90663333D01*
X93608979Y-90638153D01*
X93648238Y-90578060D01*
X93652312Y-90572203D01*
X93696879Y-90511947D01*
X93712163Y-90481630D01*
X93719079Y-90469632D01*
X93722704Y-90464082D01*
X93735924Y-90443849D01*
X93766123Y-90375000D01*
X93768927Y-90369045D01*
X93804207Y-90299074D01*
X93813150Y-90269868D01*
X93818158Y-90256374D01*
X93829157Y-90231300D01*
X93848453Y-90155099D01*
X93850088Y-90149255D01*
X93855578Y-90131328D01*
X93874016Y-90071123D01*
X93877461Y-90044215D01*
X93880247Y-90029548D01*
X93886134Y-90006305D01*
X93892903Y-89924600D01*
X93893484Y-89919095D01*
X93897368Y-89888767D01*
X93904298Y-89834654D01*
X93903291Y-89810960D01*
X93903602Y-89795481D01*
X93905300Y-89775000D01*
X93898248Y-89689902D01*
X93897938Y-89684944D01*
X93896270Y-89645673D01*
X93894180Y-89596468D01*
X93889907Y-89576642D01*
X93887547Y-89560756D01*
X93886134Y-89543695D01*
X93864328Y-89457589D01*
X93863336Y-89453354D01*
X93843954Y-89363419D01*
X93837665Y-89347770D01*
X93832521Y-89331989D01*
X93829157Y-89318700D01*
X93792102Y-89234224D01*
X93790621Y-89230696D01*
X93755066Y-89142214D01*
X93755064Y-89142210D01*
X93748016Y-89130764D01*
X93740051Y-89115561D01*
X93739493Y-89114289D01*
X93735924Y-89106151D01*
X93683628Y-89026106D01*
X93681879Y-89023350D01*
X93630069Y-88939205D01*
X93623454Y-88931689D01*
X93612730Y-88917588D01*
X93608980Y-88911849D01*
X93608979Y-88911847D01*
X93541876Y-88838953D01*
X93540068Y-88836944D01*
X93538168Y-88834785D01*
X93472564Y-88760245D01*
X93471253Y-88759186D01*
X93467439Y-88756106D01*
X93454115Y-88743619D01*
X93451785Y-88741088D01*
X93451784Y-88741087D01*
X93432771Y-88726288D01*
X93394634Y-88676515D01*
X93385726Y-88614445D01*
X93408325Y-88555953D01*
X93456652Y-88515997D01*
X93518347Y-88504794D01*
X93525476Y-88505337D01*
X93552278Y-88501923D01*
X93555652Y-88501494D01*
X93571317Y-88500500D01*
X96034217Y-88500500D01*
X96081670Y-88509939D01*
X96121898Y-88536819D01*
X96463181Y-88878102D01*
X96490061Y-88918330D01*
X96499500Y-88965783D01*
X96499500Y-88988500D01*
X96486733Y-89043302D01*
X96451060Y-89086819D01*
X96399828Y-89110090D01*
X96343586Y-89108323D01*
X96293916Y-89081881D01*
X96267995Y-89059234D01*
X96214073Y-89027017D01*
X96206550Y-89022145D01*
X96157640Y-88987898D01*
X96123343Y-88971905D01*
X96122201Y-88971372D01*
X96111014Y-88965442D01*
X96074764Y-88943784D01*
X96019171Y-88922921D01*
X96010349Y-88919216D01*
X95959330Y-88895425D01*
X95959328Y-88895424D01*
X95926657Y-88886670D01*
X95918228Y-88884411D01*
X95906762Y-88880732D01*
X95864024Y-88864693D01*
X95820636Y-88856818D01*
X95808964Y-88854700D01*
X95799018Y-88852468D01*
X95747980Y-88838793D01*
X95702175Y-88834785D01*
X95690846Y-88833264D01*
X95642550Y-88824500D01*
X95642547Y-88824500D01*
X95590015Y-88824500D01*
X95579208Y-88824028D01*
X95575788Y-88823728D01*
X95530000Y-88819722D01*
X95484211Y-88823728D01*
X95480791Y-88824028D01*
X95477481Y-88824172D01*
X95419916Y-88829352D01*
X95419612Y-88829379D01*
X95307332Y-88839203D01*
X95202522Y-88868129D01*
X95201627Y-88868373D01*
X95095660Y-88896767D01*
X95090809Y-88898553D01*
X94995246Y-88944573D01*
X94993853Y-88945233D01*
X94900634Y-88988703D01*
X94886875Y-88996762D01*
X94886030Y-88997169D01*
X94804662Y-89056284D01*
X94802904Y-89057538D01*
X94723118Y-89113405D01*
X94722235Y-89114289D01*
X94707467Y-89126901D01*
X94703923Y-89129476D01*
X94636846Y-89199632D01*
X94634903Y-89201619D01*
X94568401Y-89268122D01*
X94565708Y-89271968D01*
X94553776Y-89286517D01*
X94548370Y-89292172D01*
X94496775Y-89370333D01*
X94494866Y-89373141D01*
X94442897Y-89447363D01*
X94439460Y-89454734D01*
X94430571Y-89470629D01*
X94424364Y-89480032D01*
X94388893Y-89563021D01*
X94387254Y-89566690D01*
X94350423Y-89645673D01*
X94347426Y-89656856D01*
X94341680Y-89673478D01*
X94335897Y-89687009D01*
X94316576Y-89771659D01*
X94315460Y-89776157D01*
X94293793Y-89857020D01*
X94292483Y-89871993D01*
X94289847Y-89888767D01*
X94285809Y-89906460D01*
X94282066Y-89989777D01*
X94281719Y-89995016D01*
X94274723Y-90074995D01*
X94274723Y-90075000D01*
X94276332Y-90093400D01*
X94276678Y-90109753D01*
X94275709Y-90131328D01*
X94286444Y-90210576D01*
X94287094Y-90216413D01*
X94293792Y-90292976D01*
X94299461Y-90314132D01*
X94302564Y-90329578D01*
X94305925Y-90354390D01*
X94329573Y-90427170D01*
X94331416Y-90433393D01*
X94350423Y-90504327D01*
X94361135Y-90527298D01*
X94366683Y-90541383D01*
X94375481Y-90568460D01*
X94410128Y-90632847D01*
X94413314Y-90639199D01*
X94442896Y-90702637D01*
X94459406Y-90726215D01*
X94467023Y-90738575D01*
X94482148Y-90766681D01*
X94515826Y-90808912D01*
X94525588Y-90821153D01*
X94530214Y-90827340D01*
X94565091Y-90877149D01*
X94568403Y-90881878D01*
X94591186Y-90904661D01*
X94600452Y-90915029D01*
X94622493Y-90942667D01*
X94672387Y-90986259D01*
X94678484Y-90991959D01*
X94723123Y-91036598D01*
X94752330Y-91057049D01*
X94762793Y-91065244D01*
X94780440Y-91080662D01*
X94792004Y-91090765D01*
X94845940Y-91122990D01*
X94853435Y-91127843D01*
X94902361Y-91162102D01*
X94909114Y-91165251D01*
X94937799Y-91178628D01*
X94948991Y-91184560D01*
X94985236Y-91206215D01*
X94985239Y-91206216D01*
X95040839Y-91227083D01*
X95049669Y-91230792D01*
X95094003Y-91251466D01*
X95100670Y-91254575D01*
X95141757Y-91265584D01*
X95153235Y-91269266D01*
X95164903Y-91273645D01*
X95195976Y-91285307D01*
X95251024Y-91295296D01*
X95260970Y-91297527D01*
X95312023Y-91311207D01*
X95356133Y-91315065D01*
X95357814Y-91315213D01*
X95369148Y-91316733D01*
X95417453Y-91325500D01*
X95469985Y-91325500D01*
X95480791Y-91325971D01*
X95530000Y-91330277D01*
X95579208Y-91325971D01*
X95582511Y-91325827D01*
X95586145Y-91325500D01*
X95586155Y-91325500D01*
X95640172Y-91320638D01*
X95640180Y-91320727D01*
X95640479Y-91320611D01*
X95747977Y-91311207D01*
X95747977Y-91311206D01*
X95752663Y-91310797D01*
X95754183Y-91310377D01*
X95754188Y-91310377D01*
X95857726Y-91281800D01*
X95858413Y-91281614D01*
X95904500Y-91269266D01*
X95964377Y-91253223D01*
X95969148Y-91251466D01*
X95971166Y-91250494D01*
X95971170Y-91250493D01*
X96064951Y-91205329D01*
X96066007Y-91204830D01*
X96157639Y-91162102D01*
X96157645Y-91162097D01*
X96159392Y-91161283D01*
X96173155Y-91153222D01*
X96173973Y-91152829D01*
X96255326Y-91093720D01*
X96256972Y-91092546D01*
X96300691Y-91061935D01*
X96304379Y-91059353D01*
X96367393Y-91037195D01*
X96432758Y-91050941D01*
X96481510Y-91096603D01*
X96499500Y-91160930D01*
X96499500Y-93838500D01*
X96486733Y-93893302D01*
X96451060Y-93936819D01*
X96399828Y-93960090D01*
X96343586Y-93958323D01*
X96293916Y-93931881D01*
X96267995Y-93909234D01*
X96214073Y-93877017D01*
X96206550Y-93872145D01*
X96157640Y-93837898D01*
X96128908Y-93824500D01*
X96122201Y-93821372D01*
X96111014Y-93815442D01*
X96074764Y-93793784D01*
X96019171Y-93772921D01*
X96010349Y-93769216D01*
X95959330Y-93745425D01*
X95959328Y-93745424D01*
X95931184Y-93737883D01*
X95918228Y-93734411D01*
X95906762Y-93730732D01*
X95864024Y-93714693D01*
X95820636Y-93706818D01*
X95808964Y-93704700D01*
X95799018Y-93702468D01*
X95747980Y-93688793D01*
X95702175Y-93684785D01*
X95690846Y-93683264D01*
X95642550Y-93674500D01*
X95642547Y-93674500D01*
X95590015Y-93674500D01*
X95579208Y-93674028D01*
X95575788Y-93673728D01*
X95530000Y-93669722D01*
X95484211Y-93673728D01*
X95480791Y-93674028D01*
X95477481Y-93674172D01*
X95419916Y-93679352D01*
X95419612Y-93679379D01*
X95307332Y-93689203D01*
X95202522Y-93718129D01*
X95201627Y-93718373D01*
X95095660Y-93746767D01*
X95090809Y-93748553D01*
X94995246Y-93794573D01*
X94993853Y-93795233D01*
X94900634Y-93838703D01*
X94886875Y-93846762D01*
X94886030Y-93847169D01*
X94804662Y-93906284D01*
X94802904Y-93907538D01*
X94723118Y-93963405D01*
X94722235Y-93964289D01*
X94707467Y-93976901D01*
X94703923Y-93979476D01*
X94636846Y-94049632D01*
X94634903Y-94051619D01*
X94568401Y-94118122D01*
X94565708Y-94121968D01*
X94553776Y-94136517D01*
X94548370Y-94142172D01*
X94496775Y-94220333D01*
X94494866Y-94223141D01*
X94442897Y-94297363D01*
X94439460Y-94304734D01*
X94430571Y-94320629D01*
X94424364Y-94330032D01*
X94388893Y-94413021D01*
X94387260Y-94416676D01*
X94375842Y-94441162D01*
X94350423Y-94495673D01*
X94347426Y-94506856D01*
X94341680Y-94523478D01*
X94335897Y-94537009D01*
X94316576Y-94621659D01*
X94315460Y-94626157D01*
X94293793Y-94707020D01*
X94292483Y-94721993D01*
X94289847Y-94738767D01*
X94285809Y-94756460D01*
X94282066Y-94839777D01*
X94281719Y-94845016D01*
X94275028Y-94921508D01*
X94274723Y-94925000D01*
X94276332Y-94943400D01*
X94276678Y-94959753D01*
X94275709Y-94981328D01*
X94286444Y-95060576D01*
X94287094Y-95066413D01*
X94293792Y-95142976D01*
X94299461Y-95164132D01*
X94302564Y-95179578D01*
X94305925Y-95204390D01*
X94329573Y-95277170D01*
X94331416Y-95283393D01*
X94350423Y-95354327D01*
X94361135Y-95377298D01*
X94366683Y-95391383D01*
X94375481Y-95418460D01*
X94375482Y-95418463D01*
X94375483Y-95418464D01*
X94380835Y-95428410D01*
X94410128Y-95482847D01*
X94413314Y-95489199D01*
X94442896Y-95552637D01*
X94459406Y-95576215D01*
X94467023Y-95588575D01*
X94482148Y-95616681D01*
X94498018Y-95636581D01*
X94525588Y-95671153D01*
X94530214Y-95677340D01*
X94550544Y-95706374D01*
X94557432Y-95716211D01*
X94568403Y-95731878D01*
X94591186Y-95754661D01*
X94600452Y-95765029D01*
X94622493Y-95792667D01*
X94672387Y-95836259D01*
X94678484Y-95841959D01*
X94723123Y-95886598D01*
X94752330Y-95907049D01*
X94762793Y-95915244D01*
X94781551Y-95931632D01*
X94792004Y-95940765D01*
X94845940Y-95972990D01*
X94853435Y-95977843D01*
X94902361Y-96012102D01*
X94912490Y-96016825D01*
X94937799Y-96028628D01*
X94948991Y-96034560D01*
X94985236Y-96056215D01*
X94985239Y-96056216D01*
X95040839Y-96077083D01*
X95049669Y-96080792D01*
X95094003Y-96101466D01*
X95100670Y-96104575D01*
X95141757Y-96115584D01*
X95153235Y-96119266D01*
X95164711Y-96123573D01*
X95195976Y-96135307D01*
X95251024Y-96145296D01*
X95260970Y-96147527D01*
X95312023Y-96161207D01*
X95356133Y-96165065D01*
X95357814Y-96165213D01*
X95369148Y-96166733D01*
X95417453Y-96175500D01*
X95469985Y-96175500D01*
X95480791Y-96175971D01*
X95530000Y-96180277D01*
X95579208Y-96175971D01*
X95582511Y-96175827D01*
X95586145Y-96175500D01*
X95586155Y-96175500D01*
X95640172Y-96170638D01*
X95640180Y-96170727D01*
X95640479Y-96170611D01*
X95747977Y-96161207D01*
X95747977Y-96161206D01*
X95752663Y-96160797D01*
X95754183Y-96160377D01*
X95754188Y-96160377D01*
X95857726Y-96131800D01*
X95858413Y-96131614D01*
X95908404Y-96118220D01*
X95964377Y-96103223D01*
X95969148Y-96101466D01*
X95971166Y-96100494D01*
X95971170Y-96100493D01*
X96064951Y-96055329D01*
X96066007Y-96054830D01*
X96157639Y-96012102D01*
X96157645Y-96012097D01*
X96159392Y-96011283D01*
X96173155Y-96003222D01*
X96173973Y-96002829D01*
X96255326Y-95943720D01*
X96256972Y-95942546D01*
X96295965Y-95915244D01*
X96304379Y-95909353D01*
X96367393Y-95887195D01*
X96432758Y-95900941D01*
X96481510Y-95946603D01*
X96499500Y-96010930D01*
X96499500Y-96875500D01*
X96482887Y-96937500D01*
X96437500Y-96982887D01*
X96375500Y-96999500D01*
X92014279Y-96999500D01*
X92011137Y-96999460D01*
X91923637Y-96997242D01*
X91865580Y-97007648D01*
X91856251Y-97008957D01*
X91797562Y-97014926D01*
X91768527Y-97024035D01*
X91753290Y-97027774D01*
X91723350Y-97033141D01*
X91668567Y-97055022D01*
X91659698Y-97058179D01*
X91603410Y-97075841D01*
X91576809Y-97090605D01*
X91562639Y-97097335D01*
X91534385Y-97108622D01*
X91485121Y-97141087D01*
X91477070Y-97145964D01*
X91425498Y-97174590D01*
X91402414Y-97194407D01*
X91389887Y-97203853D01*
X91364481Y-97220598D01*
X91322775Y-97262303D01*
X91315868Y-97268704D01*
X91271103Y-97307135D01*
X91252480Y-97331193D01*
X91242108Y-97342969D01*
X91051735Y-97533343D01*
X90711679Y-97873398D01*
X90662318Y-97903648D01*
X90604602Y-97908190D01*
X90551115Y-97886035D01*
X90513515Y-97842012D01*
X90500000Y-97785717D01*
X90500000Y-95224998D01*
X91094699Y-95224998D01*
X91101750Y-95310097D01*
X91102061Y-95315071D01*
X91105820Y-95403532D01*
X91110092Y-95423356D01*
X91112451Y-95439237D01*
X91113865Y-95456301D01*
X91113865Y-95456304D01*
X91113866Y-95456305D01*
X91124003Y-95496337D01*
X91135661Y-95542371D01*
X91136669Y-95546676D01*
X91148630Y-95602171D01*
X91156046Y-95636581D01*
X91162333Y-95652226D01*
X91167479Y-95668017D01*
X91170843Y-95681301D01*
X91207875Y-95765727D01*
X91209377Y-95769301D01*
X91244936Y-95857790D01*
X91251979Y-95869229D01*
X91259943Y-95884428D01*
X91261157Y-95887195D01*
X91264076Y-95893849D01*
X91316366Y-95973886D01*
X91318147Y-95976693D01*
X91369931Y-96060796D01*
X91376539Y-96068303D01*
X91387268Y-96082409D01*
X91391021Y-96088153D01*
X91458117Y-96161040D01*
X91459930Y-96163054D01*
X91488404Y-96195407D01*
X91527437Y-96239756D01*
X91532561Y-96243894D01*
X91545886Y-96256382D01*
X91548216Y-96258913D01*
X91588620Y-96290360D01*
X91629062Y-96321837D01*
X91630795Y-96323211D01*
X91712920Y-96389523D01*
X91715685Y-96391067D01*
X91731359Y-96401458D01*
X91731374Y-96401470D01*
X91824507Y-96451870D01*
X91825785Y-96452573D01*
X91921046Y-96505790D01*
X91921051Y-96505791D01*
X91921252Y-96505904D01*
X91932584Y-96510935D01*
X91935492Y-96511933D01*
X91935497Y-96511936D01*
X92038790Y-96547396D01*
X92039696Y-96547712D01*
X92080198Y-96562022D01*
X92145829Y-96585211D01*
X92145832Y-96585211D01*
X92148800Y-96586260D01*
X92155017Y-96587297D01*
X92155019Y-96587298D01*
X92266197Y-96605849D01*
X92266528Y-96605906D01*
X92321028Y-96615251D01*
X92380799Y-96625500D01*
X92380800Y-96625500D01*
X92383951Y-96625500D01*
X92559497Y-96625500D01*
X92616047Y-96625500D01*
X92616049Y-96625500D01*
X92670010Y-96616494D01*
X92679905Y-96615251D01*
X92737541Y-96610346D01*
X92786941Y-96597482D01*
X92797760Y-96595177D01*
X92827221Y-96590261D01*
X92844982Y-96587298D01*
X92899946Y-96568428D01*
X92908949Y-96565714D01*
X92968249Y-96550275D01*
X93011642Y-96530659D01*
X93022443Y-96526374D01*
X93064503Y-96511936D01*
X93118622Y-96482647D01*
X93126530Y-96478726D01*
X93185486Y-96452077D01*
X93222108Y-96427324D01*
X93232515Y-96421011D01*
X93268626Y-96401470D01*
X93319877Y-96361578D01*
X93326589Y-96356706D01*
X93376144Y-96323215D01*
X93383002Y-96318580D01*
X93387883Y-96313902D01*
X93412460Y-96290345D01*
X93422064Y-96282044D01*
X93451784Y-96258913D01*
X93498081Y-96208619D01*
X93503490Y-96203100D01*
X93555118Y-96153621D01*
X93577350Y-96123559D01*
X93585797Y-96113333D01*
X93608979Y-96088153D01*
X93648238Y-96028060D01*
X93652312Y-96022203D01*
X93696879Y-95961947D01*
X93712163Y-95931630D01*
X93719079Y-95919632D01*
X93725794Y-95909353D01*
X93735924Y-95893849D01*
X93766123Y-95825000D01*
X93768927Y-95819045D01*
X93804207Y-95749074D01*
X93813150Y-95719868D01*
X93818158Y-95706374D01*
X93829157Y-95681300D01*
X93848453Y-95605099D01*
X93850088Y-95599255D01*
X93874015Y-95521126D01*
X93874014Y-95521126D01*
X93874016Y-95521123D01*
X93877461Y-95494215D01*
X93880247Y-95479548D01*
X93886134Y-95456305D01*
X93892903Y-95374600D01*
X93893484Y-95369095D01*
X93895375Y-95354327D01*
X93904298Y-95284654D01*
X93903291Y-95260960D01*
X93903602Y-95245481D01*
X93905300Y-95225000D01*
X93898248Y-95139902D01*
X93897938Y-95134944D01*
X93897431Y-95123000D01*
X93894180Y-95046468D01*
X93889907Y-95026642D01*
X93887547Y-95010756D01*
X93886134Y-94993695D01*
X93864328Y-94907589D01*
X93863336Y-94903354D01*
X93843954Y-94813419D01*
X93837665Y-94797770D01*
X93832521Y-94781989D01*
X93829157Y-94768700D01*
X93792102Y-94684224D01*
X93790621Y-94680696D01*
X93755066Y-94592214D01*
X93755064Y-94592210D01*
X93748016Y-94580764D01*
X93740051Y-94565561D01*
X93738122Y-94561163D01*
X93735924Y-94556151D01*
X93683628Y-94476106D01*
X93681879Y-94473350D01*
X93630069Y-94389205D01*
X93623454Y-94381689D01*
X93612730Y-94367588D01*
X93610723Y-94364517D01*
X93608979Y-94361847D01*
X93541876Y-94288953D01*
X93540068Y-94286944D01*
X93533781Y-94279801D01*
X93472564Y-94210245D01*
X93471253Y-94209186D01*
X93467439Y-94206106D01*
X93454115Y-94193619D01*
X93451785Y-94191088D01*
X93436534Y-94179218D01*
X93375124Y-94131421D01*
X93370936Y-94128161D01*
X93369199Y-94126783D01*
X93287082Y-94060477D01*
X93284315Y-94058932D01*
X93268637Y-94048538D01*
X93268626Y-94048529D01*
X93175552Y-93998161D01*
X93174209Y-93997423D01*
X93078954Y-93944210D01*
X93078947Y-93944207D01*
X93078753Y-93944099D01*
X93067401Y-93939059D01*
X93048686Y-93932634D01*
X92961252Y-93902617D01*
X92960233Y-93902263D01*
X92851202Y-93863739D01*
X92733772Y-93844144D01*
X92733226Y-93844051D01*
X92619202Y-93824500D01*
X92619200Y-93824500D01*
X92616049Y-93824500D01*
X92383951Y-93824500D01*
X92383949Y-93824500D01*
X92329991Y-93833503D01*
X92320102Y-93834747D01*
X92262460Y-93839653D01*
X92213077Y-93852511D01*
X92202249Y-93854819D01*
X92155023Y-93862701D01*
X92155021Y-93862701D01*
X92155019Y-93862702D01*
X92100056Y-93881570D01*
X92091052Y-93884284D01*
X92031748Y-93899725D01*
X91988361Y-93919337D01*
X91977554Y-93923624D01*
X91935496Y-93938063D01*
X91881395Y-93967341D01*
X91873460Y-93971276D01*
X91814509Y-93997925D01*
X91777882Y-94022679D01*
X91767470Y-94028994D01*
X91731373Y-94048529D01*
X91680124Y-94088417D01*
X91673402Y-94093296D01*
X91616999Y-94131418D01*
X91587549Y-94159643D01*
X91577919Y-94167967D01*
X91548216Y-94191087D01*
X91548214Y-94191088D01*
X91548214Y-94191089D01*
X91501926Y-94241369D01*
X91496500Y-94246905D01*
X91444883Y-94296376D01*
X91422659Y-94326426D01*
X91414196Y-94336670D01*
X91391023Y-94361843D01*
X91351782Y-94421905D01*
X91347671Y-94427815D01*
X91303119Y-94488054D01*
X91287826Y-94518384D01*
X91280917Y-94530371D01*
X91264077Y-94556147D01*
X91233887Y-94624974D01*
X91231054Y-94630987D01*
X91195792Y-94700925D01*
X91186847Y-94730131D01*
X91181842Y-94743620D01*
X91170844Y-94768695D01*
X91151552Y-94844871D01*
X91149912Y-94850736D01*
X91125983Y-94928875D01*
X91122538Y-94955775D01*
X91119750Y-94970455D01*
X91113865Y-94993697D01*
X91107097Y-95075377D01*
X91106517Y-95080886D01*
X91095701Y-95165348D01*
X91096707Y-95189025D01*
X91096396Y-95204520D01*
X91094699Y-95224998D01*
X90500000Y-95224998D01*
X90500000Y-81624000D01*
X90516613Y-81562000D01*
X90562000Y-81516613D01*
X90624000Y-81500000D01*
X149376000Y-81500000D01*
X149438000Y-81516613D01*
G37*
%TD.AperFunction*%
%TD*%
%TA.AperFunction,NonConductor*%
G36*
X119578035Y-99290171D02*
G01*
X119619473Y-99334998D01*
X119634500Y-99394166D01*
X119634500Y-100149784D01*
X119620489Y-100207041D01*
X119581623Y-100251359D01*
X119438598Y-100351505D01*
X119271508Y-100518595D01*
X119141574Y-100704160D01*
X119097255Y-100743026D01*
X119039999Y-100757036D01*
X118982742Y-100743025D01*
X118938426Y-100704161D01*
X118808495Y-100518599D01*
X118641401Y-100351505D01*
X118498375Y-100251357D01*
X118459511Y-100207040D01*
X118445500Y-100149783D01*
X118445500Y-99429784D01*
X118460527Y-99370616D01*
X118501965Y-99325789D01*
X118559771Y-99306166D01*
X118619936Y-99316505D01*
X118720197Y-99361144D01*
X118905352Y-99400500D01*
X118905354Y-99400500D01*
X119094646Y-99400500D01*
X119094648Y-99400500D01*
X119279800Y-99361145D01*
X119279801Y-99361144D01*
X119279803Y-99361144D01*
X119380063Y-99316505D01*
X119460065Y-99280886D01*
X119520229Y-99270548D01*
X119578035Y-99290171D01*
G37*
%TD.AperFunction*%
%TA.AperFunction,NonConductor*%
G36*
X114017257Y-102036975D02*
G01*
X114061573Y-102075839D01*
X114191505Y-102261401D01*
X114358599Y-102428495D01*
X114552170Y-102564035D01*
X114766337Y-102663903D01*
X114994592Y-102725063D01*
X115230000Y-102745659D01*
X115465408Y-102725063D01*
X115668408Y-102670669D01*
X115724691Y-102668828D01*
X115775986Y-102692069D01*
X115811712Y-102735601D01*
X115824500Y-102790445D01*
X115824500Y-107668837D01*
X115815061Y-107716290D01*
X115788181Y-107756518D01*
X115756518Y-107788181D01*
X115716290Y-107815061D01*
X115668837Y-107824500D01*
X112885145Y-107824500D01*
X112877658Y-107824274D01*
X112819911Y-107820780D01*
X112763011Y-107831207D01*
X112755612Y-107832333D01*
X112698157Y-107839310D01*
X112689383Y-107842638D01*
X112667776Y-107848661D01*
X112658562Y-107850349D01*
X112605782Y-107874102D01*
X112598868Y-107876965D01*
X112544773Y-107897481D01*
X112537054Y-107902809D01*
X112517527Y-107913822D01*
X112508973Y-107917672D01*
X112463405Y-107953371D01*
X112457377Y-107957807D01*
X112409770Y-107990668D01*
X112392434Y-108010237D01*
X112334717Y-108046937D01*
X112266321Y-108047453D01*
X112208057Y-108011627D01*
X112177651Y-107950359D01*
X112173152Y-107925808D01*
X112171347Y-107910943D01*
X112170533Y-107897481D01*
X112169315Y-107877344D01*
X112159299Y-107845203D01*
X112155715Y-107830661D01*
X112146936Y-107782748D01*
X112147380Y-107782666D01*
X112140500Y-107750613D01*
X112140500Y-102802503D01*
X112153288Y-102747659D01*
X112189014Y-102704127D01*
X112240309Y-102680886D01*
X112296593Y-102682728D01*
X112424157Y-102716908D01*
X112454592Y-102725063D01*
X112690000Y-102745659D01*
X112925408Y-102725063D01*
X113153663Y-102663903D01*
X113367830Y-102564035D01*
X113561401Y-102428495D01*
X113728495Y-102261401D01*
X113858426Y-102075839D01*
X113902743Y-102036975D01*
X113960000Y-102022964D01*
X114017257Y-102036975D01*
G37*
%TD.AperFunction*%
M02*
