M48
; DRILL file {KiCad 7.0.1} date Thu Aug 24 13:32:05 2023
; FORMAT={-:-/ absolute / inch / decimal}
; #@! TF.CreationDate,2023-08-24T13:32:05+02:00
; #@! TF.GenerationSoftware,Kicad,Pcbnew,7.0.1
; #@! TF.FileFunction,Plated,1,2,PTH
FMAT,2
INCH
; #@! TA.AperFunction,Plated,PTH,ViaDrill
T1C0.0157
; #@! TA.AperFunction,Plated,PTH,ComponentDrill
T2C0.0315
; #@! TA.AperFunction,Plated,PTH,ComponentDrill
T3C0.0394
; #@! TA.AperFunction,Plated,PTH,ComponentDrill
T4C0.0402
%
G90
G05
T1
X3.935Y-3.53
X4.0551Y-3.8189
X4.3307Y-3.7795
X4.4685Y-3.3858
X4.635Y-3.65
X4.64Y-3.525
X4.685Y-3.878
X5.4724Y-4.252
X5.495Y-4.495
T2
X3.6811Y-4.1732
X3.6811Y-4.2717
X4.0417Y-3.5236
X4.1417Y-3.5236
X4.2417Y-3.5236
X4.3417Y-3.5236
X4.4417Y-3.5236
X4.5417Y-3.5236
X4.8984Y-3.5236
X4.9984Y-3.5236
X5.0984Y-3.5236
X5.1984Y-3.5236
X5.2118Y-4.2472
X5.2118Y-4.3472
X5.2118Y-4.4472
X5.2118Y-4.5472
X5.2118Y-4.6472
X5.2118Y-4.7472
X5.2984Y-3.5236
X5.3984Y-3.5236
X5.8118Y-4.2472
X5.8118Y-4.3472
X5.8118Y-4.4472
X5.8118Y-4.5472
X5.8118Y-4.6472
X5.8118Y-4.7472
T3
X3.8376Y-4.3691
X3.9376Y-4.3691
X4.0376Y-4.3691
X4.1929Y-4.3701
X4.2929Y-4.3701
X4.3929Y-4.3701
X4.5736Y-4.174
X4.5736Y-4.274
X4.5736Y-4.374
X4.7441Y-4.1741
X4.7441Y-4.2741
X4.7441Y-4.3741
X4.9213Y-4.2717
X4.9213Y-4.3717
X5.6874Y-4.0748
X5.7071Y-3.278
X5.7071Y-3.378
X5.7071Y-3.478
X5.7071Y-3.578
X5.7071Y-3.678
X5.7071Y-3.778
X5.7071Y-3.878
X5.7874Y-4.0748
X5.8071Y-3.278
X5.8071Y-3.378
X5.8071Y-3.478
X5.8071Y-3.578
X5.8071Y-3.678
X5.8071Y-3.778
X5.8071Y-3.878
T4
X3.6366Y-3.2917
X3.6366Y-3.9917
X3.7366Y-3.2917
X3.7366Y-3.9917
X3.8366Y-3.2917
X3.8366Y-3.9917
X3.9366Y-3.2917
X3.9366Y-3.9917
X4.0366Y-3.2917
X4.0366Y-3.9917
X4.1366Y-3.2917
X4.1366Y-3.9917
X4.2366Y-3.2917
X4.2366Y-3.9917
X4.3366Y-3.2917
X4.3366Y-3.9917
X4.4366Y-3.2917
X4.4366Y-3.9917
X4.5366Y-3.2917
X4.5366Y-3.9917
X4.6366Y-3.2917
X4.6366Y-3.9917
X4.7366Y-3.2917
X4.7366Y-3.9917
X4.8366Y-3.2917
X4.8366Y-3.9917
X4.9366Y-3.2917
X4.9366Y-3.9917
X5.0366Y-3.2917
X5.0366Y-3.9917
X5.1366Y-3.2917
X5.1366Y-3.9917
X5.2366Y-3.2917
X5.2366Y-3.9917
X5.3366Y-3.2917
X5.3366Y-3.9917
X5.4366Y-3.2917
X5.4366Y-3.9917
X5.5276Y-3.5417
X5.5276Y-3.6417
X5.5276Y-3.7417
X5.5366Y-3.2917
X5.5366Y-3.9917
T0
M30
