%TF.GenerationSoftware,KiCad,Pcbnew,7.0.1*%
%TF.CreationDate,2023-08-02T12:57:22+02:00*%
%TF.ProjectId,gemma20Pico,67656d6d-6132-4305-9069-636f2e6b6963,rev?*%
%TF.SameCoordinates,Original*%
%TF.FileFunction,Legend,Top*%
%TF.FilePolarity,Positive*%
%FSLAX46Y46*%
G04 Gerber Fmt 4.6, Leading zero omitted, Abs format (unit mm)*
G04 Created by KiCad (PCBNEW 7.0.1) date 2023-08-02 12:57:22*
%MOMM*%
%LPD*%
G01*
G04 APERTURE LIST*
%ADD10C,0.150000*%
%ADD11C,0.120000*%
G04 APERTURE END LIST*
D10*
X111125238Y-108638095D02*
X111077619Y-108733333D01*
X111077619Y-108733333D02*
X111077619Y-108876190D01*
X111077619Y-108876190D02*
X111125238Y-109019047D01*
X111125238Y-109019047D02*
X111220476Y-109114285D01*
X111220476Y-109114285D02*
X111315714Y-109161904D01*
X111315714Y-109161904D02*
X111506190Y-109209523D01*
X111506190Y-109209523D02*
X111649047Y-109209523D01*
X111649047Y-109209523D02*
X111839523Y-109161904D01*
X111839523Y-109161904D02*
X111934761Y-109114285D01*
X111934761Y-109114285D02*
X112030000Y-109019047D01*
X112030000Y-109019047D02*
X112077619Y-108876190D01*
X112077619Y-108876190D02*
X112077619Y-108780952D01*
X112077619Y-108780952D02*
X112030000Y-108638095D01*
X112030000Y-108638095D02*
X111982380Y-108590476D01*
X111982380Y-108590476D02*
X111649047Y-108590476D01*
X111649047Y-108590476D02*
X111649047Y-108780952D01*
X112077619Y-108161904D02*
X111077619Y-108161904D01*
X111077619Y-108161904D02*
X112077619Y-107590476D01*
X112077619Y-107590476D02*
X111077619Y-107590476D01*
X112077619Y-107114285D02*
X111077619Y-107114285D01*
X111077619Y-107114285D02*
X111077619Y-106876190D01*
X111077619Y-106876190D02*
X111125238Y-106733333D01*
X111125238Y-106733333D02*
X111220476Y-106638095D01*
X111220476Y-106638095D02*
X111315714Y-106590476D01*
X111315714Y-106590476D02*
X111506190Y-106542857D01*
X111506190Y-106542857D02*
X111649047Y-106542857D01*
X111649047Y-106542857D02*
X111839523Y-106590476D01*
X111839523Y-106590476D02*
X111934761Y-106638095D01*
X111934761Y-106638095D02*
X112030000Y-106733333D01*
X112030000Y-106733333D02*
X112077619Y-106876190D01*
X112077619Y-106876190D02*
X112077619Y-107114285D01*
X102025238Y-108538095D02*
X101977619Y-108633333D01*
X101977619Y-108633333D02*
X101977619Y-108776190D01*
X101977619Y-108776190D02*
X102025238Y-108919047D01*
X102025238Y-108919047D02*
X102120476Y-109014285D01*
X102120476Y-109014285D02*
X102215714Y-109061904D01*
X102215714Y-109061904D02*
X102406190Y-109109523D01*
X102406190Y-109109523D02*
X102549047Y-109109523D01*
X102549047Y-109109523D02*
X102739523Y-109061904D01*
X102739523Y-109061904D02*
X102834761Y-109014285D01*
X102834761Y-109014285D02*
X102930000Y-108919047D01*
X102930000Y-108919047D02*
X102977619Y-108776190D01*
X102977619Y-108776190D02*
X102977619Y-108680952D01*
X102977619Y-108680952D02*
X102930000Y-108538095D01*
X102930000Y-108538095D02*
X102882380Y-108490476D01*
X102882380Y-108490476D02*
X102549047Y-108490476D01*
X102549047Y-108490476D02*
X102549047Y-108680952D01*
X102977619Y-108061904D02*
X101977619Y-108061904D01*
X101977619Y-108061904D02*
X102977619Y-107490476D01*
X102977619Y-107490476D02*
X101977619Y-107490476D01*
X102977619Y-107014285D02*
X101977619Y-107014285D01*
X101977619Y-107014285D02*
X101977619Y-106776190D01*
X101977619Y-106776190D02*
X102025238Y-106633333D01*
X102025238Y-106633333D02*
X102120476Y-106538095D01*
X102120476Y-106538095D02*
X102215714Y-106490476D01*
X102215714Y-106490476D02*
X102406190Y-106442857D01*
X102406190Y-106442857D02*
X102549047Y-106442857D01*
X102549047Y-106442857D02*
X102739523Y-106490476D01*
X102739523Y-106490476D02*
X102834761Y-106538095D01*
X102834761Y-106538095D02*
X102930000Y-106633333D01*
X102930000Y-106633333D02*
X102977619Y-106776190D01*
X102977619Y-106776190D02*
X102977619Y-107014285D01*
X108277619Y-109057142D02*
X108277619Y-108438095D01*
X108277619Y-108438095D02*
X108658571Y-108771428D01*
X108658571Y-108771428D02*
X108658571Y-108628571D01*
X108658571Y-108628571D02*
X108706190Y-108533333D01*
X108706190Y-108533333D02*
X108753809Y-108485714D01*
X108753809Y-108485714D02*
X108849047Y-108438095D01*
X108849047Y-108438095D02*
X109087142Y-108438095D01*
X109087142Y-108438095D02*
X109182380Y-108485714D01*
X109182380Y-108485714D02*
X109230000Y-108533333D01*
X109230000Y-108533333D02*
X109277619Y-108628571D01*
X109277619Y-108628571D02*
X109277619Y-108914285D01*
X109277619Y-108914285D02*
X109230000Y-109009523D01*
X109230000Y-109009523D02*
X109182380Y-109057142D01*
X109182380Y-108009523D02*
X109230000Y-107961904D01*
X109230000Y-107961904D02*
X109277619Y-108009523D01*
X109277619Y-108009523D02*
X109230000Y-108057142D01*
X109230000Y-108057142D02*
X109182380Y-108009523D01*
X109182380Y-108009523D02*
X109277619Y-108009523D01*
X108277619Y-107628571D02*
X108277619Y-107009524D01*
X108277619Y-107009524D02*
X108658571Y-107342857D01*
X108658571Y-107342857D02*
X108658571Y-107200000D01*
X108658571Y-107200000D02*
X108706190Y-107104762D01*
X108706190Y-107104762D02*
X108753809Y-107057143D01*
X108753809Y-107057143D02*
X108849047Y-107009524D01*
X108849047Y-107009524D02*
X109087142Y-107009524D01*
X109087142Y-107009524D02*
X109182380Y-107057143D01*
X109182380Y-107057143D02*
X109230000Y-107104762D01*
X109230000Y-107104762D02*
X109277619Y-107200000D01*
X109277619Y-107200000D02*
X109277619Y-107485714D01*
X109277619Y-107485714D02*
X109230000Y-107580952D01*
X109230000Y-107580952D02*
X109182380Y-107628571D01*
X108277619Y-106723809D02*
X109277619Y-106390476D01*
X109277619Y-106390476D02*
X108277619Y-106057143D01*
X99377619Y-109057142D02*
X99377619Y-108438095D01*
X99377619Y-108438095D02*
X99758571Y-108771428D01*
X99758571Y-108771428D02*
X99758571Y-108628571D01*
X99758571Y-108628571D02*
X99806190Y-108533333D01*
X99806190Y-108533333D02*
X99853809Y-108485714D01*
X99853809Y-108485714D02*
X99949047Y-108438095D01*
X99949047Y-108438095D02*
X100187142Y-108438095D01*
X100187142Y-108438095D02*
X100282380Y-108485714D01*
X100282380Y-108485714D02*
X100330000Y-108533333D01*
X100330000Y-108533333D02*
X100377619Y-108628571D01*
X100377619Y-108628571D02*
X100377619Y-108914285D01*
X100377619Y-108914285D02*
X100330000Y-109009523D01*
X100330000Y-109009523D02*
X100282380Y-109057142D01*
X100282380Y-108009523D02*
X100330000Y-107961904D01*
X100330000Y-107961904D02*
X100377619Y-108009523D01*
X100377619Y-108009523D02*
X100330000Y-108057142D01*
X100330000Y-108057142D02*
X100282380Y-108009523D01*
X100282380Y-108009523D02*
X100377619Y-108009523D01*
X99377619Y-107628571D02*
X99377619Y-107009524D01*
X99377619Y-107009524D02*
X99758571Y-107342857D01*
X99758571Y-107342857D02*
X99758571Y-107200000D01*
X99758571Y-107200000D02*
X99806190Y-107104762D01*
X99806190Y-107104762D02*
X99853809Y-107057143D01*
X99853809Y-107057143D02*
X99949047Y-107009524D01*
X99949047Y-107009524D02*
X100187142Y-107009524D01*
X100187142Y-107009524D02*
X100282380Y-107057143D01*
X100282380Y-107057143D02*
X100330000Y-107104762D01*
X100330000Y-107104762D02*
X100377619Y-107200000D01*
X100377619Y-107200000D02*
X100377619Y-107485714D01*
X100377619Y-107485714D02*
X100330000Y-107580952D01*
X100330000Y-107580952D02*
X100282380Y-107628571D01*
X99377619Y-106723809D02*
X100377619Y-106390476D01*
X100377619Y-106390476D02*
X99377619Y-106057143D01*
X126338095Y-108096666D02*
X127100000Y-108096666D01*
X126719047Y-108477619D02*
X126719047Y-107715714D01*
X127909523Y-107953809D02*
X128052380Y-108001428D01*
X128052380Y-108001428D02*
X128099999Y-108049047D01*
X128099999Y-108049047D02*
X128147618Y-108144285D01*
X128147618Y-108144285D02*
X128147618Y-108287142D01*
X128147618Y-108287142D02*
X128099999Y-108382380D01*
X128099999Y-108382380D02*
X128052380Y-108430000D01*
X128052380Y-108430000D02*
X127957142Y-108477619D01*
X127957142Y-108477619D02*
X127576190Y-108477619D01*
X127576190Y-108477619D02*
X127576190Y-107477619D01*
X127576190Y-107477619D02*
X127909523Y-107477619D01*
X127909523Y-107477619D02*
X128004761Y-107525238D01*
X128004761Y-107525238D02*
X128052380Y-107572857D01*
X128052380Y-107572857D02*
X128099999Y-107668095D01*
X128099999Y-107668095D02*
X128099999Y-107763333D01*
X128099999Y-107763333D02*
X128052380Y-107858571D01*
X128052380Y-107858571D02*
X128004761Y-107906190D01*
X128004761Y-107906190D02*
X127909523Y-107953809D01*
X127909523Y-107953809D02*
X127576190Y-107953809D01*
X128528571Y-108191904D02*
X129004761Y-108191904D01*
X128433333Y-108477619D02*
X128766666Y-107477619D01*
X128766666Y-107477619D02*
X129099999Y-108477619D01*
X129290476Y-107477619D02*
X129861904Y-107477619D01*
X129576190Y-108477619D02*
X129576190Y-107477619D01*
X111490476Y-105630000D02*
X111633333Y-105677619D01*
X111633333Y-105677619D02*
X111871428Y-105677619D01*
X111871428Y-105677619D02*
X111966666Y-105630000D01*
X111966666Y-105630000D02*
X112014285Y-105582380D01*
X112014285Y-105582380D02*
X112061904Y-105487142D01*
X112061904Y-105487142D02*
X112061904Y-105391904D01*
X112061904Y-105391904D02*
X112014285Y-105296666D01*
X112014285Y-105296666D02*
X111966666Y-105249047D01*
X111966666Y-105249047D02*
X111871428Y-105201428D01*
X111871428Y-105201428D02*
X111680952Y-105153809D01*
X111680952Y-105153809D02*
X111585714Y-105106190D01*
X111585714Y-105106190D02*
X111538095Y-105058571D01*
X111538095Y-105058571D02*
X111490476Y-104963333D01*
X111490476Y-104963333D02*
X111490476Y-104868095D01*
X111490476Y-104868095D02*
X111538095Y-104772857D01*
X111538095Y-104772857D02*
X111585714Y-104725238D01*
X111585714Y-104725238D02*
X111680952Y-104677619D01*
X111680952Y-104677619D02*
X111919047Y-104677619D01*
X111919047Y-104677619D02*
X112061904Y-104725238D01*
X112490476Y-105677619D02*
X112490476Y-104677619D01*
X113490475Y-104725238D02*
X113395237Y-104677619D01*
X113395237Y-104677619D02*
X113252380Y-104677619D01*
X113252380Y-104677619D02*
X113109523Y-104725238D01*
X113109523Y-104725238D02*
X113014285Y-104820476D01*
X113014285Y-104820476D02*
X112966666Y-104915714D01*
X112966666Y-104915714D02*
X112919047Y-105106190D01*
X112919047Y-105106190D02*
X112919047Y-105249047D01*
X112919047Y-105249047D02*
X112966666Y-105439523D01*
X112966666Y-105439523D02*
X113014285Y-105534761D01*
X113014285Y-105534761D02*
X113109523Y-105630000D01*
X113109523Y-105630000D02*
X113252380Y-105677619D01*
X113252380Y-105677619D02*
X113347618Y-105677619D01*
X113347618Y-105677619D02*
X113490475Y-105630000D01*
X113490475Y-105630000D02*
X113538094Y-105582380D01*
X113538094Y-105582380D02*
X113538094Y-105249047D01*
X113538094Y-105249047D02*
X113347618Y-105249047D01*
X113966666Y-105677619D02*
X113966666Y-104677619D01*
X113966666Y-104677619D02*
X114538094Y-105677619D01*
X114538094Y-105677619D02*
X114538094Y-104677619D01*
X106891904Y-108909523D02*
X106891904Y-108433333D01*
X107177619Y-109004761D02*
X106177619Y-108671428D01*
X106177619Y-108671428D02*
X107177619Y-108338095D01*
X107177619Y-108004761D02*
X106177619Y-108004761D01*
X106177619Y-108004761D02*
X106177619Y-107766666D01*
X106177619Y-107766666D02*
X106225238Y-107623809D01*
X106225238Y-107623809D02*
X106320476Y-107528571D01*
X106320476Y-107528571D02*
X106415714Y-107480952D01*
X106415714Y-107480952D02*
X106606190Y-107433333D01*
X106606190Y-107433333D02*
X106749047Y-107433333D01*
X106749047Y-107433333D02*
X106939523Y-107480952D01*
X106939523Y-107480952D02*
X107034761Y-107528571D01*
X107034761Y-107528571D02*
X107130000Y-107623809D01*
X107130000Y-107623809D02*
X107177619Y-107766666D01*
X107177619Y-107766666D02*
X107177619Y-108004761D01*
X107082380Y-106433333D02*
X107130000Y-106480952D01*
X107130000Y-106480952D02*
X107177619Y-106623809D01*
X107177619Y-106623809D02*
X107177619Y-106719047D01*
X107177619Y-106719047D02*
X107130000Y-106861904D01*
X107130000Y-106861904D02*
X107034761Y-106957142D01*
X107034761Y-106957142D02*
X106939523Y-107004761D01*
X106939523Y-107004761D02*
X106749047Y-107052380D01*
X106749047Y-107052380D02*
X106606190Y-107052380D01*
X106606190Y-107052380D02*
X106415714Y-107004761D01*
X106415714Y-107004761D02*
X106320476Y-106957142D01*
X106320476Y-106957142D02*
X106225238Y-106861904D01*
X106225238Y-106861904D02*
X106177619Y-106719047D01*
X106177619Y-106719047D02*
X106177619Y-106623809D01*
X106177619Y-106623809D02*
X106225238Y-106480952D01*
X106225238Y-106480952D02*
X106272857Y-106433333D01*
X106177619Y-105814285D02*
X106177619Y-105719047D01*
X106177619Y-105719047D02*
X106225238Y-105623809D01*
X106225238Y-105623809D02*
X106272857Y-105576190D01*
X106272857Y-105576190D02*
X106368095Y-105528571D01*
X106368095Y-105528571D02*
X106558571Y-105480952D01*
X106558571Y-105480952D02*
X106796666Y-105480952D01*
X106796666Y-105480952D02*
X106987142Y-105528571D01*
X106987142Y-105528571D02*
X107082380Y-105576190D01*
X107082380Y-105576190D02*
X107130000Y-105623809D01*
X107130000Y-105623809D02*
X107177619Y-105719047D01*
X107177619Y-105719047D02*
X107177619Y-105814285D01*
X107177619Y-105814285D02*
X107130000Y-105909523D01*
X107130000Y-105909523D02*
X107082380Y-105957142D01*
X107082380Y-105957142D02*
X106987142Y-106004761D01*
X106987142Y-106004761D02*
X106796666Y-106052380D01*
X106796666Y-106052380D02*
X106558571Y-106052380D01*
X106558571Y-106052380D02*
X106368095Y-106004761D01*
X106368095Y-106004761D02*
X106272857Y-105957142D01*
X106272857Y-105957142D02*
X106225238Y-105909523D01*
X106225238Y-105909523D02*
X106177619Y-105814285D01*
X97891904Y-108909523D02*
X97891904Y-108433333D01*
X98177619Y-109004761D02*
X97177619Y-108671428D01*
X97177619Y-108671428D02*
X98177619Y-108338095D01*
X98177619Y-108004761D02*
X97177619Y-108004761D01*
X97177619Y-108004761D02*
X97177619Y-107766666D01*
X97177619Y-107766666D02*
X97225238Y-107623809D01*
X97225238Y-107623809D02*
X97320476Y-107528571D01*
X97320476Y-107528571D02*
X97415714Y-107480952D01*
X97415714Y-107480952D02*
X97606190Y-107433333D01*
X97606190Y-107433333D02*
X97749047Y-107433333D01*
X97749047Y-107433333D02*
X97939523Y-107480952D01*
X97939523Y-107480952D02*
X98034761Y-107528571D01*
X98034761Y-107528571D02*
X98130000Y-107623809D01*
X98130000Y-107623809D02*
X98177619Y-107766666D01*
X98177619Y-107766666D02*
X98177619Y-108004761D01*
X98082380Y-106433333D02*
X98130000Y-106480952D01*
X98130000Y-106480952D02*
X98177619Y-106623809D01*
X98177619Y-106623809D02*
X98177619Y-106719047D01*
X98177619Y-106719047D02*
X98130000Y-106861904D01*
X98130000Y-106861904D02*
X98034761Y-106957142D01*
X98034761Y-106957142D02*
X97939523Y-107004761D01*
X97939523Y-107004761D02*
X97749047Y-107052380D01*
X97749047Y-107052380D02*
X97606190Y-107052380D01*
X97606190Y-107052380D02*
X97415714Y-107004761D01*
X97415714Y-107004761D02*
X97320476Y-106957142D01*
X97320476Y-106957142D02*
X97225238Y-106861904D01*
X97225238Y-106861904D02*
X97177619Y-106719047D01*
X97177619Y-106719047D02*
X97177619Y-106623809D01*
X97177619Y-106623809D02*
X97225238Y-106480952D01*
X97225238Y-106480952D02*
X97272857Y-106433333D01*
X98177619Y-105480952D02*
X98177619Y-106052380D01*
X98177619Y-105766666D02*
X97177619Y-105766666D01*
X97177619Y-105766666D02*
X97320476Y-105861904D01*
X97320476Y-105861904D02*
X97415714Y-105957142D01*
X97415714Y-105957142D02*
X97463333Y-106052380D01*
X127361904Y-109625238D02*
X127266666Y-109577619D01*
X127266666Y-109577619D02*
X127123809Y-109577619D01*
X127123809Y-109577619D02*
X126980952Y-109625238D01*
X126980952Y-109625238D02*
X126885714Y-109720476D01*
X126885714Y-109720476D02*
X126838095Y-109815714D01*
X126838095Y-109815714D02*
X126790476Y-110006190D01*
X126790476Y-110006190D02*
X126790476Y-110149047D01*
X126790476Y-110149047D02*
X126838095Y-110339523D01*
X126838095Y-110339523D02*
X126885714Y-110434761D01*
X126885714Y-110434761D02*
X126980952Y-110530000D01*
X126980952Y-110530000D02*
X127123809Y-110577619D01*
X127123809Y-110577619D02*
X127219047Y-110577619D01*
X127219047Y-110577619D02*
X127361904Y-110530000D01*
X127361904Y-110530000D02*
X127409523Y-110482380D01*
X127409523Y-110482380D02*
X127409523Y-110149047D01*
X127409523Y-110149047D02*
X127219047Y-110149047D01*
X127838095Y-110577619D02*
X127838095Y-109577619D01*
X127838095Y-109577619D02*
X128409523Y-110577619D01*
X128409523Y-110577619D02*
X128409523Y-109577619D01*
X128885714Y-110577619D02*
X128885714Y-109577619D01*
X128885714Y-109577619D02*
X129123809Y-109577619D01*
X129123809Y-109577619D02*
X129266666Y-109625238D01*
X129266666Y-109625238D02*
X129361904Y-109720476D01*
X129361904Y-109720476D02*
X129409523Y-109815714D01*
X129409523Y-109815714D02*
X129457142Y-110006190D01*
X129457142Y-110006190D02*
X129457142Y-110149047D01*
X129457142Y-110149047D02*
X129409523Y-110339523D01*
X129409523Y-110339523D02*
X129361904Y-110434761D01*
X129361904Y-110434761D02*
X129266666Y-110530000D01*
X129266666Y-110530000D02*
X129123809Y-110577619D01*
X129123809Y-110577619D02*
X128885714Y-110577619D01*
%TO.C,U2-Motor-Control1*%
X132238094Y-122462619D02*
X132238094Y-123272142D01*
X132238094Y-123272142D02*
X132285713Y-123367380D01*
X132285713Y-123367380D02*
X132333332Y-123415000D01*
X132333332Y-123415000D02*
X132428570Y-123462619D01*
X132428570Y-123462619D02*
X132619046Y-123462619D01*
X132619046Y-123462619D02*
X132714284Y-123415000D01*
X132714284Y-123415000D02*
X132761903Y-123367380D01*
X132761903Y-123367380D02*
X132809522Y-123272142D01*
X132809522Y-123272142D02*
X132809522Y-122462619D01*
X133238094Y-122557857D02*
X133285713Y-122510238D01*
X133285713Y-122510238D02*
X133380951Y-122462619D01*
X133380951Y-122462619D02*
X133619046Y-122462619D01*
X133619046Y-122462619D02*
X133714284Y-122510238D01*
X133714284Y-122510238D02*
X133761903Y-122557857D01*
X133761903Y-122557857D02*
X133809522Y-122653095D01*
X133809522Y-122653095D02*
X133809522Y-122748333D01*
X133809522Y-122748333D02*
X133761903Y-122891190D01*
X133761903Y-122891190D02*
X133190475Y-123462619D01*
X133190475Y-123462619D02*
X133809522Y-123462619D01*
X134238094Y-123081666D02*
X134999999Y-123081666D01*
X135476189Y-123462619D02*
X135476189Y-122462619D01*
X135476189Y-122462619D02*
X135809522Y-123176904D01*
X135809522Y-123176904D02*
X136142855Y-122462619D01*
X136142855Y-122462619D02*
X136142855Y-123462619D01*
X136761903Y-123462619D02*
X136666665Y-123415000D01*
X136666665Y-123415000D02*
X136619046Y-123367380D01*
X136619046Y-123367380D02*
X136571427Y-123272142D01*
X136571427Y-123272142D02*
X136571427Y-122986428D01*
X136571427Y-122986428D02*
X136619046Y-122891190D01*
X136619046Y-122891190D02*
X136666665Y-122843571D01*
X136666665Y-122843571D02*
X136761903Y-122795952D01*
X136761903Y-122795952D02*
X136904760Y-122795952D01*
X136904760Y-122795952D02*
X136999998Y-122843571D01*
X136999998Y-122843571D02*
X137047617Y-122891190D01*
X137047617Y-122891190D02*
X137095236Y-122986428D01*
X137095236Y-122986428D02*
X137095236Y-123272142D01*
X137095236Y-123272142D02*
X137047617Y-123367380D01*
X137047617Y-123367380D02*
X136999998Y-123415000D01*
X136999998Y-123415000D02*
X136904760Y-123462619D01*
X136904760Y-123462619D02*
X136761903Y-123462619D01*
X137380951Y-122795952D02*
X137761903Y-122795952D01*
X137523808Y-122462619D02*
X137523808Y-123319761D01*
X137523808Y-123319761D02*
X137571427Y-123415000D01*
X137571427Y-123415000D02*
X137666665Y-123462619D01*
X137666665Y-123462619D02*
X137761903Y-123462619D01*
X138238094Y-123462619D02*
X138142856Y-123415000D01*
X138142856Y-123415000D02*
X138095237Y-123367380D01*
X138095237Y-123367380D02*
X138047618Y-123272142D01*
X138047618Y-123272142D02*
X138047618Y-122986428D01*
X138047618Y-122986428D02*
X138095237Y-122891190D01*
X138095237Y-122891190D02*
X138142856Y-122843571D01*
X138142856Y-122843571D02*
X138238094Y-122795952D01*
X138238094Y-122795952D02*
X138380951Y-122795952D01*
X138380951Y-122795952D02*
X138476189Y-122843571D01*
X138476189Y-122843571D02*
X138523808Y-122891190D01*
X138523808Y-122891190D02*
X138571427Y-122986428D01*
X138571427Y-122986428D02*
X138571427Y-123272142D01*
X138571427Y-123272142D02*
X138523808Y-123367380D01*
X138523808Y-123367380D02*
X138476189Y-123415000D01*
X138476189Y-123415000D02*
X138380951Y-123462619D01*
X138380951Y-123462619D02*
X138238094Y-123462619D01*
X138999999Y-123462619D02*
X138999999Y-122795952D01*
X138999999Y-122986428D02*
X139047618Y-122891190D01*
X139047618Y-122891190D02*
X139095237Y-122843571D01*
X139095237Y-122843571D02*
X139190475Y-122795952D01*
X139190475Y-122795952D02*
X139285713Y-122795952D01*
X139619047Y-123081666D02*
X140380952Y-123081666D01*
X141428570Y-123367380D02*
X141380951Y-123415000D01*
X141380951Y-123415000D02*
X141238094Y-123462619D01*
X141238094Y-123462619D02*
X141142856Y-123462619D01*
X141142856Y-123462619D02*
X140999999Y-123415000D01*
X140999999Y-123415000D02*
X140904761Y-123319761D01*
X140904761Y-123319761D02*
X140857142Y-123224523D01*
X140857142Y-123224523D02*
X140809523Y-123034047D01*
X140809523Y-123034047D02*
X140809523Y-122891190D01*
X140809523Y-122891190D02*
X140857142Y-122700714D01*
X140857142Y-122700714D02*
X140904761Y-122605476D01*
X140904761Y-122605476D02*
X140999999Y-122510238D01*
X140999999Y-122510238D02*
X141142856Y-122462619D01*
X141142856Y-122462619D02*
X141238094Y-122462619D01*
X141238094Y-122462619D02*
X141380951Y-122510238D01*
X141380951Y-122510238D02*
X141428570Y-122557857D01*
X141999999Y-123462619D02*
X141904761Y-123415000D01*
X141904761Y-123415000D02*
X141857142Y-123367380D01*
X141857142Y-123367380D02*
X141809523Y-123272142D01*
X141809523Y-123272142D02*
X141809523Y-122986428D01*
X141809523Y-122986428D02*
X141857142Y-122891190D01*
X141857142Y-122891190D02*
X141904761Y-122843571D01*
X141904761Y-122843571D02*
X141999999Y-122795952D01*
X141999999Y-122795952D02*
X142142856Y-122795952D01*
X142142856Y-122795952D02*
X142238094Y-122843571D01*
X142238094Y-122843571D02*
X142285713Y-122891190D01*
X142285713Y-122891190D02*
X142333332Y-122986428D01*
X142333332Y-122986428D02*
X142333332Y-123272142D01*
X142333332Y-123272142D02*
X142285713Y-123367380D01*
X142285713Y-123367380D02*
X142238094Y-123415000D01*
X142238094Y-123415000D02*
X142142856Y-123462619D01*
X142142856Y-123462619D02*
X141999999Y-123462619D01*
X142761904Y-122795952D02*
X142761904Y-123462619D01*
X142761904Y-122891190D02*
X142809523Y-122843571D01*
X142809523Y-122843571D02*
X142904761Y-122795952D01*
X142904761Y-122795952D02*
X143047618Y-122795952D01*
X143047618Y-122795952D02*
X143142856Y-122843571D01*
X143142856Y-122843571D02*
X143190475Y-122938809D01*
X143190475Y-122938809D02*
X143190475Y-123462619D01*
X143523809Y-122795952D02*
X143904761Y-122795952D01*
X143666666Y-122462619D02*
X143666666Y-123319761D01*
X143666666Y-123319761D02*
X143714285Y-123415000D01*
X143714285Y-123415000D02*
X143809523Y-123462619D01*
X143809523Y-123462619D02*
X143904761Y-123462619D01*
X144238095Y-123462619D02*
X144238095Y-122795952D01*
X144238095Y-122986428D02*
X144285714Y-122891190D01*
X144285714Y-122891190D02*
X144333333Y-122843571D01*
X144333333Y-122843571D02*
X144428571Y-122795952D01*
X144428571Y-122795952D02*
X144523809Y-122795952D01*
X145000000Y-123462619D02*
X144904762Y-123415000D01*
X144904762Y-123415000D02*
X144857143Y-123367380D01*
X144857143Y-123367380D02*
X144809524Y-123272142D01*
X144809524Y-123272142D02*
X144809524Y-122986428D01*
X144809524Y-122986428D02*
X144857143Y-122891190D01*
X144857143Y-122891190D02*
X144904762Y-122843571D01*
X144904762Y-122843571D02*
X145000000Y-122795952D01*
X145000000Y-122795952D02*
X145142857Y-122795952D01*
X145142857Y-122795952D02*
X145238095Y-122843571D01*
X145238095Y-122843571D02*
X145285714Y-122891190D01*
X145285714Y-122891190D02*
X145333333Y-122986428D01*
X145333333Y-122986428D02*
X145333333Y-123272142D01*
X145333333Y-123272142D02*
X145285714Y-123367380D01*
X145285714Y-123367380D02*
X145238095Y-123415000D01*
X145238095Y-123415000D02*
X145142857Y-123462619D01*
X145142857Y-123462619D02*
X145000000Y-123462619D01*
X145904762Y-123462619D02*
X145809524Y-123415000D01*
X145809524Y-123415000D02*
X145761905Y-123319761D01*
X145761905Y-123319761D02*
X145761905Y-122462619D01*
X146809524Y-123462619D02*
X146238096Y-123462619D01*
X146523810Y-123462619D02*
X146523810Y-122462619D01*
X146523810Y-122462619D02*
X146428572Y-122605476D01*
X146428572Y-122605476D02*
X146333334Y-122700714D01*
X146333334Y-122700714D02*
X146238096Y-122748333D01*
%TO.C,EXT1*%
X142952381Y-100938809D02*
X143285714Y-100938809D01*
X143428571Y-101462619D02*
X142952381Y-101462619D01*
X142952381Y-101462619D02*
X142952381Y-100462619D01*
X142952381Y-100462619D02*
X143428571Y-100462619D01*
X143761905Y-100462619D02*
X144428571Y-101462619D01*
X144428571Y-100462619D02*
X143761905Y-101462619D01*
X144666667Y-100462619D02*
X145238095Y-100462619D01*
X144952381Y-101462619D02*
X144952381Y-100462619D01*
X146095238Y-101462619D02*
X145523810Y-101462619D01*
X145809524Y-101462619D02*
X145809524Y-100462619D01*
X145809524Y-100462619D02*
X145714286Y-100605476D01*
X145714286Y-100605476D02*
X145619048Y-100700714D01*
X145619048Y-100700714D02*
X145523810Y-100748333D01*
%TO.C,C1*%
X93333333Y-111367380D02*
X93285714Y-111415000D01*
X93285714Y-111415000D02*
X93142857Y-111462619D01*
X93142857Y-111462619D02*
X93047619Y-111462619D01*
X93047619Y-111462619D02*
X92904762Y-111415000D01*
X92904762Y-111415000D02*
X92809524Y-111319761D01*
X92809524Y-111319761D02*
X92761905Y-111224523D01*
X92761905Y-111224523D02*
X92714286Y-111034047D01*
X92714286Y-111034047D02*
X92714286Y-110891190D01*
X92714286Y-110891190D02*
X92761905Y-110700714D01*
X92761905Y-110700714D02*
X92809524Y-110605476D01*
X92809524Y-110605476D02*
X92904762Y-110510238D01*
X92904762Y-110510238D02*
X93047619Y-110462619D01*
X93047619Y-110462619D02*
X93142857Y-110462619D01*
X93142857Y-110462619D02*
X93285714Y-110510238D01*
X93285714Y-110510238D02*
X93333333Y-110557857D01*
X94285714Y-111462619D02*
X93714286Y-111462619D01*
X94000000Y-111462619D02*
X94000000Y-110462619D01*
X94000000Y-110462619D02*
X93904762Y-110605476D01*
X93904762Y-110605476D02*
X93809524Y-110700714D01*
X93809524Y-110700714D02*
X93714286Y-110748333D01*
%TO.C,J8-Pot1*%
X113162619Y-112266666D02*
X113876904Y-112266666D01*
X113876904Y-112266666D02*
X114019761Y-112314285D01*
X114019761Y-112314285D02*
X114115000Y-112409523D01*
X114115000Y-112409523D02*
X114162619Y-112552380D01*
X114162619Y-112552380D02*
X114162619Y-112647618D01*
X113591190Y-111647618D02*
X113543571Y-111742856D01*
X113543571Y-111742856D02*
X113495952Y-111790475D01*
X113495952Y-111790475D02*
X113400714Y-111838094D01*
X113400714Y-111838094D02*
X113353095Y-111838094D01*
X113353095Y-111838094D02*
X113257857Y-111790475D01*
X113257857Y-111790475D02*
X113210238Y-111742856D01*
X113210238Y-111742856D02*
X113162619Y-111647618D01*
X113162619Y-111647618D02*
X113162619Y-111457142D01*
X113162619Y-111457142D02*
X113210238Y-111361904D01*
X113210238Y-111361904D02*
X113257857Y-111314285D01*
X113257857Y-111314285D02*
X113353095Y-111266666D01*
X113353095Y-111266666D02*
X113400714Y-111266666D01*
X113400714Y-111266666D02*
X113495952Y-111314285D01*
X113495952Y-111314285D02*
X113543571Y-111361904D01*
X113543571Y-111361904D02*
X113591190Y-111457142D01*
X113591190Y-111457142D02*
X113591190Y-111647618D01*
X113591190Y-111647618D02*
X113638809Y-111742856D01*
X113638809Y-111742856D02*
X113686428Y-111790475D01*
X113686428Y-111790475D02*
X113781666Y-111838094D01*
X113781666Y-111838094D02*
X113972142Y-111838094D01*
X113972142Y-111838094D02*
X114067380Y-111790475D01*
X114067380Y-111790475D02*
X114115000Y-111742856D01*
X114115000Y-111742856D02*
X114162619Y-111647618D01*
X114162619Y-111647618D02*
X114162619Y-111457142D01*
X114162619Y-111457142D02*
X114115000Y-111361904D01*
X114115000Y-111361904D02*
X114067380Y-111314285D01*
X114067380Y-111314285D02*
X113972142Y-111266666D01*
X113972142Y-111266666D02*
X113781666Y-111266666D01*
X113781666Y-111266666D02*
X113686428Y-111314285D01*
X113686428Y-111314285D02*
X113638809Y-111361904D01*
X113638809Y-111361904D02*
X113591190Y-111457142D01*
X113781666Y-110838094D02*
X113781666Y-110076190D01*
X114162619Y-109599999D02*
X113162619Y-109599999D01*
X113162619Y-109599999D02*
X113162619Y-109219047D01*
X113162619Y-109219047D02*
X113210238Y-109123809D01*
X113210238Y-109123809D02*
X113257857Y-109076190D01*
X113257857Y-109076190D02*
X113353095Y-109028571D01*
X113353095Y-109028571D02*
X113495952Y-109028571D01*
X113495952Y-109028571D02*
X113591190Y-109076190D01*
X113591190Y-109076190D02*
X113638809Y-109123809D01*
X113638809Y-109123809D02*
X113686428Y-109219047D01*
X113686428Y-109219047D02*
X113686428Y-109599999D01*
X114162619Y-108457142D02*
X114115000Y-108552380D01*
X114115000Y-108552380D02*
X114067380Y-108599999D01*
X114067380Y-108599999D02*
X113972142Y-108647618D01*
X113972142Y-108647618D02*
X113686428Y-108647618D01*
X113686428Y-108647618D02*
X113591190Y-108599999D01*
X113591190Y-108599999D02*
X113543571Y-108552380D01*
X113543571Y-108552380D02*
X113495952Y-108457142D01*
X113495952Y-108457142D02*
X113495952Y-108314285D01*
X113495952Y-108314285D02*
X113543571Y-108219047D01*
X113543571Y-108219047D02*
X113591190Y-108171428D01*
X113591190Y-108171428D02*
X113686428Y-108123809D01*
X113686428Y-108123809D02*
X113972142Y-108123809D01*
X113972142Y-108123809D02*
X114067380Y-108171428D01*
X114067380Y-108171428D02*
X114115000Y-108219047D01*
X114115000Y-108219047D02*
X114162619Y-108314285D01*
X114162619Y-108314285D02*
X114162619Y-108457142D01*
X113495952Y-107838094D02*
X113495952Y-107457142D01*
X113162619Y-107695237D02*
X114019761Y-107695237D01*
X114019761Y-107695237D02*
X114115000Y-107647618D01*
X114115000Y-107647618D02*
X114162619Y-107552380D01*
X114162619Y-107552380D02*
X114162619Y-107457142D01*
X114162619Y-106599999D02*
X114162619Y-107171427D01*
X114162619Y-106885713D02*
X113162619Y-106885713D01*
X113162619Y-106885713D02*
X113305476Y-106980951D01*
X113305476Y-106980951D02*
X113400714Y-107076189D01*
X113400714Y-107076189D02*
X113448333Y-107171427D01*
%TO.C,J5-Servo1*%
X122162619Y-112276190D02*
X122876904Y-112276190D01*
X122876904Y-112276190D02*
X123019761Y-112323809D01*
X123019761Y-112323809D02*
X123115000Y-112419047D01*
X123115000Y-112419047D02*
X123162619Y-112561904D01*
X123162619Y-112561904D02*
X123162619Y-112657142D01*
X122162619Y-111323809D02*
X122162619Y-111799999D01*
X122162619Y-111799999D02*
X122638809Y-111847618D01*
X122638809Y-111847618D02*
X122591190Y-111799999D01*
X122591190Y-111799999D02*
X122543571Y-111704761D01*
X122543571Y-111704761D02*
X122543571Y-111466666D01*
X122543571Y-111466666D02*
X122591190Y-111371428D01*
X122591190Y-111371428D02*
X122638809Y-111323809D01*
X122638809Y-111323809D02*
X122734047Y-111276190D01*
X122734047Y-111276190D02*
X122972142Y-111276190D01*
X122972142Y-111276190D02*
X123067380Y-111323809D01*
X123067380Y-111323809D02*
X123115000Y-111371428D01*
X123115000Y-111371428D02*
X123162619Y-111466666D01*
X123162619Y-111466666D02*
X123162619Y-111704761D01*
X123162619Y-111704761D02*
X123115000Y-111799999D01*
X123115000Y-111799999D02*
X123067380Y-111847618D01*
X122781666Y-110847618D02*
X122781666Y-110085714D01*
X123115000Y-109657142D02*
X123162619Y-109514285D01*
X123162619Y-109514285D02*
X123162619Y-109276190D01*
X123162619Y-109276190D02*
X123115000Y-109180952D01*
X123115000Y-109180952D02*
X123067380Y-109133333D01*
X123067380Y-109133333D02*
X122972142Y-109085714D01*
X122972142Y-109085714D02*
X122876904Y-109085714D01*
X122876904Y-109085714D02*
X122781666Y-109133333D01*
X122781666Y-109133333D02*
X122734047Y-109180952D01*
X122734047Y-109180952D02*
X122686428Y-109276190D01*
X122686428Y-109276190D02*
X122638809Y-109466666D01*
X122638809Y-109466666D02*
X122591190Y-109561904D01*
X122591190Y-109561904D02*
X122543571Y-109609523D01*
X122543571Y-109609523D02*
X122448333Y-109657142D01*
X122448333Y-109657142D02*
X122353095Y-109657142D01*
X122353095Y-109657142D02*
X122257857Y-109609523D01*
X122257857Y-109609523D02*
X122210238Y-109561904D01*
X122210238Y-109561904D02*
X122162619Y-109466666D01*
X122162619Y-109466666D02*
X122162619Y-109228571D01*
X122162619Y-109228571D02*
X122210238Y-109085714D01*
X123115000Y-108276190D02*
X123162619Y-108371428D01*
X123162619Y-108371428D02*
X123162619Y-108561904D01*
X123162619Y-108561904D02*
X123115000Y-108657142D01*
X123115000Y-108657142D02*
X123019761Y-108704761D01*
X123019761Y-108704761D02*
X122638809Y-108704761D01*
X122638809Y-108704761D02*
X122543571Y-108657142D01*
X122543571Y-108657142D02*
X122495952Y-108561904D01*
X122495952Y-108561904D02*
X122495952Y-108371428D01*
X122495952Y-108371428D02*
X122543571Y-108276190D01*
X122543571Y-108276190D02*
X122638809Y-108228571D01*
X122638809Y-108228571D02*
X122734047Y-108228571D01*
X122734047Y-108228571D02*
X122829285Y-108704761D01*
X123162619Y-107799999D02*
X122495952Y-107799999D01*
X122686428Y-107799999D02*
X122591190Y-107752380D01*
X122591190Y-107752380D02*
X122543571Y-107704761D01*
X122543571Y-107704761D02*
X122495952Y-107609523D01*
X122495952Y-107609523D02*
X122495952Y-107514285D01*
X122495952Y-107276189D02*
X123162619Y-107038094D01*
X123162619Y-107038094D02*
X122495952Y-106799999D01*
X123162619Y-106276189D02*
X123115000Y-106371427D01*
X123115000Y-106371427D02*
X123067380Y-106419046D01*
X123067380Y-106419046D02*
X122972142Y-106466665D01*
X122972142Y-106466665D02*
X122686428Y-106466665D01*
X122686428Y-106466665D02*
X122591190Y-106419046D01*
X122591190Y-106419046D02*
X122543571Y-106371427D01*
X122543571Y-106371427D02*
X122495952Y-106276189D01*
X122495952Y-106276189D02*
X122495952Y-106133332D01*
X122495952Y-106133332D02*
X122543571Y-106038094D01*
X122543571Y-106038094D02*
X122591190Y-105990475D01*
X122591190Y-105990475D02*
X122686428Y-105942856D01*
X122686428Y-105942856D02*
X122972142Y-105942856D01*
X122972142Y-105942856D02*
X123067380Y-105990475D01*
X123067380Y-105990475D02*
X123115000Y-106038094D01*
X123115000Y-106038094D02*
X123162619Y-106133332D01*
X123162619Y-106133332D02*
X123162619Y-106276189D01*
X123162619Y-104990475D02*
X123162619Y-105561903D01*
X123162619Y-105276189D02*
X122162619Y-105276189D01*
X122162619Y-105276189D02*
X122305476Y-105371427D01*
X122305476Y-105371427D02*
X122400714Y-105466665D01*
X122400714Y-105466665D02*
X122448333Y-105561903D01*
%TO.C,J6-ECS1*%
X117762619Y-112257142D02*
X118476904Y-112257142D01*
X118476904Y-112257142D02*
X118619761Y-112304761D01*
X118619761Y-112304761D02*
X118715000Y-112399999D01*
X118715000Y-112399999D02*
X118762619Y-112542856D01*
X118762619Y-112542856D02*
X118762619Y-112638094D01*
X117762619Y-111352380D02*
X117762619Y-111542856D01*
X117762619Y-111542856D02*
X117810238Y-111638094D01*
X117810238Y-111638094D02*
X117857857Y-111685713D01*
X117857857Y-111685713D02*
X118000714Y-111780951D01*
X118000714Y-111780951D02*
X118191190Y-111828570D01*
X118191190Y-111828570D02*
X118572142Y-111828570D01*
X118572142Y-111828570D02*
X118667380Y-111780951D01*
X118667380Y-111780951D02*
X118715000Y-111733332D01*
X118715000Y-111733332D02*
X118762619Y-111638094D01*
X118762619Y-111638094D02*
X118762619Y-111447618D01*
X118762619Y-111447618D02*
X118715000Y-111352380D01*
X118715000Y-111352380D02*
X118667380Y-111304761D01*
X118667380Y-111304761D02*
X118572142Y-111257142D01*
X118572142Y-111257142D02*
X118334047Y-111257142D01*
X118334047Y-111257142D02*
X118238809Y-111304761D01*
X118238809Y-111304761D02*
X118191190Y-111352380D01*
X118191190Y-111352380D02*
X118143571Y-111447618D01*
X118143571Y-111447618D02*
X118143571Y-111638094D01*
X118143571Y-111638094D02*
X118191190Y-111733332D01*
X118191190Y-111733332D02*
X118238809Y-111780951D01*
X118238809Y-111780951D02*
X118334047Y-111828570D01*
X118381666Y-110828570D02*
X118381666Y-110066666D01*
X118238809Y-109590475D02*
X118238809Y-109257142D01*
X118762619Y-109114285D02*
X118762619Y-109590475D01*
X118762619Y-109590475D02*
X117762619Y-109590475D01*
X117762619Y-109590475D02*
X117762619Y-109114285D01*
X118667380Y-108114285D02*
X118715000Y-108161904D01*
X118715000Y-108161904D02*
X118762619Y-108304761D01*
X118762619Y-108304761D02*
X118762619Y-108399999D01*
X118762619Y-108399999D02*
X118715000Y-108542856D01*
X118715000Y-108542856D02*
X118619761Y-108638094D01*
X118619761Y-108638094D02*
X118524523Y-108685713D01*
X118524523Y-108685713D02*
X118334047Y-108733332D01*
X118334047Y-108733332D02*
X118191190Y-108733332D01*
X118191190Y-108733332D02*
X118000714Y-108685713D01*
X118000714Y-108685713D02*
X117905476Y-108638094D01*
X117905476Y-108638094D02*
X117810238Y-108542856D01*
X117810238Y-108542856D02*
X117762619Y-108399999D01*
X117762619Y-108399999D02*
X117762619Y-108304761D01*
X117762619Y-108304761D02*
X117810238Y-108161904D01*
X117810238Y-108161904D02*
X117857857Y-108114285D01*
X118715000Y-107733332D02*
X118762619Y-107590475D01*
X118762619Y-107590475D02*
X118762619Y-107352380D01*
X118762619Y-107352380D02*
X118715000Y-107257142D01*
X118715000Y-107257142D02*
X118667380Y-107209523D01*
X118667380Y-107209523D02*
X118572142Y-107161904D01*
X118572142Y-107161904D02*
X118476904Y-107161904D01*
X118476904Y-107161904D02*
X118381666Y-107209523D01*
X118381666Y-107209523D02*
X118334047Y-107257142D01*
X118334047Y-107257142D02*
X118286428Y-107352380D01*
X118286428Y-107352380D02*
X118238809Y-107542856D01*
X118238809Y-107542856D02*
X118191190Y-107638094D01*
X118191190Y-107638094D02*
X118143571Y-107685713D01*
X118143571Y-107685713D02*
X118048333Y-107733332D01*
X118048333Y-107733332D02*
X117953095Y-107733332D01*
X117953095Y-107733332D02*
X117857857Y-107685713D01*
X117857857Y-107685713D02*
X117810238Y-107638094D01*
X117810238Y-107638094D02*
X117762619Y-107542856D01*
X117762619Y-107542856D02*
X117762619Y-107304761D01*
X117762619Y-107304761D02*
X117810238Y-107161904D01*
X118762619Y-106209523D02*
X118762619Y-106780951D01*
X118762619Y-106495237D02*
X117762619Y-106495237D01*
X117762619Y-106495237D02*
X117905476Y-106590475D01*
X117905476Y-106590475D02*
X118000714Y-106685713D01*
X118000714Y-106685713D02*
X118048333Y-106780951D01*
%TO.C,J4*%
X126662619Y-112233333D02*
X127376904Y-112233333D01*
X127376904Y-112233333D02*
X127519761Y-112280952D01*
X127519761Y-112280952D02*
X127615000Y-112376190D01*
X127615000Y-112376190D02*
X127662619Y-112519047D01*
X127662619Y-112519047D02*
X127662619Y-112614285D01*
X126995952Y-111328571D02*
X127662619Y-111328571D01*
X126615000Y-111566666D02*
X127329285Y-111804761D01*
X127329285Y-111804761D02*
X127329285Y-111185714D01*
%TO.C,J7-Pot2*%
X104062619Y-112166666D02*
X104776904Y-112166666D01*
X104776904Y-112166666D02*
X104919761Y-112214285D01*
X104919761Y-112214285D02*
X105015000Y-112309523D01*
X105015000Y-112309523D02*
X105062619Y-112452380D01*
X105062619Y-112452380D02*
X105062619Y-112547618D01*
X104062619Y-111785713D02*
X104062619Y-111119047D01*
X104062619Y-111119047D02*
X105062619Y-111547618D01*
X104681666Y-110738094D02*
X104681666Y-109976190D01*
X105062619Y-109499999D02*
X104062619Y-109499999D01*
X104062619Y-109499999D02*
X104062619Y-109119047D01*
X104062619Y-109119047D02*
X104110238Y-109023809D01*
X104110238Y-109023809D02*
X104157857Y-108976190D01*
X104157857Y-108976190D02*
X104253095Y-108928571D01*
X104253095Y-108928571D02*
X104395952Y-108928571D01*
X104395952Y-108928571D02*
X104491190Y-108976190D01*
X104491190Y-108976190D02*
X104538809Y-109023809D01*
X104538809Y-109023809D02*
X104586428Y-109119047D01*
X104586428Y-109119047D02*
X104586428Y-109499999D01*
X105062619Y-108357142D02*
X105015000Y-108452380D01*
X105015000Y-108452380D02*
X104967380Y-108499999D01*
X104967380Y-108499999D02*
X104872142Y-108547618D01*
X104872142Y-108547618D02*
X104586428Y-108547618D01*
X104586428Y-108547618D02*
X104491190Y-108499999D01*
X104491190Y-108499999D02*
X104443571Y-108452380D01*
X104443571Y-108452380D02*
X104395952Y-108357142D01*
X104395952Y-108357142D02*
X104395952Y-108214285D01*
X104395952Y-108214285D02*
X104443571Y-108119047D01*
X104443571Y-108119047D02*
X104491190Y-108071428D01*
X104491190Y-108071428D02*
X104586428Y-108023809D01*
X104586428Y-108023809D02*
X104872142Y-108023809D01*
X104872142Y-108023809D02*
X104967380Y-108071428D01*
X104967380Y-108071428D02*
X105015000Y-108119047D01*
X105015000Y-108119047D02*
X105062619Y-108214285D01*
X105062619Y-108214285D02*
X105062619Y-108357142D01*
X104395952Y-107738094D02*
X104395952Y-107357142D01*
X104062619Y-107595237D02*
X104919761Y-107595237D01*
X104919761Y-107595237D02*
X105015000Y-107547618D01*
X105015000Y-107547618D02*
X105062619Y-107452380D01*
X105062619Y-107452380D02*
X105062619Y-107357142D01*
X104157857Y-107071427D02*
X104110238Y-107023808D01*
X104110238Y-107023808D02*
X104062619Y-106928570D01*
X104062619Y-106928570D02*
X104062619Y-106690475D01*
X104062619Y-106690475D02*
X104110238Y-106595237D01*
X104110238Y-106595237D02*
X104157857Y-106547618D01*
X104157857Y-106547618D02*
X104253095Y-106499999D01*
X104253095Y-106499999D02*
X104348333Y-106499999D01*
X104348333Y-106499999D02*
X104491190Y-106547618D01*
X104491190Y-106547618D02*
X105062619Y-107119046D01*
X105062619Y-107119046D02*
X105062619Y-106499999D01*
%TO.C,J3-Motor1*%
X142258809Y-105362619D02*
X142258809Y-106076904D01*
X142258809Y-106076904D02*
X142211190Y-106219761D01*
X142211190Y-106219761D02*
X142115952Y-106315000D01*
X142115952Y-106315000D02*
X141973095Y-106362619D01*
X141973095Y-106362619D02*
X141877857Y-106362619D01*
X142639762Y-105362619D02*
X143258809Y-105362619D01*
X143258809Y-105362619D02*
X142925476Y-105743571D01*
X142925476Y-105743571D02*
X143068333Y-105743571D01*
X143068333Y-105743571D02*
X143163571Y-105791190D01*
X143163571Y-105791190D02*
X143211190Y-105838809D01*
X143211190Y-105838809D02*
X143258809Y-105934047D01*
X143258809Y-105934047D02*
X143258809Y-106172142D01*
X143258809Y-106172142D02*
X143211190Y-106267380D01*
X143211190Y-106267380D02*
X143163571Y-106315000D01*
X143163571Y-106315000D02*
X143068333Y-106362619D01*
X143068333Y-106362619D02*
X142782619Y-106362619D01*
X142782619Y-106362619D02*
X142687381Y-106315000D01*
X142687381Y-106315000D02*
X142639762Y-106267380D01*
X143687381Y-105981666D02*
X144449286Y-105981666D01*
X144925476Y-106362619D02*
X144925476Y-105362619D01*
X144925476Y-105362619D02*
X145258809Y-106076904D01*
X145258809Y-106076904D02*
X145592142Y-105362619D01*
X145592142Y-105362619D02*
X145592142Y-106362619D01*
X146211190Y-106362619D02*
X146115952Y-106315000D01*
X146115952Y-106315000D02*
X146068333Y-106267380D01*
X146068333Y-106267380D02*
X146020714Y-106172142D01*
X146020714Y-106172142D02*
X146020714Y-105886428D01*
X146020714Y-105886428D02*
X146068333Y-105791190D01*
X146068333Y-105791190D02*
X146115952Y-105743571D01*
X146115952Y-105743571D02*
X146211190Y-105695952D01*
X146211190Y-105695952D02*
X146354047Y-105695952D01*
X146354047Y-105695952D02*
X146449285Y-105743571D01*
X146449285Y-105743571D02*
X146496904Y-105791190D01*
X146496904Y-105791190D02*
X146544523Y-105886428D01*
X146544523Y-105886428D02*
X146544523Y-106172142D01*
X146544523Y-106172142D02*
X146496904Y-106267380D01*
X146496904Y-106267380D02*
X146449285Y-106315000D01*
X146449285Y-106315000D02*
X146354047Y-106362619D01*
X146354047Y-106362619D02*
X146211190Y-106362619D01*
X146830238Y-105695952D02*
X147211190Y-105695952D01*
X146973095Y-105362619D02*
X146973095Y-106219761D01*
X146973095Y-106219761D02*
X147020714Y-106315000D01*
X147020714Y-106315000D02*
X147115952Y-106362619D01*
X147115952Y-106362619D02*
X147211190Y-106362619D01*
X147687381Y-106362619D02*
X147592143Y-106315000D01*
X147592143Y-106315000D02*
X147544524Y-106267380D01*
X147544524Y-106267380D02*
X147496905Y-106172142D01*
X147496905Y-106172142D02*
X147496905Y-105886428D01*
X147496905Y-105886428D02*
X147544524Y-105791190D01*
X147544524Y-105791190D02*
X147592143Y-105743571D01*
X147592143Y-105743571D02*
X147687381Y-105695952D01*
X147687381Y-105695952D02*
X147830238Y-105695952D01*
X147830238Y-105695952D02*
X147925476Y-105743571D01*
X147925476Y-105743571D02*
X147973095Y-105791190D01*
X147973095Y-105791190D02*
X148020714Y-105886428D01*
X148020714Y-105886428D02*
X148020714Y-106172142D01*
X148020714Y-106172142D02*
X147973095Y-106267380D01*
X147973095Y-106267380D02*
X147925476Y-106315000D01*
X147925476Y-106315000D02*
X147830238Y-106362619D01*
X147830238Y-106362619D02*
X147687381Y-106362619D01*
X148449286Y-106362619D02*
X148449286Y-105695952D01*
X148449286Y-105886428D02*
X148496905Y-105791190D01*
X148496905Y-105791190D02*
X148544524Y-105743571D01*
X148544524Y-105743571D02*
X148639762Y-105695952D01*
X148639762Y-105695952D02*
X148735000Y-105695952D01*
X149592143Y-106362619D02*
X149020715Y-106362619D01*
X149306429Y-106362619D02*
X149306429Y-105362619D01*
X149306429Y-105362619D02*
X149211191Y-105505476D01*
X149211191Y-105505476D02*
X149115953Y-105600714D01*
X149115953Y-105600714D02*
X149020715Y-105648333D01*
%TO.C,U1-RPI-Pico1*%
X106666667Y-94462619D02*
X106666667Y-95272142D01*
X106666667Y-95272142D02*
X106714286Y-95367380D01*
X106714286Y-95367380D02*
X106761905Y-95415000D01*
X106761905Y-95415000D02*
X106857143Y-95462619D01*
X106857143Y-95462619D02*
X107047619Y-95462619D01*
X107047619Y-95462619D02*
X107142857Y-95415000D01*
X107142857Y-95415000D02*
X107190476Y-95367380D01*
X107190476Y-95367380D02*
X107238095Y-95272142D01*
X107238095Y-95272142D02*
X107238095Y-94462619D01*
X108238095Y-95462619D02*
X107666667Y-95462619D01*
X107952381Y-95462619D02*
X107952381Y-94462619D01*
X107952381Y-94462619D02*
X107857143Y-94605476D01*
X107857143Y-94605476D02*
X107761905Y-94700714D01*
X107761905Y-94700714D02*
X107666667Y-94748333D01*
X108666667Y-95081666D02*
X109428572Y-95081666D01*
X110476190Y-95462619D02*
X110142857Y-94986428D01*
X109904762Y-95462619D02*
X109904762Y-94462619D01*
X109904762Y-94462619D02*
X110285714Y-94462619D01*
X110285714Y-94462619D02*
X110380952Y-94510238D01*
X110380952Y-94510238D02*
X110428571Y-94557857D01*
X110428571Y-94557857D02*
X110476190Y-94653095D01*
X110476190Y-94653095D02*
X110476190Y-94795952D01*
X110476190Y-94795952D02*
X110428571Y-94891190D01*
X110428571Y-94891190D02*
X110380952Y-94938809D01*
X110380952Y-94938809D02*
X110285714Y-94986428D01*
X110285714Y-94986428D02*
X109904762Y-94986428D01*
X110904762Y-95462619D02*
X110904762Y-94462619D01*
X110904762Y-94462619D02*
X111285714Y-94462619D01*
X111285714Y-94462619D02*
X111380952Y-94510238D01*
X111380952Y-94510238D02*
X111428571Y-94557857D01*
X111428571Y-94557857D02*
X111476190Y-94653095D01*
X111476190Y-94653095D02*
X111476190Y-94795952D01*
X111476190Y-94795952D02*
X111428571Y-94891190D01*
X111428571Y-94891190D02*
X111380952Y-94938809D01*
X111380952Y-94938809D02*
X111285714Y-94986428D01*
X111285714Y-94986428D02*
X110904762Y-94986428D01*
X111904762Y-95462619D02*
X111904762Y-94462619D01*
X112380952Y-95081666D02*
X113142857Y-95081666D01*
X113619047Y-95462619D02*
X113619047Y-94462619D01*
X113619047Y-94462619D02*
X113999999Y-94462619D01*
X113999999Y-94462619D02*
X114095237Y-94510238D01*
X114095237Y-94510238D02*
X114142856Y-94557857D01*
X114142856Y-94557857D02*
X114190475Y-94653095D01*
X114190475Y-94653095D02*
X114190475Y-94795952D01*
X114190475Y-94795952D02*
X114142856Y-94891190D01*
X114142856Y-94891190D02*
X114095237Y-94938809D01*
X114095237Y-94938809D02*
X113999999Y-94986428D01*
X113999999Y-94986428D02*
X113619047Y-94986428D01*
X114619047Y-95462619D02*
X114619047Y-94795952D01*
X114619047Y-94462619D02*
X114571428Y-94510238D01*
X114571428Y-94510238D02*
X114619047Y-94557857D01*
X114619047Y-94557857D02*
X114666666Y-94510238D01*
X114666666Y-94510238D02*
X114619047Y-94462619D01*
X114619047Y-94462619D02*
X114619047Y-94557857D01*
X115523808Y-95415000D02*
X115428570Y-95462619D01*
X115428570Y-95462619D02*
X115238094Y-95462619D01*
X115238094Y-95462619D02*
X115142856Y-95415000D01*
X115142856Y-95415000D02*
X115095237Y-95367380D01*
X115095237Y-95367380D02*
X115047618Y-95272142D01*
X115047618Y-95272142D02*
X115047618Y-94986428D01*
X115047618Y-94986428D02*
X115095237Y-94891190D01*
X115095237Y-94891190D02*
X115142856Y-94843571D01*
X115142856Y-94843571D02*
X115238094Y-94795952D01*
X115238094Y-94795952D02*
X115428570Y-94795952D01*
X115428570Y-94795952D02*
X115523808Y-94843571D01*
X116095237Y-95462619D02*
X115999999Y-95415000D01*
X115999999Y-95415000D02*
X115952380Y-95367380D01*
X115952380Y-95367380D02*
X115904761Y-95272142D01*
X115904761Y-95272142D02*
X115904761Y-94986428D01*
X115904761Y-94986428D02*
X115952380Y-94891190D01*
X115952380Y-94891190D02*
X115999999Y-94843571D01*
X115999999Y-94843571D02*
X116095237Y-94795952D01*
X116095237Y-94795952D02*
X116238094Y-94795952D01*
X116238094Y-94795952D02*
X116333332Y-94843571D01*
X116333332Y-94843571D02*
X116380951Y-94891190D01*
X116380951Y-94891190D02*
X116428570Y-94986428D01*
X116428570Y-94986428D02*
X116428570Y-95272142D01*
X116428570Y-95272142D02*
X116380951Y-95367380D01*
X116380951Y-95367380D02*
X116333332Y-95415000D01*
X116333332Y-95415000D02*
X116238094Y-95462619D01*
X116238094Y-95462619D02*
X116095237Y-95462619D01*
X117380951Y-95462619D02*
X116809523Y-95462619D01*
X117095237Y-95462619D02*
X117095237Y-94462619D01*
X117095237Y-94462619D02*
X116999999Y-94605476D01*
X116999999Y-94605476D02*
X116904761Y-94700714D01*
X116904761Y-94700714D02*
X116809523Y-94748333D01*
X106959615Y-85549513D02*
X106932678Y-85468701D01*
X106932678Y-85468701D02*
X106851866Y-85387889D01*
X106851866Y-85387889D02*
X106744116Y-85334014D01*
X106744116Y-85334014D02*
X106636367Y-85334014D01*
X106636367Y-85334014D02*
X106555554Y-85360951D01*
X106555554Y-85360951D02*
X106420867Y-85441764D01*
X106420867Y-85441764D02*
X106340055Y-85522576D01*
X106340055Y-85522576D02*
X106259243Y-85657263D01*
X106259243Y-85657263D02*
X106232306Y-85738075D01*
X106232306Y-85738075D02*
X106232306Y-85845825D01*
X106232306Y-85845825D02*
X106286180Y-85953574D01*
X106286180Y-85953574D02*
X106340055Y-86007449D01*
X106340055Y-86007449D02*
X106447805Y-86061324D01*
X106447805Y-86061324D02*
X106501680Y-86061324D01*
X106501680Y-86061324D02*
X106690241Y-85872762D01*
X106690241Y-85872762D02*
X106582492Y-85765012D01*
X106690241Y-86357635D02*
X107255927Y-85791950D01*
X107255927Y-85791950D02*
X107471426Y-86007449D01*
X107471426Y-86007449D02*
X107498363Y-86088261D01*
X107498363Y-86088261D02*
X107498363Y-86142136D01*
X107498363Y-86142136D02*
X107471426Y-86222948D01*
X107471426Y-86222948D02*
X107390614Y-86303760D01*
X107390614Y-86303760D02*
X107309802Y-86330698D01*
X107309802Y-86330698D02*
X107255927Y-86330698D01*
X107255927Y-86330698D02*
X107175115Y-86303760D01*
X107175115Y-86303760D02*
X106959615Y-86088261D01*
X107740800Y-86384573D02*
X107794675Y-86384573D01*
X107794675Y-86384573D02*
X107875487Y-86411510D01*
X107875487Y-86411510D02*
X108010174Y-86546197D01*
X108010174Y-86546197D02*
X108037112Y-86627009D01*
X108037112Y-86627009D02*
X108037112Y-86680884D01*
X108037112Y-86680884D02*
X108010174Y-86761696D01*
X108010174Y-86761696D02*
X107956299Y-86815571D01*
X107956299Y-86815571D02*
X107848550Y-86869446D01*
X107848550Y-86869446D02*
X107202052Y-86869446D01*
X107202052Y-86869446D02*
X107552238Y-87219632D01*
X108198736Y-87219632D02*
X108171799Y-87138820D01*
X108171799Y-87138820D02*
X108171799Y-87084945D01*
X108171799Y-87084945D02*
X108198736Y-87004133D01*
X108198736Y-87004133D02*
X108225673Y-86977196D01*
X108225673Y-86977196D02*
X108306486Y-86950258D01*
X108306486Y-86950258D02*
X108360361Y-86950258D01*
X108360361Y-86950258D02*
X108441173Y-86977196D01*
X108441173Y-86977196D02*
X108548922Y-87084945D01*
X108548922Y-87084945D02*
X108575860Y-87165757D01*
X108575860Y-87165757D02*
X108575860Y-87219632D01*
X108575860Y-87219632D02*
X108548922Y-87300444D01*
X108548922Y-87300444D02*
X108521985Y-87327382D01*
X108521985Y-87327382D02*
X108441173Y-87354319D01*
X108441173Y-87354319D02*
X108387298Y-87354319D01*
X108387298Y-87354319D02*
X108306486Y-87327382D01*
X108306486Y-87327382D02*
X108198736Y-87219632D01*
X108198736Y-87219632D02*
X108117924Y-87192695D01*
X108117924Y-87192695D02*
X108064049Y-87192695D01*
X108064049Y-87192695D02*
X107983237Y-87219632D01*
X107983237Y-87219632D02*
X107875487Y-87327382D01*
X107875487Y-87327382D02*
X107848550Y-87408194D01*
X107848550Y-87408194D02*
X107848550Y-87462069D01*
X107848550Y-87462069D02*
X107875487Y-87542881D01*
X107875487Y-87542881D02*
X107983237Y-87650631D01*
X107983237Y-87650631D02*
X108064049Y-87677568D01*
X108064049Y-87677568D02*
X108117924Y-87677568D01*
X108117924Y-87677568D02*
X108198736Y-87650631D01*
X108198736Y-87650631D02*
X108306486Y-87542881D01*
X108306486Y-87542881D02*
X108333423Y-87462069D01*
X108333423Y-87462069D02*
X108333423Y-87408194D01*
X108333423Y-87408194D02*
X108306486Y-87327382D01*
X114453615Y-85549513D02*
X114426678Y-85468701D01*
X114426678Y-85468701D02*
X114345866Y-85387889D01*
X114345866Y-85387889D02*
X114238116Y-85334014D01*
X114238116Y-85334014D02*
X114130367Y-85334014D01*
X114130367Y-85334014D02*
X114049554Y-85360951D01*
X114049554Y-85360951D02*
X113914867Y-85441764D01*
X113914867Y-85441764D02*
X113834055Y-85522576D01*
X113834055Y-85522576D02*
X113753243Y-85657263D01*
X113753243Y-85657263D02*
X113726306Y-85738075D01*
X113726306Y-85738075D02*
X113726306Y-85845825D01*
X113726306Y-85845825D02*
X113780180Y-85953574D01*
X113780180Y-85953574D02*
X113834055Y-86007449D01*
X113834055Y-86007449D02*
X113941805Y-86061324D01*
X113941805Y-86061324D02*
X113995680Y-86061324D01*
X113995680Y-86061324D02*
X114184241Y-85872762D01*
X114184241Y-85872762D02*
X114076492Y-85765012D01*
X114184241Y-86357635D02*
X114749927Y-85791950D01*
X114749927Y-85791950D02*
X114965426Y-86007449D01*
X114965426Y-86007449D02*
X114992363Y-86088261D01*
X114992363Y-86088261D02*
X114992363Y-86142136D01*
X114992363Y-86142136D02*
X114965426Y-86222948D01*
X114965426Y-86222948D02*
X114884614Y-86303760D01*
X114884614Y-86303760D02*
X114803802Y-86330698D01*
X114803802Y-86330698D02*
X114749927Y-86330698D01*
X114749927Y-86330698D02*
X114669115Y-86303760D01*
X114669115Y-86303760D02*
X114453615Y-86088261D01*
X115234800Y-86384573D02*
X115288675Y-86384573D01*
X115288675Y-86384573D02*
X115369487Y-86411510D01*
X115369487Y-86411510D02*
X115504174Y-86546197D01*
X115504174Y-86546197D02*
X115531112Y-86627009D01*
X115531112Y-86627009D02*
X115531112Y-86680884D01*
X115531112Y-86680884D02*
X115504174Y-86761696D01*
X115504174Y-86761696D02*
X115450299Y-86815571D01*
X115450299Y-86815571D02*
X115342550Y-86869446D01*
X115342550Y-86869446D02*
X114696052Y-86869446D01*
X114696052Y-86869446D02*
X115046238Y-87219632D01*
X116096797Y-87138820D02*
X115989048Y-87031070D01*
X115989048Y-87031070D02*
X115908235Y-87004133D01*
X115908235Y-87004133D02*
X115854361Y-87004133D01*
X115854361Y-87004133D02*
X115719673Y-87031070D01*
X115719673Y-87031070D02*
X115584986Y-87111883D01*
X115584986Y-87111883D02*
X115369487Y-87327382D01*
X115369487Y-87327382D02*
X115342550Y-87408194D01*
X115342550Y-87408194D02*
X115342550Y-87462069D01*
X115342550Y-87462069D02*
X115369487Y-87542881D01*
X115369487Y-87542881D02*
X115477237Y-87650631D01*
X115477237Y-87650631D02*
X115558049Y-87677568D01*
X115558049Y-87677568D02*
X115611924Y-87677568D01*
X115611924Y-87677568D02*
X115692736Y-87650631D01*
X115692736Y-87650631D02*
X115827423Y-87515944D01*
X115827423Y-87515944D02*
X115854361Y-87435131D01*
X115854361Y-87435131D02*
X115854361Y-87381257D01*
X115854361Y-87381257D02*
X115827423Y-87300444D01*
X115827423Y-87300444D02*
X115719673Y-87192695D01*
X115719673Y-87192695D02*
X115638861Y-87165757D01*
X115638861Y-87165757D02*
X115584986Y-87165757D01*
X115584986Y-87165757D02*
X115504174Y-87192695D01*
X99185900Y-85227923D02*
X99536086Y-85578109D01*
X99536086Y-85578109D02*
X99132025Y-85605046D01*
X99132025Y-85605046D02*
X99212837Y-85685859D01*
X99212837Y-85685859D02*
X99239775Y-85766671D01*
X99239775Y-85766671D02*
X99239775Y-85820546D01*
X99239775Y-85820546D02*
X99212837Y-85901358D01*
X99212837Y-85901358D02*
X99078150Y-86036045D01*
X99078150Y-86036045D02*
X98997338Y-86062982D01*
X98997338Y-86062982D02*
X98943463Y-86062982D01*
X98943463Y-86062982D02*
X98862651Y-86036045D01*
X98862651Y-86036045D02*
X98701027Y-85874420D01*
X98701027Y-85874420D02*
X98674089Y-85793608D01*
X98674089Y-85793608D02*
X98674089Y-85739733D01*
X99697711Y-85739733D02*
X99320587Y-86493981D01*
X99320587Y-86493981D02*
X100074834Y-86116857D01*
X100209521Y-86251544D02*
X100559707Y-86601730D01*
X100559707Y-86601730D02*
X100155646Y-86628668D01*
X100155646Y-86628668D02*
X100236458Y-86709480D01*
X100236458Y-86709480D02*
X100263396Y-86790292D01*
X100263396Y-86790292D02*
X100263396Y-86844167D01*
X100263396Y-86844167D02*
X100236458Y-86924979D01*
X100236458Y-86924979D02*
X100101771Y-87059666D01*
X100101771Y-87059666D02*
X100020959Y-87086603D01*
X100020959Y-87086603D02*
X99967084Y-87086603D01*
X99967084Y-87086603D02*
X99886272Y-87059666D01*
X99886272Y-87059666D02*
X99724648Y-86898042D01*
X99724648Y-86898042D02*
X99697710Y-86817229D01*
X99697710Y-86817229D02*
X99697710Y-86763355D01*
X100047897Y-87329040D02*
X100478895Y-87760039D01*
X100963769Y-87544539D02*
X101152330Y-87733101D01*
X100936831Y-88110225D02*
X100667457Y-87840851D01*
X100667457Y-87840851D02*
X101233143Y-87275165D01*
X101233143Y-87275165D02*
X101502517Y-87544539D01*
X101179268Y-88352662D02*
X101744954Y-87786976D01*
X101744954Y-87786976D02*
X101502517Y-88675911D01*
X101502517Y-88675911D02*
X102068202Y-88110225D01*
X122696053Y-85291950D02*
X122669115Y-85211138D01*
X122669115Y-85211138D02*
X122588303Y-85130326D01*
X122588303Y-85130326D02*
X122480553Y-85076451D01*
X122480553Y-85076451D02*
X122372804Y-85076451D01*
X122372804Y-85076451D02*
X122291992Y-85103389D01*
X122291992Y-85103389D02*
X122157305Y-85184201D01*
X122157305Y-85184201D02*
X122076492Y-85265013D01*
X122076492Y-85265013D02*
X121995680Y-85399700D01*
X121995680Y-85399700D02*
X121968743Y-85480512D01*
X121968743Y-85480512D02*
X121968743Y-85588262D01*
X121968743Y-85588262D02*
X122022618Y-85696011D01*
X122022618Y-85696011D02*
X122076492Y-85749886D01*
X122076492Y-85749886D02*
X122184242Y-85803761D01*
X122184242Y-85803761D02*
X122238117Y-85803761D01*
X122238117Y-85803761D02*
X122426679Y-85615199D01*
X122426679Y-85615199D02*
X122318929Y-85507450D01*
X122426679Y-86100072D02*
X122992364Y-85534387D01*
X122992364Y-85534387D02*
X122749927Y-86423321D01*
X122749927Y-86423321D02*
X123315613Y-85857636D01*
X123019301Y-86692695D02*
X123584987Y-86127010D01*
X123584987Y-86127010D02*
X123719674Y-86261697D01*
X123719674Y-86261697D02*
X123773549Y-86369446D01*
X123773549Y-86369446D02*
X123773549Y-86477196D01*
X123773549Y-86477196D02*
X123746611Y-86558008D01*
X123746611Y-86558008D02*
X123665799Y-86692695D01*
X123665799Y-86692695D02*
X123584987Y-86773507D01*
X123584987Y-86773507D02*
X123450300Y-86854319D01*
X123450300Y-86854319D02*
X123369488Y-86881257D01*
X123369488Y-86881257D02*
X123261738Y-86881257D01*
X123261738Y-86881257D02*
X123153988Y-86827382D01*
X123153988Y-86827382D02*
X123019301Y-86692695D01*
X108753244Y-85603389D02*
X109022618Y-85872763D01*
X108537745Y-85711138D02*
X109291992Y-85334015D01*
X109291992Y-85334015D02*
X108914868Y-86088262D01*
X109938489Y-86034387D02*
X109911552Y-85953575D01*
X109911552Y-85953575D02*
X109830740Y-85872762D01*
X109830740Y-85872762D02*
X109722990Y-85818888D01*
X109722990Y-85818888D02*
X109615240Y-85818888D01*
X109615240Y-85818888D02*
X109534428Y-85845825D01*
X109534428Y-85845825D02*
X109399741Y-85926637D01*
X109399741Y-85926637D02*
X109318929Y-86007449D01*
X109318929Y-86007449D02*
X109238117Y-86142136D01*
X109238117Y-86142136D02*
X109211179Y-86222949D01*
X109211179Y-86222949D02*
X109211179Y-86330698D01*
X109211179Y-86330698D02*
X109265054Y-86438448D01*
X109265054Y-86438448D02*
X109318929Y-86492323D01*
X109318929Y-86492323D02*
X109426679Y-86546197D01*
X109426679Y-86546197D02*
X109480553Y-86546197D01*
X109480553Y-86546197D02*
X109669115Y-86357636D01*
X109669115Y-86357636D02*
X109561366Y-86249886D01*
X109669115Y-86842509D02*
X110234801Y-86276823D01*
X110234801Y-86276823D02*
X109992364Y-87165758D01*
X109992364Y-87165758D02*
X110558049Y-86600072D01*
X110261738Y-87435132D02*
X110827423Y-86869446D01*
X110827423Y-86869446D02*
X110962110Y-87004133D01*
X110962110Y-87004133D02*
X111015985Y-87111883D01*
X111015985Y-87111883D02*
X111015985Y-87219632D01*
X111015985Y-87219632D02*
X110989048Y-87300445D01*
X110989048Y-87300445D02*
X110908235Y-87435132D01*
X110908235Y-87435132D02*
X110827423Y-87515944D01*
X110827423Y-87515944D02*
X110692736Y-87596756D01*
X110692736Y-87596756D02*
X110611924Y-87623693D01*
X110611924Y-87623693D02*
X110504174Y-87623693D01*
X110504174Y-87623693D02*
X110396425Y-87569819D01*
X110396425Y-87569819D02*
X110261738Y-87435132D01*
X121846053Y-98291950D02*
X121819115Y-98211138D01*
X121819115Y-98211138D02*
X121738303Y-98130326D01*
X121738303Y-98130326D02*
X121630553Y-98076451D01*
X121630553Y-98076451D02*
X121522804Y-98076451D01*
X121522804Y-98076451D02*
X121441992Y-98103389D01*
X121441992Y-98103389D02*
X121307305Y-98184201D01*
X121307305Y-98184201D02*
X121226492Y-98265013D01*
X121226492Y-98265013D02*
X121145680Y-98399700D01*
X121145680Y-98399700D02*
X121118743Y-98480512D01*
X121118743Y-98480512D02*
X121118743Y-98588262D01*
X121118743Y-98588262D02*
X121172618Y-98696011D01*
X121172618Y-98696011D02*
X121226492Y-98749886D01*
X121226492Y-98749886D02*
X121334242Y-98803761D01*
X121334242Y-98803761D02*
X121388117Y-98803761D01*
X121388117Y-98803761D02*
X121576679Y-98615199D01*
X121576679Y-98615199D02*
X121468929Y-98507450D01*
X121576679Y-99100072D02*
X122142364Y-98534387D01*
X122142364Y-98534387D02*
X121899927Y-99423321D01*
X121899927Y-99423321D02*
X122465613Y-98857636D01*
X122169301Y-99692695D02*
X122734987Y-99127010D01*
X122734987Y-99127010D02*
X122869674Y-99261697D01*
X122869674Y-99261697D02*
X122923549Y-99369446D01*
X122923549Y-99369446D02*
X122923549Y-99477196D01*
X122923549Y-99477196D02*
X122896611Y-99558008D01*
X122896611Y-99558008D02*
X122815799Y-99692695D01*
X122815799Y-99692695D02*
X122734987Y-99773507D01*
X122734987Y-99773507D02*
X122600300Y-99854319D01*
X122600300Y-99854319D02*
X122519488Y-99881257D01*
X122519488Y-99881257D02*
X122411738Y-99881257D01*
X122411738Y-99881257D02*
X122303988Y-99827382D01*
X122303988Y-99827382D02*
X122169301Y-99692695D01*
X135696053Y-85291950D02*
X135669115Y-85211138D01*
X135669115Y-85211138D02*
X135588303Y-85130326D01*
X135588303Y-85130326D02*
X135480553Y-85076451D01*
X135480553Y-85076451D02*
X135372804Y-85076451D01*
X135372804Y-85076451D02*
X135291992Y-85103389D01*
X135291992Y-85103389D02*
X135157305Y-85184201D01*
X135157305Y-85184201D02*
X135076492Y-85265013D01*
X135076492Y-85265013D02*
X134995680Y-85399700D01*
X134995680Y-85399700D02*
X134968743Y-85480512D01*
X134968743Y-85480512D02*
X134968743Y-85588262D01*
X134968743Y-85588262D02*
X135022618Y-85696011D01*
X135022618Y-85696011D02*
X135076492Y-85749886D01*
X135076492Y-85749886D02*
X135184242Y-85803761D01*
X135184242Y-85803761D02*
X135238117Y-85803761D01*
X135238117Y-85803761D02*
X135426679Y-85615199D01*
X135426679Y-85615199D02*
X135318929Y-85507450D01*
X135426679Y-86100072D02*
X135992364Y-85534387D01*
X135992364Y-85534387D02*
X135749927Y-86423321D01*
X135749927Y-86423321D02*
X136315613Y-85857636D01*
X136019301Y-86692695D02*
X136584987Y-86127010D01*
X136584987Y-86127010D02*
X136719674Y-86261697D01*
X136719674Y-86261697D02*
X136773549Y-86369446D01*
X136773549Y-86369446D02*
X136773549Y-86477196D01*
X136773549Y-86477196D02*
X136746611Y-86558008D01*
X136746611Y-86558008D02*
X136665799Y-86692695D01*
X136665799Y-86692695D02*
X136584987Y-86773507D01*
X136584987Y-86773507D02*
X136450300Y-86854319D01*
X136450300Y-86854319D02*
X136369488Y-86881257D01*
X136369488Y-86881257D02*
X136261738Y-86881257D01*
X136261738Y-86881257D02*
X136153988Y-86827382D01*
X136153988Y-86827382D02*
X136019301Y-86692695D01*
X127533615Y-85049513D02*
X127506678Y-84968701D01*
X127506678Y-84968701D02*
X127425866Y-84887889D01*
X127425866Y-84887889D02*
X127318116Y-84834014D01*
X127318116Y-84834014D02*
X127210367Y-84834014D01*
X127210367Y-84834014D02*
X127129554Y-84860951D01*
X127129554Y-84860951D02*
X126994867Y-84941764D01*
X126994867Y-84941764D02*
X126914055Y-85022576D01*
X126914055Y-85022576D02*
X126833243Y-85157263D01*
X126833243Y-85157263D02*
X126806306Y-85238075D01*
X126806306Y-85238075D02*
X126806306Y-85345825D01*
X126806306Y-85345825D02*
X126860180Y-85453574D01*
X126860180Y-85453574D02*
X126914055Y-85507449D01*
X126914055Y-85507449D02*
X127021805Y-85561324D01*
X127021805Y-85561324D02*
X127075680Y-85561324D01*
X127075680Y-85561324D02*
X127264241Y-85372762D01*
X127264241Y-85372762D02*
X127156492Y-85265012D01*
X127264241Y-85857635D02*
X127829927Y-85291950D01*
X127829927Y-85291950D02*
X128045426Y-85507449D01*
X128045426Y-85507449D02*
X128072363Y-85588261D01*
X128072363Y-85588261D02*
X128072363Y-85642136D01*
X128072363Y-85642136D02*
X128045426Y-85722948D01*
X128045426Y-85722948D02*
X127964614Y-85803760D01*
X127964614Y-85803760D02*
X127883802Y-85830698D01*
X127883802Y-85830698D02*
X127829927Y-85830698D01*
X127829927Y-85830698D02*
X127749115Y-85803760D01*
X127749115Y-85803760D02*
X127533615Y-85588261D01*
X128314800Y-85884573D02*
X128368675Y-85884573D01*
X128368675Y-85884573D02*
X128449487Y-85911510D01*
X128449487Y-85911510D02*
X128584174Y-86046197D01*
X128584174Y-86046197D02*
X128611112Y-86127009D01*
X128611112Y-86127009D02*
X128611112Y-86180884D01*
X128611112Y-86180884D02*
X128584174Y-86261696D01*
X128584174Y-86261696D02*
X128530299Y-86315571D01*
X128530299Y-86315571D02*
X128422550Y-86369446D01*
X128422550Y-86369446D02*
X127776052Y-86369446D01*
X127776052Y-86369446D02*
X128126238Y-86719632D01*
X129042110Y-86504133D02*
X129095985Y-86558008D01*
X129095985Y-86558008D02*
X129122922Y-86638820D01*
X129122922Y-86638820D02*
X129122922Y-86692695D01*
X129122922Y-86692695D02*
X129095985Y-86773507D01*
X129095985Y-86773507D02*
X129015173Y-86908194D01*
X129015173Y-86908194D02*
X128880486Y-87042881D01*
X128880486Y-87042881D02*
X128745799Y-87123693D01*
X128745799Y-87123693D02*
X128664986Y-87150631D01*
X128664986Y-87150631D02*
X128611112Y-87150631D01*
X128611112Y-87150631D02*
X128530299Y-87123693D01*
X128530299Y-87123693D02*
X128476425Y-87069818D01*
X128476425Y-87069818D02*
X128449487Y-86989006D01*
X128449487Y-86989006D02*
X128449487Y-86935131D01*
X128449487Y-86935131D02*
X128476425Y-86854319D01*
X128476425Y-86854319D02*
X128557237Y-86719632D01*
X128557237Y-86719632D02*
X128691924Y-86584945D01*
X128691924Y-86584945D02*
X128826611Y-86504133D01*
X128826611Y-86504133D02*
X128907423Y-86477196D01*
X128907423Y-86477196D02*
X128961298Y-86477196D01*
X128961298Y-86477196D02*
X129042110Y-86504133D01*
X119453615Y-85049513D02*
X119426678Y-84968701D01*
X119426678Y-84968701D02*
X119345866Y-84887889D01*
X119345866Y-84887889D02*
X119238116Y-84834014D01*
X119238116Y-84834014D02*
X119130367Y-84834014D01*
X119130367Y-84834014D02*
X119049554Y-84860951D01*
X119049554Y-84860951D02*
X118914867Y-84941764D01*
X118914867Y-84941764D02*
X118834055Y-85022576D01*
X118834055Y-85022576D02*
X118753243Y-85157263D01*
X118753243Y-85157263D02*
X118726306Y-85238075D01*
X118726306Y-85238075D02*
X118726306Y-85345825D01*
X118726306Y-85345825D02*
X118780180Y-85453574D01*
X118780180Y-85453574D02*
X118834055Y-85507449D01*
X118834055Y-85507449D02*
X118941805Y-85561324D01*
X118941805Y-85561324D02*
X118995680Y-85561324D01*
X118995680Y-85561324D02*
X119184241Y-85372762D01*
X119184241Y-85372762D02*
X119076492Y-85265012D01*
X119184241Y-85857635D02*
X119749927Y-85291950D01*
X119749927Y-85291950D02*
X119965426Y-85507449D01*
X119965426Y-85507449D02*
X119992363Y-85588261D01*
X119992363Y-85588261D02*
X119992363Y-85642136D01*
X119992363Y-85642136D02*
X119965426Y-85722948D01*
X119965426Y-85722948D02*
X119884614Y-85803760D01*
X119884614Y-85803760D02*
X119803802Y-85830698D01*
X119803802Y-85830698D02*
X119749927Y-85830698D01*
X119749927Y-85830698D02*
X119669115Y-85803760D01*
X119669115Y-85803760D02*
X119453615Y-85588261D01*
X120234800Y-85884573D02*
X120288675Y-85884573D01*
X120288675Y-85884573D02*
X120369487Y-85911510D01*
X120369487Y-85911510D02*
X120504174Y-86046197D01*
X120504174Y-86046197D02*
X120531112Y-86127009D01*
X120531112Y-86127009D02*
X120531112Y-86180884D01*
X120531112Y-86180884D02*
X120504174Y-86261696D01*
X120504174Y-86261696D02*
X120450299Y-86315571D01*
X120450299Y-86315571D02*
X120342550Y-86369446D01*
X120342550Y-86369446D02*
X119696052Y-86369446D01*
X119696052Y-86369446D02*
X120046238Y-86719632D01*
X120773548Y-86423321D02*
X120827423Y-86423321D01*
X120827423Y-86423321D02*
X120908235Y-86450258D01*
X120908235Y-86450258D02*
X121042922Y-86584945D01*
X121042922Y-86584945D02*
X121069860Y-86665757D01*
X121069860Y-86665757D02*
X121069860Y-86719632D01*
X121069860Y-86719632D02*
X121042922Y-86800444D01*
X121042922Y-86800444D02*
X120989048Y-86854319D01*
X120989048Y-86854319D02*
X120881298Y-86908194D01*
X120881298Y-86908194D02*
X120234800Y-86908194D01*
X120234800Y-86908194D02*
X120584986Y-87258380D01*
X139953615Y-85049513D02*
X139926678Y-84968701D01*
X139926678Y-84968701D02*
X139845866Y-84887889D01*
X139845866Y-84887889D02*
X139738116Y-84834014D01*
X139738116Y-84834014D02*
X139630367Y-84834014D01*
X139630367Y-84834014D02*
X139549554Y-84860951D01*
X139549554Y-84860951D02*
X139414867Y-84941764D01*
X139414867Y-84941764D02*
X139334055Y-85022576D01*
X139334055Y-85022576D02*
X139253243Y-85157263D01*
X139253243Y-85157263D02*
X139226306Y-85238075D01*
X139226306Y-85238075D02*
X139226306Y-85345825D01*
X139226306Y-85345825D02*
X139280180Y-85453574D01*
X139280180Y-85453574D02*
X139334055Y-85507449D01*
X139334055Y-85507449D02*
X139441805Y-85561324D01*
X139441805Y-85561324D02*
X139495680Y-85561324D01*
X139495680Y-85561324D02*
X139684241Y-85372762D01*
X139684241Y-85372762D02*
X139576492Y-85265012D01*
X139684241Y-85857635D02*
X140249927Y-85291950D01*
X140249927Y-85291950D02*
X140465426Y-85507449D01*
X140465426Y-85507449D02*
X140492363Y-85588261D01*
X140492363Y-85588261D02*
X140492363Y-85642136D01*
X140492363Y-85642136D02*
X140465426Y-85722948D01*
X140465426Y-85722948D02*
X140384614Y-85803760D01*
X140384614Y-85803760D02*
X140303802Y-85830698D01*
X140303802Y-85830698D02*
X140249927Y-85830698D01*
X140249927Y-85830698D02*
X140169115Y-85803760D01*
X140169115Y-85803760D02*
X139953615Y-85588261D01*
X140546238Y-86719632D02*
X140222989Y-86396383D01*
X140384614Y-86558008D02*
X140950299Y-85992322D01*
X140950299Y-85992322D02*
X140815612Y-86019260D01*
X140815612Y-86019260D02*
X140707863Y-86019260D01*
X140707863Y-86019260D02*
X140627051Y-85992322D01*
X141596797Y-86638820D02*
X141489048Y-86531070D01*
X141489048Y-86531070D02*
X141408235Y-86504133D01*
X141408235Y-86504133D02*
X141354361Y-86504133D01*
X141354361Y-86504133D02*
X141219673Y-86531070D01*
X141219673Y-86531070D02*
X141084986Y-86611883D01*
X141084986Y-86611883D02*
X140869487Y-86827382D01*
X140869487Y-86827382D02*
X140842550Y-86908194D01*
X140842550Y-86908194D02*
X140842550Y-86962069D01*
X140842550Y-86962069D02*
X140869487Y-87042881D01*
X140869487Y-87042881D02*
X140977237Y-87150631D01*
X140977237Y-87150631D02*
X141058049Y-87177568D01*
X141058049Y-87177568D02*
X141111924Y-87177568D01*
X141111924Y-87177568D02*
X141192736Y-87150631D01*
X141192736Y-87150631D02*
X141327423Y-87015944D01*
X141327423Y-87015944D02*
X141354361Y-86935131D01*
X141354361Y-86935131D02*
X141354361Y-86881257D01*
X141354361Y-86881257D02*
X141327423Y-86800444D01*
X141327423Y-86800444D02*
X141219673Y-86692695D01*
X141219673Y-86692695D02*
X141138861Y-86665757D01*
X141138861Y-86665757D02*
X141084986Y-86665757D01*
X141084986Y-86665757D02*
X141004174Y-86692695D01*
X111953615Y-85549513D02*
X111926678Y-85468701D01*
X111926678Y-85468701D02*
X111845866Y-85387889D01*
X111845866Y-85387889D02*
X111738116Y-85334014D01*
X111738116Y-85334014D02*
X111630367Y-85334014D01*
X111630367Y-85334014D02*
X111549554Y-85360951D01*
X111549554Y-85360951D02*
X111414867Y-85441764D01*
X111414867Y-85441764D02*
X111334055Y-85522576D01*
X111334055Y-85522576D02*
X111253243Y-85657263D01*
X111253243Y-85657263D02*
X111226306Y-85738075D01*
X111226306Y-85738075D02*
X111226306Y-85845825D01*
X111226306Y-85845825D02*
X111280180Y-85953574D01*
X111280180Y-85953574D02*
X111334055Y-86007449D01*
X111334055Y-86007449D02*
X111441805Y-86061324D01*
X111441805Y-86061324D02*
X111495680Y-86061324D01*
X111495680Y-86061324D02*
X111684241Y-85872762D01*
X111684241Y-85872762D02*
X111576492Y-85765012D01*
X111684241Y-86357635D02*
X112249927Y-85791950D01*
X112249927Y-85791950D02*
X112465426Y-86007449D01*
X112465426Y-86007449D02*
X112492363Y-86088261D01*
X112492363Y-86088261D02*
X112492363Y-86142136D01*
X112492363Y-86142136D02*
X112465426Y-86222948D01*
X112465426Y-86222948D02*
X112384614Y-86303760D01*
X112384614Y-86303760D02*
X112303802Y-86330698D01*
X112303802Y-86330698D02*
X112249927Y-86330698D01*
X112249927Y-86330698D02*
X112169115Y-86303760D01*
X112169115Y-86303760D02*
X111953615Y-86088261D01*
X112734800Y-86384573D02*
X112788675Y-86384573D01*
X112788675Y-86384573D02*
X112869487Y-86411510D01*
X112869487Y-86411510D02*
X113004174Y-86546197D01*
X113004174Y-86546197D02*
X113031112Y-86627009D01*
X113031112Y-86627009D02*
X113031112Y-86680884D01*
X113031112Y-86680884D02*
X113004174Y-86761696D01*
X113004174Y-86761696D02*
X112950299Y-86815571D01*
X112950299Y-86815571D02*
X112842550Y-86869446D01*
X112842550Y-86869446D02*
X112196052Y-86869446D01*
X112196052Y-86869446D02*
X112546238Y-87219632D01*
X113300486Y-86842509D02*
X113677609Y-87219632D01*
X113677609Y-87219632D02*
X112869487Y-87542881D01*
X112372990Y-98318888D02*
X112346053Y-98238075D01*
X112346053Y-98238075D02*
X112265240Y-98157263D01*
X112265240Y-98157263D02*
X112157491Y-98103388D01*
X112157491Y-98103388D02*
X112049741Y-98103388D01*
X112049741Y-98103388D02*
X111968929Y-98130326D01*
X111968929Y-98130326D02*
X111834242Y-98211138D01*
X111834242Y-98211138D02*
X111753430Y-98291950D01*
X111753430Y-98291950D02*
X111672617Y-98426637D01*
X111672617Y-98426637D02*
X111645680Y-98507449D01*
X111645680Y-98507449D02*
X111645680Y-98615199D01*
X111645680Y-98615199D02*
X111699555Y-98722949D01*
X111699555Y-98722949D02*
X111753430Y-98776823D01*
X111753430Y-98776823D02*
X111861179Y-98830698D01*
X111861179Y-98830698D02*
X111915054Y-98830698D01*
X111915054Y-98830698D02*
X112103616Y-98642136D01*
X112103616Y-98642136D02*
X111995866Y-98534387D01*
X112103616Y-99127010D02*
X112669301Y-98561324D01*
X112669301Y-98561324D02*
X112884801Y-98776823D01*
X112884801Y-98776823D02*
X112911738Y-98857636D01*
X112911738Y-98857636D02*
X112911738Y-98911510D01*
X112911738Y-98911510D02*
X112884801Y-98992323D01*
X112884801Y-98992323D02*
X112803988Y-99073135D01*
X112803988Y-99073135D02*
X112723176Y-99100072D01*
X112723176Y-99100072D02*
X112669301Y-99100072D01*
X112669301Y-99100072D02*
X112588489Y-99073135D01*
X112588489Y-99073135D02*
X112372990Y-98857636D01*
X113477423Y-99369446D02*
X113369674Y-99261697D01*
X113369674Y-99261697D02*
X113288862Y-99234759D01*
X113288862Y-99234759D02*
X113234987Y-99234759D01*
X113234987Y-99234759D02*
X113100300Y-99261697D01*
X113100300Y-99261697D02*
X112965613Y-99342509D01*
X112965613Y-99342509D02*
X112750114Y-99558008D01*
X112750114Y-99558008D02*
X112723176Y-99638820D01*
X112723176Y-99638820D02*
X112723176Y-99692695D01*
X112723176Y-99692695D02*
X112750114Y-99773507D01*
X112750114Y-99773507D02*
X112857863Y-99881257D01*
X112857863Y-99881257D02*
X112938675Y-99908194D01*
X112938675Y-99908194D02*
X112992550Y-99908194D01*
X112992550Y-99908194D02*
X113073362Y-99881257D01*
X113073362Y-99881257D02*
X113208049Y-99746570D01*
X113208049Y-99746570D02*
X113234987Y-99665758D01*
X113234987Y-99665758D02*
X113234987Y-99611883D01*
X113234987Y-99611883D02*
X113208049Y-99531071D01*
X113208049Y-99531071D02*
X113100300Y-99423321D01*
X113100300Y-99423321D02*
X113019488Y-99396384D01*
X113019488Y-99396384D02*
X112965613Y-99396384D01*
X112965613Y-99396384D02*
X112884801Y-99423321D01*
X136603615Y-97549513D02*
X136576678Y-97468701D01*
X136576678Y-97468701D02*
X136495866Y-97387889D01*
X136495866Y-97387889D02*
X136388116Y-97334014D01*
X136388116Y-97334014D02*
X136280367Y-97334014D01*
X136280367Y-97334014D02*
X136199554Y-97360951D01*
X136199554Y-97360951D02*
X136064867Y-97441764D01*
X136064867Y-97441764D02*
X135984055Y-97522576D01*
X135984055Y-97522576D02*
X135903243Y-97657263D01*
X135903243Y-97657263D02*
X135876306Y-97738075D01*
X135876306Y-97738075D02*
X135876306Y-97845825D01*
X135876306Y-97845825D02*
X135930180Y-97953574D01*
X135930180Y-97953574D02*
X135984055Y-98007449D01*
X135984055Y-98007449D02*
X136091805Y-98061324D01*
X136091805Y-98061324D02*
X136145680Y-98061324D01*
X136145680Y-98061324D02*
X136334241Y-97872762D01*
X136334241Y-97872762D02*
X136226492Y-97765012D01*
X136334241Y-98357635D02*
X136899927Y-97791950D01*
X136899927Y-97791950D02*
X137115426Y-98007449D01*
X137115426Y-98007449D02*
X137142363Y-98088261D01*
X137142363Y-98088261D02*
X137142363Y-98142136D01*
X137142363Y-98142136D02*
X137115426Y-98222948D01*
X137115426Y-98222948D02*
X137034614Y-98303760D01*
X137034614Y-98303760D02*
X136953802Y-98330698D01*
X136953802Y-98330698D02*
X136899927Y-98330698D01*
X136899927Y-98330698D02*
X136819115Y-98303760D01*
X136819115Y-98303760D02*
X136603615Y-98088261D01*
X137196238Y-99219632D02*
X136872989Y-98896383D01*
X137034614Y-99058008D02*
X137600299Y-98492322D01*
X137600299Y-98492322D02*
X137465612Y-98519260D01*
X137465612Y-98519260D02*
X137357863Y-98519260D01*
X137357863Y-98519260D02*
X137277051Y-98492322D01*
X138058235Y-99327382D02*
X137681112Y-99704505D01*
X138139048Y-98977196D02*
X137600299Y-99246570D01*
X137600299Y-99246570D02*
X137950486Y-99596756D01*
X137953615Y-85549513D02*
X137926678Y-85468701D01*
X137926678Y-85468701D02*
X137845866Y-85387889D01*
X137845866Y-85387889D02*
X137738116Y-85334014D01*
X137738116Y-85334014D02*
X137630367Y-85334014D01*
X137630367Y-85334014D02*
X137549554Y-85360951D01*
X137549554Y-85360951D02*
X137414867Y-85441764D01*
X137414867Y-85441764D02*
X137334055Y-85522576D01*
X137334055Y-85522576D02*
X137253243Y-85657263D01*
X137253243Y-85657263D02*
X137226306Y-85738075D01*
X137226306Y-85738075D02*
X137226306Y-85845825D01*
X137226306Y-85845825D02*
X137280180Y-85953574D01*
X137280180Y-85953574D02*
X137334055Y-86007449D01*
X137334055Y-86007449D02*
X137441805Y-86061324D01*
X137441805Y-86061324D02*
X137495680Y-86061324D01*
X137495680Y-86061324D02*
X137684241Y-85872762D01*
X137684241Y-85872762D02*
X137576492Y-85765012D01*
X137684241Y-86357635D02*
X138249927Y-85791950D01*
X138249927Y-85791950D02*
X138465426Y-86007449D01*
X138465426Y-86007449D02*
X138492363Y-86088261D01*
X138492363Y-86088261D02*
X138492363Y-86142136D01*
X138492363Y-86142136D02*
X138465426Y-86222948D01*
X138465426Y-86222948D02*
X138384614Y-86303760D01*
X138384614Y-86303760D02*
X138303802Y-86330698D01*
X138303802Y-86330698D02*
X138249927Y-86330698D01*
X138249927Y-86330698D02*
X138169115Y-86303760D01*
X138169115Y-86303760D02*
X137953615Y-86088261D01*
X138546238Y-87219632D02*
X138222989Y-86896383D01*
X138384614Y-87058008D02*
X138950299Y-86492322D01*
X138950299Y-86492322D02*
X138815612Y-86519260D01*
X138815612Y-86519260D02*
X138707863Y-86519260D01*
X138707863Y-86519260D02*
X138627051Y-86492322D01*
X139300486Y-86842509D02*
X139677609Y-87219632D01*
X139677609Y-87219632D02*
X138869487Y-87542881D01*
X129103615Y-97549513D02*
X129076678Y-97468701D01*
X129076678Y-97468701D02*
X128995866Y-97387889D01*
X128995866Y-97387889D02*
X128888116Y-97334014D01*
X128888116Y-97334014D02*
X128780367Y-97334014D01*
X128780367Y-97334014D02*
X128699554Y-97360951D01*
X128699554Y-97360951D02*
X128564867Y-97441764D01*
X128564867Y-97441764D02*
X128484055Y-97522576D01*
X128484055Y-97522576D02*
X128403243Y-97657263D01*
X128403243Y-97657263D02*
X128376306Y-97738075D01*
X128376306Y-97738075D02*
X128376306Y-97845825D01*
X128376306Y-97845825D02*
X128430180Y-97953574D01*
X128430180Y-97953574D02*
X128484055Y-98007449D01*
X128484055Y-98007449D02*
X128591805Y-98061324D01*
X128591805Y-98061324D02*
X128645680Y-98061324D01*
X128645680Y-98061324D02*
X128834241Y-97872762D01*
X128834241Y-97872762D02*
X128726492Y-97765012D01*
X128834241Y-98357635D02*
X129399927Y-97791950D01*
X129399927Y-97791950D02*
X129615426Y-98007449D01*
X129615426Y-98007449D02*
X129642363Y-98088261D01*
X129642363Y-98088261D02*
X129642363Y-98142136D01*
X129642363Y-98142136D02*
X129615426Y-98222948D01*
X129615426Y-98222948D02*
X129534614Y-98303760D01*
X129534614Y-98303760D02*
X129453802Y-98330698D01*
X129453802Y-98330698D02*
X129399927Y-98330698D01*
X129399927Y-98330698D02*
X129319115Y-98303760D01*
X129319115Y-98303760D02*
X129103615Y-98088261D01*
X129696238Y-99219632D02*
X129372989Y-98896383D01*
X129534614Y-99058008D02*
X130100299Y-98492322D01*
X130100299Y-98492322D02*
X129965612Y-98519260D01*
X129965612Y-98519260D02*
X129857863Y-98519260D01*
X129857863Y-98519260D02*
X129777051Y-98492322D01*
X130423548Y-98923321D02*
X130477423Y-98923321D01*
X130477423Y-98923321D02*
X130558235Y-98950258D01*
X130558235Y-98950258D02*
X130692922Y-99084945D01*
X130692922Y-99084945D02*
X130719860Y-99165757D01*
X130719860Y-99165757D02*
X130719860Y-99219632D01*
X130719860Y-99219632D02*
X130692922Y-99300444D01*
X130692922Y-99300444D02*
X130639048Y-99354319D01*
X130639048Y-99354319D02*
X130531298Y-99408194D01*
X130531298Y-99408194D02*
X129884800Y-99408194D01*
X129884800Y-99408194D02*
X130234986Y-99758380D01*
X99372990Y-98318888D02*
X99346053Y-98238075D01*
X99346053Y-98238075D02*
X99265240Y-98157263D01*
X99265240Y-98157263D02*
X99157491Y-98103388D01*
X99157491Y-98103388D02*
X99049741Y-98103388D01*
X99049741Y-98103388D02*
X98968929Y-98130326D01*
X98968929Y-98130326D02*
X98834242Y-98211138D01*
X98834242Y-98211138D02*
X98753430Y-98291950D01*
X98753430Y-98291950D02*
X98672617Y-98426637D01*
X98672617Y-98426637D02*
X98645680Y-98507449D01*
X98645680Y-98507449D02*
X98645680Y-98615199D01*
X98645680Y-98615199D02*
X98699555Y-98722949D01*
X98699555Y-98722949D02*
X98753430Y-98776823D01*
X98753430Y-98776823D02*
X98861179Y-98830698D01*
X98861179Y-98830698D02*
X98915054Y-98830698D01*
X98915054Y-98830698D02*
X99103616Y-98642136D01*
X99103616Y-98642136D02*
X98995866Y-98534387D01*
X99103616Y-99127010D02*
X99669301Y-98561324D01*
X99669301Y-98561324D02*
X99884801Y-98776823D01*
X99884801Y-98776823D02*
X99911738Y-98857636D01*
X99911738Y-98857636D02*
X99911738Y-98911510D01*
X99911738Y-98911510D02*
X99884801Y-98992323D01*
X99884801Y-98992323D02*
X99803988Y-99073135D01*
X99803988Y-99073135D02*
X99723176Y-99100072D01*
X99723176Y-99100072D02*
X99669301Y-99100072D01*
X99669301Y-99100072D02*
X99588489Y-99073135D01*
X99588489Y-99073135D02*
X99372990Y-98857636D01*
X100154175Y-99153947D02*
X100208049Y-99153947D01*
X100208049Y-99153947D02*
X100288862Y-99180884D01*
X100288862Y-99180884D02*
X100423549Y-99315571D01*
X100423549Y-99315571D02*
X100450486Y-99396384D01*
X100450486Y-99396384D02*
X100450486Y-99450258D01*
X100450486Y-99450258D02*
X100423549Y-99531071D01*
X100423549Y-99531071D02*
X100369674Y-99584945D01*
X100369674Y-99584945D02*
X100261924Y-99638820D01*
X100261924Y-99638820D02*
X99615427Y-99638820D01*
X99615427Y-99638820D02*
X99965613Y-99989006D01*
X126603615Y-98049513D02*
X126576678Y-97968701D01*
X126576678Y-97968701D02*
X126495866Y-97887889D01*
X126495866Y-97887889D02*
X126388116Y-97834014D01*
X126388116Y-97834014D02*
X126280367Y-97834014D01*
X126280367Y-97834014D02*
X126199554Y-97860951D01*
X126199554Y-97860951D02*
X126064867Y-97941764D01*
X126064867Y-97941764D02*
X125984055Y-98022576D01*
X125984055Y-98022576D02*
X125903243Y-98157263D01*
X125903243Y-98157263D02*
X125876306Y-98238075D01*
X125876306Y-98238075D02*
X125876306Y-98345825D01*
X125876306Y-98345825D02*
X125930180Y-98453574D01*
X125930180Y-98453574D02*
X125984055Y-98507449D01*
X125984055Y-98507449D02*
X126091805Y-98561324D01*
X126091805Y-98561324D02*
X126145680Y-98561324D01*
X126145680Y-98561324D02*
X126334241Y-98372762D01*
X126334241Y-98372762D02*
X126226492Y-98265012D01*
X126334241Y-98857635D02*
X126899927Y-98291950D01*
X126899927Y-98291950D02*
X127115426Y-98507449D01*
X127115426Y-98507449D02*
X127142363Y-98588261D01*
X127142363Y-98588261D02*
X127142363Y-98642136D01*
X127142363Y-98642136D02*
X127115426Y-98722948D01*
X127115426Y-98722948D02*
X127034614Y-98803760D01*
X127034614Y-98803760D02*
X126953802Y-98830698D01*
X126953802Y-98830698D02*
X126899927Y-98830698D01*
X126899927Y-98830698D02*
X126819115Y-98803760D01*
X126819115Y-98803760D02*
X126603615Y-98588261D01*
X127196238Y-99719632D02*
X126872989Y-99396383D01*
X127034614Y-99558008D02*
X127600299Y-98992322D01*
X127600299Y-98992322D02*
X127465612Y-99019260D01*
X127465612Y-99019260D02*
X127357863Y-99019260D01*
X127357863Y-99019260D02*
X127277051Y-98992322D01*
X127734986Y-100258380D02*
X127411738Y-99935131D01*
X127573362Y-100096756D02*
X128139048Y-99531070D01*
X128139048Y-99531070D02*
X128004361Y-99558008D01*
X128004361Y-99558008D02*
X127896611Y-99558008D01*
X127896611Y-99558008D02*
X127815799Y-99531070D01*
X119372990Y-98318888D02*
X119346053Y-98238075D01*
X119346053Y-98238075D02*
X119265240Y-98157263D01*
X119265240Y-98157263D02*
X119157491Y-98103388D01*
X119157491Y-98103388D02*
X119049741Y-98103388D01*
X119049741Y-98103388D02*
X118968929Y-98130326D01*
X118968929Y-98130326D02*
X118834242Y-98211138D01*
X118834242Y-98211138D02*
X118753430Y-98291950D01*
X118753430Y-98291950D02*
X118672617Y-98426637D01*
X118672617Y-98426637D02*
X118645680Y-98507449D01*
X118645680Y-98507449D02*
X118645680Y-98615199D01*
X118645680Y-98615199D02*
X118699555Y-98722949D01*
X118699555Y-98722949D02*
X118753430Y-98776823D01*
X118753430Y-98776823D02*
X118861179Y-98830698D01*
X118861179Y-98830698D02*
X118915054Y-98830698D01*
X118915054Y-98830698D02*
X119103616Y-98642136D01*
X119103616Y-98642136D02*
X118995866Y-98534387D01*
X119103616Y-99127010D02*
X119669301Y-98561324D01*
X119669301Y-98561324D02*
X119884801Y-98776823D01*
X119884801Y-98776823D02*
X119911738Y-98857636D01*
X119911738Y-98857636D02*
X119911738Y-98911510D01*
X119911738Y-98911510D02*
X119884801Y-98992323D01*
X119884801Y-98992323D02*
X119803988Y-99073135D01*
X119803988Y-99073135D02*
X119723176Y-99100072D01*
X119723176Y-99100072D02*
X119669301Y-99100072D01*
X119669301Y-99100072D02*
X119588489Y-99073135D01*
X119588489Y-99073135D02*
X119372990Y-98857636D01*
X119696239Y-99719632D02*
X119803988Y-99827382D01*
X119803988Y-99827382D02*
X119884801Y-99854319D01*
X119884801Y-99854319D02*
X119938675Y-99854319D01*
X119938675Y-99854319D02*
X120073362Y-99827382D01*
X120073362Y-99827382D02*
X120208049Y-99746570D01*
X120208049Y-99746570D02*
X120423549Y-99531071D01*
X120423549Y-99531071D02*
X120450486Y-99450258D01*
X120450486Y-99450258D02*
X120450486Y-99396384D01*
X120450486Y-99396384D02*
X120423549Y-99315571D01*
X120423549Y-99315571D02*
X120315799Y-99207822D01*
X120315799Y-99207822D02*
X120234987Y-99180884D01*
X120234987Y-99180884D02*
X120181112Y-99180884D01*
X120181112Y-99180884D02*
X120100300Y-99207822D01*
X120100300Y-99207822D02*
X119965613Y-99342509D01*
X119965613Y-99342509D02*
X119938675Y-99423321D01*
X119938675Y-99423321D02*
X119938675Y-99477196D01*
X119938675Y-99477196D02*
X119965613Y-99558008D01*
X119965613Y-99558008D02*
X120073362Y-99665758D01*
X120073362Y-99665758D02*
X120154175Y-99692695D01*
X120154175Y-99692695D02*
X120208049Y-99692695D01*
X120208049Y-99692695D02*
X120288862Y-99665758D01*
X104372990Y-98318888D02*
X104346053Y-98238075D01*
X104346053Y-98238075D02*
X104265240Y-98157263D01*
X104265240Y-98157263D02*
X104157491Y-98103388D01*
X104157491Y-98103388D02*
X104049741Y-98103388D01*
X104049741Y-98103388D02*
X103968929Y-98130326D01*
X103968929Y-98130326D02*
X103834242Y-98211138D01*
X103834242Y-98211138D02*
X103753430Y-98291950D01*
X103753430Y-98291950D02*
X103672617Y-98426637D01*
X103672617Y-98426637D02*
X103645680Y-98507449D01*
X103645680Y-98507449D02*
X103645680Y-98615199D01*
X103645680Y-98615199D02*
X103699555Y-98722949D01*
X103699555Y-98722949D02*
X103753430Y-98776823D01*
X103753430Y-98776823D02*
X103861179Y-98830698D01*
X103861179Y-98830698D02*
X103915054Y-98830698D01*
X103915054Y-98830698D02*
X104103616Y-98642136D01*
X104103616Y-98642136D02*
X103995866Y-98534387D01*
X104103616Y-99127010D02*
X104669301Y-98561324D01*
X104669301Y-98561324D02*
X104884801Y-98776823D01*
X104884801Y-98776823D02*
X104911738Y-98857636D01*
X104911738Y-98857636D02*
X104911738Y-98911510D01*
X104911738Y-98911510D02*
X104884801Y-98992323D01*
X104884801Y-98992323D02*
X104803988Y-99073135D01*
X104803988Y-99073135D02*
X104723176Y-99100072D01*
X104723176Y-99100072D02*
X104669301Y-99100072D01*
X104669301Y-99100072D02*
X104588489Y-99073135D01*
X104588489Y-99073135D02*
X104372990Y-98857636D01*
X105288862Y-99558008D02*
X104911738Y-99935132D01*
X105369674Y-99207822D02*
X104830926Y-99477196D01*
X104830926Y-99477196D02*
X105181112Y-99827382D01*
X103310434Y-85160579D02*
X103579808Y-85429953D01*
X103094935Y-85268329D02*
X103849182Y-84891205D01*
X103849182Y-84891205D02*
X103472059Y-85645452D01*
X103660620Y-85834014D02*
X104226306Y-85268329D01*
X104226306Y-85268329D02*
X104360993Y-85403016D01*
X104360993Y-85403016D02*
X104414867Y-85510765D01*
X104414867Y-85510765D02*
X104414867Y-85618515D01*
X104414867Y-85618515D02*
X104387930Y-85699327D01*
X104387930Y-85699327D02*
X104307118Y-85834014D01*
X104307118Y-85834014D02*
X104226306Y-85914826D01*
X104226306Y-85914826D02*
X104091619Y-85995638D01*
X104091619Y-85995638D02*
X104010806Y-86022576D01*
X104010806Y-86022576D02*
X103903057Y-86022576D01*
X103903057Y-86022576D02*
X103795307Y-85968701D01*
X103795307Y-85968701D02*
X103660620Y-85834014D01*
X104603429Y-86669073D02*
X104549554Y-86669073D01*
X104549554Y-86669073D02*
X104441805Y-86615199D01*
X104441805Y-86615199D02*
X104387930Y-86561324D01*
X104387930Y-86561324D02*
X104334055Y-86453574D01*
X104334055Y-86453574D02*
X104334055Y-86345825D01*
X104334055Y-86345825D02*
X104360993Y-86265012D01*
X104360993Y-86265012D02*
X104441805Y-86130325D01*
X104441805Y-86130325D02*
X104522617Y-86049513D01*
X104522617Y-86049513D02*
X104657304Y-85968701D01*
X104657304Y-85968701D02*
X104738116Y-85941764D01*
X104738116Y-85941764D02*
X104845866Y-85941764D01*
X104845866Y-85941764D02*
X104953616Y-85995638D01*
X104953616Y-85995638D02*
X105007490Y-86049513D01*
X105007490Y-86049513D02*
X105061365Y-86157263D01*
X105061365Y-86157263D02*
X105061365Y-86211138D01*
X104603429Y-86884573D02*
X105034428Y-87315571D01*
X105707863Y-86749886D02*
X105330739Y-87504133D01*
X105330739Y-87504133D02*
X106084986Y-87127009D01*
X106031111Y-88204505D02*
X106111924Y-87746569D01*
X105707863Y-87881256D02*
X106273548Y-87315571D01*
X106273548Y-87315571D02*
X106489047Y-87531070D01*
X106489047Y-87531070D02*
X106515985Y-87611882D01*
X106515985Y-87611882D02*
X106515985Y-87665757D01*
X106515985Y-87665757D02*
X106489047Y-87746569D01*
X106489047Y-87746569D02*
X106408235Y-87827382D01*
X106408235Y-87827382D02*
X106327423Y-87854319D01*
X106327423Y-87854319D02*
X106273548Y-87854319D01*
X106273548Y-87854319D02*
X106192736Y-87827382D01*
X106192736Y-87827382D02*
X105977237Y-87611882D01*
X106569860Y-88150630D02*
X106758421Y-88339192D01*
X106542922Y-88716316D02*
X106273548Y-88446942D01*
X106273548Y-88446942D02*
X106839234Y-87881256D01*
X106839234Y-87881256D02*
X107108608Y-88150630D01*
X107270232Y-88851003D02*
X107081670Y-88662441D01*
X106785359Y-88958753D02*
X107351044Y-88393067D01*
X107351044Y-88393067D02*
X107620418Y-88662441D01*
X114372990Y-98318888D02*
X114346053Y-98238075D01*
X114346053Y-98238075D02*
X114265240Y-98157263D01*
X114265240Y-98157263D02*
X114157491Y-98103388D01*
X114157491Y-98103388D02*
X114049741Y-98103388D01*
X114049741Y-98103388D02*
X113968929Y-98130326D01*
X113968929Y-98130326D02*
X113834242Y-98211138D01*
X113834242Y-98211138D02*
X113753430Y-98291950D01*
X113753430Y-98291950D02*
X113672617Y-98426637D01*
X113672617Y-98426637D02*
X113645680Y-98507449D01*
X113645680Y-98507449D02*
X113645680Y-98615199D01*
X113645680Y-98615199D02*
X113699555Y-98722949D01*
X113699555Y-98722949D02*
X113753430Y-98776823D01*
X113753430Y-98776823D02*
X113861179Y-98830698D01*
X113861179Y-98830698D02*
X113915054Y-98830698D01*
X113915054Y-98830698D02*
X114103616Y-98642136D01*
X114103616Y-98642136D02*
X113995866Y-98534387D01*
X114103616Y-99127010D02*
X114669301Y-98561324D01*
X114669301Y-98561324D02*
X114884801Y-98776823D01*
X114884801Y-98776823D02*
X114911738Y-98857636D01*
X114911738Y-98857636D02*
X114911738Y-98911510D01*
X114911738Y-98911510D02*
X114884801Y-98992323D01*
X114884801Y-98992323D02*
X114803988Y-99073135D01*
X114803988Y-99073135D02*
X114723176Y-99100072D01*
X114723176Y-99100072D02*
X114669301Y-99100072D01*
X114669301Y-99100072D02*
X114588489Y-99073135D01*
X114588489Y-99073135D02*
X114372990Y-98857636D01*
X115181112Y-99073135D02*
X115558236Y-99450258D01*
X115558236Y-99450258D02*
X114750114Y-99773507D01*
X96846053Y-98291950D02*
X96819115Y-98211138D01*
X96819115Y-98211138D02*
X96738303Y-98130326D01*
X96738303Y-98130326D02*
X96630553Y-98076451D01*
X96630553Y-98076451D02*
X96522804Y-98076451D01*
X96522804Y-98076451D02*
X96441992Y-98103389D01*
X96441992Y-98103389D02*
X96307305Y-98184201D01*
X96307305Y-98184201D02*
X96226492Y-98265013D01*
X96226492Y-98265013D02*
X96145680Y-98399700D01*
X96145680Y-98399700D02*
X96118743Y-98480512D01*
X96118743Y-98480512D02*
X96118743Y-98588262D01*
X96118743Y-98588262D02*
X96172618Y-98696011D01*
X96172618Y-98696011D02*
X96226492Y-98749886D01*
X96226492Y-98749886D02*
X96334242Y-98803761D01*
X96334242Y-98803761D02*
X96388117Y-98803761D01*
X96388117Y-98803761D02*
X96576679Y-98615199D01*
X96576679Y-98615199D02*
X96468929Y-98507450D01*
X96576679Y-99100072D02*
X97142364Y-98534387D01*
X97142364Y-98534387D02*
X96899927Y-99423321D01*
X96899927Y-99423321D02*
X97465613Y-98857636D01*
X97169301Y-99692695D02*
X97734987Y-99127010D01*
X97734987Y-99127010D02*
X97869674Y-99261697D01*
X97869674Y-99261697D02*
X97923549Y-99369446D01*
X97923549Y-99369446D02*
X97923549Y-99477196D01*
X97923549Y-99477196D02*
X97896611Y-99558008D01*
X97896611Y-99558008D02*
X97815799Y-99692695D01*
X97815799Y-99692695D02*
X97734987Y-99773507D01*
X97734987Y-99773507D02*
X97600300Y-99854319D01*
X97600300Y-99854319D02*
X97519488Y-99881257D01*
X97519488Y-99881257D02*
X97411738Y-99881257D01*
X97411738Y-99881257D02*
X97303988Y-99827382D01*
X97303988Y-99827382D02*
X97169301Y-99692695D01*
X116670773Y-85844167D02*
X116751585Y-85386231D01*
X116347524Y-85520918D02*
X116913210Y-84955233D01*
X116913210Y-84955233D02*
X117128709Y-85170732D01*
X117128709Y-85170732D02*
X117155646Y-85251544D01*
X117155646Y-85251544D02*
X117155646Y-85305419D01*
X117155646Y-85305419D02*
X117128709Y-85386231D01*
X117128709Y-85386231D02*
X117047897Y-85467043D01*
X117047897Y-85467043D02*
X116967085Y-85493981D01*
X116967085Y-85493981D02*
X116913210Y-85493981D01*
X116913210Y-85493981D02*
X116832398Y-85467043D01*
X116832398Y-85467043D02*
X116616898Y-85251544D01*
X117478895Y-85520918D02*
X117020959Y-85978854D01*
X117020959Y-85978854D02*
X116994022Y-86059666D01*
X116994022Y-86059666D02*
X116994022Y-86113541D01*
X116994022Y-86113541D02*
X117020959Y-86194353D01*
X117020959Y-86194353D02*
X117128709Y-86302103D01*
X117128709Y-86302103D02*
X117209521Y-86329040D01*
X117209521Y-86329040D02*
X117263396Y-86329040D01*
X117263396Y-86329040D02*
X117344208Y-86302103D01*
X117344208Y-86302103D02*
X117802144Y-85844167D01*
X117505832Y-86679226D02*
X118071518Y-86113541D01*
X118071518Y-86113541D02*
X117829081Y-87002475D01*
X117829081Y-87002475D02*
X118394767Y-86436789D01*
X94684242Y-84726265D02*
X94307118Y-85480512D01*
X94307118Y-85480512D02*
X95061365Y-85103388D01*
X94684241Y-85803760D02*
X94738116Y-85911510D01*
X94738116Y-85911510D02*
X94872803Y-86046197D01*
X94872803Y-86046197D02*
X94953615Y-86073134D01*
X94953615Y-86073134D02*
X95007490Y-86073134D01*
X95007490Y-86073134D02*
X95088302Y-86046197D01*
X95088302Y-86046197D02*
X95142177Y-85992322D01*
X95142177Y-85992322D02*
X95169115Y-85911510D01*
X95169115Y-85911510D02*
X95169115Y-85857635D01*
X95169115Y-85857635D02*
X95142177Y-85776823D01*
X95142177Y-85776823D02*
X95061365Y-85642136D01*
X95061365Y-85642136D02*
X95034428Y-85561324D01*
X95034428Y-85561324D02*
X95034428Y-85507449D01*
X95034428Y-85507449D02*
X95061365Y-85426637D01*
X95061365Y-85426637D02*
X95115240Y-85372762D01*
X95115240Y-85372762D02*
X95196052Y-85345825D01*
X95196052Y-85345825D02*
X95249927Y-85345825D01*
X95249927Y-85345825D02*
X95330739Y-85372762D01*
X95330739Y-85372762D02*
X95465426Y-85507449D01*
X95465426Y-85507449D02*
X95519301Y-85615199D01*
X95600113Y-86234759D02*
X95330739Y-86504133D01*
X95707863Y-85749886D02*
X95600113Y-86234759D01*
X95600113Y-86234759D02*
X96084986Y-86127009D01*
X95707863Y-86827382D02*
X95761737Y-86935131D01*
X95761737Y-86935131D02*
X95896424Y-87069818D01*
X95896424Y-87069818D02*
X95977237Y-87096756D01*
X95977237Y-87096756D02*
X96031111Y-87096756D01*
X96031111Y-87096756D02*
X96111924Y-87069818D01*
X96111924Y-87069818D02*
X96165798Y-87015943D01*
X96165798Y-87015943D02*
X96192736Y-86935131D01*
X96192736Y-86935131D02*
X96192736Y-86881256D01*
X96192736Y-86881256D02*
X96165798Y-86800444D01*
X96165798Y-86800444D02*
X96084986Y-86665757D01*
X96084986Y-86665757D02*
X96058049Y-86584945D01*
X96058049Y-86584945D02*
X96058049Y-86531070D01*
X96058049Y-86531070D02*
X96084986Y-86450258D01*
X96084986Y-86450258D02*
X96138861Y-86396383D01*
X96138861Y-86396383D02*
X96219673Y-86369446D01*
X96219673Y-86369446D02*
X96273548Y-86369446D01*
X96273548Y-86369446D02*
X96354360Y-86396383D01*
X96354360Y-86396383D02*
X96489047Y-86531070D01*
X96489047Y-86531070D02*
X96542922Y-86638820D01*
X109346053Y-98291950D02*
X109319115Y-98211138D01*
X109319115Y-98211138D02*
X109238303Y-98130326D01*
X109238303Y-98130326D02*
X109130553Y-98076451D01*
X109130553Y-98076451D02*
X109022804Y-98076451D01*
X109022804Y-98076451D02*
X108941992Y-98103389D01*
X108941992Y-98103389D02*
X108807305Y-98184201D01*
X108807305Y-98184201D02*
X108726492Y-98265013D01*
X108726492Y-98265013D02*
X108645680Y-98399700D01*
X108645680Y-98399700D02*
X108618743Y-98480512D01*
X108618743Y-98480512D02*
X108618743Y-98588262D01*
X108618743Y-98588262D02*
X108672618Y-98696011D01*
X108672618Y-98696011D02*
X108726492Y-98749886D01*
X108726492Y-98749886D02*
X108834242Y-98803761D01*
X108834242Y-98803761D02*
X108888117Y-98803761D01*
X108888117Y-98803761D02*
X109076679Y-98615199D01*
X109076679Y-98615199D02*
X108968929Y-98507450D01*
X109076679Y-99100072D02*
X109642364Y-98534387D01*
X109642364Y-98534387D02*
X109399927Y-99423321D01*
X109399927Y-99423321D02*
X109965613Y-98857636D01*
X109669301Y-99692695D02*
X110234987Y-99127010D01*
X110234987Y-99127010D02*
X110369674Y-99261697D01*
X110369674Y-99261697D02*
X110423549Y-99369446D01*
X110423549Y-99369446D02*
X110423549Y-99477196D01*
X110423549Y-99477196D02*
X110396611Y-99558008D01*
X110396611Y-99558008D02*
X110315799Y-99692695D01*
X110315799Y-99692695D02*
X110234987Y-99773507D01*
X110234987Y-99773507D02*
X110100300Y-99854319D01*
X110100300Y-99854319D02*
X110019488Y-99881257D01*
X110019488Y-99881257D02*
X109911738Y-99881257D01*
X109911738Y-99881257D02*
X109803988Y-99827382D01*
X109803988Y-99827382D02*
X109669301Y-99692695D01*
X92372990Y-97818888D02*
X92346053Y-97738075D01*
X92346053Y-97738075D02*
X92265240Y-97657263D01*
X92265240Y-97657263D02*
X92157491Y-97603388D01*
X92157491Y-97603388D02*
X92049741Y-97603388D01*
X92049741Y-97603388D02*
X91968929Y-97630326D01*
X91968929Y-97630326D02*
X91834242Y-97711138D01*
X91834242Y-97711138D02*
X91753430Y-97791950D01*
X91753430Y-97791950D02*
X91672617Y-97926637D01*
X91672617Y-97926637D02*
X91645680Y-98007449D01*
X91645680Y-98007449D02*
X91645680Y-98115199D01*
X91645680Y-98115199D02*
X91699555Y-98222949D01*
X91699555Y-98222949D02*
X91753430Y-98276823D01*
X91753430Y-98276823D02*
X91861179Y-98330698D01*
X91861179Y-98330698D02*
X91915054Y-98330698D01*
X91915054Y-98330698D02*
X92103616Y-98142136D01*
X92103616Y-98142136D02*
X91995866Y-98034387D01*
X92103616Y-98627010D02*
X92669301Y-98061324D01*
X92669301Y-98061324D02*
X92884801Y-98276823D01*
X92884801Y-98276823D02*
X92911738Y-98357636D01*
X92911738Y-98357636D02*
X92911738Y-98411510D01*
X92911738Y-98411510D02*
X92884801Y-98492323D01*
X92884801Y-98492323D02*
X92803988Y-98573135D01*
X92803988Y-98573135D02*
X92723176Y-98600072D01*
X92723176Y-98600072D02*
X92669301Y-98600072D01*
X92669301Y-98600072D02*
X92588489Y-98573135D01*
X92588489Y-98573135D02*
X92372990Y-98357636D01*
X93342736Y-98734759D02*
X93396611Y-98788634D01*
X93396611Y-98788634D02*
X93423549Y-98869446D01*
X93423549Y-98869446D02*
X93423549Y-98923321D01*
X93423549Y-98923321D02*
X93396611Y-99004133D01*
X93396611Y-99004133D02*
X93315799Y-99138820D01*
X93315799Y-99138820D02*
X93181112Y-99273507D01*
X93181112Y-99273507D02*
X93046425Y-99354319D01*
X93046425Y-99354319D02*
X92965613Y-99381257D01*
X92965613Y-99381257D02*
X92911738Y-99381257D01*
X92911738Y-99381257D02*
X92830926Y-99354319D01*
X92830926Y-99354319D02*
X92777051Y-99300445D01*
X92777051Y-99300445D02*
X92750114Y-99219632D01*
X92750114Y-99219632D02*
X92750114Y-99165758D01*
X92750114Y-99165758D02*
X92777051Y-99084945D01*
X92777051Y-99084945D02*
X92857863Y-98950258D01*
X92857863Y-98950258D02*
X92992550Y-98815571D01*
X92992550Y-98815571D02*
X93127237Y-98734759D01*
X93127237Y-98734759D02*
X93208049Y-98707822D01*
X93208049Y-98707822D02*
X93261924Y-98707822D01*
X93261924Y-98707822D02*
X93342736Y-98734759D01*
X92116898Y-84658921D02*
X91739775Y-85413168D01*
X91739775Y-85413168D02*
X92494022Y-85036045D01*
X92601771Y-85682542D02*
X92655646Y-85790292D01*
X92655646Y-85790292D02*
X92655646Y-85844167D01*
X92655646Y-85844167D02*
X92628709Y-85924979D01*
X92628709Y-85924979D02*
X92547896Y-86005791D01*
X92547896Y-86005791D02*
X92467084Y-86032728D01*
X92467084Y-86032728D02*
X92413209Y-86032728D01*
X92413209Y-86032728D02*
X92332397Y-86005791D01*
X92332397Y-86005791D02*
X92116898Y-85790292D01*
X92116898Y-85790292D02*
X92682583Y-85224606D01*
X92682583Y-85224606D02*
X92871145Y-85413168D01*
X92871145Y-85413168D02*
X92898083Y-85493980D01*
X92898083Y-85493980D02*
X92898083Y-85547855D01*
X92898083Y-85547855D02*
X92871145Y-85628667D01*
X92871145Y-85628667D02*
X92817270Y-85682542D01*
X92817270Y-85682542D02*
X92736458Y-85709480D01*
X92736458Y-85709480D02*
X92682583Y-85709480D01*
X92682583Y-85709480D02*
X92601771Y-85682542D01*
X92601771Y-85682542D02*
X92413209Y-85493980D01*
X93248269Y-85790292D02*
X92790333Y-86248228D01*
X92790333Y-86248228D02*
X92763396Y-86329040D01*
X92763396Y-86329040D02*
X92763396Y-86382915D01*
X92763396Y-86382915D02*
X92790333Y-86463727D01*
X92790333Y-86463727D02*
X92898083Y-86571476D01*
X92898083Y-86571476D02*
X92978895Y-86598414D01*
X92978895Y-86598414D02*
X93032770Y-86598414D01*
X93032770Y-86598414D02*
X93113582Y-86571476D01*
X93113582Y-86571476D02*
X93571518Y-86113541D01*
X93275206Y-86894725D02*
X93329081Y-87002475D01*
X93329081Y-87002475D02*
X93463768Y-87137162D01*
X93463768Y-87137162D02*
X93544580Y-87164099D01*
X93544580Y-87164099D02*
X93598455Y-87164099D01*
X93598455Y-87164099D02*
X93679267Y-87137162D01*
X93679267Y-87137162D02*
X93733142Y-87083287D01*
X93733142Y-87083287D02*
X93760079Y-87002475D01*
X93760079Y-87002475D02*
X93760079Y-86948600D01*
X93760079Y-86948600D02*
X93733142Y-86867788D01*
X93733142Y-86867788D02*
X93652330Y-86733101D01*
X93652330Y-86733101D02*
X93625392Y-86652288D01*
X93625392Y-86652288D02*
X93625392Y-86598414D01*
X93625392Y-86598414D02*
X93652330Y-86517601D01*
X93652330Y-86517601D02*
X93706205Y-86463727D01*
X93706205Y-86463727D02*
X93787017Y-86436789D01*
X93787017Y-86436789D02*
X93840892Y-86436789D01*
X93840892Y-86436789D02*
X93921704Y-86463727D01*
X93921704Y-86463727D02*
X94056391Y-86598414D01*
X94056391Y-86598414D02*
X94110266Y-86706163D01*
X132953615Y-85049513D02*
X132926678Y-84968701D01*
X132926678Y-84968701D02*
X132845866Y-84887889D01*
X132845866Y-84887889D02*
X132738116Y-84834014D01*
X132738116Y-84834014D02*
X132630367Y-84834014D01*
X132630367Y-84834014D02*
X132549554Y-84860951D01*
X132549554Y-84860951D02*
X132414867Y-84941764D01*
X132414867Y-84941764D02*
X132334055Y-85022576D01*
X132334055Y-85022576D02*
X132253243Y-85157263D01*
X132253243Y-85157263D02*
X132226306Y-85238075D01*
X132226306Y-85238075D02*
X132226306Y-85345825D01*
X132226306Y-85345825D02*
X132280180Y-85453574D01*
X132280180Y-85453574D02*
X132334055Y-85507449D01*
X132334055Y-85507449D02*
X132441805Y-85561324D01*
X132441805Y-85561324D02*
X132495680Y-85561324D01*
X132495680Y-85561324D02*
X132684241Y-85372762D01*
X132684241Y-85372762D02*
X132576492Y-85265012D01*
X132684241Y-85857635D02*
X133249927Y-85291950D01*
X133249927Y-85291950D02*
X133465426Y-85507449D01*
X133465426Y-85507449D02*
X133492363Y-85588261D01*
X133492363Y-85588261D02*
X133492363Y-85642136D01*
X133492363Y-85642136D02*
X133465426Y-85722948D01*
X133465426Y-85722948D02*
X133384614Y-85803760D01*
X133384614Y-85803760D02*
X133303802Y-85830698D01*
X133303802Y-85830698D02*
X133249927Y-85830698D01*
X133249927Y-85830698D02*
X133169115Y-85803760D01*
X133169115Y-85803760D02*
X132953615Y-85588261D01*
X133546238Y-86719632D02*
X133222989Y-86396383D01*
X133384614Y-86558008D02*
X133950299Y-85992322D01*
X133950299Y-85992322D02*
X133815612Y-86019260D01*
X133815612Y-86019260D02*
X133707863Y-86019260D01*
X133707863Y-86019260D02*
X133627051Y-85992322D01*
X134192736Y-86719632D02*
X134165799Y-86638820D01*
X134165799Y-86638820D02*
X134165799Y-86584945D01*
X134165799Y-86584945D02*
X134192736Y-86504133D01*
X134192736Y-86504133D02*
X134219673Y-86477196D01*
X134219673Y-86477196D02*
X134300486Y-86450258D01*
X134300486Y-86450258D02*
X134354361Y-86450258D01*
X134354361Y-86450258D02*
X134435173Y-86477196D01*
X134435173Y-86477196D02*
X134542922Y-86584945D01*
X134542922Y-86584945D02*
X134569860Y-86665757D01*
X134569860Y-86665757D02*
X134569860Y-86719632D01*
X134569860Y-86719632D02*
X134542922Y-86800444D01*
X134542922Y-86800444D02*
X134515985Y-86827382D01*
X134515985Y-86827382D02*
X134435173Y-86854319D01*
X134435173Y-86854319D02*
X134381298Y-86854319D01*
X134381298Y-86854319D02*
X134300486Y-86827382D01*
X134300486Y-86827382D02*
X134192736Y-86719632D01*
X134192736Y-86719632D02*
X134111924Y-86692695D01*
X134111924Y-86692695D02*
X134058049Y-86692695D01*
X134058049Y-86692695D02*
X133977237Y-86719632D01*
X133977237Y-86719632D02*
X133869487Y-86827382D01*
X133869487Y-86827382D02*
X133842550Y-86908194D01*
X133842550Y-86908194D02*
X133842550Y-86962069D01*
X133842550Y-86962069D02*
X133869487Y-87042881D01*
X133869487Y-87042881D02*
X133977237Y-87150631D01*
X133977237Y-87150631D02*
X134058049Y-87177568D01*
X134058049Y-87177568D02*
X134111924Y-87177568D01*
X134111924Y-87177568D02*
X134192736Y-87150631D01*
X134192736Y-87150631D02*
X134300486Y-87042881D01*
X134300486Y-87042881D02*
X134327423Y-86962069D01*
X134327423Y-86962069D02*
X134327423Y-86908194D01*
X134327423Y-86908194D02*
X134300486Y-86827382D01*
X101872990Y-98318888D02*
X101846053Y-98238075D01*
X101846053Y-98238075D02*
X101765240Y-98157263D01*
X101765240Y-98157263D02*
X101657491Y-98103388D01*
X101657491Y-98103388D02*
X101549741Y-98103388D01*
X101549741Y-98103388D02*
X101468929Y-98130326D01*
X101468929Y-98130326D02*
X101334242Y-98211138D01*
X101334242Y-98211138D02*
X101253430Y-98291950D01*
X101253430Y-98291950D02*
X101172617Y-98426637D01*
X101172617Y-98426637D02*
X101145680Y-98507449D01*
X101145680Y-98507449D02*
X101145680Y-98615199D01*
X101145680Y-98615199D02*
X101199555Y-98722949D01*
X101199555Y-98722949D02*
X101253430Y-98776823D01*
X101253430Y-98776823D02*
X101361179Y-98830698D01*
X101361179Y-98830698D02*
X101415054Y-98830698D01*
X101415054Y-98830698D02*
X101603616Y-98642136D01*
X101603616Y-98642136D02*
X101495866Y-98534387D01*
X101603616Y-99127010D02*
X102169301Y-98561324D01*
X102169301Y-98561324D02*
X102384801Y-98776823D01*
X102384801Y-98776823D02*
X102411738Y-98857636D01*
X102411738Y-98857636D02*
X102411738Y-98911510D01*
X102411738Y-98911510D02*
X102384801Y-98992323D01*
X102384801Y-98992323D02*
X102303988Y-99073135D01*
X102303988Y-99073135D02*
X102223176Y-99100072D01*
X102223176Y-99100072D02*
X102169301Y-99100072D01*
X102169301Y-99100072D02*
X102088489Y-99073135D01*
X102088489Y-99073135D02*
X101872990Y-98857636D01*
X102681112Y-99073135D02*
X103031298Y-99423321D01*
X103031298Y-99423321D02*
X102627237Y-99450258D01*
X102627237Y-99450258D02*
X102708049Y-99531071D01*
X102708049Y-99531071D02*
X102734987Y-99611883D01*
X102734987Y-99611883D02*
X102734987Y-99665758D01*
X102734987Y-99665758D02*
X102708049Y-99746570D01*
X102708049Y-99746570D02*
X102573362Y-99881257D01*
X102573362Y-99881257D02*
X102492550Y-99908194D01*
X102492550Y-99908194D02*
X102438675Y-99908194D01*
X102438675Y-99908194D02*
X102357863Y-99881257D01*
X102357863Y-99881257D02*
X102196239Y-99719632D01*
X102196239Y-99719632D02*
X102169301Y-99638820D01*
X102169301Y-99638820D02*
X102169301Y-99584945D01*
X134346053Y-98291950D02*
X134319115Y-98211138D01*
X134319115Y-98211138D02*
X134238303Y-98130326D01*
X134238303Y-98130326D02*
X134130553Y-98076451D01*
X134130553Y-98076451D02*
X134022804Y-98076451D01*
X134022804Y-98076451D02*
X133941992Y-98103389D01*
X133941992Y-98103389D02*
X133807305Y-98184201D01*
X133807305Y-98184201D02*
X133726492Y-98265013D01*
X133726492Y-98265013D02*
X133645680Y-98399700D01*
X133645680Y-98399700D02*
X133618743Y-98480512D01*
X133618743Y-98480512D02*
X133618743Y-98588262D01*
X133618743Y-98588262D02*
X133672618Y-98696011D01*
X133672618Y-98696011D02*
X133726492Y-98749886D01*
X133726492Y-98749886D02*
X133834242Y-98803761D01*
X133834242Y-98803761D02*
X133888117Y-98803761D01*
X133888117Y-98803761D02*
X134076679Y-98615199D01*
X134076679Y-98615199D02*
X133968929Y-98507450D01*
X134076679Y-99100072D02*
X134642364Y-98534387D01*
X134642364Y-98534387D02*
X134399927Y-99423321D01*
X134399927Y-99423321D02*
X134965613Y-98857636D01*
X134669301Y-99692695D02*
X135234987Y-99127010D01*
X135234987Y-99127010D02*
X135369674Y-99261697D01*
X135369674Y-99261697D02*
X135423549Y-99369446D01*
X135423549Y-99369446D02*
X135423549Y-99477196D01*
X135423549Y-99477196D02*
X135396611Y-99558008D01*
X135396611Y-99558008D02*
X135315799Y-99692695D01*
X135315799Y-99692695D02*
X135234987Y-99773507D01*
X135234987Y-99773507D02*
X135100300Y-99854319D01*
X135100300Y-99854319D02*
X135019488Y-99881257D01*
X135019488Y-99881257D02*
X134911738Y-99881257D01*
X134911738Y-99881257D02*
X134803988Y-99827382D01*
X134803988Y-99827382D02*
X134669301Y-99692695D01*
X131603615Y-97549513D02*
X131576678Y-97468701D01*
X131576678Y-97468701D02*
X131495866Y-97387889D01*
X131495866Y-97387889D02*
X131388116Y-97334014D01*
X131388116Y-97334014D02*
X131280367Y-97334014D01*
X131280367Y-97334014D02*
X131199554Y-97360951D01*
X131199554Y-97360951D02*
X131064867Y-97441764D01*
X131064867Y-97441764D02*
X130984055Y-97522576D01*
X130984055Y-97522576D02*
X130903243Y-97657263D01*
X130903243Y-97657263D02*
X130876306Y-97738075D01*
X130876306Y-97738075D02*
X130876306Y-97845825D01*
X130876306Y-97845825D02*
X130930180Y-97953574D01*
X130930180Y-97953574D02*
X130984055Y-98007449D01*
X130984055Y-98007449D02*
X131091805Y-98061324D01*
X131091805Y-98061324D02*
X131145680Y-98061324D01*
X131145680Y-98061324D02*
X131334241Y-97872762D01*
X131334241Y-97872762D02*
X131226492Y-97765012D01*
X131334241Y-98357635D02*
X131899927Y-97791950D01*
X131899927Y-97791950D02*
X132115426Y-98007449D01*
X132115426Y-98007449D02*
X132142363Y-98088261D01*
X132142363Y-98088261D02*
X132142363Y-98142136D01*
X132142363Y-98142136D02*
X132115426Y-98222948D01*
X132115426Y-98222948D02*
X132034614Y-98303760D01*
X132034614Y-98303760D02*
X131953802Y-98330698D01*
X131953802Y-98330698D02*
X131899927Y-98330698D01*
X131899927Y-98330698D02*
X131819115Y-98303760D01*
X131819115Y-98303760D02*
X131603615Y-98088261D01*
X132196238Y-99219632D02*
X131872989Y-98896383D01*
X132034614Y-99058008D02*
X132600299Y-98492322D01*
X132600299Y-98492322D02*
X132465612Y-98519260D01*
X132465612Y-98519260D02*
X132357863Y-98519260D01*
X132357863Y-98519260D02*
X132277051Y-98492322D01*
X132950486Y-98842509D02*
X133300672Y-99192695D01*
X133300672Y-99192695D02*
X132896611Y-99219632D01*
X132896611Y-99219632D02*
X132977423Y-99300444D01*
X132977423Y-99300444D02*
X133004361Y-99381257D01*
X133004361Y-99381257D02*
X133004361Y-99435131D01*
X133004361Y-99435131D02*
X132977423Y-99515944D01*
X132977423Y-99515944D02*
X132842736Y-99650631D01*
X132842736Y-99650631D02*
X132761924Y-99677568D01*
X132761924Y-99677568D02*
X132708049Y-99677568D01*
X132708049Y-99677568D02*
X132627237Y-99650631D01*
X132627237Y-99650631D02*
X132465612Y-99489006D01*
X132465612Y-99489006D02*
X132438675Y-99408194D01*
X132438675Y-99408194D02*
X132438675Y-99354319D01*
X139103615Y-98049513D02*
X139076678Y-97968701D01*
X139076678Y-97968701D02*
X138995866Y-97887889D01*
X138995866Y-97887889D02*
X138888116Y-97834014D01*
X138888116Y-97834014D02*
X138780367Y-97834014D01*
X138780367Y-97834014D02*
X138699554Y-97860951D01*
X138699554Y-97860951D02*
X138564867Y-97941764D01*
X138564867Y-97941764D02*
X138484055Y-98022576D01*
X138484055Y-98022576D02*
X138403243Y-98157263D01*
X138403243Y-98157263D02*
X138376306Y-98238075D01*
X138376306Y-98238075D02*
X138376306Y-98345825D01*
X138376306Y-98345825D02*
X138430180Y-98453574D01*
X138430180Y-98453574D02*
X138484055Y-98507449D01*
X138484055Y-98507449D02*
X138591805Y-98561324D01*
X138591805Y-98561324D02*
X138645680Y-98561324D01*
X138645680Y-98561324D02*
X138834241Y-98372762D01*
X138834241Y-98372762D02*
X138726492Y-98265012D01*
X138834241Y-98857635D02*
X139399927Y-98291950D01*
X139399927Y-98291950D02*
X139615426Y-98507449D01*
X139615426Y-98507449D02*
X139642363Y-98588261D01*
X139642363Y-98588261D02*
X139642363Y-98642136D01*
X139642363Y-98642136D02*
X139615426Y-98722948D01*
X139615426Y-98722948D02*
X139534614Y-98803760D01*
X139534614Y-98803760D02*
X139453802Y-98830698D01*
X139453802Y-98830698D02*
X139399927Y-98830698D01*
X139399927Y-98830698D02*
X139319115Y-98803760D01*
X139319115Y-98803760D02*
X139103615Y-98588261D01*
X139696238Y-99719632D02*
X139372989Y-99396383D01*
X139534614Y-99558008D02*
X140100299Y-98992322D01*
X140100299Y-98992322D02*
X139965612Y-99019260D01*
X139965612Y-99019260D02*
X139857863Y-99019260D01*
X139857863Y-99019260D02*
X139777051Y-98992322D01*
X140773735Y-99665757D02*
X140504361Y-99396383D01*
X140504361Y-99396383D02*
X140208049Y-99638820D01*
X140208049Y-99638820D02*
X140261924Y-99638820D01*
X140261924Y-99638820D02*
X140342736Y-99665757D01*
X140342736Y-99665757D02*
X140477423Y-99800444D01*
X140477423Y-99800444D02*
X140504361Y-99881257D01*
X140504361Y-99881257D02*
X140504361Y-99935131D01*
X140504361Y-99935131D02*
X140477423Y-100015944D01*
X140477423Y-100015944D02*
X140342736Y-100150631D01*
X140342736Y-100150631D02*
X140261924Y-100177568D01*
X140261924Y-100177568D02*
X140208049Y-100177568D01*
X140208049Y-100177568D02*
X140127237Y-100150631D01*
X140127237Y-100150631D02*
X139992550Y-100015944D01*
X139992550Y-100015944D02*
X139965612Y-99935131D01*
X139965612Y-99935131D02*
X139965612Y-99881257D01*
X94372990Y-98318888D02*
X94346053Y-98238075D01*
X94346053Y-98238075D02*
X94265240Y-98157263D01*
X94265240Y-98157263D02*
X94157491Y-98103388D01*
X94157491Y-98103388D02*
X94049741Y-98103388D01*
X94049741Y-98103388D02*
X93968929Y-98130326D01*
X93968929Y-98130326D02*
X93834242Y-98211138D01*
X93834242Y-98211138D02*
X93753430Y-98291950D01*
X93753430Y-98291950D02*
X93672617Y-98426637D01*
X93672617Y-98426637D02*
X93645680Y-98507449D01*
X93645680Y-98507449D02*
X93645680Y-98615199D01*
X93645680Y-98615199D02*
X93699555Y-98722949D01*
X93699555Y-98722949D02*
X93753430Y-98776823D01*
X93753430Y-98776823D02*
X93861179Y-98830698D01*
X93861179Y-98830698D02*
X93915054Y-98830698D01*
X93915054Y-98830698D02*
X94103616Y-98642136D01*
X94103616Y-98642136D02*
X93995866Y-98534387D01*
X94103616Y-99127010D02*
X94669301Y-98561324D01*
X94669301Y-98561324D02*
X94884801Y-98776823D01*
X94884801Y-98776823D02*
X94911738Y-98857636D01*
X94911738Y-98857636D02*
X94911738Y-98911510D01*
X94911738Y-98911510D02*
X94884801Y-98992323D01*
X94884801Y-98992323D02*
X94803988Y-99073135D01*
X94803988Y-99073135D02*
X94723176Y-99100072D01*
X94723176Y-99100072D02*
X94669301Y-99100072D01*
X94669301Y-99100072D02*
X94588489Y-99073135D01*
X94588489Y-99073135D02*
X94372990Y-98857636D01*
X94965613Y-99989006D02*
X94642364Y-99665758D01*
X94803988Y-99827382D02*
X95369674Y-99261697D01*
X95369674Y-99261697D02*
X95234987Y-99288634D01*
X95234987Y-99288634D02*
X95127237Y-99288634D01*
X95127237Y-99288634D02*
X95046425Y-99261697D01*
X97296053Y-85291950D02*
X97269115Y-85211138D01*
X97269115Y-85211138D02*
X97188303Y-85130326D01*
X97188303Y-85130326D02*
X97080553Y-85076451D01*
X97080553Y-85076451D02*
X96972804Y-85076451D01*
X96972804Y-85076451D02*
X96891992Y-85103389D01*
X96891992Y-85103389D02*
X96757305Y-85184201D01*
X96757305Y-85184201D02*
X96676492Y-85265013D01*
X96676492Y-85265013D02*
X96595680Y-85399700D01*
X96595680Y-85399700D02*
X96568743Y-85480512D01*
X96568743Y-85480512D02*
X96568743Y-85588262D01*
X96568743Y-85588262D02*
X96622618Y-85696011D01*
X96622618Y-85696011D02*
X96676492Y-85749886D01*
X96676492Y-85749886D02*
X96784242Y-85803761D01*
X96784242Y-85803761D02*
X96838117Y-85803761D01*
X96838117Y-85803761D02*
X97026679Y-85615199D01*
X97026679Y-85615199D02*
X96918929Y-85507450D01*
X97026679Y-86100072D02*
X97592364Y-85534387D01*
X97592364Y-85534387D02*
X97349927Y-86423321D01*
X97349927Y-86423321D02*
X97915613Y-85857636D01*
X97619301Y-86692695D02*
X98184987Y-86127010D01*
X98184987Y-86127010D02*
X98319674Y-86261697D01*
X98319674Y-86261697D02*
X98373549Y-86369446D01*
X98373549Y-86369446D02*
X98373549Y-86477196D01*
X98373549Y-86477196D02*
X98346611Y-86558008D01*
X98346611Y-86558008D02*
X98265799Y-86692695D01*
X98265799Y-86692695D02*
X98184987Y-86773507D01*
X98184987Y-86773507D02*
X98050300Y-86854319D01*
X98050300Y-86854319D02*
X97969488Y-86881257D01*
X97969488Y-86881257D02*
X97861738Y-86881257D01*
X97861738Y-86881257D02*
X97753988Y-86827382D01*
X97753988Y-86827382D02*
X97619301Y-86692695D01*
X102453616Y-84995638D02*
X102803802Y-85345825D01*
X102803802Y-85345825D02*
X102399741Y-85372762D01*
X102399741Y-85372762D02*
X102480553Y-85453574D01*
X102480553Y-85453574D02*
X102507490Y-85534386D01*
X102507490Y-85534386D02*
X102507490Y-85588261D01*
X102507490Y-85588261D02*
X102480553Y-85669073D01*
X102480553Y-85669073D02*
X102345866Y-85803760D01*
X102345866Y-85803760D02*
X102265054Y-85830698D01*
X102265054Y-85830698D02*
X102211179Y-85830698D01*
X102211179Y-85830698D02*
X102130367Y-85803760D01*
X102130367Y-85803760D02*
X101968742Y-85642136D01*
X101968742Y-85642136D02*
X101941805Y-85561324D01*
X101941805Y-85561324D02*
X101941805Y-85507449D01*
X102965426Y-85507449D02*
X102588303Y-86261696D01*
X102588303Y-86261696D02*
X103342550Y-85884573D01*
X103477237Y-86019260D02*
X103827423Y-86369446D01*
X103827423Y-86369446D02*
X103423362Y-86396383D01*
X103423362Y-86396383D02*
X103504174Y-86477195D01*
X103504174Y-86477195D02*
X103531112Y-86558008D01*
X103531112Y-86558008D02*
X103531112Y-86611882D01*
X103531112Y-86611882D02*
X103504174Y-86692695D01*
X103504174Y-86692695D02*
X103369487Y-86827382D01*
X103369487Y-86827382D02*
X103288675Y-86854319D01*
X103288675Y-86854319D02*
X103234800Y-86854319D01*
X103234800Y-86854319D02*
X103153988Y-86827382D01*
X103153988Y-86827382D02*
X102992364Y-86665757D01*
X102992364Y-86665757D02*
X102965426Y-86584945D01*
X102965426Y-86584945D02*
X102965426Y-86531070D01*
X116872990Y-98318888D02*
X116846053Y-98238075D01*
X116846053Y-98238075D02*
X116765240Y-98157263D01*
X116765240Y-98157263D02*
X116657491Y-98103388D01*
X116657491Y-98103388D02*
X116549741Y-98103388D01*
X116549741Y-98103388D02*
X116468929Y-98130326D01*
X116468929Y-98130326D02*
X116334242Y-98211138D01*
X116334242Y-98211138D02*
X116253430Y-98291950D01*
X116253430Y-98291950D02*
X116172617Y-98426637D01*
X116172617Y-98426637D02*
X116145680Y-98507449D01*
X116145680Y-98507449D02*
X116145680Y-98615199D01*
X116145680Y-98615199D02*
X116199555Y-98722949D01*
X116199555Y-98722949D02*
X116253430Y-98776823D01*
X116253430Y-98776823D02*
X116361179Y-98830698D01*
X116361179Y-98830698D02*
X116415054Y-98830698D01*
X116415054Y-98830698D02*
X116603616Y-98642136D01*
X116603616Y-98642136D02*
X116495866Y-98534387D01*
X116603616Y-99127010D02*
X117169301Y-98561324D01*
X117169301Y-98561324D02*
X117384801Y-98776823D01*
X117384801Y-98776823D02*
X117411738Y-98857636D01*
X117411738Y-98857636D02*
X117411738Y-98911510D01*
X117411738Y-98911510D02*
X117384801Y-98992323D01*
X117384801Y-98992323D02*
X117303988Y-99073135D01*
X117303988Y-99073135D02*
X117223176Y-99100072D01*
X117223176Y-99100072D02*
X117169301Y-99100072D01*
X117169301Y-99100072D02*
X117088489Y-99073135D01*
X117088489Y-99073135D02*
X116872990Y-98857636D01*
X117573362Y-99450258D02*
X117546425Y-99369446D01*
X117546425Y-99369446D02*
X117546425Y-99315571D01*
X117546425Y-99315571D02*
X117573362Y-99234759D01*
X117573362Y-99234759D02*
X117600300Y-99207822D01*
X117600300Y-99207822D02*
X117681112Y-99180884D01*
X117681112Y-99180884D02*
X117734987Y-99180884D01*
X117734987Y-99180884D02*
X117815799Y-99207822D01*
X117815799Y-99207822D02*
X117923549Y-99315571D01*
X117923549Y-99315571D02*
X117950486Y-99396384D01*
X117950486Y-99396384D02*
X117950486Y-99450258D01*
X117950486Y-99450258D02*
X117923549Y-99531071D01*
X117923549Y-99531071D02*
X117896611Y-99558008D01*
X117896611Y-99558008D02*
X117815799Y-99584945D01*
X117815799Y-99584945D02*
X117761924Y-99584945D01*
X117761924Y-99584945D02*
X117681112Y-99558008D01*
X117681112Y-99558008D02*
X117573362Y-99450258D01*
X117573362Y-99450258D02*
X117492550Y-99423321D01*
X117492550Y-99423321D02*
X117438675Y-99423321D01*
X117438675Y-99423321D02*
X117357863Y-99450258D01*
X117357863Y-99450258D02*
X117250114Y-99558008D01*
X117250114Y-99558008D02*
X117223176Y-99638820D01*
X117223176Y-99638820D02*
X117223176Y-99692695D01*
X117223176Y-99692695D02*
X117250114Y-99773507D01*
X117250114Y-99773507D02*
X117357863Y-99881257D01*
X117357863Y-99881257D02*
X117438675Y-99908194D01*
X117438675Y-99908194D02*
X117492550Y-99908194D01*
X117492550Y-99908194D02*
X117573362Y-99881257D01*
X117573362Y-99881257D02*
X117681112Y-99773507D01*
X117681112Y-99773507D02*
X117708049Y-99692695D01*
X117708049Y-99692695D02*
X117708049Y-99638820D01*
X117708049Y-99638820D02*
X117681112Y-99558008D01*
X106872990Y-98318888D02*
X106846053Y-98238075D01*
X106846053Y-98238075D02*
X106765240Y-98157263D01*
X106765240Y-98157263D02*
X106657491Y-98103388D01*
X106657491Y-98103388D02*
X106549741Y-98103388D01*
X106549741Y-98103388D02*
X106468929Y-98130326D01*
X106468929Y-98130326D02*
X106334242Y-98211138D01*
X106334242Y-98211138D02*
X106253430Y-98291950D01*
X106253430Y-98291950D02*
X106172617Y-98426637D01*
X106172617Y-98426637D02*
X106145680Y-98507449D01*
X106145680Y-98507449D02*
X106145680Y-98615199D01*
X106145680Y-98615199D02*
X106199555Y-98722949D01*
X106199555Y-98722949D02*
X106253430Y-98776823D01*
X106253430Y-98776823D02*
X106361179Y-98830698D01*
X106361179Y-98830698D02*
X106415054Y-98830698D01*
X106415054Y-98830698D02*
X106603616Y-98642136D01*
X106603616Y-98642136D02*
X106495866Y-98534387D01*
X106603616Y-99127010D02*
X107169301Y-98561324D01*
X107169301Y-98561324D02*
X107384801Y-98776823D01*
X107384801Y-98776823D02*
X107411738Y-98857636D01*
X107411738Y-98857636D02*
X107411738Y-98911510D01*
X107411738Y-98911510D02*
X107384801Y-98992323D01*
X107384801Y-98992323D02*
X107303988Y-99073135D01*
X107303988Y-99073135D02*
X107223176Y-99100072D01*
X107223176Y-99100072D02*
X107169301Y-99100072D01*
X107169301Y-99100072D02*
X107088489Y-99073135D01*
X107088489Y-99073135D02*
X106872990Y-98857636D01*
X108004361Y-99396384D02*
X107734987Y-99127010D01*
X107734987Y-99127010D02*
X107438675Y-99369446D01*
X107438675Y-99369446D02*
X107492550Y-99369446D01*
X107492550Y-99369446D02*
X107573362Y-99396384D01*
X107573362Y-99396384D02*
X107708049Y-99531071D01*
X107708049Y-99531071D02*
X107734987Y-99611883D01*
X107734987Y-99611883D02*
X107734987Y-99665758D01*
X107734987Y-99665758D02*
X107708049Y-99746570D01*
X107708049Y-99746570D02*
X107573362Y-99881257D01*
X107573362Y-99881257D02*
X107492550Y-99908194D01*
X107492550Y-99908194D02*
X107438675Y-99908194D01*
X107438675Y-99908194D02*
X107357863Y-99881257D01*
X107357863Y-99881257D02*
X107223176Y-99746570D01*
X107223176Y-99746570D02*
X107196239Y-99665758D01*
X107196239Y-99665758D02*
X107196239Y-99611883D01*
X130073615Y-85049513D02*
X130046678Y-84968701D01*
X130046678Y-84968701D02*
X129965866Y-84887889D01*
X129965866Y-84887889D02*
X129858116Y-84834014D01*
X129858116Y-84834014D02*
X129750367Y-84834014D01*
X129750367Y-84834014D02*
X129669554Y-84860951D01*
X129669554Y-84860951D02*
X129534867Y-84941764D01*
X129534867Y-84941764D02*
X129454055Y-85022576D01*
X129454055Y-85022576D02*
X129373243Y-85157263D01*
X129373243Y-85157263D02*
X129346306Y-85238075D01*
X129346306Y-85238075D02*
X129346306Y-85345825D01*
X129346306Y-85345825D02*
X129400180Y-85453574D01*
X129400180Y-85453574D02*
X129454055Y-85507449D01*
X129454055Y-85507449D02*
X129561805Y-85561324D01*
X129561805Y-85561324D02*
X129615680Y-85561324D01*
X129615680Y-85561324D02*
X129804241Y-85372762D01*
X129804241Y-85372762D02*
X129696492Y-85265012D01*
X129804241Y-85857635D02*
X130369927Y-85291950D01*
X130369927Y-85291950D02*
X130585426Y-85507449D01*
X130585426Y-85507449D02*
X130612363Y-85588261D01*
X130612363Y-85588261D02*
X130612363Y-85642136D01*
X130612363Y-85642136D02*
X130585426Y-85722948D01*
X130585426Y-85722948D02*
X130504614Y-85803760D01*
X130504614Y-85803760D02*
X130423802Y-85830698D01*
X130423802Y-85830698D02*
X130369927Y-85830698D01*
X130369927Y-85830698D02*
X130289115Y-85803760D01*
X130289115Y-85803760D02*
X130073615Y-85588261D01*
X130666238Y-86719632D02*
X130342989Y-86396383D01*
X130504614Y-86558008D02*
X131070299Y-85992322D01*
X131070299Y-85992322D02*
X130935612Y-86019260D01*
X130935612Y-86019260D02*
X130827863Y-86019260D01*
X130827863Y-86019260D02*
X130747051Y-85992322D01*
X130935612Y-86989006D02*
X131043362Y-87096756D01*
X131043362Y-87096756D02*
X131124174Y-87123693D01*
X131124174Y-87123693D02*
X131178049Y-87123693D01*
X131178049Y-87123693D02*
X131312736Y-87096756D01*
X131312736Y-87096756D02*
X131447423Y-87015944D01*
X131447423Y-87015944D02*
X131662922Y-86800444D01*
X131662922Y-86800444D02*
X131689860Y-86719632D01*
X131689860Y-86719632D02*
X131689860Y-86665757D01*
X131689860Y-86665757D02*
X131662922Y-86584945D01*
X131662922Y-86584945D02*
X131555173Y-86477196D01*
X131555173Y-86477196D02*
X131474361Y-86450258D01*
X131474361Y-86450258D02*
X131420486Y-86450258D01*
X131420486Y-86450258D02*
X131339673Y-86477196D01*
X131339673Y-86477196D02*
X131204986Y-86611883D01*
X131204986Y-86611883D02*
X131178049Y-86692695D01*
X131178049Y-86692695D02*
X131178049Y-86746570D01*
X131178049Y-86746570D02*
X131204986Y-86827382D01*
X131204986Y-86827382D02*
X131312736Y-86935131D01*
X131312736Y-86935131D02*
X131393548Y-86962069D01*
X131393548Y-86962069D02*
X131447423Y-86962069D01*
X131447423Y-86962069D02*
X131528235Y-86935131D01*
X124103615Y-98049513D02*
X124076678Y-97968701D01*
X124076678Y-97968701D02*
X123995866Y-97887889D01*
X123995866Y-97887889D02*
X123888116Y-97834014D01*
X123888116Y-97834014D02*
X123780367Y-97834014D01*
X123780367Y-97834014D02*
X123699554Y-97860951D01*
X123699554Y-97860951D02*
X123564867Y-97941764D01*
X123564867Y-97941764D02*
X123484055Y-98022576D01*
X123484055Y-98022576D02*
X123403243Y-98157263D01*
X123403243Y-98157263D02*
X123376306Y-98238075D01*
X123376306Y-98238075D02*
X123376306Y-98345825D01*
X123376306Y-98345825D02*
X123430180Y-98453574D01*
X123430180Y-98453574D02*
X123484055Y-98507449D01*
X123484055Y-98507449D02*
X123591805Y-98561324D01*
X123591805Y-98561324D02*
X123645680Y-98561324D01*
X123645680Y-98561324D02*
X123834241Y-98372762D01*
X123834241Y-98372762D02*
X123726492Y-98265012D01*
X123834241Y-98857635D02*
X124399927Y-98291950D01*
X124399927Y-98291950D02*
X124615426Y-98507449D01*
X124615426Y-98507449D02*
X124642363Y-98588261D01*
X124642363Y-98588261D02*
X124642363Y-98642136D01*
X124642363Y-98642136D02*
X124615426Y-98722948D01*
X124615426Y-98722948D02*
X124534614Y-98803760D01*
X124534614Y-98803760D02*
X124453802Y-98830698D01*
X124453802Y-98830698D02*
X124399927Y-98830698D01*
X124399927Y-98830698D02*
X124319115Y-98803760D01*
X124319115Y-98803760D02*
X124103615Y-98588261D01*
X124696238Y-99719632D02*
X124372989Y-99396383D01*
X124534614Y-99558008D02*
X125100299Y-98992322D01*
X125100299Y-98992322D02*
X124965612Y-99019260D01*
X124965612Y-99019260D02*
X124857863Y-99019260D01*
X124857863Y-99019260D02*
X124777051Y-98992322D01*
X125612110Y-99504133D02*
X125665985Y-99558008D01*
X125665985Y-99558008D02*
X125692922Y-99638820D01*
X125692922Y-99638820D02*
X125692922Y-99692695D01*
X125692922Y-99692695D02*
X125665985Y-99773507D01*
X125665985Y-99773507D02*
X125585173Y-99908194D01*
X125585173Y-99908194D02*
X125450486Y-100042881D01*
X125450486Y-100042881D02*
X125315799Y-100123693D01*
X125315799Y-100123693D02*
X125234986Y-100150631D01*
X125234986Y-100150631D02*
X125181112Y-100150631D01*
X125181112Y-100150631D02*
X125100299Y-100123693D01*
X125100299Y-100123693D02*
X125046425Y-100069818D01*
X125046425Y-100069818D02*
X125019487Y-99989006D01*
X125019487Y-99989006D02*
X125019487Y-99935131D01*
X125019487Y-99935131D02*
X125046425Y-99854319D01*
X125046425Y-99854319D02*
X125127237Y-99719632D01*
X125127237Y-99719632D02*
X125261924Y-99584945D01*
X125261924Y-99584945D02*
X125396611Y-99504133D01*
X125396611Y-99504133D02*
X125477423Y-99477196D01*
X125477423Y-99477196D02*
X125531298Y-99477196D01*
X125531298Y-99477196D02*
X125612110Y-99504133D01*
X125003615Y-85049513D02*
X124976678Y-84968701D01*
X124976678Y-84968701D02*
X124895866Y-84887889D01*
X124895866Y-84887889D02*
X124788116Y-84834014D01*
X124788116Y-84834014D02*
X124680367Y-84834014D01*
X124680367Y-84834014D02*
X124599554Y-84860951D01*
X124599554Y-84860951D02*
X124464867Y-84941764D01*
X124464867Y-84941764D02*
X124384055Y-85022576D01*
X124384055Y-85022576D02*
X124303243Y-85157263D01*
X124303243Y-85157263D02*
X124276306Y-85238075D01*
X124276306Y-85238075D02*
X124276306Y-85345825D01*
X124276306Y-85345825D02*
X124330180Y-85453574D01*
X124330180Y-85453574D02*
X124384055Y-85507449D01*
X124384055Y-85507449D02*
X124491805Y-85561324D01*
X124491805Y-85561324D02*
X124545680Y-85561324D01*
X124545680Y-85561324D02*
X124734241Y-85372762D01*
X124734241Y-85372762D02*
X124626492Y-85265012D01*
X124734241Y-85857635D02*
X125299927Y-85291950D01*
X125299927Y-85291950D02*
X125515426Y-85507449D01*
X125515426Y-85507449D02*
X125542363Y-85588261D01*
X125542363Y-85588261D02*
X125542363Y-85642136D01*
X125542363Y-85642136D02*
X125515426Y-85722948D01*
X125515426Y-85722948D02*
X125434614Y-85803760D01*
X125434614Y-85803760D02*
X125353802Y-85830698D01*
X125353802Y-85830698D02*
X125299927Y-85830698D01*
X125299927Y-85830698D02*
X125219115Y-85803760D01*
X125219115Y-85803760D02*
X125003615Y-85588261D01*
X125784800Y-85884573D02*
X125838675Y-85884573D01*
X125838675Y-85884573D02*
X125919487Y-85911510D01*
X125919487Y-85911510D02*
X126054174Y-86046197D01*
X126054174Y-86046197D02*
X126081112Y-86127009D01*
X126081112Y-86127009D02*
X126081112Y-86180884D01*
X126081112Y-86180884D02*
X126054174Y-86261696D01*
X126054174Y-86261696D02*
X126000299Y-86315571D01*
X126000299Y-86315571D02*
X125892550Y-86369446D01*
X125892550Y-86369446D02*
X125246052Y-86369446D01*
X125246052Y-86369446D02*
X125596238Y-86719632D01*
X126134986Y-87258380D02*
X125811738Y-86935131D01*
X125973362Y-87096756D02*
X126539048Y-86531070D01*
X126539048Y-86531070D02*
X126404361Y-86558008D01*
X126404361Y-86558008D02*
X126296611Y-86558008D01*
X126296611Y-86558008D02*
X126215799Y-86531070D01*
D11*
%TO.C,U2-Motor-Control1*%
X143040000Y-106780000D02*
X143040000Y-107140000D01*
X136960001Y-106780000D02*
X130880000Y-106780000D01*
X130880000Y-106780000D02*
X130880000Y-121679999D01*
X149120000Y-106780001D02*
X143040000Y-106780000D01*
X143040000Y-107140000D02*
X136960001Y-107140000D01*
X136960001Y-107140000D02*
X136960001Y-106780000D01*
X130880000Y-121679999D02*
X149120000Y-121680000D01*
X149120000Y-121680000D02*
X149120000Y-106780001D01*
%TO.C,EXT1*%
X143630000Y-81930000D02*
X144960000Y-81930000D01*
X143630000Y-83260000D02*
X143630000Y-81930000D01*
X143630000Y-84530000D02*
X143630000Y-99830000D01*
X143630000Y-84530000D02*
X146230000Y-84530000D01*
X143630000Y-99830000D02*
X148830000Y-99830000D01*
X146230000Y-81930000D02*
X148830000Y-81930000D01*
X146230000Y-84530000D02*
X146230000Y-81930000D01*
X148830000Y-81930000D02*
X148830000Y-99830000D01*
%TO.C,C1*%
X94975000Y-104445225D02*
X94975000Y-104945225D01*
X95225000Y-104695225D02*
X94725000Y-104695225D01*
X96080000Y-107250000D02*
X90920000Y-107250000D01*
X96080000Y-107290000D02*
X90920000Y-107290000D01*
X96079000Y-107330000D02*
X90921000Y-107330000D01*
X96078000Y-107370000D02*
X90922000Y-107370000D01*
X96076000Y-107410000D02*
X90924000Y-107410000D01*
X96073000Y-107450000D02*
X90927000Y-107450000D01*
X96069000Y-107490000D02*
X94540000Y-107490000D01*
X92460000Y-107490000D02*
X90931000Y-107490000D01*
X96065000Y-107530000D02*
X94540000Y-107530000D01*
X92460000Y-107530000D02*
X90935000Y-107530000D01*
X96061000Y-107570000D02*
X94540000Y-107570000D01*
X92460000Y-107570000D02*
X90939000Y-107570000D01*
X96056000Y-107610000D02*
X94540000Y-107610000D01*
X92460000Y-107610000D02*
X90944000Y-107610000D01*
X96050000Y-107650000D02*
X94540000Y-107650000D01*
X92460000Y-107650000D02*
X90950000Y-107650000D01*
X96043000Y-107690000D02*
X94540000Y-107690000D01*
X92460000Y-107690000D02*
X90957000Y-107690000D01*
X96036000Y-107730000D02*
X94540000Y-107730000D01*
X92460000Y-107730000D02*
X90964000Y-107730000D01*
X96028000Y-107770000D02*
X94540000Y-107770000D01*
X92460000Y-107770000D02*
X90972000Y-107770000D01*
X96020000Y-107810000D02*
X94540000Y-107810000D01*
X92460000Y-107810000D02*
X90980000Y-107810000D01*
X96011000Y-107850000D02*
X94540000Y-107850000D01*
X92460000Y-107850000D02*
X90989000Y-107850000D01*
X96001000Y-107890000D02*
X94540000Y-107890000D01*
X92460000Y-107890000D02*
X90999000Y-107890000D01*
X95991000Y-107930000D02*
X94540000Y-107930000D01*
X92460000Y-107930000D02*
X91009000Y-107930000D01*
X95980000Y-107971000D02*
X94540000Y-107971000D01*
X92460000Y-107971000D02*
X91020000Y-107971000D01*
X95968000Y-108011000D02*
X94540000Y-108011000D01*
X92460000Y-108011000D02*
X91032000Y-108011000D01*
X95955000Y-108051000D02*
X94540000Y-108051000D01*
X92460000Y-108051000D02*
X91045000Y-108051000D01*
X95942000Y-108091000D02*
X94540000Y-108091000D01*
X92460000Y-108091000D02*
X91058000Y-108091000D01*
X95928000Y-108131000D02*
X94540000Y-108131000D01*
X92460000Y-108131000D02*
X91072000Y-108131000D01*
X95914000Y-108171000D02*
X94540000Y-108171000D01*
X92460000Y-108171000D02*
X91086000Y-108171000D01*
X95898000Y-108211000D02*
X94540000Y-108211000D01*
X92460000Y-108211000D02*
X91102000Y-108211000D01*
X95882000Y-108251000D02*
X94540000Y-108251000D01*
X92460000Y-108251000D02*
X91118000Y-108251000D01*
X95865000Y-108291000D02*
X94540000Y-108291000D01*
X92460000Y-108291000D02*
X91135000Y-108291000D01*
X95848000Y-108331000D02*
X94540000Y-108331000D01*
X92460000Y-108331000D02*
X91152000Y-108331000D01*
X95829000Y-108371000D02*
X94540000Y-108371000D01*
X92460000Y-108371000D02*
X91171000Y-108371000D01*
X95810000Y-108411000D02*
X94540000Y-108411000D01*
X92460000Y-108411000D02*
X91190000Y-108411000D01*
X95790000Y-108451000D02*
X94540000Y-108451000D01*
X92460000Y-108451000D02*
X91210000Y-108451000D01*
X95768000Y-108491000D02*
X94540000Y-108491000D01*
X92460000Y-108491000D02*
X91232000Y-108491000D01*
X95747000Y-108531000D02*
X94540000Y-108531000D01*
X92460000Y-108531000D02*
X91253000Y-108531000D01*
X95724000Y-108571000D02*
X94540000Y-108571000D01*
X92460000Y-108571000D02*
X91276000Y-108571000D01*
X95700000Y-108611000D02*
X94540000Y-108611000D01*
X92460000Y-108611000D02*
X91300000Y-108611000D01*
X95675000Y-108651000D02*
X94540000Y-108651000D01*
X92460000Y-108651000D02*
X91325000Y-108651000D01*
X95649000Y-108691000D02*
X94540000Y-108691000D01*
X92460000Y-108691000D02*
X91351000Y-108691000D01*
X95622000Y-108731000D02*
X94540000Y-108731000D01*
X92460000Y-108731000D02*
X91378000Y-108731000D01*
X95595000Y-108771000D02*
X94540000Y-108771000D01*
X92460000Y-108771000D02*
X91405000Y-108771000D01*
X95565000Y-108811000D02*
X94540000Y-108811000D01*
X92460000Y-108811000D02*
X91435000Y-108811000D01*
X95535000Y-108851000D02*
X94540000Y-108851000D01*
X92460000Y-108851000D02*
X91465000Y-108851000D01*
X95504000Y-108891000D02*
X94540000Y-108891000D01*
X92460000Y-108891000D02*
X91496000Y-108891000D01*
X95471000Y-108931000D02*
X94540000Y-108931000D01*
X92460000Y-108931000D02*
X91529000Y-108931000D01*
X95437000Y-108971000D02*
X94540000Y-108971000D01*
X92460000Y-108971000D02*
X91563000Y-108971000D01*
X95401000Y-109011000D02*
X94540000Y-109011000D01*
X92460000Y-109011000D02*
X91599000Y-109011000D01*
X95364000Y-109051000D02*
X94540000Y-109051000D01*
X92460000Y-109051000D02*
X91636000Y-109051000D01*
X95326000Y-109091000D02*
X94540000Y-109091000D01*
X92460000Y-109091000D02*
X91674000Y-109091000D01*
X95285000Y-109131000D02*
X94540000Y-109131000D01*
X92460000Y-109131000D02*
X91715000Y-109131000D01*
X95243000Y-109171000D02*
X94540000Y-109171000D01*
X92460000Y-109171000D02*
X91757000Y-109171000D01*
X95199000Y-109211000D02*
X94540000Y-109211000D01*
X92460000Y-109211000D02*
X91801000Y-109211000D01*
X95153000Y-109251000D02*
X94540000Y-109251000D01*
X92460000Y-109251000D02*
X91847000Y-109251000D01*
X95105000Y-109291000D02*
X94540000Y-109291000D01*
X92460000Y-109291000D02*
X91895000Y-109291000D01*
X95054000Y-109331000D02*
X94540000Y-109331000D01*
X92460000Y-109331000D02*
X91946000Y-109331000D01*
X95000000Y-109371000D02*
X94540000Y-109371000D01*
X92460000Y-109371000D02*
X92000000Y-109371000D01*
X94943000Y-109411000D02*
X94540000Y-109411000D01*
X92460000Y-109411000D02*
X92057000Y-109411000D01*
X94883000Y-109451000D02*
X94540000Y-109451000D01*
X92460000Y-109451000D02*
X92117000Y-109451000D01*
X94819000Y-109491000D02*
X94540000Y-109491000D01*
X92460000Y-109491000D02*
X92181000Y-109491000D01*
X94751000Y-109531000D02*
X94540000Y-109531000D01*
X92460000Y-109531000D02*
X92249000Y-109531000D01*
X94678000Y-109571000D02*
X92322000Y-109571000D01*
X94598000Y-109611000D02*
X92402000Y-109611000D01*
X94511000Y-109651000D02*
X92489000Y-109651000D01*
X94415000Y-109691000D02*
X92585000Y-109691000D01*
X94305000Y-109731000D02*
X92695000Y-109731000D01*
X94177000Y-109771000D02*
X92823000Y-109771000D01*
X94018000Y-109811000D02*
X92982000Y-109811000D01*
X93784000Y-109851000D02*
X93216000Y-109851000D01*
X96120000Y-107250000D02*
G75*
G03*
X96120000Y-107250000I-2620000J0D01*
G01*
%TO.C,J8-Pot1*%
X107770000Y-109670000D02*
X112910000Y-109670000D01*
X105170000Y-109670000D02*
X106500000Y-109670000D01*
X105170000Y-111000000D02*
X105170000Y-109670000D01*
X112910000Y-112330000D02*
X112910000Y-109670000D01*
X107770000Y-112330000D02*
X107770000Y-109670000D01*
X107770000Y-112330000D02*
X112910000Y-112330000D01*
%TO.C,J5-Servo1*%
X121830000Y-107291000D02*
X121830000Y-112431000D01*
X119170000Y-112431000D02*
X121830000Y-112431000D01*
X119170000Y-107291000D02*
X121830000Y-107291000D01*
X119170000Y-107291000D02*
X119170000Y-112431000D01*
X119170000Y-106021000D02*
X119170000Y-104691000D01*
X119170000Y-104691000D02*
X120500000Y-104691000D01*
%TO.C,J6-ECS1*%
X114840000Y-104689000D02*
X116170000Y-104689000D01*
X114840000Y-106019000D02*
X114840000Y-104689000D01*
X114840000Y-107289000D02*
X114840000Y-112429000D01*
X114840000Y-107289000D02*
X117500000Y-107289000D01*
X114840000Y-112429000D02*
X117500000Y-112429000D01*
X117500000Y-107289000D02*
X117500000Y-112429000D01*
%TO.C,J4*%
X123670000Y-107170000D02*
X125000000Y-107170000D01*
X123670000Y-108500000D02*
X123670000Y-107170000D01*
X123670000Y-109770000D02*
X123670000Y-112370000D01*
X123670000Y-109770000D02*
X126330000Y-109770000D01*
X123670000Y-112370000D02*
X126330000Y-112370000D01*
X126330000Y-109770000D02*
X126330000Y-112370000D01*
%TO.C,J7-Pot2*%
X98745000Y-109645000D02*
X103885000Y-109645000D01*
X96145000Y-109645000D02*
X97475000Y-109645000D01*
X96145000Y-110975000D02*
X96145000Y-109645000D01*
X103885000Y-112305000D02*
X103885000Y-109645000D01*
X98745000Y-112305000D02*
X98745000Y-109645000D01*
X98745000Y-112305000D02*
X103885000Y-112305000D01*
%TO.C,J3-Motor1*%
X143130000Y-104830000D02*
X143130000Y-103500000D01*
X144460000Y-104830000D02*
X143130000Y-104830000D01*
X145730000Y-104830000D02*
X148330000Y-104830000D01*
X145730000Y-104830000D02*
X145730000Y-102170000D01*
X148330000Y-104830000D02*
X148330000Y-102170000D01*
X145730000Y-102170000D02*
X148330000Y-102170000D01*
%TO.C,U1-RPI-Pico1*%
X91000000Y-103000000D02*
X91300000Y-103000000D01*
X91000000Y-103000000D02*
X91000000Y-82000000D01*
X93400000Y-103000000D02*
X93800000Y-103000000D01*
X93667000Y-103000000D02*
X93667000Y-99993000D01*
X96000000Y-103000000D02*
X96400000Y-103000000D01*
X98500000Y-103000000D02*
X98900000Y-103000000D01*
X101100000Y-103000000D02*
X101500000Y-103000000D01*
X103600000Y-103000000D02*
X104000000Y-103000000D01*
X106100000Y-103000000D02*
X106500000Y-103000000D01*
X108700000Y-103000000D02*
X109100000Y-103000000D01*
X111200000Y-103000000D02*
X111600000Y-103000000D01*
X113800000Y-103000000D02*
X114200000Y-103000000D01*
X116300000Y-103000000D02*
X116700000Y-103000000D01*
X118800000Y-103000000D02*
X119200000Y-103000000D01*
X121400000Y-103000000D02*
X121800000Y-103000000D01*
X123900000Y-103000000D02*
X124300000Y-103000000D01*
X126500000Y-103000000D02*
X126900000Y-103000000D01*
X129000000Y-103000000D02*
X129400000Y-103000000D01*
X131600000Y-103000000D02*
X132000000Y-103000000D01*
X134100000Y-103000000D02*
X134500000Y-103000000D01*
X136600000Y-103000000D02*
X137000000Y-103000000D01*
X139200000Y-103000000D02*
X139600000Y-103000000D01*
X93667000Y-99993000D02*
X91000000Y-99993000D01*
X142000000Y-96200000D02*
X142000000Y-103000000D01*
X142000000Y-94000000D02*
X142000000Y-93600000D01*
X142000000Y-91400000D02*
X142000000Y-91000000D01*
X91000000Y-82000000D02*
X91300000Y-82000000D01*
X93400000Y-82000000D02*
X93800000Y-82000000D01*
X96000000Y-82000000D02*
X96400000Y-82000000D01*
X98500000Y-82000000D02*
X98900000Y-82000000D01*
X101100000Y-82000000D02*
X101500000Y-82000000D01*
X103600000Y-82000000D02*
X104000000Y-82000000D01*
X106100000Y-82000000D02*
X106500000Y-82000000D01*
X108700000Y-82000000D02*
X109100000Y-82000000D01*
X111200000Y-82000000D02*
X111600000Y-82000000D01*
X113800000Y-82000000D02*
X114200000Y-82000000D01*
X116300000Y-82000000D02*
X116700000Y-82000000D01*
X118800000Y-82000000D02*
X119200000Y-82000000D01*
X121400000Y-82000000D02*
X121800000Y-82000000D01*
X123900000Y-82000000D02*
X124300000Y-82000000D01*
X126500000Y-82000000D02*
X126900000Y-82000000D01*
X129000000Y-82000000D02*
X129400000Y-82000000D01*
X131600000Y-82000000D02*
X132000000Y-82000000D01*
X134100000Y-82000000D02*
X134500000Y-82000000D01*
X136600000Y-82000000D02*
X137000000Y-82000000D01*
X139200000Y-82000000D02*
X139600000Y-82000000D01*
X142000000Y-82000000D02*
X142000000Y-88800000D01*
%TD*%
M02*
