%TF.GenerationSoftware,KiCad,Pcbnew,7.0.1*%
%TF.CreationDate,2023-08-24T13:32:00+02:00*%
%TF.ProjectId,gemma20Pico,67656d6d-6132-4305-9069-636f2e6b6963,1.3*%
%TF.SameCoordinates,Original*%
%TF.FileFunction,Soldermask,Bot*%
%TF.FilePolarity,Negative*%
%FSLAX46Y46*%
G04 Gerber Fmt 4.6, Leading zero omitted, Abs format (unit mm)*
G04 Created by KiCad (PCBNEW 7.0.1) date 2023-08-24 13:32:00*
%MOMM*%
%LPD*%
G01*
G04 APERTURE LIST*
%ADD10O,1.200000X2.000000*%
%ADD11O,2.000000X1.200000*%
%ADD12R,1.700000X1.700000*%
%ADD13O,1.700000X1.700000*%
%ADD14C,3.200000*%
%ADD15R,1.600000X1.600000*%
%ADD16C,1.600000*%
%ADD17O,1.800000X1.800000*%
%ADD18O,1.500000X1.500000*%
G04 APERTURE END LIST*
D10*
%TO.C,J2-Prox0*%
X115360000Y-89500000D03*
X112820000Y-89500000D03*
X110280000Y-89500000D03*
X107740000Y-89500000D03*
X105200000Y-89500000D03*
X102660000Y-89500000D03*
%TD*%
%TO.C,J1-Prox1*%
X137120000Y-89500000D03*
X134580000Y-89500000D03*
X132040000Y-89500000D03*
X129500000Y-89500000D03*
X126960000Y-89500000D03*
X124420000Y-89500000D03*
%TD*%
D11*
%TO.C,U2-Motor-Control1*%
X132380000Y-107880000D03*
X132380000Y-110420000D03*
X132380000Y-112960000D03*
X132380000Y-115500000D03*
X132380000Y-118040000D03*
X132380000Y-120580000D03*
X147620000Y-120580000D03*
X147620000Y-118040000D03*
X147620000Y-115500000D03*
X147620000Y-112960000D03*
X147620000Y-110420000D03*
X147620000Y-107880000D03*
%TD*%
D12*
%TO.C,EXT1*%
X144960000Y-83260000D03*
D13*
X147500000Y-83260000D03*
X144960000Y-85800000D03*
X147500000Y-85800000D03*
X144960000Y-88340000D03*
X147500000Y-88340000D03*
X144960000Y-90880000D03*
X147500000Y-90880000D03*
X144960000Y-93420000D03*
X147500000Y-93420000D03*
X144960000Y-95960000D03*
X147500000Y-95960000D03*
X144960000Y-98500000D03*
X147500000Y-98500000D03*
%TD*%
D14*
%TO.C,REF\u002A\u002A*%
X139500000Y-119500000D03*
%TD*%
D15*
%TO.C,C1*%
X93500000Y-106000000D03*
D16*
X93500000Y-108500000D03*
%TD*%
D12*
%TO.C,J8-Pot1*%
X106500000Y-111000000D03*
D13*
X109040000Y-111000000D03*
X111580000Y-111000000D03*
%TD*%
D12*
%TO.C,J5-Servo1*%
X120500000Y-106021000D03*
D13*
X120500000Y-108561000D03*
X120500000Y-111101000D03*
%TD*%
D12*
%TO.C,J6-ECS1*%
X116170000Y-106019000D03*
D13*
X116170000Y-108559000D03*
X116170000Y-111099000D03*
%TD*%
D14*
%TO.C,REF\u002A\u002A*%
X93500000Y-115500000D03*
%TD*%
D12*
%TO.C,J4*%
X125000000Y-108500000D03*
D13*
X125000000Y-111040000D03*
%TD*%
D12*
%TO.C,J7-Pot2*%
X97475000Y-110975000D03*
D13*
X100015000Y-110975000D03*
X102555000Y-110975000D03*
%TD*%
D12*
%TO.C,J3-Motor1*%
X144460000Y-103500000D03*
D13*
X147000000Y-103500000D03*
%TD*%
D17*
%TO.C,U1-RPI-Pico1*%
X92500000Y-95225000D03*
D18*
X95530000Y-94925000D03*
X95530000Y-90075000D03*
D17*
X92500000Y-89775000D03*
D13*
X92370000Y-101390000D03*
X94910000Y-101390000D03*
D12*
X97450000Y-101390000D03*
D13*
X99990000Y-101390000D03*
X102530000Y-101390000D03*
X105070000Y-101390000D03*
X107610000Y-101390000D03*
D12*
X110150000Y-101390000D03*
D13*
X112690000Y-101390000D03*
X115230000Y-101390000D03*
X117770000Y-101390000D03*
X120310000Y-101390000D03*
D12*
X122850000Y-101390000D03*
D13*
X125390000Y-101390000D03*
X127930000Y-101390000D03*
X130470000Y-101390000D03*
X133010000Y-101390000D03*
D12*
X135550000Y-101390000D03*
D13*
X138090000Y-101390000D03*
X140630000Y-101390000D03*
X140630000Y-83610000D03*
X138090000Y-83610000D03*
D12*
X135550000Y-83610000D03*
D13*
X133010000Y-83610000D03*
X130470000Y-83610000D03*
X127930000Y-83610000D03*
X125390000Y-83610000D03*
D12*
X122850000Y-83610000D03*
D13*
X120310000Y-83610000D03*
X117770000Y-83610000D03*
X115230000Y-83610000D03*
X112690000Y-83610000D03*
D12*
X110150000Y-83610000D03*
D13*
X107610000Y-83610000D03*
X105070000Y-83610000D03*
X102530000Y-83610000D03*
X99990000Y-83610000D03*
D12*
X97450000Y-83610000D03*
D13*
X94910000Y-83610000D03*
X92370000Y-83610000D03*
X140400000Y-95040000D03*
D12*
X140400000Y-92500000D03*
D13*
X140400000Y-89960000D03*
%TD*%
M02*
