%TF.GenerationSoftware,KiCad,Pcbnew,7.0.1*%
%TF.CreationDate,2023-08-24T13:32:00+02:00*%
%TF.ProjectId,gemma20Pico,67656d6d-6132-4305-9069-636f2e6b6963,1.3*%
%TF.SameCoordinates,Original*%
%TF.FileFunction,Legend,Bot*%
%TF.FilePolarity,Positive*%
%FSLAX46Y46*%
G04 Gerber Fmt 4.6, Leading zero omitted, Abs format (unit mm)*
G04 Created by KiCad (PCBNEW 7.0.1) date 2023-08-24 13:32:00*
%MOMM*%
%LPD*%
G01*
G04 APERTURE LIST*
%ADD10C,0.150000*%
%ADD11C,0.100000*%
G04 APERTURE END LIST*
D10*
X143038095Y-87795238D02*
X143133333Y-87747619D01*
X143133333Y-87747619D02*
X143276190Y-87747619D01*
X143276190Y-87747619D02*
X143419047Y-87795238D01*
X143419047Y-87795238D02*
X143514285Y-87890476D01*
X143514285Y-87890476D02*
X143561904Y-87985714D01*
X143561904Y-87985714D02*
X143609523Y-88176190D01*
X143609523Y-88176190D02*
X143609523Y-88319047D01*
X143609523Y-88319047D02*
X143561904Y-88509523D01*
X143561904Y-88509523D02*
X143514285Y-88604761D01*
X143514285Y-88604761D02*
X143419047Y-88700000D01*
X143419047Y-88700000D02*
X143276190Y-88747619D01*
X143276190Y-88747619D02*
X143180952Y-88747619D01*
X143180952Y-88747619D02*
X143038095Y-88700000D01*
X143038095Y-88700000D02*
X142990476Y-88652380D01*
X142990476Y-88652380D02*
X142990476Y-88319047D01*
X142990476Y-88319047D02*
X143180952Y-88319047D01*
X142561904Y-88747619D02*
X142561904Y-87747619D01*
X142561904Y-87747619D02*
X142180952Y-87747619D01*
X142180952Y-87747619D02*
X142085714Y-87795238D01*
X142085714Y-87795238D02*
X142038095Y-87842857D01*
X142038095Y-87842857D02*
X141990476Y-87938095D01*
X141990476Y-87938095D02*
X141990476Y-88080952D01*
X141990476Y-88080952D02*
X142038095Y-88176190D01*
X142038095Y-88176190D02*
X142085714Y-88223809D01*
X142085714Y-88223809D02*
X142180952Y-88271428D01*
X142180952Y-88271428D02*
X142561904Y-88271428D01*
X141038095Y-88747619D02*
X141609523Y-88747619D01*
X141323809Y-88747619D02*
X141323809Y-87747619D01*
X141323809Y-87747619D02*
X141419047Y-87890476D01*
X141419047Y-87890476D02*
X141514285Y-87985714D01*
X141514285Y-87985714D02*
X141609523Y-88033333D01*
X140466666Y-88176190D02*
X140561904Y-88128571D01*
X140561904Y-88128571D02*
X140609523Y-88080952D01*
X140609523Y-88080952D02*
X140657142Y-87985714D01*
X140657142Y-87985714D02*
X140657142Y-87938095D01*
X140657142Y-87938095D02*
X140609523Y-87842857D01*
X140609523Y-87842857D02*
X140561904Y-87795238D01*
X140561904Y-87795238D02*
X140466666Y-87747619D01*
X140466666Y-87747619D02*
X140276190Y-87747619D01*
X140276190Y-87747619D02*
X140180952Y-87795238D01*
X140180952Y-87795238D02*
X140133333Y-87842857D01*
X140133333Y-87842857D02*
X140085714Y-87938095D01*
X140085714Y-87938095D02*
X140085714Y-87985714D01*
X140085714Y-87985714D02*
X140133333Y-88080952D01*
X140133333Y-88080952D02*
X140180952Y-88128571D01*
X140180952Y-88128571D02*
X140276190Y-88176190D01*
X140276190Y-88176190D02*
X140466666Y-88176190D01*
X140466666Y-88176190D02*
X140561904Y-88223809D01*
X140561904Y-88223809D02*
X140609523Y-88271428D01*
X140609523Y-88271428D02*
X140657142Y-88366666D01*
X140657142Y-88366666D02*
X140657142Y-88557142D01*
X140657142Y-88557142D02*
X140609523Y-88652380D01*
X140609523Y-88652380D02*
X140561904Y-88700000D01*
X140561904Y-88700000D02*
X140466666Y-88747619D01*
X140466666Y-88747619D02*
X140276190Y-88747619D01*
X140276190Y-88747619D02*
X140180952Y-88700000D01*
X140180952Y-88700000D02*
X140133333Y-88652380D01*
X140133333Y-88652380D02*
X140085714Y-88557142D01*
X140085714Y-88557142D02*
X140085714Y-88366666D01*
X140085714Y-88366666D02*
X140133333Y-88271428D01*
X140133333Y-88271428D02*
X140180952Y-88223809D01*
X140180952Y-88223809D02*
X140276190Y-88176190D01*
X144761904Y-114257619D02*
X144761904Y-113257619D01*
X144761904Y-113257619D02*
X144380952Y-113257619D01*
X144380952Y-113257619D02*
X144285714Y-113305238D01*
X144285714Y-113305238D02*
X144238095Y-113352857D01*
X144238095Y-113352857D02*
X144190476Y-113448095D01*
X144190476Y-113448095D02*
X144190476Y-113590952D01*
X144190476Y-113590952D02*
X144238095Y-113686190D01*
X144238095Y-113686190D02*
X144285714Y-113733809D01*
X144285714Y-113733809D02*
X144380952Y-113781428D01*
X144380952Y-113781428D02*
X144761904Y-113781428D01*
X143761904Y-114257619D02*
X143761904Y-113590952D01*
X143761904Y-113257619D02*
X143809523Y-113305238D01*
X143809523Y-113305238D02*
X143761904Y-113352857D01*
X143761904Y-113352857D02*
X143714285Y-113305238D01*
X143714285Y-113305238D02*
X143761904Y-113257619D01*
X143761904Y-113257619D02*
X143761904Y-113352857D01*
X142857143Y-114210000D02*
X142952381Y-114257619D01*
X142952381Y-114257619D02*
X143142857Y-114257619D01*
X143142857Y-114257619D02*
X143238095Y-114210000D01*
X143238095Y-114210000D02*
X143285714Y-114162380D01*
X143285714Y-114162380D02*
X143333333Y-114067142D01*
X143333333Y-114067142D02*
X143333333Y-113781428D01*
X143333333Y-113781428D02*
X143285714Y-113686190D01*
X143285714Y-113686190D02*
X143238095Y-113638571D01*
X143238095Y-113638571D02*
X143142857Y-113590952D01*
X143142857Y-113590952D02*
X142952381Y-113590952D01*
X142952381Y-113590952D02*
X142857143Y-113638571D01*
X142285714Y-114257619D02*
X142380952Y-114210000D01*
X142380952Y-114210000D02*
X142428571Y-114162380D01*
X142428571Y-114162380D02*
X142476190Y-114067142D01*
X142476190Y-114067142D02*
X142476190Y-113781428D01*
X142476190Y-113781428D02*
X142428571Y-113686190D01*
X142428571Y-113686190D02*
X142380952Y-113638571D01*
X142380952Y-113638571D02*
X142285714Y-113590952D01*
X142285714Y-113590952D02*
X142142857Y-113590952D01*
X142142857Y-113590952D02*
X142047619Y-113638571D01*
X142047619Y-113638571D02*
X142000000Y-113686190D01*
X142000000Y-113686190D02*
X141952381Y-113781428D01*
X141952381Y-113781428D02*
X141952381Y-114067142D01*
X141952381Y-114067142D02*
X142000000Y-114162380D01*
X142000000Y-114162380D02*
X142047619Y-114210000D01*
X142047619Y-114210000D02*
X142142857Y-114257619D01*
X142142857Y-114257619D02*
X142285714Y-114257619D01*
X140952381Y-114257619D02*
X141285714Y-113781428D01*
X141523809Y-114257619D02*
X141523809Y-113257619D01*
X141523809Y-113257619D02*
X141142857Y-113257619D01*
X141142857Y-113257619D02*
X141047619Y-113305238D01*
X141047619Y-113305238D02*
X141000000Y-113352857D01*
X141000000Y-113352857D02*
X140952381Y-113448095D01*
X140952381Y-113448095D02*
X140952381Y-113590952D01*
X140952381Y-113590952D02*
X141000000Y-113686190D01*
X141000000Y-113686190D02*
X141047619Y-113733809D01*
X141047619Y-113733809D02*
X141142857Y-113781428D01*
X141142857Y-113781428D02*
X141523809Y-113781428D01*
X139952381Y-114162380D02*
X140000000Y-114210000D01*
X140000000Y-114210000D02*
X140142857Y-114257619D01*
X140142857Y-114257619D02*
X140238095Y-114257619D01*
X140238095Y-114257619D02*
X140380952Y-114210000D01*
X140380952Y-114210000D02*
X140476190Y-114114761D01*
X140476190Y-114114761D02*
X140523809Y-114019523D01*
X140523809Y-114019523D02*
X140571428Y-113829047D01*
X140571428Y-113829047D02*
X140571428Y-113686190D01*
X140571428Y-113686190D02*
X140523809Y-113495714D01*
X140523809Y-113495714D02*
X140476190Y-113400476D01*
X140476190Y-113400476D02*
X140380952Y-113305238D01*
X140380952Y-113305238D02*
X140238095Y-113257619D01*
X140238095Y-113257619D02*
X140142857Y-113257619D01*
X140142857Y-113257619D02*
X140000000Y-113305238D01*
X140000000Y-113305238D02*
X139952381Y-113352857D01*
X138238095Y-114257619D02*
X138809523Y-114257619D01*
X138523809Y-114257619D02*
X138523809Y-113257619D01*
X138523809Y-113257619D02*
X138619047Y-113400476D01*
X138619047Y-113400476D02*
X138714285Y-113495714D01*
X138714285Y-113495714D02*
X138809523Y-113543333D01*
X137809523Y-114162380D02*
X137761904Y-114210000D01*
X137761904Y-114210000D02*
X137809523Y-114257619D01*
X137809523Y-114257619D02*
X137857142Y-114210000D01*
X137857142Y-114210000D02*
X137809523Y-114162380D01*
X137809523Y-114162380D02*
X137809523Y-114257619D01*
X137428571Y-113257619D02*
X136809524Y-113257619D01*
X136809524Y-113257619D02*
X137142857Y-113638571D01*
X137142857Y-113638571D02*
X137000000Y-113638571D01*
X137000000Y-113638571D02*
X136904762Y-113686190D01*
X136904762Y-113686190D02*
X136857143Y-113733809D01*
X136857143Y-113733809D02*
X136809524Y-113829047D01*
X136809524Y-113829047D02*
X136809524Y-114067142D01*
X136809524Y-114067142D02*
X136857143Y-114162380D01*
X136857143Y-114162380D02*
X136904762Y-114210000D01*
X136904762Y-114210000D02*
X137000000Y-114257619D01*
X137000000Y-114257619D02*
X137285714Y-114257619D01*
X137285714Y-114257619D02*
X137380952Y-114210000D01*
X137380952Y-114210000D02*
X137428571Y-114162380D01*
X144761904Y-114877619D02*
X144761904Y-115687142D01*
X144761904Y-115687142D02*
X144714285Y-115782380D01*
X144714285Y-115782380D02*
X144666666Y-115830000D01*
X144666666Y-115830000D02*
X144571428Y-115877619D01*
X144571428Y-115877619D02*
X144380952Y-115877619D01*
X144380952Y-115877619D02*
X144285714Y-115830000D01*
X144285714Y-115830000D02*
X144238095Y-115782380D01*
X144238095Y-115782380D02*
X144190476Y-115687142D01*
X144190476Y-115687142D02*
X144190476Y-114877619D01*
X143761904Y-115830000D02*
X143619047Y-115877619D01*
X143619047Y-115877619D02*
X143380952Y-115877619D01*
X143380952Y-115877619D02*
X143285714Y-115830000D01*
X143285714Y-115830000D02*
X143238095Y-115782380D01*
X143238095Y-115782380D02*
X143190476Y-115687142D01*
X143190476Y-115687142D02*
X143190476Y-115591904D01*
X143190476Y-115591904D02*
X143238095Y-115496666D01*
X143238095Y-115496666D02*
X143285714Y-115449047D01*
X143285714Y-115449047D02*
X143380952Y-115401428D01*
X143380952Y-115401428D02*
X143571428Y-115353809D01*
X143571428Y-115353809D02*
X143666666Y-115306190D01*
X143666666Y-115306190D02*
X143714285Y-115258571D01*
X143714285Y-115258571D02*
X143761904Y-115163333D01*
X143761904Y-115163333D02*
X143761904Y-115068095D01*
X143761904Y-115068095D02*
X143714285Y-114972857D01*
X143714285Y-114972857D02*
X143666666Y-114925238D01*
X143666666Y-114925238D02*
X143571428Y-114877619D01*
X143571428Y-114877619D02*
X143333333Y-114877619D01*
X143333333Y-114877619D02*
X143190476Y-114925238D01*
X142761904Y-115877619D02*
X142761904Y-114877619D01*
X142761904Y-114877619D02*
X142190476Y-115877619D01*
X142190476Y-115877619D02*
X142190476Y-114877619D01*
X140999999Y-114972857D02*
X140952380Y-114925238D01*
X140952380Y-114925238D02*
X140857142Y-114877619D01*
X140857142Y-114877619D02*
X140619047Y-114877619D01*
X140619047Y-114877619D02*
X140523809Y-114925238D01*
X140523809Y-114925238D02*
X140476190Y-114972857D01*
X140476190Y-114972857D02*
X140428571Y-115068095D01*
X140428571Y-115068095D02*
X140428571Y-115163333D01*
X140428571Y-115163333D02*
X140476190Y-115306190D01*
X140476190Y-115306190D02*
X141047618Y-115877619D01*
X141047618Y-115877619D02*
X140428571Y-115877619D01*
X139809523Y-114877619D02*
X139714285Y-114877619D01*
X139714285Y-114877619D02*
X139619047Y-114925238D01*
X139619047Y-114925238D02*
X139571428Y-114972857D01*
X139571428Y-114972857D02*
X139523809Y-115068095D01*
X139523809Y-115068095D02*
X139476190Y-115258571D01*
X139476190Y-115258571D02*
X139476190Y-115496666D01*
X139476190Y-115496666D02*
X139523809Y-115687142D01*
X139523809Y-115687142D02*
X139571428Y-115782380D01*
X139571428Y-115782380D02*
X139619047Y-115830000D01*
X139619047Y-115830000D02*
X139714285Y-115877619D01*
X139714285Y-115877619D02*
X139809523Y-115877619D01*
X139809523Y-115877619D02*
X139904761Y-115830000D01*
X139904761Y-115830000D02*
X139952380Y-115782380D01*
X139952380Y-115782380D02*
X139999999Y-115687142D01*
X139999999Y-115687142D02*
X140047618Y-115496666D01*
X140047618Y-115496666D02*
X140047618Y-115258571D01*
X140047618Y-115258571D02*
X139999999Y-115068095D01*
X139999999Y-115068095D02*
X139952380Y-114972857D01*
X139952380Y-114972857D02*
X139904761Y-114925238D01*
X139904761Y-114925238D02*
X139809523Y-114877619D01*
X139095237Y-114972857D02*
X139047618Y-114925238D01*
X139047618Y-114925238D02*
X138952380Y-114877619D01*
X138952380Y-114877619D02*
X138714285Y-114877619D01*
X138714285Y-114877619D02*
X138619047Y-114925238D01*
X138619047Y-114925238D02*
X138571428Y-114972857D01*
X138571428Y-114972857D02*
X138523809Y-115068095D01*
X138523809Y-115068095D02*
X138523809Y-115163333D01*
X138523809Y-115163333D02*
X138571428Y-115306190D01*
X138571428Y-115306190D02*
X139142856Y-115877619D01*
X139142856Y-115877619D02*
X138523809Y-115877619D01*
X138190475Y-114877619D02*
X137571428Y-114877619D01*
X137571428Y-114877619D02*
X137904761Y-115258571D01*
X137904761Y-115258571D02*
X137761904Y-115258571D01*
X137761904Y-115258571D02*
X137666666Y-115306190D01*
X137666666Y-115306190D02*
X137619047Y-115353809D01*
X137619047Y-115353809D02*
X137571428Y-115449047D01*
X137571428Y-115449047D02*
X137571428Y-115687142D01*
X137571428Y-115687142D02*
X137619047Y-115782380D01*
X137619047Y-115782380D02*
X137666666Y-115830000D01*
X137666666Y-115830000D02*
X137761904Y-115877619D01*
X137761904Y-115877619D02*
X138047618Y-115877619D01*
X138047618Y-115877619D02*
X138142856Y-115830000D01*
X138142856Y-115830000D02*
X138190475Y-115782380D01*
X142988095Y-96315238D02*
X143083333Y-96267619D01*
X143083333Y-96267619D02*
X143226190Y-96267619D01*
X143226190Y-96267619D02*
X143369047Y-96315238D01*
X143369047Y-96315238D02*
X143464285Y-96410476D01*
X143464285Y-96410476D02*
X143511904Y-96505714D01*
X143511904Y-96505714D02*
X143559523Y-96696190D01*
X143559523Y-96696190D02*
X143559523Y-96839047D01*
X143559523Y-96839047D02*
X143511904Y-97029523D01*
X143511904Y-97029523D02*
X143464285Y-97124761D01*
X143464285Y-97124761D02*
X143369047Y-97220000D01*
X143369047Y-97220000D02*
X143226190Y-97267619D01*
X143226190Y-97267619D02*
X143130952Y-97267619D01*
X143130952Y-97267619D02*
X142988095Y-97220000D01*
X142988095Y-97220000D02*
X142940476Y-97172380D01*
X142940476Y-97172380D02*
X142940476Y-96839047D01*
X142940476Y-96839047D02*
X143130952Y-96839047D01*
X142511904Y-97267619D02*
X142511904Y-96267619D01*
X142511904Y-96267619D02*
X142130952Y-96267619D01*
X142130952Y-96267619D02*
X142035714Y-96315238D01*
X142035714Y-96315238D02*
X141988095Y-96362857D01*
X141988095Y-96362857D02*
X141940476Y-96458095D01*
X141940476Y-96458095D02*
X141940476Y-96600952D01*
X141940476Y-96600952D02*
X141988095Y-96696190D01*
X141988095Y-96696190D02*
X142035714Y-96743809D01*
X142035714Y-96743809D02*
X142130952Y-96791428D01*
X142130952Y-96791428D02*
X142511904Y-96791428D01*
X141559523Y-96362857D02*
X141511904Y-96315238D01*
X141511904Y-96315238D02*
X141416666Y-96267619D01*
X141416666Y-96267619D02*
X141178571Y-96267619D01*
X141178571Y-96267619D02*
X141083333Y-96315238D01*
X141083333Y-96315238D02*
X141035714Y-96362857D01*
X141035714Y-96362857D02*
X140988095Y-96458095D01*
X140988095Y-96458095D02*
X140988095Y-96553333D01*
X140988095Y-96553333D02*
X141035714Y-96696190D01*
X141035714Y-96696190D02*
X141607142Y-97267619D01*
X141607142Y-97267619D02*
X140988095Y-97267619D01*
X140035714Y-97267619D02*
X140607142Y-97267619D01*
X140321428Y-97267619D02*
X140321428Y-96267619D01*
X140321428Y-96267619D02*
X140416666Y-96410476D01*
X140416666Y-96410476D02*
X140511904Y-96505714D01*
X140511904Y-96505714D02*
X140607142Y-96553333D01*
X143499523Y-93052857D02*
X143451904Y-93005238D01*
X143451904Y-93005238D02*
X143356666Y-92957619D01*
X143356666Y-92957619D02*
X143118571Y-92957619D01*
X143118571Y-92957619D02*
X143023333Y-93005238D01*
X143023333Y-93005238D02*
X142975714Y-93052857D01*
X142975714Y-93052857D02*
X142928095Y-93148095D01*
X142928095Y-93148095D02*
X142928095Y-93243333D01*
X142928095Y-93243333D02*
X142975714Y-93386190D01*
X142975714Y-93386190D02*
X143547142Y-93957619D01*
X143547142Y-93957619D02*
X142928095Y-93957619D01*
X142309047Y-92957619D02*
X142213809Y-92957619D01*
X142213809Y-92957619D02*
X142118571Y-93005238D01*
X142118571Y-93005238D02*
X142070952Y-93052857D01*
X142070952Y-93052857D02*
X142023333Y-93148095D01*
X142023333Y-93148095D02*
X141975714Y-93338571D01*
X141975714Y-93338571D02*
X141975714Y-93576666D01*
X141975714Y-93576666D02*
X142023333Y-93767142D01*
X142023333Y-93767142D02*
X142070952Y-93862380D01*
X142070952Y-93862380D02*
X142118571Y-93910000D01*
X142118571Y-93910000D02*
X142213809Y-93957619D01*
X142213809Y-93957619D02*
X142309047Y-93957619D01*
X142309047Y-93957619D02*
X142404285Y-93910000D01*
X142404285Y-93910000D02*
X142451904Y-93862380D01*
X142451904Y-93862380D02*
X142499523Y-93767142D01*
X142499523Y-93767142D02*
X142547142Y-93576666D01*
X142547142Y-93576666D02*
X142547142Y-93338571D01*
X142547142Y-93338571D02*
X142499523Y-93148095D01*
X142499523Y-93148095D02*
X142451904Y-93052857D01*
X142451904Y-93052857D02*
X142404285Y-93005238D01*
X142404285Y-93005238D02*
X142309047Y-92957619D01*
X143018095Y-91377619D02*
X143589523Y-91377619D01*
X143303809Y-91377619D02*
X143303809Y-90377619D01*
X143303809Y-90377619D02*
X143399047Y-90520476D01*
X143399047Y-90520476D02*
X143494285Y-90615714D01*
X143494285Y-90615714D02*
X143589523Y-90663333D01*
X142541904Y-91377619D02*
X142351428Y-91377619D01*
X142351428Y-91377619D02*
X142256190Y-91330000D01*
X142256190Y-91330000D02*
X142208571Y-91282380D01*
X142208571Y-91282380D02*
X142113333Y-91139523D01*
X142113333Y-91139523D02*
X142065714Y-90949047D01*
X142065714Y-90949047D02*
X142065714Y-90568095D01*
X142065714Y-90568095D02*
X142113333Y-90472857D01*
X142113333Y-90472857D02*
X142160952Y-90425238D01*
X142160952Y-90425238D02*
X142256190Y-90377619D01*
X142256190Y-90377619D02*
X142446666Y-90377619D01*
X142446666Y-90377619D02*
X142541904Y-90425238D01*
X142541904Y-90425238D02*
X142589523Y-90472857D01*
X142589523Y-90472857D02*
X142637142Y-90568095D01*
X142637142Y-90568095D02*
X142637142Y-90806190D01*
X142637142Y-90806190D02*
X142589523Y-90901428D01*
X142589523Y-90901428D02*
X142541904Y-90949047D01*
X142541904Y-90949047D02*
X142446666Y-90996666D01*
X142446666Y-90996666D02*
X142256190Y-90996666D01*
X142256190Y-90996666D02*
X142160952Y-90949047D01*
X142160952Y-90949047D02*
X142113333Y-90901428D01*
X142113333Y-90901428D02*
X142065714Y-90806190D01*
X142888095Y-83777619D02*
X143459523Y-83777619D01*
X143173809Y-83777619D02*
X143173809Y-82777619D01*
X143173809Y-82777619D02*
X143269047Y-82920476D01*
X143269047Y-82920476D02*
X143364285Y-83015714D01*
X143364285Y-83015714D02*
X143459523Y-83063333D01*
X142030952Y-82777619D02*
X142221428Y-82777619D01*
X142221428Y-82777619D02*
X142316666Y-82825238D01*
X142316666Y-82825238D02*
X142364285Y-82872857D01*
X142364285Y-82872857D02*
X142459523Y-83015714D01*
X142459523Y-83015714D02*
X142507142Y-83206190D01*
X142507142Y-83206190D02*
X142507142Y-83587142D01*
X142507142Y-83587142D02*
X142459523Y-83682380D01*
X142459523Y-83682380D02*
X142411904Y-83730000D01*
X142411904Y-83730000D02*
X142316666Y-83777619D01*
X142316666Y-83777619D02*
X142126190Y-83777619D01*
X142126190Y-83777619D02*
X142030952Y-83730000D01*
X142030952Y-83730000D02*
X141983333Y-83682380D01*
X141983333Y-83682380D02*
X141935714Y-83587142D01*
X141935714Y-83587142D02*
X141935714Y-83349047D01*
X141935714Y-83349047D02*
X141983333Y-83253809D01*
X141983333Y-83253809D02*
X142030952Y-83206190D01*
X142030952Y-83206190D02*
X142126190Y-83158571D01*
X142126190Y-83158571D02*
X142316666Y-83158571D01*
X142316666Y-83158571D02*
X142411904Y-83206190D01*
X142411904Y-83206190D02*
X142459523Y-83253809D01*
X142459523Y-83253809D02*
X142507142Y-83349047D01*
X142988095Y-85215238D02*
X143083333Y-85167619D01*
X143083333Y-85167619D02*
X143226190Y-85167619D01*
X143226190Y-85167619D02*
X143369047Y-85215238D01*
X143369047Y-85215238D02*
X143464285Y-85310476D01*
X143464285Y-85310476D02*
X143511904Y-85405714D01*
X143511904Y-85405714D02*
X143559523Y-85596190D01*
X143559523Y-85596190D02*
X143559523Y-85739047D01*
X143559523Y-85739047D02*
X143511904Y-85929523D01*
X143511904Y-85929523D02*
X143464285Y-86024761D01*
X143464285Y-86024761D02*
X143369047Y-86120000D01*
X143369047Y-86120000D02*
X143226190Y-86167619D01*
X143226190Y-86167619D02*
X143130952Y-86167619D01*
X143130952Y-86167619D02*
X142988095Y-86120000D01*
X142988095Y-86120000D02*
X142940476Y-86072380D01*
X142940476Y-86072380D02*
X142940476Y-85739047D01*
X142940476Y-85739047D02*
X143130952Y-85739047D01*
X142511904Y-86167619D02*
X142511904Y-85167619D01*
X142511904Y-85167619D02*
X142130952Y-85167619D01*
X142130952Y-85167619D02*
X142035714Y-85215238D01*
X142035714Y-85215238D02*
X141988095Y-85262857D01*
X141988095Y-85262857D02*
X141940476Y-85358095D01*
X141940476Y-85358095D02*
X141940476Y-85500952D01*
X141940476Y-85500952D02*
X141988095Y-85596190D01*
X141988095Y-85596190D02*
X142035714Y-85643809D01*
X142035714Y-85643809D02*
X142130952Y-85691428D01*
X142130952Y-85691428D02*
X142511904Y-85691428D01*
X140988095Y-86167619D02*
X141559523Y-86167619D01*
X141273809Y-86167619D02*
X141273809Y-85167619D01*
X141273809Y-85167619D02*
X141369047Y-85310476D01*
X141369047Y-85310476D02*
X141464285Y-85405714D01*
X141464285Y-85405714D02*
X141559523Y-85453333D01*
X140654761Y-85167619D02*
X139988095Y-85167619D01*
X139988095Y-85167619D02*
X140416666Y-86167619D01*
X143028095Y-98385238D02*
X143123333Y-98337619D01*
X143123333Y-98337619D02*
X143266190Y-98337619D01*
X143266190Y-98337619D02*
X143409047Y-98385238D01*
X143409047Y-98385238D02*
X143504285Y-98480476D01*
X143504285Y-98480476D02*
X143551904Y-98575714D01*
X143551904Y-98575714D02*
X143599523Y-98766190D01*
X143599523Y-98766190D02*
X143599523Y-98909047D01*
X143599523Y-98909047D02*
X143551904Y-99099523D01*
X143551904Y-99099523D02*
X143504285Y-99194761D01*
X143504285Y-99194761D02*
X143409047Y-99290000D01*
X143409047Y-99290000D02*
X143266190Y-99337619D01*
X143266190Y-99337619D02*
X143170952Y-99337619D01*
X143170952Y-99337619D02*
X143028095Y-99290000D01*
X143028095Y-99290000D02*
X142980476Y-99242380D01*
X142980476Y-99242380D02*
X142980476Y-98909047D01*
X142980476Y-98909047D02*
X143170952Y-98909047D01*
X142551904Y-99337619D02*
X142551904Y-98337619D01*
X142551904Y-98337619D02*
X142170952Y-98337619D01*
X142170952Y-98337619D02*
X142075714Y-98385238D01*
X142075714Y-98385238D02*
X142028095Y-98432857D01*
X142028095Y-98432857D02*
X141980476Y-98528095D01*
X141980476Y-98528095D02*
X141980476Y-98670952D01*
X141980476Y-98670952D02*
X142028095Y-98766190D01*
X142028095Y-98766190D02*
X142075714Y-98813809D01*
X142075714Y-98813809D02*
X142170952Y-98861428D01*
X142170952Y-98861428D02*
X142551904Y-98861428D01*
X141599523Y-98432857D02*
X141551904Y-98385238D01*
X141551904Y-98385238D02*
X141456666Y-98337619D01*
X141456666Y-98337619D02*
X141218571Y-98337619D01*
X141218571Y-98337619D02*
X141123333Y-98385238D01*
X141123333Y-98385238D02*
X141075714Y-98432857D01*
X141075714Y-98432857D02*
X141028095Y-98528095D01*
X141028095Y-98528095D02*
X141028095Y-98623333D01*
X141028095Y-98623333D02*
X141075714Y-98766190D01*
X141075714Y-98766190D02*
X141647142Y-99337619D01*
X141647142Y-99337619D02*
X141028095Y-99337619D01*
X140647142Y-98432857D02*
X140599523Y-98385238D01*
X140599523Y-98385238D02*
X140504285Y-98337619D01*
X140504285Y-98337619D02*
X140266190Y-98337619D01*
X140266190Y-98337619D02*
X140170952Y-98385238D01*
X140170952Y-98385238D02*
X140123333Y-98432857D01*
X140123333Y-98432857D02*
X140075714Y-98528095D01*
X140075714Y-98528095D02*
X140075714Y-98623333D01*
X140075714Y-98623333D02*
X140123333Y-98766190D01*
X140123333Y-98766190D02*
X140694761Y-99337619D01*
X140694761Y-99337619D02*
X140075714Y-99337619D01*
X148238095Y-99925238D02*
X148333333Y-99877619D01*
X148333333Y-99877619D02*
X148476190Y-99877619D01*
X148476190Y-99877619D02*
X148619047Y-99925238D01*
X148619047Y-99925238D02*
X148714285Y-100020476D01*
X148714285Y-100020476D02*
X148761904Y-100115714D01*
X148761904Y-100115714D02*
X148809523Y-100306190D01*
X148809523Y-100306190D02*
X148809523Y-100449047D01*
X148809523Y-100449047D02*
X148761904Y-100639523D01*
X148761904Y-100639523D02*
X148714285Y-100734761D01*
X148714285Y-100734761D02*
X148619047Y-100830000D01*
X148619047Y-100830000D02*
X148476190Y-100877619D01*
X148476190Y-100877619D02*
X148380952Y-100877619D01*
X148380952Y-100877619D02*
X148238095Y-100830000D01*
X148238095Y-100830000D02*
X148190476Y-100782380D01*
X148190476Y-100782380D02*
X148190476Y-100449047D01*
X148190476Y-100449047D02*
X148380952Y-100449047D01*
X147761904Y-100877619D02*
X147761904Y-99877619D01*
X147761904Y-99877619D02*
X147190476Y-100877619D01*
X147190476Y-100877619D02*
X147190476Y-99877619D01*
X146714285Y-100877619D02*
X146714285Y-99877619D01*
X146714285Y-99877619D02*
X146476190Y-99877619D01*
X146476190Y-99877619D02*
X146333333Y-99925238D01*
X146333333Y-99925238D02*
X146238095Y-100020476D01*
X146238095Y-100020476D02*
X146190476Y-100115714D01*
X146190476Y-100115714D02*
X146142857Y-100306190D01*
X146142857Y-100306190D02*
X146142857Y-100449047D01*
X146142857Y-100449047D02*
X146190476Y-100639523D01*
X146190476Y-100639523D02*
X146238095Y-100734761D01*
X146238095Y-100734761D02*
X146333333Y-100830000D01*
X146333333Y-100830000D02*
X146476190Y-100877619D01*
X146476190Y-100877619D02*
X146714285Y-100877619D01*
%TO.C,J2-Prox0*%
X112105238Y-91462619D02*
X112105238Y-92176904D01*
X112105238Y-92176904D02*
X112152857Y-92319761D01*
X112152857Y-92319761D02*
X112248095Y-92415000D01*
X112248095Y-92415000D02*
X112390952Y-92462619D01*
X112390952Y-92462619D02*
X112486190Y-92462619D01*
X111676666Y-91557857D02*
X111629047Y-91510238D01*
X111629047Y-91510238D02*
X111533809Y-91462619D01*
X111533809Y-91462619D02*
X111295714Y-91462619D01*
X111295714Y-91462619D02*
X111200476Y-91510238D01*
X111200476Y-91510238D02*
X111152857Y-91557857D01*
X111152857Y-91557857D02*
X111105238Y-91653095D01*
X111105238Y-91653095D02*
X111105238Y-91748333D01*
X111105238Y-91748333D02*
X111152857Y-91891190D01*
X111152857Y-91891190D02*
X111724285Y-92462619D01*
X111724285Y-92462619D02*
X111105238Y-92462619D01*
X110676666Y-92081666D02*
X109914762Y-92081666D01*
X109438571Y-92462619D02*
X109438571Y-91462619D01*
X109438571Y-91462619D02*
X109057619Y-91462619D01*
X109057619Y-91462619D02*
X108962381Y-91510238D01*
X108962381Y-91510238D02*
X108914762Y-91557857D01*
X108914762Y-91557857D02*
X108867143Y-91653095D01*
X108867143Y-91653095D02*
X108867143Y-91795952D01*
X108867143Y-91795952D02*
X108914762Y-91891190D01*
X108914762Y-91891190D02*
X108962381Y-91938809D01*
X108962381Y-91938809D02*
X109057619Y-91986428D01*
X109057619Y-91986428D02*
X109438571Y-91986428D01*
X108438571Y-92462619D02*
X108438571Y-91795952D01*
X108438571Y-91986428D02*
X108390952Y-91891190D01*
X108390952Y-91891190D02*
X108343333Y-91843571D01*
X108343333Y-91843571D02*
X108248095Y-91795952D01*
X108248095Y-91795952D02*
X108152857Y-91795952D01*
X107676666Y-92462619D02*
X107771904Y-92415000D01*
X107771904Y-92415000D02*
X107819523Y-92367380D01*
X107819523Y-92367380D02*
X107867142Y-92272142D01*
X107867142Y-92272142D02*
X107867142Y-91986428D01*
X107867142Y-91986428D02*
X107819523Y-91891190D01*
X107819523Y-91891190D02*
X107771904Y-91843571D01*
X107771904Y-91843571D02*
X107676666Y-91795952D01*
X107676666Y-91795952D02*
X107533809Y-91795952D01*
X107533809Y-91795952D02*
X107438571Y-91843571D01*
X107438571Y-91843571D02*
X107390952Y-91891190D01*
X107390952Y-91891190D02*
X107343333Y-91986428D01*
X107343333Y-91986428D02*
X107343333Y-92272142D01*
X107343333Y-92272142D02*
X107390952Y-92367380D01*
X107390952Y-92367380D02*
X107438571Y-92415000D01*
X107438571Y-92415000D02*
X107533809Y-92462619D01*
X107533809Y-92462619D02*
X107676666Y-92462619D01*
X107009999Y-92462619D02*
X106486190Y-91795952D01*
X107009999Y-91795952D02*
X106486190Y-92462619D01*
X105914761Y-91462619D02*
X105819523Y-91462619D01*
X105819523Y-91462619D02*
X105724285Y-91510238D01*
X105724285Y-91510238D02*
X105676666Y-91557857D01*
X105676666Y-91557857D02*
X105629047Y-91653095D01*
X105629047Y-91653095D02*
X105581428Y-91843571D01*
X105581428Y-91843571D02*
X105581428Y-92081666D01*
X105581428Y-92081666D02*
X105629047Y-92272142D01*
X105629047Y-92272142D02*
X105676666Y-92367380D01*
X105676666Y-92367380D02*
X105724285Y-92415000D01*
X105724285Y-92415000D02*
X105819523Y-92462619D01*
X105819523Y-92462619D02*
X105914761Y-92462619D01*
X105914761Y-92462619D02*
X106009999Y-92415000D01*
X106009999Y-92415000D02*
X106057618Y-92367380D01*
X106057618Y-92367380D02*
X106105237Y-92272142D01*
X106105237Y-92272142D02*
X106152856Y-92081666D01*
X106152856Y-92081666D02*
X106152856Y-91843571D01*
X106152856Y-91843571D02*
X106105237Y-91653095D01*
X106105237Y-91653095D02*
X106057618Y-91557857D01*
X106057618Y-91557857D02*
X106009999Y-91510238D01*
X106009999Y-91510238D02*
X105914761Y-91462619D01*
%TO.C,J1-Prox1*%
X133865238Y-91462619D02*
X133865238Y-92176904D01*
X133865238Y-92176904D02*
X133912857Y-92319761D01*
X133912857Y-92319761D02*
X134008095Y-92415000D01*
X134008095Y-92415000D02*
X134150952Y-92462619D01*
X134150952Y-92462619D02*
X134246190Y-92462619D01*
X132865238Y-92462619D02*
X133436666Y-92462619D01*
X133150952Y-92462619D02*
X133150952Y-91462619D01*
X133150952Y-91462619D02*
X133246190Y-91605476D01*
X133246190Y-91605476D02*
X133341428Y-91700714D01*
X133341428Y-91700714D02*
X133436666Y-91748333D01*
X132436666Y-92081666D02*
X131674762Y-92081666D01*
X131198571Y-92462619D02*
X131198571Y-91462619D01*
X131198571Y-91462619D02*
X130817619Y-91462619D01*
X130817619Y-91462619D02*
X130722381Y-91510238D01*
X130722381Y-91510238D02*
X130674762Y-91557857D01*
X130674762Y-91557857D02*
X130627143Y-91653095D01*
X130627143Y-91653095D02*
X130627143Y-91795952D01*
X130627143Y-91795952D02*
X130674762Y-91891190D01*
X130674762Y-91891190D02*
X130722381Y-91938809D01*
X130722381Y-91938809D02*
X130817619Y-91986428D01*
X130817619Y-91986428D02*
X131198571Y-91986428D01*
X130198571Y-92462619D02*
X130198571Y-91795952D01*
X130198571Y-91986428D02*
X130150952Y-91891190D01*
X130150952Y-91891190D02*
X130103333Y-91843571D01*
X130103333Y-91843571D02*
X130008095Y-91795952D01*
X130008095Y-91795952D02*
X129912857Y-91795952D01*
X129436666Y-92462619D02*
X129531904Y-92415000D01*
X129531904Y-92415000D02*
X129579523Y-92367380D01*
X129579523Y-92367380D02*
X129627142Y-92272142D01*
X129627142Y-92272142D02*
X129627142Y-91986428D01*
X129627142Y-91986428D02*
X129579523Y-91891190D01*
X129579523Y-91891190D02*
X129531904Y-91843571D01*
X129531904Y-91843571D02*
X129436666Y-91795952D01*
X129436666Y-91795952D02*
X129293809Y-91795952D01*
X129293809Y-91795952D02*
X129198571Y-91843571D01*
X129198571Y-91843571D02*
X129150952Y-91891190D01*
X129150952Y-91891190D02*
X129103333Y-91986428D01*
X129103333Y-91986428D02*
X129103333Y-92272142D01*
X129103333Y-92272142D02*
X129150952Y-92367380D01*
X129150952Y-92367380D02*
X129198571Y-92415000D01*
X129198571Y-92415000D02*
X129293809Y-92462619D01*
X129293809Y-92462619D02*
X129436666Y-92462619D01*
X128769999Y-92462619D02*
X128246190Y-91795952D01*
X128769999Y-91795952D02*
X128246190Y-92462619D01*
X127341428Y-92462619D02*
X127912856Y-92462619D01*
X127627142Y-92462619D02*
X127627142Y-91462619D01*
X127627142Y-91462619D02*
X127722380Y-91605476D01*
X127722380Y-91605476D02*
X127817618Y-91700714D01*
X127817618Y-91700714D02*
X127912856Y-91748333D01*
D11*
%TO.C,J2-Prox0*%
X116740000Y-91230000D02*
X101240000Y-91160000D01*
X116760000Y-88000000D02*
X101260000Y-88000000D01*
X101260000Y-88000000D02*
X101260000Y-106000000D01*
X101260000Y-106000000D02*
X116760000Y-106000000D01*
X116760000Y-106000000D02*
X116760000Y-88000000D01*
X110260000Y-100500000D02*
X107760000Y-100500000D01*
X107760000Y-100500000D02*
X107760000Y-104500000D01*
X107760000Y-104500000D02*
X110260000Y-104500000D01*
X110260000Y-104500000D02*
X110260000Y-100500000D01*
%TO.C,J1-Prox1*%
X138500000Y-91230000D02*
X123000000Y-91160000D01*
X138520000Y-88000000D02*
X123020000Y-88000000D01*
X123020000Y-88000000D02*
X123020000Y-106000000D01*
X123020000Y-106000000D02*
X138520000Y-106000000D01*
X138520000Y-106000000D02*
X138520000Y-88000000D01*
X132020000Y-100500000D02*
X129520000Y-100500000D01*
X129520000Y-100500000D02*
X129520000Y-104500000D01*
X129520000Y-104500000D02*
X132020000Y-104500000D01*
X132020000Y-104500000D02*
X132020000Y-100500000D01*
%TD*%
M02*
